ISO-10303-21;
HEADER;
FILE_DESCRIPTION(('FreeCAD Model'),'2;1');
FILE_NAME('Open CASCADE Shape Model','2026-07-13T12:48:50',(''),(''),
  'Open CASCADE STEP processor 7.8','FreeCAD','Unknown');
FILE_SCHEMA(('AUTOMOTIVE_DESIGN { 1 0 10303 214 1 1 1 1 }'));
ENDSEC;
DATA;
#1 = APPLICATION_PROTOCOL_DEFINITION('international standard',
  'automotive_design',2000,#2);
#2 = APPLICATION_CONTEXT(
  'core data for automotive mechanical design processes');
#3 = SHAPE_DEFINITION_REPRESENTATION(#4,#10);
#4 = PRODUCT_DEFINITION_SHAPE('','',#5);
#5 = PRODUCT_DEFINITION('design','',#6,#9);
#6 = PRODUCT_DEFINITION_FORMATION('','',#7);
#7 = PRODUCT('NoLogo','NoLogo','',(#8));
#8 = PRODUCT_CONTEXT('',#2,'mechanical');
#9 = PRODUCT_DEFINITION_CONTEXT('part definition',#2,'design');
#10 = ADVANCED_BREP_SHAPE_REPRESENTATION('',(#11,#15),#1712);
#11 = AXIS2_PLACEMENT_3D('',#12,#13,#14);
#12 = CARTESIAN_POINT('',(0.,0.,0.));
#13 = DIRECTION('',(0.,0.,1.));
#14 = DIRECTION('',(1.,0.,-0.));
#15 = MANIFOLD_SOLID_BREP('',#16);
#16 = CLOSED_SHELL('',(#17,#144,#273,#399,#425,#547,#702,#721,#767,#798,
    #823,#848,#872,#896,#921,#946,#963,#1050,#1072,#1089,#1106,#1123,
    #1140,#1157,#1174,#1186,#1238,#1272,#1296,#1323,#1340,#1371,#1424,
    #1434,#1458,#1504,#1514,#1530,#1546,#1562,#1578,#1609,#1633,#1657,
    #1674,#1687,#1700));
#17 = ADVANCED_FACE('',(#18),#139,.F.);
#18 = FACE_BOUND('',#19,.T.);
#19 = EDGE_LOOP('',(#20,#30,#37,#38,#67,#76,#85,#94,#103,#112));
#20 = ORIENTED_EDGE('',*,*,#21,.F.);
#21 = EDGE_CURVE('',#22,#24,#26,.T.);
#22 = VERTEX_POINT('',#23);
#23 = CARTESIAN_POINT('',(21.6,10.,0.));
#24 = VERTEX_POINT('',#25);
#25 = CARTESIAN_POINT('',(21.6,10.,5.658333752317));
#26 = LINE('',#27,#28);
#27 = CARTESIAN_POINT('',(21.6,10.,0.));
#28 = VECTOR('',#29,1.);
#29 = DIRECTION('',(0.,0.,1.));
#30 = ORIENTED_EDGE('',*,*,#31,.F.);
#31 = EDGE_CURVE('',#22,#22,#32,.T.);
#32 = CIRCLE('',#33,1.6);
#33 = AXIS2_PLACEMENT_3D('',#34,#35,#36);
#34 = CARTESIAN_POINT('',(20.,10.,0.));
#35 = DIRECTION('',(0.,0.,1.));
#36 = DIRECTION('',(1.,0.,0.));
#37 = ORIENTED_EDGE('',*,*,#21,.T.);
#38 = ORIENTED_EDGE('',*,*,#39,.F.);
#39 = EDGE_CURVE('',#40,#24,#42,.T.);
#40 = VERTEX_POINT('',#41);
#41 = CARTESIAN_POINT('',(20.163061909715,11.591669979901,7.779298953811
    ));
#42 = B_SPLINE_CURVE_WITH_KNOTS('',12,(#43,#44,#45,#46,#47,#48,#49,#50,
    #51,#52,#53,#54,#55,#56,#57,#58,#59,#60,#61,#62,#63,#64,#65,#66),
  .UNSPECIFIED.,.F.,.F.,(13,11,13),(-0.393852801571,-0.159390335892,
    2.763512687472),.UNSPECIFIED.);
#43 = CARTESIAN_POINT('',(19.857270841756,11.601266625337,8.230682724986
    ));
#44 = CARTESIAN_POINT('',(19.870294502101,11.601156288461,8.21145916457)
  );
#45 = CARTESIAN_POINT('',(19.883318162446,11.601045951584,8.192235604155
    ));
#46 = CARTESIAN_POINT('',(19.896341822791,11.600935614708,8.173012043739
    ));
#47 = CARTESIAN_POINT('',(19.909365483136,11.600825277832,8.153788483324
    ));
#48 = CARTESIAN_POINT('',(19.92238914348,11.600714940955,8.134564922908)
  );
#49 = CARTESIAN_POINT('',(19.935412803825,11.600604604079,8.115341362493
    ));
#50 = CARTESIAN_POINT('',(19.94843646417,11.600494267202,8.096117802077)
  );
#51 = CARTESIAN_POINT('',(19.961460124514,11.600383930326,8.076894241662
    ));
#52 = CARTESIAN_POINT('',(19.974483784859,11.60027359345,8.057670681246)
  );
#53 = CARTESIAN_POINT('',(19.987507445204,11.600163256573,8.038447120831
    ));
#54 = CARTESIAN_POINT('',(20.000531105548,11.600052919697,8.019223560415
    ));
#55 = CARTESIAN_POINT('',(20.175912933058,11.598567079118,7.760351394859
    ));
#56 = CARTESIAN_POINT('',(20.337076688198,11.579415386855,7.522326631415
    ));
#57 = CARTESIAN_POINT('',(20.501062609585,11.540948173892,7.281085449529
    ));
#58 = CARTESIAN_POINT('',(20.649543028754,11.490083559761,7.05755435641)
  );
#59 = CARTESIAN_POINT('',(20.823901577632,11.405967925474,6.808702276093
    ));
#60 = CARTESIAN_POINT('',(20.93939002696,11.32825809044,6.619882651509)
  );
#61 = CARTESIAN_POINT('',(21.129695999815,11.199775363618,6.356971023995
    ));
#62 = CARTESIAN_POINT('',(21.225966740959,11.060118450095,6.194229219518
    ));
#63 = CARTESIAN_POINT('',(21.39709539411,10.902134270588,5.943645392852)
  );
#64 = CARTESIAN_POINT('',(21.532252975863,10.630029327892,5.754022197305
    ));
#65 = CARTESIAN_POINT('',(21.6,10.31524009588,5.658333752317));
#66 = CARTESIAN_POINT('',(21.6,10.,5.658333752317));
#67 = ORIENTED_EDGE('',*,*,#68,.F.);
#68 = EDGE_CURVE('',#69,#40,#71,.T.);
#69 = VERTEX_POINT('',#70);
#70 = CARTESIAN_POINT('',(20.153291632985,11.592639844804,7.880767157236
    ));
#71 = ELLIPSE('',#72,16.693488839397,1.6);
#72 = AXIS2_PLACEMENT_3D('',#73,#74,#75);
#73 = CARTESIAN_POINT('',(20.,10.,9.472761634849));
#74 = DIRECTION('',(-0.995396198367,-0.,-9.584575252022E-02));
#75 = DIRECTION('',(9.584575252022E-02,0.,-0.995396198367));
#76 = ORIENTED_EDGE('',*,*,#77,.T.);
#77 = EDGE_CURVE('',#69,#78,#80,.T.);
#78 = VERTEX_POINT('',#79);
#79 = CARTESIAN_POINT('',(20.141810816041,11.59370313812,8.));
#80 = ELLIPSE('',#81,16.693488839397,1.6);
#81 = AXIS2_PLACEMENT_3D('',#82,#83,#84);
#82 = CARTESIAN_POINT('',(20.,10.,9.472761634849));
#83 = DIRECTION('',(0.995396198367,-0.,9.584575252022E-02));
#84 = DIRECTION('',(9.584575252022E-02,0.,-0.995396198367));
#85 = ORIENTED_EDGE('',*,*,#86,.T.);
#86 = EDGE_CURVE('',#78,#87,#89,.T.);
#87 = VERTEX_POINT('',#88);
#88 = CARTESIAN_POINT('',(20.141810816041,8.40629686188,8.));
#89 = CIRCLE('',#90,1.6);
#90 = AXIS2_PLACEMENT_3D('',#91,#92,#93);
#91 = CARTESIAN_POINT('',(20.,10.,8.));
#92 = DIRECTION('',(0.,0.,1.));
#93 = DIRECTION('',(1.,0.,0.));
#94 = ORIENTED_EDGE('',*,*,#95,.T.);
#95 = EDGE_CURVE('',#87,#96,#98,.T.);
#96 = VERTEX_POINT('',#97);
#97 = CARTESIAN_POINT('',(20.153291632985,8.407360155196,7.880767157236)
  );
#98 = ELLIPSE('',#99,16.693488839397,1.6);
#99 = AXIS2_PLACEMENT_3D('',#100,#101,#102);
#100 = CARTESIAN_POINT('',(20.,10.,9.472761634849));
#101 = DIRECTION('',(0.995396198367,-0.,9.584575252022E-02));
#102 = DIRECTION('',(9.584575252022E-02,0.,-0.995396198367));
#103 = ORIENTED_EDGE('',*,*,#104,.T.);
#104 = EDGE_CURVE('',#96,#105,#107,.T.);
#105 = VERTEX_POINT('',#106);
#106 = CARTESIAN_POINT('',(20.163061909715,8.408330020099,7.779298953812
    ));
#107 = ELLIPSE('',#108,16.693488839397,1.6);
#108 = AXIS2_PLACEMENT_3D('',#109,#110,#111);
#109 = CARTESIAN_POINT('',(20.,10.,9.472761634849));
#110 = DIRECTION('',(0.995396198367,-0.,9.584575252022E-02));
#111 = DIRECTION('',(9.584575252022E-02,0.,-0.995396198367));
#112 = ORIENTED_EDGE('',*,*,#113,.F.);
#113 = EDGE_CURVE('',#24,#105,#114,.T.);
#114 = B_SPLINE_CURVE_WITH_KNOTS('',12,(#115,#116,#117,#118,#119,#120,
    #121,#122,#123,#124,#125,#126,#127,#128,#129,#130,#131,#132,#133,
    #134,#135,#136,#137,#138),.UNSPECIFIED.,.F.,.F.,(13,11,13),(
    2.763512687472,5.686415710837,5.920878176516),.UNSPECIFIED.);
#115 = CARTESIAN_POINT('',(21.6,10.,5.658333752317));
#116 = CARTESIAN_POINT('',(21.599999999997,9.68475990412,5.658333752316)
  );
#117 = CARTESIAN_POINT('',(21.532252975881,9.369970672112,5.754022197311
    ));
#118 = CARTESIAN_POINT('',(21.397095394054,9.097865729399,5.94364539283)
  );
#119 = CARTESIAN_POINT('',(21.225966741083,8.939881549932,6.194229219574
    ));
#120 = CARTESIAN_POINT('',(21.129695999615,8.800224636341,6.35697102389)
  );
#121 = CARTESIAN_POINT('',(20.939390027208,8.671741909607,6.61988265165)
  );
#122 = CARTESIAN_POINT('',(20.823901577399,8.594032074484,6.808702275952
    ));
#123 = CARTESIAN_POINT('',(20.649543028918,8.509916440268,7.057554356515
    ));
#124 = CARTESIAN_POINT('',(20.501062609501,8.459051826093,7.281085449472
    ));
#125 = CARTESIAN_POINT('',(20.337076688228,8.42058461315,7.522326631437)
  );
#126 = CARTESIAN_POINT('',(20.175912933052,8.401432920881,7.760351394854
    ));
#127 = CARTESIAN_POINT('',(20.000531105549,8.399947080303,8.019223560416
    ));
#128 = CARTESIAN_POINT('',(19.987507445205,8.399836743427,8.038447120832
    ));
#129 = CARTESIAN_POINT('',(19.974483784861,8.399726406551,8.057670681247
    ));
#130 = CARTESIAN_POINT('',(19.961460124517,8.399616069674,8.076894241663
    ));
#131 = CARTESIAN_POINT('',(19.948436464173,8.399505732798,8.096117802079
    ));
#132 = CARTESIAN_POINT('',(19.935412803828,8.399395395922,8.115341362495
    ));
#133 = CARTESIAN_POINT('',(19.922389143484,8.399285059045,8.13456492291)
  );
#134 = CARTESIAN_POINT('',(19.90936548314,8.399174722169,8.153788483326)
  );
#135 = CARTESIAN_POINT('',(19.896341822795,8.399064385292,8.173012043742
    ));
#136 = CARTESIAN_POINT('',(19.883318162451,8.398954048416,8.192235604158
    ));
#137 = CARTESIAN_POINT('',(19.870294502106,8.398843711539,8.211459164573
    ));
#138 = CARTESIAN_POINT('',(19.857270841762,8.398733374663,8.230682724989
    ));
#139 = CYLINDRICAL_SURFACE('',#140,1.6);
#140 = AXIS2_PLACEMENT_3D('',#141,#142,#143);
#141 = CARTESIAN_POINT('',(20.,10.,0.));
#142 = DIRECTION('',(-0.,-0.,-1.));
#143 = DIRECTION('',(1.,0.,0.));
#144 = ADVANCED_FACE('',(#145),#200,.F.);
#145 = FACE_BOUND('',#146,.F.);
#146 = EDGE_LOOP('',(#147,#155,#184,#199));
#147 = ORIENTED_EDGE('',*,*,#148,.T.);
#148 = EDGE_CURVE('',#24,#149,#151,.T.);
#149 = VERTEX_POINT('',#150);
#150 = CARTESIAN_POINT('',(22.50415424748,10.,6.653729950684));
#151 = ( BOUNDED_CURVE() B_SPLINE_CURVE(2,(#152,#153,#154),
.UNSPECIFIED.,.F.,.F.) B_SPLINE_CURVE_WITH_KNOTS((3,3),(0.,
2.922903023364),.PIECEWISE_BEZIER_KNOTS.) CURVE() 
GEOMETRIC_REPRESENTATION_ITEM() RATIONAL_B_SPLINE_CURVE((1.,
0.740218127487,1.)) REPRESENTATION_ITEM('') );
#152 = CARTESIAN_POINT('',(21.6,10.,5.658333752317));
#153 = CARTESIAN_POINT('',(21.6,10.,6.56666979877));
#154 = CARTESIAN_POINT('',(22.50415424748,10.,6.653729950684));
#155 = ORIENTED_EDGE('',*,*,#156,.T.);
#156 = EDGE_CURVE('',#149,#157,#159,.T.);
#157 = VERTEX_POINT('',#158);
#158 = CARTESIAN_POINT('',(20.147640463548,8.402783124472,7.939456795802
    ));
#159 = B_SPLINE_CURVE_WITH_KNOTS('',12,(#160,#161,#162,#163,#164,#165,
    #166,#167,#168,#169,#170,#171,#172,#173,#174,#175,#176,#177,#178,
    #179,#180,#181,#182,#183),.UNSPECIFIED.,.F.,.F.,(13,11,13),(
    2.763512687472,5.686415710837,5.920878176516),.UNSPECIFIED.);
#160 = CARTESIAN_POINT('',(22.50415424748,10.,6.653729950684));
#161 = CARTESIAN_POINT('',(22.504154247477,9.68475990412,6.653729950683)
  );
#162 = CARTESIAN_POINT('',(22.402413068617,9.369970672111,6.711993749946
    ));
#163 = CARTESIAN_POINT('',(22.200708580455,9.0978657294,6.828354515123)
  );
#164 = CARTESIAN_POINT('',(21.93487643761,8.939881549935,6.974677930478)
  );
#165 = CARTESIAN_POINT('',(21.763656722283,8.800224636336,7.054907349491
    ));
#166 = CARTESIAN_POINT('',(21.483715468822,8.671741909612,7.219138228634
    ));
#167 = CARTESIAN_POINT('',(21.28469605476,8.594032074481,7.315997433023)
  );
#168 = CARTESIAN_POINT('',(21.020278113913,8.509916440269,7.465701854836
    ));
#169 = CARTESIAN_POINT('',(20.783544895989,8.459051826093,7.592074193771
    ));
#170 = CARTESIAN_POINT('',(20.527696986659,8.42058461315,7.732183213893)
  );
#171 = CARTESIAN_POINT('',(20.275321180605,8.401432920881,7.869791340501
    ));
#172 = CARTESIAN_POINT('',(20.000831207914,8.399947080303,8.019553947353
    ));
#173 = CARTESIAN_POINT('',(19.980447886431,8.399836743427,8.030675152735
    ));
#174 = CARTESIAN_POINT('',(19.960064564948,8.399726406551,8.041796358116
    ));
#175 = CARTESIAN_POINT('',(19.939681243465,8.399616069674,8.052917563498
    ));
#176 = CARTESIAN_POINT('',(19.919297921982,8.399505732798,8.06403876888)
  );
#177 = CARTESIAN_POINT('',(19.898914600499,8.399395395922,8.075159974262
    ));
#178 = CARTESIAN_POINT('',(19.878531279016,8.399285059045,8.086281179643
    ));
#179 = CARTESIAN_POINT('',(19.858147957533,8.399174722169,8.097402385025
    ));
#180 = CARTESIAN_POINT('',(19.83776463605,8.399064385292,8.108523590407)
  );
#181 = CARTESIAN_POINT('',(19.817381314567,8.398954048416,8.119644795789
    ));
#182 = CARTESIAN_POINT('',(19.796997993084,8.398843711539,8.13076600117)
  );
#183 = CARTESIAN_POINT('',(19.7766146716,8.398733374663,8.141887206552)
  );
#184 = ORIENTED_EDGE('',*,*,#185,.F.);
#185 = EDGE_CURVE('',#105,#157,#186,.T.);
#186 = B_SPLINE_CURVE_WITH_KNOTS('',6,(#187,#188,#189,#190,#191,#192,
    #193,#194,#195,#196,#197,#198),.UNSPECIFIED.,.F.,.F.,(7,5,7),(0.,
    0.26056686604,1.),.UNSPECIFIED.);
#187 = CARTESIAN_POINT('',(20.163061909715,8.408330020099,7.779298953812
    ));
#188 = CARTESIAN_POINT('',(20.161913105934,8.408212125856,7.791229737246
    ));
#189 = CARTESIAN_POINT('',(20.160847754225,8.408049684323,7.802293837771
    ));
#190 = CARTESIAN_POINT('',(20.159855437816,8.407856188975,7.812599437706
    ));
#191 = CARTESIAN_POINT('',(20.158927680057,8.407640581445,7.822234570435
    ));
#192 = CARTESIAN_POINT('',(20.158057506035,8.407408879217,7.831271673181
    ));
#193 = CARTESIAN_POINT('',(20.154916270738,8.406476005843,7.863894649056
    ));
#194 = CARTESIAN_POINT('',(20.153009708985,8.405694810842,7.88369504992)
  );
#195 = CARTESIAN_POINT('',(20.151385029775,8.404924265273,7.900567988652
    ));
#196 = CARTESIAN_POINT('',(20.149977700255,8.404173933167,7.915183664532
    ));
#197 = CARTESIAN_POINT('',(20.148740052,8.403458539835,7.928037133106));
#198 = CARTESIAN_POINT('',(20.14764027605,8.402778864164,7.939458743053)
  );
#199 = ORIENTED_EDGE('',*,*,#113,.F.);
#200 = ( BOUNDED_SURFACE() B_SPLINE_SURFACE(2,12,(
    (#201,#202,#203,#204,#205,#206,#207,#208,#209,#210,#211,#212,#213
      ,#214,#215,#216,#217,#218,#219,#220,#221,#222,#223,#224)
    ,(#225,#226,#227,#228,#229,#230,#231,#232,#233,#234,#235,#236,#237
      ,#238,#239,#240,#241,#242,#243,#244,#245,#246,#247,#248)
    ,(#249,#250,#251,#252,#253,#254,#255,#256,#257,#258,#259,#260,#261
      ,#262,#263,#264,#265,#266,#267,#268,#269,#270,#271,#272
)),.UNSPECIFIED.,.F.,.F.,.F.) B_SPLINE_SURFACE_WITH_KNOTS((3,3),(13,11,
    13),(0.,2.922903023364),(2.763512687472,5.686415710837,
5.920878176516),.UNSPECIFIED.) GEOMETRIC_REPRESENTATION_ITEM() 
RATIONAL_B_SPLINE_SURFACE((
    (1.,1.,1.,1.,1.,1.,1.,1.,1.,1.,1.,1.,1.,1.,1.,1.,1.,1.,1.,1.,1.,1.
      ,1.,1.)
    ,(0.740218127487,0.740218127487,0.763134910007,0.808303227933
      ,0.865568185018,0.8832353107,0.928647474753,0.944229798524
      ,0.969427528198,0.983275134764,0.99418442459,0.99959513583
      ,1.000014952068,1.000040458959,1.000060297652,1.000074468147
      ,1.000082970444,1.000085804543,1.000082970444,1.000074468147
      ,1.000060297652,1.000040458959,1.000014952068,0.999983776979)
    ,(1.,1.,1.,1.,1.,1.,1.,1.,1.,1.,1.,1.,1.,1.,1.,1.,1.,1.,1.,1.,1.,1.
,1.,1.))) REPRESENTATION_ITEM('') SURFACE() );
#201 = CARTESIAN_POINT('',(21.6,10.,5.658333752317));
#202 = CARTESIAN_POINT('',(21.599999999997,9.68475990412,5.658333752316)
  );
#203 = CARTESIAN_POINT('',(21.532252975881,9.369970672112,5.754022197311
    ));
#204 = CARTESIAN_POINT('',(21.397095394054,9.097865729399,5.94364539283)
  );
#205 = CARTESIAN_POINT('',(21.225966741083,8.939881549932,6.194229219574
    ));
#206 = CARTESIAN_POINT('',(21.129695999615,8.800224636341,6.35697102389)
  );
#207 = CARTESIAN_POINT('',(20.939390027208,8.671741909607,6.61988265165)
  );
#208 = CARTESIAN_POINT('',(20.823901577399,8.594032074484,6.808702275952
    ));
#209 = CARTESIAN_POINT('',(20.649543028918,8.509916440268,7.057554356515
    ));
#210 = CARTESIAN_POINT('',(20.501062609501,8.459051826093,7.281085449472
    ));
#211 = CARTESIAN_POINT('',(20.337076688228,8.42058461315,7.522326631437)
  );
#212 = CARTESIAN_POINT('',(20.175912933052,8.401432920881,7.760351394854
    ));
#213 = CARTESIAN_POINT('',(20.000531105549,8.399947080303,8.019223560416
    ));
#214 = CARTESIAN_POINT('',(19.987507445205,8.399836743427,8.038447120832
    ));
#215 = CARTESIAN_POINT('',(19.974483784861,8.399726406551,8.057670681247
    ));
#216 = CARTESIAN_POINT('',(19.961460124517,8.399616069674,8.076894241663
    ));
#217 = CARTESIAN_POINT('',(19.948436464173,8.399505732798,8.096117802079
    ));
#218 = CARTESIAN_POINT('',(19.935412803828,8.399395395922,8.115341362495
    ));
#219 = CARTESIAN_POINT('',(19.922389143484,8.399285059045,8.13456492291)
  );
#220 = CARTESIAN_POINT('',(19.90936548314,8.399174722169,8.153788483326)
  );
#221 = CARTESIAN_POINT('',(19.896341822795,8.399064385292,8.173012043742
    ));
#222 = CARTESIAN_POINT('',(19.883318162451,8.398954048416,8.192235604158
    ));
#223 = CARTESIAN_POINT('',(19.870294502106,8.398843711539,8.211459164573
    ));
#224 = CARTESIAN_POINT('',(19.857270841762,8.398733374663,8.230682724989
    ));
#225 = CARTESIAN_POINT('',(21.6,10.,6.56666979877));
#226 = CARTESIAN_POINT('',(21.6,9.792012306685,6.56666979877));
#227 = CARTESIAN_POINT('',(21.578883455365,9.596006044734,6.585850717441
    ));
#228 = CARTESIAN_POINT('',(21.540897520664,9.409131344358,6.620354711174
    ));
#229 = CARTESIAN_POINT('',(21.472505438358,9.189281605039,6.682477704873
    ));
#230 = CARTESIAN_POINT('',(21.321358792363,8.991739858873,6.819769651621
    ));
#231 = CARTESIAN_POINT('',(21.205456174924,8.851510743479,6.925048177093
    ));
#232 = CARTESIAN_POINT('',(21.019827628577,8.686686162231,7.093661276788
    ));
#233 = CARTESIAN_POINT('',(20.841984337437,8.585198722891,7.255202748928
    ));
#234 = CARTESIAN_POINT('',(20.642647733024,8.490695761474,7.436267371978
    ));
#235 = CARTESIAN_POINT('',(20.434802191652,8.432874259751,7.625060969356
    ));
#236 = CARTESIAN_POINT('',(20.225690813935,8.402243446581,7.815004371443
    ));
#237 = CARTESIAN_POINT('',(20.000682042691,8.399917183839,8.019387949135
    ));
#238 = CARTESIAN_POINT('',(19.983892398837,8.399743603393,8.034638587855
    ));
#239 = CARTESIAN_POINT('',(19.967015240693,8.399569118176,8.04996871896)
  );
#240 = CARTESIAN_POINT('',(19.950050286497,8.399393725276,8.065378598382
    ));
#241 = CARTESIAN_POINT('',(19.932997251524,8.39921742175,8.08086848475)
  );
#242 = CARTESIAN_POINT('',(19.915855848066,8.399040204622,8.096438639398
    ));
#243 = CARTESIAN_POINT('',(19.898625785415,8.398862070887,8.112089326387
    ));
#244 = CARTESIAN_POINT('',(19.881306769849,8.398683017509,8.127820812515
    ));
#245 = CARTESIAN_POINT('',(19.863898504614,8.398503041419,8.143633367334
    ));
#246 = CARTESIAN_POINT('',(19.846400689909,8.398322139518,8.159527263166
    ));
#247 = CARTESIAN_POINT('',(19.828813022863,8.398140308675,8.175502775116
    ));
#248 = CARTESIAN_POINT('',(19.811135197527,8.397957545726,8.191560181093
    ));
#249 = CARTESIAN_POINT('',(22.50415424748,10.,6.653729950684));
#250 = CARTESIAN_POINT('',(22.504154247477,9.68475990412,6.653729950683)
  );
#251 = CARTESIAN_POINT('',(22.402413068617,9.369970672111,6.711993749946
    ));
#252 = CARTESIAN_POINT('',(22.200708580455,9.0978657294,6.828354515123)
  );
#253 = CARTESIAN_POINT('',(21.93487643761,8.939881549935,6.974677930478)
  );
#254 = CARTESIAN_POINT('',(21.763656722283,8.800224636336,7.054907349491
    ));
#255 = CARTESIAN_POINT('',(21.483715468822,8.671741909612,7.219138228634
    ));
#256 = CARTESIAN_POINT('',(21.28469605476,8.594032074481,7.315997433023)
  );
#257 = CARTESIAN_POINT('',(21.020278113913,8.509916440269,7.465701854836
    ));
#258 = CARTESIAN_POINT('',(20.783544895989,8.459051826093,7.592074193771
    ));
#259 = CARTESIAN_POINT('',(20.527696986659,8.42058461315,7.732183213893)
  );
#260 = CARTESIAN_POINT('',(20.275321180605,8.401432920881,7.869791340501
    ));
#261 = CARTESIAN_POINT('',(20.000831207914,8.399947080303,8.019553947353
    ));
#262 = CARTESIAN_POINT('',(19.980447886431,8.399836743427,8.030675152735
    ));
#263 = CARTESIAN_POINT('',(19.960064564948,8.399726406551,8.041796358116
    ));
#264 = CARTESIAN_POINT('',(19.939681243465,8.399616069674,8.052917563498
    ));
#265 = CARTESIAN_POINT('',(19.919297921982,8.399505732798,8.06403876888)
  );
#266 = CARTESIAN_POINT('',(19.898914600499,8.399395395922,8.075159974262
    ));
#267 = CARTESIAN_POINT('',(19.878531279016,8.399285059045,8.086281179643
    ));
#268 = CARTESIAN_POINT('',(19.858147957533,8.399174722169,8.097402385025
    ));
#269 = CARTESIAN_POINT('',(19.83776463605,8.399064385292,8.108523590407)
  );
#270 = CARTESIAN_POINT('',(19.817381314567,8.398954048416,8.119644795789
    ));
#271 = CARTESIAN_POINT('',(19.796997993084,8.398843711539,8.13076600117)
  );
#272 = CARTESIAN_POINT('',(19.7766146716,8.398733374663,8.141887206552)
  );
#273 = ADVANCED_FACE('',(#274,#344,#391),#394,.F.);
#274 = FACE_BOUND('',#275,.F.);
#275 = EDGE_LOOP('',(#276,#286,#295,#303,#312,#320,#329,#337));
#276 = ORIENTED_EDGE('',*,*,#277,.T.);
#277 = EDGE_CURVE('',#278,#280,#282,.T.);
#278 = VERTEX_POINT('',#279);
#279 = CARTESIAN_POINT('',(4.,2.5,0.));
#280 = VERTEX_POINT('',#281);
#281 = CARTESIAN_POINT('',(35.999999999993,2.5,0.));
#282 = LINE('',#283,#284);
#283 = CARTESIAN_POINT('',(4.,2.5,0.));
#284 = VECTOR('',#285,1.);
#285 = DIRECTION('',(1.,0.,0.));
#286 = ORIENTED_EDGE('',*,*,#287,.T.);
#287 = EDGE_CURVE('',#280,#288,#290,.T.);
#288 = VERTEX_POINT('',#289);
#289 = CARTESIAN_POINT('',(37.499999999993,4.000000000007,0.));
#290 = CIRCLE('',#291,1.5);
#291 = AXIS2_PLACEMENT_3D('',#292,#293,#294);
#292 = CARTESIAN_POINT('',(35.999999999993,4.000000000007,0.));
#293 = DIRECTION('',(-0.,0.,1.));
#294 = DIRECTION('',(1.78E-15,-1.,0.));
#295 = ORIENTED_EDGE('',*,*,#296,.T.);
#296 = EDGE_CURVE('',#288,#297,#299,.T.);
#297 = VERTEX_POINT('',#298);
#298 = CARTESIAN_POINT('',(37.499999999993,15.999999999994,0.));
#299 = LINE('',#300,#301);
#300 = CARTESIAN_POINT('',(37.499999999993,4.000000000006,0.));
#301 = VECTOR('',#302,1.);
#302 = DIRECTION('',(0.,1.,0.));
#303 = ORIENTED_EDGE('',*,*,#304,.T.);
#304 = EDGE_CURVE('',#297,#305,#307,.T.);
#305 = VERTEX_POINT('',#306);
#306 = CARTESIAN_POINT('',(35.999999999993,17.499999999993,0.));
#307 = CIRCLE('',#308,1.5);
#308 = AXIS2_PLACEMENT_3D('',#309,#310,#311);
#309 = CARTESIAN_POINT('',(35.999999999993,15.999999999993,0.));
#310 = DIRECTION('',(0.,-0.,1.));
#311 = DIRECTION('',(1.,4.174E-14,0.));
#312 = ORIENTED_EDGE('',*,*,#313,.T.);
#313 = EDGE_CURVE('',#305,#314,#316,.T.);
#314 = VERTEX_POINT('',#315);
#315 = CARTESIAN_POINT('',(4.,17.499999999993,0.));
#316 = LINE('',#317,#318);
#317 = CARTESIAN_POINT('',(35.999999999993,17.499999999993,0.));
#318 = VECTOR('',#319,1.);
#319 = DIRECTION('',(-1.,0.,0.));
#320 = ORIENTED_EDGE('',*,*,#321,.T.);
#321 = EDGE_CURVE('',#314,#322,#324,.T.);
#322 = VERTEX_POINT('',#323);
#323 = CARTESIAN_POINT('',(2.5,16.,0.));
#324 = CIRCLE('',#325,1.5);
#325 = AXIS2_PLACEMENT_3D('',#326,#327,#328);
#326 = CARTESIAN_POINT('',(4.,16.,0.));
#327 = DIRECTION('',(0.,-0.,1.));
#328 = DIRECTION('',(0.,1.,0.));
#329 = ORIENTED_EDGE('',*,*,#330,.T.);
#330 = EDGE_CURVE('',#322,#331,#333,.T.);
#331 = VERTEX_POINT('',#332);
#332 = CARTESIAN_POINT('',(2.5,4.,0.));
#333 = LINE('',#334,#335);
#334 = CARTESIAN_POINT('',(2.5,16.,0.));
#335 = VECTOR('',#336,1.);
#336 = DIRECTION('',(0.,-1.,0.));
#337 = ORIENTED_EDGE('',*,*,#338,.T.);
#338 = EDGE_CURVE('',#331,#278,#339,.T.);
#339 = CIRCLE('',#340,1.5);
#340 = AXIS2_PLACEMENT_3D('',#341,#342,#343);
#341 = CARTESIAN_POINT('',(4.,4.,0.));
#342 = DIRECTION('',(0.,0.,1.));
#343 = DIRECTION('',(-1.,-3.3E-16,0.));
#344 = FACE_BOUND('',#345,.F.);
#345 = EDGE_LOOP('',(#346,#357,#366,#375,#384));
#346 = ORIENTED_EDGE('',*,*,#347,.T.);
#347 = EDGE_CURVE('',#348,#350,#352,.T.);
#348 = VERTEX_POINT('',#349);
#349 = CARTESIAN_POINT('',(13.968626966597,7.3,0.));
#350 = VERTEX_POINT('',#351);
#351 = CARTESIAN_POINT('',(6.031373033403,7.3,0.));
#352 = CIRCLE('',#353,4.8);
#353 = AXIS2_PLACEMENT_3D('',#354,#355,#356);
#354 = CARTESIAN_POINT('',(10.,10.,0.));
#355 = DIRECTION('',(0.,0.,-1.));
#356 = DIRECTION('',(1.,0.,0.));
#357 = ORIENTED_EDGE('',*,*,#358,.T.);
#358 = EDGE_CURVE('',#350,#359,#361,.T.);
#359 = VERTEX_POINT('',#360);
#360 = CARTESIAN_POINT('',(6.031373033403,12.7,0.));
#361 = CIRCLE('',#362,4.8);
#362 = AXIS2_PLACEMENT_3D('',#363,#364,#365);
#363 = CARTESIAN_POINT('',(10.,10.,0.));
#364 = DIRECTION('',(0.,0.,-1.));
#365 = DIRECTION('',(1.,0.,0.));
#366 = ORIENTED_EDGE('',*,*,#367,.T.);
#367 = EDGE_CURVE('',#359,#368,#370,.T.);
#368 = VERTEX_POINT('',#369);
#369 = CARTESIAN_POINT('',(13.968626966597,12.7,0.));
#370 = CIRCLE('',#371,4.8);
#371 = AXIS2_PLACEMENT_3D('',#372,#373,#374);
#372 = CARTESIAN_POINT('',(10.,10.,0.));
#373 = DIRECTION('',(0.,0.,-1.));
#374 = DIRECTION('',(1.,0.,0.));
#375 = ORIENTED_EDGE('',*,*,#376,.T.);
#376 = EDGE_CURVE('',#368,#377,#379,.T.);
#377 = VERTEX_POINT('',#378);
#378 = CARTESIAN_POINT('',(14.8,10.,0.));
#379 = CIRCLE('',#380,4.8);
#380 = AXIS2_PLACEMENT_3D('',#381,#382,#383);
#381 = CARTESIAN_POINT('',(10.,10.,0.));
#382 = DIRECTION('',(0.,0.,-1.));
#383 = DIRECTION('',(1.,0.,0.));
#384 = ORIENTED_EDGE('',*,*,#385,.T.);
#385 = EDGE_CURVE('',#377,#348,#386,.T.);
#386 = CIRCLE('',#387,4.8);
#387 = AXIS2_PLACEMENT_3D('',#388,#389,#390);
#388 = CARTESIAN_POINT('',(10.,10.,0.));
#389 = DIRECTION('',(0.,0.,-1.));
#390 = DIRECTION('',(1.,0.,0.));
#391 = FACE_BOUND('',#392,.F.);
#392 = EDGE_LOOP('',(#393));
#393 = ORIENTED_EDGE('',*,*,#31,.F.);
#394 = PLANE('',#395);
#395 = AXIS2_PLACEMENT_3D('',#396,#397,#398);
#396 = CARTESIAN_POINT('',(18.962230723403,9.999999999998,0.));
#397 = DIRECTION('',(0.,0.,1.));
#398 = DIRECTION('',(1.,0.,0.));
#399 = ADVANCED_FACE('',(#400),#420,.T.);
#400 = FACE_BOUND('',#401,.T.);
#401 = EDGE_LOOP('',(#402,#411,#412,#413,#414));
#402 = ORIENTED_EDGE('',*,*,#403,.T.);
#403 = EDGE_CURVE('',#404,#157,#406,.T.);
#404 = VERTEX_POINT('',#405);
#405 = CARTESIAN_POINT('',(20.141810816041,8.400350895029,8.));
#406 = CIRCLE('',#407,1.6);
#407 = AXIS2_PLACEMENT_3D('',#408,#409,#410);
#408 = CARTESIAN_POINT('',(20.138599281067,10.,8.033353065951));
#409 = DIRECTION('',(0.995396198367,-0.,9.584575252022E-02));
#410 = DIRECTION('',(0.,1.,0.));
#411 = ORIENTED_EDGE('',*,*,#185,.F.);
#412 = ORIENTED_EDGE('',*,*,#104,.F.);
#413 = ORIENTED_EDGE('',*,*,#95,.F.);
#414 = ORIENTED_EDGE('',*,*,#415,.F.);
#415 = EDGE_CURVE('',#404,#87,#416,.T.);
#416 = LINE('',#417,#418);
#417 = CARTESIAN_POINT('',(20.141810816041,9.999999999999,8.));
#418 = VECTOR('',#419,1.);
#419 = DIRECTION('',(0.,1.,0.));
#420 = PLANE('',#421);
#421 = AXIS2_PLACEMENT_3D('',#422,#423,#424);
#422 = CARTESIAN_POINT('',(20.138599281067,10.,8.033353065951));
#423 = DIRECTION('',(0.995396198367,0.,9.584575252022E-02));
#424 = DIRECTION('',(-9.584575252022E-02,0.,0.995396198367));
#425 = ADVANCED_FACE('',(#426),#474,.F.);
#426 = FACE_BOUND('',#427,.F.);
#427 = EDGE_LOOP('',(#428,#445,#472,#473));
#428 = ORIENTED_EDGE('',*,*,#429,.T.);
#429 = EDGE_CURVE('',#40,#430,#432,.T.);
#430 = VERTEX_POINT('',#431);
#431 = CARTESIAN_POINT('',(20.147640463548,11.597216875528,
    7.939456795802));
#432 = B_SPLINE_CURVE_WITH_KNOTS('',6,(#433,#434,#435,#436,#437,#438,
    #439,#440,#441,#442,#443,#444),.UNSPECIFIED.,.F.,.F.,(7,5,7),(0.,
    0.260566866039,1.),.UNSPECIFIED.);
#433 = CARTESIAN_POINT('',(20.163061909715,11.591669979901,
    7.779298953811));
#434 = CARTESIAN_POINT('',(20.161913105934,11.591787874143,
    7.791229737246));
#435 = CARTESIAN_POINT('',(20.160847754225,11.591950315677,
    7.802293837771));
#436 = CARTESIAN_POINT('',(20.159855437817,11.592143811025,
    7.812599437705));
#437 = CARTESIAN_POINT('',(20.158927680057,11.592359418555,
    7.822234570435));
#438 = CARTESIAN_POINT('',(20.158057506035,11.592591120783,7.83127167318
    ));
#439 = CARTESIAN_POINT('',(20.154916270739,11.593523994157,
    7.863894649055));
#440 = CARTESIAN_POINT('',(20.153009708985,11.594305189158,7.88369504992
    ));
#441 = CARTESIAN_POINT('',(20.151385029775,11.595075734727,
    7.900567988651));
#442 = CARTESIAN_POINT('',(20.149977700255,11.595826066833,
    7.915183664532));
#443 = CARTESIAN_POINT('',(20.148740052,11.596541460165,7.928037133106)
  );
#444 = CARTESIAN_POINT('',(20.14764027605,11.597221135836,7.939458743053
    ));
#445 = ORIENTED_EDGE('',*,*,#446,.T.);
#446 = EDGE_CURVE('',#430,#149,#447,.T.);
#447 = B_SPLINE_CURVE_WITH_KNOTS('',12,(#448,#449,#450,#451,#452,#453,
    #454,#455,#456,#457,#458,#459,#460,#461,#462,#463,#464,#465,#466,
    #467,#468,#469,#470,#471),.UNSPECIFIED.,.F.,.F.,(13,11,13),(
    -0.393852801571,-0.159390335892,2.763512687472),.UNSPECIFIED.);
#448 = CARTESIAN_POINT('',(19.776614671597,11.601266625337,
    8.141887206547));
#449 = CARTESIAN_POINT('',(19.79699799308,11.601156288461,8.130766001166
    ));
#450 = CARTESIAN_POINT('',(19.817381314564,11.601045951585,
    8.119644795784));
#451 = CARTESIAN_POINT('',(19.837764636047,11.600935614708,
    8.108523590403));
#452 = CARTESIAN_POINT('',(19.85814795753,11.600825277832,8.097402385022
    ));
#453 = CARTESIAN_POINT('',(19.878531279013,11.600714940955,8.08628117964
    ));
#454 = CARTESIAN_POINT('',(19.898914600496,11.600604604079,
    8.075159974259));
#455 = CARTESIAN_POINT('',(19.91929792198,11.600494267202,8.064038768878
    ));
#456 = CARTESIAN_POINT('',(19.939681243463,11.600383930326,
    8.052917563496));
#457 = CARTESIAN_POINT('',(19.960064564946,11.60027359345,8.041796358115
    ));
#458 = CARTESIAN_POINT('',(19.980447886429,11.600163256573,
    8.030675152734));
#459 = CARTESIAN_POINT('',(20.000831207912,11.600052919697,
    8.019553947352));
#460 = CARTESIAN_POINT('',(20.275321180611,11.598567079118,
    7.869791340506));
#461 = CARTESIAN_POINT('',(20.527696986628,11.579415386855,
    7.732183213871));
#462 = CARTESIAN_POINT('',(20.783544896074,11.540948173891,
    7.592074193831));
#463 = CARTESIAN_POINT('',(21.020278113747,11.490083559763,
    7.465701854723));
#464 = CARTESIAN_POINT('',(21.284696054995,11.405967925471,
    7.315997433177));
#465 = CARTESIAN_POINT('',(21.483715468566,11.328258090445,
    7.219138228482));
#466 = CARTESIAN_POINT('',(21.763656722495,11.199775363613,
    7.054907349602));
#467 = CARTESIAN_POINT('',(21.934876437475,11.060118450097,
    6.974677930419));
#468 = CARTESIAN_POINT('',(22.200708580518,10.902134270589,
    6.828354515146));
#469 = CARTESIAN_POINT('',(22.402413068597,10.63002932789,6.711993749939
    ));
#470 = CARTESIAN_POINT('',(22.50415424748,10.31524009588,6.653729950684)
  );
#471 = CARTESIAN_POINT('',(22.50415424748,10.,6.653729950684));
#472 = ORIENTED_EDGE('',*,*,#148,.F.);
#473 = ORIENTED_EDGE('',*,*,#39,.F.);
#474 = ( BOUNDED_SURFACE() B_SPLINE_SURFACE(2,12,(
    (#475,#476,#477,#478,#479,#480,#481,#482,#483,#484,#485,#486,#487
      ,#488,#489,#490,#491,#492,#493,#494,#495,#496,#497,#498)
    ,(#499,#500,#501,#502,#503,#504,#505,#506,#507,#508,#509,#510,#511
      ,#512,#513,#514,#515,#516,#517,#518,#519,#520,#521,#522)
    ,(#523,#524,#525,#526,#527,#528,#529,#530,#531,#532,#533,#534,#535
      ,#536,#537,#538,#539,#540,#541,#542,#543,#544,#545,#546
)),.UNSPECIFIED.,.F.,.F.,.F.) B_SPLINE_SURFACE_WITH_KNOTS((3,3),(13,11,
    13),(0.,2.922903023364),(-0.393852801571,-0.159390335892,
2.763512687472),.UNSPECIFIED.) GEOMETRIC_REPRESENTATION_ITEM() 
RATIONAL_B_SPLINE_SURFACE((
    (1.,1.,1.,1.,1.,1.,1.,1.,1.,1.,1.,1.,1.,1.,1.,1.,1.,1.,1.,1.,1.,1.
      ,1.,1.)
    ,(0.999983776979,1.000014952068,1.000040458959,1.000060297652
      ,1.000074468147,1.000082970444,1.000085804543,1.000082970444
      ,1.000074468147,1.000060297652,1.000040458959,1.000014952068
      ,0.99959513583,0.99418442459,0.983275134765,0.969427528197
      ,0.944229798526,0.928647474751,0.883235310701,0.865568185018
      ,0.808303227933,0.763134910007,0.740218127487,0.740218127487)
    ,(1.,1.,1.,1.,1.,1.,1.,1.,1.,1.,1.,1.,1.,1.,1.,1.,1.,1.,1.,1.,1.,1.
,1.,1.))) REPRESENTATION_ITEM('') SURFACE() );
#475 = CARTESIAN_POINT('',(19.857270841756,11.601266625337,
    8.230682724986));
#476 = CARTESIAN_POINT('',(19.870294502101,11.601156288461,8.21145916457
    ));
#477 = CARTESIAN_POINT('',(19.883318162446,11.601045951584,
    8.192235604155));
#478 = CARTESIAN_POINT('',(19.896341822791,11.600935614708,
    8.173012043739));
#479 = CARTESIAN_POINT('',(19.909365483136,11.600825277832,
    8.153788483324));
#480 = CARTESIAN_POINT('',(19.92238914348,11.600714940955,8.134564922908
    ));
#481 = CARTESIAN_POINT('',(19.935412803825,11.600604604079,
    8.115341362493));
#482 = CARTESIAN_POINT('',(19.94843646417,11.600494267202,8.096117802077
    ));
#483 = CARTESIAN_POINT('',(19.961460124514,11.600383930326,
    8.076894241662));
#484 = CARTESIAN_POINT('',(19.974483784859,11.60027359345,8.057670681246
    ));
#485 = CARTESIAN_POINT('',(19.987507445204,11.600163256573,
    8.038447120831));
#486 = CARTESIAN_POINT('',(20.000531105548,11.600052919697,
    8.019223560415));
#487 = CARTESIAN_POINT('',(20.175912933058,11.598567079118,
    7.760351394859));
#488 = CARTESIAN_POINT('',(20.337076688198,11.579415386855,
    7.522326631415));
#489 = CARTESIAN_POINT('',(20.501062609585,11.540948173892,
    7.281085449529));
#490 = CARTESIAN_POINT('',(20.649543028754,11.490083559761,7.05755435641
    ));
#491 = CARTESIAN_POINT('',(20.823901577632,11.405967925474,
    6.808702276093));
#492 = CARTESIAN_POINT('',(20.93939002696,11.32825809044,6.619882651509)
  );
#493 = CARTESIAN_POINT('',(21.129695999815,11.199775363618,
    6.356971023995));
#494 = CARTESIAN_POINT('',(21.225966740959,11.060118450095,
    6.194229219518));
#495 = CARTESIAN_POINT('',(21.39709539411,10.902134270588,5.943645392852
    ));
#496 = CARTESIAN_POINT('',(21.532252975863,10.630029327892,
    5.754022197305));
#497 = CARTESIAN_POINT('',(21.6,10.31524009588,5.658333752317));
#498 = CARTESIAN_POINT('',(21.6,10.,5.658333752317));
#499 = CARTESIAN_POINT('',(19.811135197522,11.602042454274,
    8.191560181088));
#500 = CARTESIAN_POINT('',(19.828813022859,11.601859691325,
    8.175502775112));
#501 = CARTESIAN_POINT('',(19.846400689905,11.601677860482,
    8.159527263162));
#502 = CARTESIAN_POINT('',(19.863898504611,11.601496958581,8.14363336733
    ));
#503 = CARTESIAN_POINT('',(19.881306769846,11.601316982491,
    8.127820812512));
#504 = CARTESIAN_POINT('',(19.898625785412,11.601137929113,
    8.112089326384));
#505 = CARTESIAN_POINT('',(19.915855848063,11.600959795378,
    8.096438639396));
#506 = CARTESIAN_POINT('',(19.932997251522,11.60078257825,8.080868484748
    ));
#507 = CARTESIAN_POINT('',(19.950050286495,11.600606274724,
    8.065378598381));
#508 = CARTESIAN_POINT('',(19.967015240691,11.600430881824,
    8.049968718959));
#509 = CARTESIAN_POINT('',(19.983892398836,11.600256396607,
    8.034638587854));
#510 = CARTESIAN_POINT('',(20.00068204269,11.600082816161,8.019387949134
    ));
#511 = CARTESIAN_POINT('',(20.225690813938,11.597756553419,
    7.815004371447));
#512 = CARTESIAN_POINT('',(20.434802191635,11.56712574025,7.625060969338
    ));
#513 = CARTESIAN_POINT('',(20.642647733073,11.509304238526,
    7.436267372026));
#514 = CARTESIAN_POINT('',(20.841984337347,11.414801277109,
    7.255202748839));
#515 = CARTESIAN_POINT('',(21.019827628697,11.313313837772,
    7.093661276911));
#516 = CARTESIAN_POINT('',(21.20545617481,11.148489256516,6.925048176971
    ));
#517 = CARTESIAN_POINT('',(21.321358792443,11.008260141133,
    6.819769651712));
#518 = CARTESIAN_POINT('',(21.47250543832,10.810718394957,6.682477704827
    ));
#519 = CARTESIAN_POINT('',(21.540897520676,10.590868655644,6.62035471119
    ));
#520 = CARTESIAN_POINT('',(21.578883455363,10.403993955266,
    6.585850717438));
#521 = CARTESIAN_POINT('',(21.6,10.207987693315,6.56666979877));
#522 = CARTESIAN_POINT('',(21.6,10.,6.56666979877));
#523 = CARTESIAN_POINT('',(19.776614671597,11.601266625337,
    8.141887206547));
#524 = CARTESIAN_POINT('',(19.79699799308,11.601156288461,8.130766001166
    ));
#525 = CARTESIAN_POINT('',(19.817381314564,11.601045951585,
    8.119644795784));
#526 = CARTESIAN_POINT('',(19.837764636047,11.600935614708,
    8.108523590403));
#527 = CARTESIAN_POINT('',(19.85814795753,11.600825277832,8.097402385022
    ));
#528 = CARTESIAN_POINT('',(19.878531279013,11.600714940955,8.08628117964
    ));
#529 = CARTESIAN_POINT('',(19.898914600496,11.600604604079,
    8.075159974259));
#530 = CARTESIAN_POINT('',(19.91929792198,11.600494267202,8.064038768878
    ));
#531 = CARTESIAN_POINT('',(19.939681243463,11.600383930326,
    8.052917563496));
#532 = CARTESIAN_POINT('',(19.960064564946,11.60027359345,8.041796358115
    ));
#533 = CARTESIAN_POINT('',(19.980447886429,11.600163256573,
    8.030675152734));
#534 = CARTESIAN_POINT('',(20.000831207912,11.600052919697,
    8.019553947352));
#535 = CARTESIAN_POINT('',(20.275321180611,11.598567079118,
    7.869791340506));
#536 = CARTESIAN_POINT('',(20.527696986628,11.579415386855,
    7.732183213871));
#537 = CARTESIAN_POINT('',(20.783544896074,11.540948173891,
    7.592074193831));
#538 = CARTESIAN_POINT('',(21.020278113747,11.490083559763,
    7.465701854723));
#539 = CARTESIAN_POINT('',(21.284696054995,11.405967925471,
    7.315997433177));
#540 = CARTESIAN_POINT('',(21.483715468566,11.328258090445,
    7.219138228482));
#541 = CARTESIAN_POINT('',(21.763656722495,11.199775363613,
    7.054907349602));
#542 = CARTESIAN_POINT('',(21.934876437475,11.060118450097,
    6.974677930419));
#543 = CARTESIAN_POINT('',(22.200708580518,10.902134270589,
    6.828354515146));
#544 = CARTESIAN_POINT('',(22.402413068597,10.63002932789,6.711993749939
    ));
#545 = CARTESIAN_POINT('',(22.50415424748,10.31524009588,6.653729950684)
  );
#546 = CARTESIAN_POINT('',(22.50415424748,10.,6.653729950684));
#547 = ADVANCED_FACE('',(#548,#618,#629),#697,.T.);
#548 = FACE_BOUND('',#549,.T.);
#549 = EDGE_LOOP('',(#550,#560,#569,#577,#586,#594,#603,#611));
#550 = ORIENTED_EDGE('',*,*,#551,.T.);
#551 = EDGE_CURVE('',#552,#554,#556,.T.);
#552 = VERTEX_POINT('',#553);
#553 = CARTESIAN_POINT('',(4.,0.,8.));
#554 = VERTEX_POINT('',#555);
#555 = CARTESIAN_POINT('',(35.999999999993,3.289E-12,8.));
#556 = LINE('',#557,#558);
#557 = CARTESIAN_POINT('',(4.,0.,8.));
#558 = VECTOR('',#559,1.);
#559 = DIRECTION('',(1.,0.,0.));
#560 = ORIENTED_EDGE('',*,*,#561,.T.);
#561 = EDGE_CURVE('',#554,#562,#564,.T.);
#562 = VERTEX_POINT('',#563);
#563 = CARTESIAN_POINT('',(39.999999999993,4.000000000006,8.));
#564 = CIRCLE('',#565,4.);
#565 = AXIS2_PLACEMENT_3D('',#566,#567,#568);
#566 = CARTESIAN_POINT('',(35.999999999993,4.000000000007,8.));
#567 = DIRECTION('',(0.,0.,1.));
#568 = DIRECTION('',(1.,0.,0.));
#569 = ORIENTED_EDGE('',*,*,#570,.T.);
#570 = EDGE_CURVE('',#562,#571,#573,.T.);
#571 = VERTEX_POINT('',#572);
#572 = CARTESIAN_POINT('',(39.999999999993,15.999999999994,8.));
#573 = LINE('',#574,#575);
#574 = CARTESIAN_POINT('',(39.999999999993,4.000000000006,8.));
#575 = VECTOR('',#576,1.);
#576 = DIRECTION('',(0.,1.,0.));
#577 = ORIENTED_EDGE('',*,*,#578,.T.);
#578 = EDGE_CURVE('',#571,#579,#581,.T.);
#579 = VERTEX_POINT('',#580);
#580 = CARTESIAN_POINT('',(35.999999999993,19.999999999993,8.));
#581 = CIRCLE('',#582,4.);
#582 = AXIS2_PLACEMENT_3D('',#583,#584,#585);
#583 = CARTESIAN_POINT('',(35.999999999993,15.999999999993,8.));
#584 = DIRECTION('',(0.,0.,1.));
#585 = DIRECTION('',(1.,0.,0.));
#586 = ORIENTED_EDGE('',*,*,#587,.T.);
#587 = EDGE_CURVE('',#579,#588,#590,.T.);
#588 = VERTEX_POINT('',#589);
#589 = CARTESIAN_POINT('',(4.,19.999999999997,8.));
#590 = LINE('',#591,#592);
#591 = CARTESIAN_POINT('',(35.999999999993,19.999999999993,8.));
#592 = VECTOR('',#593,1.);
#593 = DIRECTION('',(-1.,0.,0.));
#594 = ORIENTED_EDGE('',*,*,#595,.T.);
#595 = EDGE_CURVE('',#588,#596,#598,.T.);
#596 = VERTEX_POINT('',#597);
#597 = CARTESIAN_POINT('',(0.,16.,8.));
#598 = CIRCLE('',#599,4.);
#599 = AXIS2_PLACEMENT_3D('',#600,#601,#602);
#600 = CARTESIAN_POINT('',(4.,16.,8.));
#601 = DIRECTION('',(0.,0.,1.));
#602 = DIRECTION('',(1.,0.,0.));
#603 = ORIENTED_EDGE('',*,*,#604,.T.);
#604 = EDGE_CURVE('',#596,#605,#607,.T.);
#605 = VERTEX_POINT('',#606);
#606 = CARTESIAN_POINT('',(0.,4.,8.));
#607 = LINE('',#608,#609);
#608 = CARTESIAN_POINT('',(0.,16.,8.));
#609 = VECTOR('',#610,1.);
#610 = DIRECTION('',(0.,-1.,0.));
#611 = ORIENTED_EDGE('',*,*,#612,.T.);
#612 = EDGE_CURVE('',#605,#552,#613,.T.);
#613 = CIRCLE('',#614,4.);
#614 = AXIS2_PLACEMENT_3D('',#615,#616,#617);
#615 = CARTESIAN_POINT('',(4.,4.,8.));
#616 = DIRECTION('',(0.,0.,1.));
#617 = DIRECTION('',(1.,0.,0.));
#618 = FACE_BOUND('',#619,.T.);
#619 = EDGE_LOOP('',(#620));
#620 = ORIENTED_EDGE('',*,*,#621,.F.);
#621 = EDGE_CURVE('',#622,#622,#624,.T.);
#622 = VERTEX_POINT('',#623);
#623 = CARTESIAN_POINT('',(12.7,10.,8.));
#624 = CIRCLE('',#625,2.7);
#625 = AXIS2_PLACEMENT_3D('',#626,#627,#628);
#626 = CARTESIAN_POINT('',(10.,10.,8.));
#627 = DIRECTION('',(0.,0.,1.));
#628 = DIRECTION('',(1.,0.,0.));
#629 = FACE_BOUND('',#630,.T.);
#630 = EDGE_LOOP('',(#631,#632,#640,#649,#657,#665,#673,#681,#689,#696)
  );
#631 = ORIENTED_EDGE('',*,*,#86,.F.);
#632 = ORIENTED_EDGE('',*,*,#633,.T.);
#633 = EDGE_CURVE('',#78,#634,#636,.T.);
#634 = VERTEX_POINT('',#635);
#635 = CARTESIAN_POINT('',(20.141810816041,11.599649104971,8.));
#636 = LINE('',#637,#638);
#637 = CARTESIAN_POINT('',(20.141810816041,9.999999999999,8.));
#638 = VECTOR('',#639,1.);
#639 = DIRECTION('',(0.,1.,0.));
#640 = ORIENTED_EDGE('',*,*,#641,.F.);
#641 = EDGE_CURVE('',#642,#634,#644,.T.);
#642 = VERTEX_POINT('',#643);
#643 = CARTESIAN_POINT('',(23.,11.570182437273,8.));
#644 = ELLIPSE('',#645,16.693488839397,1.6);
#645 = AXIS2_PLACEMENT_3D('',#646,#647,#648);
#646 = CARTESIAN_POINT('',(19.792214447327,10.,8.));
#647 = DIRECTION('',(-0.,0.,1.));
#648 = DIRECTION('',(1.,-1.E-16,0.));
#649 = ORIENTED_EDGE('',*,*,#650,.F.);
#650 = EDGE_CURVE('',#651,#642,#653,.T.);
#651 = VERTEX_POINT('',#652);
#652 = CARTESIAN_POINT('',(23.,13.,8.));
#653 = LINE('',#654,#655);
#654 = CARTESIAN_POINT('',(23.,13.,8.));
#655 = VECTOR('',#656,1.);
#656 = DIRECTION('',(0.,-1.,0.));
#657 = ORIENTED_EDGE('',*,*,#658,.F.);
#658 = EDGE_CURVE('',#659,#651,#661,.T.);
#659 = VERTEX_POINT('',#660);
#660 = CARTESIAN_POINT('',(38.,13.,8.));
#661 = LINE('',#662,#663);
#662 = CARTESIAN_POINT('',(38.,13.,8.));
#663 = VECTOR('',#664,1.);
#664 = DIRECTION('',(-1.,0.,0.));
#665 = ORIENTED_EDGE('',*,*,#666,.F.);
#666 = EDGE_CURVE('',#667,#659,#669,.T.);
#667 = VERTEX_POINT('',#668);
#668 = CARTESIAN_POINT('',(38.,7.,8.));
#669 = LINE('',#670,#671);
#670 = CARTESIAN_POINT('',(38.,7.,8.));
#671 = VECTOR('',#672,1.);
#672 = DIRECTION('',(0.,1.,0.));
#673 = ORIENTED_EDGE('',*,*,#674,.F.);
#674 = EDGE_CURVE('',#675,#667,#677,.T.);
#675 = VERTEX_POINT('',#676);
#676 = CARTESIAN_POINT('',(23.,7.,8.));
#677 = LINE('',#678,#679);
#678 = CARTESIAN_POINT('',(23.,7.,8.));
#679 = VECTOR('',#680,1.);
#680 = DIRECTION('',(1.,0.,0.));
#681 = ORIENTED_EDGE('',*,*,#682,.F.);
#682 = EDGE_CURVE('',#683,#675,#685,.T.);
#683 = VERTEX_POINT('',#684);
#684 = CARTESIAN_POINT('',(23.,8.429817562727,8.));
#685 = LINE('',#686,#687);
#686 = CARTESIAN_POINT('',(23.,13.,8.));
#687 = VECTOR('',#688,1.);
#688 = DIRECTION('',(0.,-1.,0.));
#689 = ORIENTED_EDGE('',*,*,#690,.F.);
#690 = EDGE_CURVE('',#404,#683,#691,.T.);
#691 = ELLIPSE('',#692,16.693488839397,1.6);
#692 = AXIS2_PLACEMENT_3D('',#693,#694,#695);
#693 = CARTESIAN_POINT('',(19.792214447327,10.,8.));
#694 = DIRECTION('',(-0.,0.,1.));
#695 = DIRECTION('',(1.,-1.E-16,0.));
#696 = ORIENTED_EDGE('',*,*,#415,.T.);
#697 = PLANE('',#698);
#698 = AXIS2_PLACEMENT_3D('',#699,#700,#701);
#699 = CARTESIAN_POINT('',(18.962230723403,9.999999999998,8.));
#700 = DIRECTION('',(0.,0.,1.));
#701 = DIRECTION('',(1.,0.,0.));
#702 = ADVANCED_FACE('',(#703),#716,.T.);
#703 = FACE_BOUND('',#704,.T.);
#704 = EDGE_LOOP('',(#705,#712,#713,#714,#715));
#705 = ORIENTED_EDGE('',*,*,#706,.T.);
#706 = EDGE_CURVE('',#430,#634,#707,.T.);
#707 = CIRCLE('',#708,1.6);
#708 = AXIS2_PLACEMENT_3D('',#709,#710,#711);
#709 = CARTESIAN_POINT('',(20.138599281067,10.,8.033353065951));
#710 = DIRECTION('',(0.995396198367,-0.,9.584575252022E-02));
#711 = DIRECTION('',(0.,1.,0.));
#712 = ORIENTED_EDGE('',*,*,#633,.F.);
#713 = ORIENTED_EDGE('',*,*,#77,.F.);
#714 = ORIENTED_EDGE('',*,*,#68,.T.);
#715 = ORIENTED_EDGE('',*,*,#429,.T.);
#716 = PLANE('',#717);
#717 = AXIS2_PLACEMENT_3D('',#718,#719,#720);
#718 = CARTESIAN_POINT('',(20.138599281067,10.,8.033353065951));
#719 = DIRECTION('',(0.995396198367,0.,9.584575252022E-02));
#720 = DIRECTION('',(-9.584575252022E-02,0.,0.995396198367));
#721 = ADVANCED_FACE('',(#722),#762,.F.);
#722 = FACE_BOUND('',#723,.F.);
#723 = EDGE_LOOP('',(#724,#725,#726,#735,#743,#750,#751,#758,#759,#760,
    #761));
#724 = ORIENTED_EDGE('',*,*,#706,.T.);
#725 = ORIENTED_EDGE('',*,*,#641,.F.);
#726 = ORIENTED_EDGE('',*,*,#727,.T.);
#727 = EDGE_CURVE('',#642,#728,#730,.T.);
#728 = VERTEX_POINT('',#729);
#729 = CARTESIAN_POINT('',(23.,11.6,8.308874617689));
#730 = ELLIPSE('',#731,1.607400151442,1.6);
#731 = AXIS2_PLACEMENT_3D('',#732,#733,#734);
#732 = CARTESIAN_POINT('',(23.,10.,8.308874617689));
#733 = DIRECTION('',(1.,0.,0.));
#734 = DIRECTION('',(0.,-1.04E-15,1.));
#735 = ORIENTED_EDGE('',*,*,#736,.F.);
#736 = EDGE_CURVE('',#737,#728,#739,.T.);
#737 = VERTEX_POINT('',#738);
#738 = CARTESIAN_POINT('',(38.,11.6,9.753210340652));
#739 = LINE('',#740,#741);
#740 = CARTESIAN_POINT('',(39.051127050043,11.6,9.854422363835));
#741 = VECTOR('',#742,1.);
#742 = DIRECTION('',(-0.995396198367,1.1E-16,-9.584575252022E-02));
#743 = ORIENTED_EDGE('',*,*,#744,.T.);
#744 = EDGE_CURVE('',#737,#737,#745,.T.);
#745 = ELLIPSE('',#746,1.607400151442,1.6);
#746 = AXIS2_PLACEMENT_3D('',#747,#748,#749);
#747 = CARTESIAN_POINT('',(38.,10.,9.753210340652));
#748 = DIRECTION('',(-1.,0.,0.));
#749 = DIRECTION('',(0.,-1.04E-15,1.));
#750 = ORIENTED_EDGE('',*,*,#736,.T.);
#751 = ORIENTED_EDGE('',*,*,#752,.T.);
#752 = EDGE_CURVE('',#728,#683,#753,.T.);
#753 = ELLIPSE('',#754,1.607400151442,1.6);
#754 = AXIS2_PLACEMENT_3D('',#755,#756,#757);
#755 = CARTESIAN_POINT('',(23.,10.,8.308874617689));
#756 = DIRECTION('',(1.,0.,0.));
#757 = DIRECTION('',(0.,-1.04E-15,1.));
#758 = ORIENTED_EDGE('',*,*,#690,.F.);
#759 = ORIENTED_EDGE('',*,*,#403,.T.);
#760 = ORIENTED_EDGE('',*,*,#156,.F.);
#761 = ORIENTED_EDGE('',*,*,#446,.F.);
#762 = CYLINDRICAL_SURFACE('',#763,1.6);
#763 = AXIS2_PLACEMENT_3D('',#764,#765,#766);
#764 = CARTESIAN_POINT('',(39.051127050043,10.,9.854422363835));
#765 = DIRECTION('',(0.995396198367,-1.E-16,9.584575252022E-02));
#766 = DIRECTION('',(1.110446194928E-16,1.,-1.098994145833E-16));
#767 = ADVANCED_FACE('',(#768),#793,.T.);
#768 = FACE_BOUND('',#769,.F.);
#769 = EDGE_LOOP('',(#770,#778,#786,#792));
#770 = ORIENTED_EDGE('',*,*,#771,.F.);
#771 = EDGE_CURVE('',#772,#278,#774,.T.);
#772 = VERTEX_POINT('',#773);
#773 = CARTESIAN_POINT('',(4.,0.,2.5));
#774 = LINE('',#775,#776);
#775 = CARTESIAN_POINT('',(4.,1.25,1.25));
#776 = VECTOR('',#777,1.);
#777 = DIRECTION('',(0.,0.707106781187,-0.707106781187));
#778 = ORIENTED_EDGE('',*,*,#779,.T.);
#779 = EDGE_CURVE('',#772,#780,#782,.T.);
#780 = VERTEX_POINT('',#781);
#781 = CARTESIAN_POINT('',(35.999999999993,0.,2.5));
#782 = LINE('',#783,#784);
#783 = CARTESIAN_POINT('',(4.,0.,2.5));
#784 = VECTOR('',#785,1.);
#785 = DIRECTION('',(1.,0.,0.));
#786 = ORIENTED_EDGE('',*,*,#787,.T.);
#787 = EDGE_CURVE('',#780,#280,#788,.T.);
#788 = LINE('',#789,#790);
#789 = CARTESIAN_POINT('',(35.999999999993,1.25,1.25));
#790 = VECTOR('',#791,1.);
#791 = DIRECTION('',(0.,0.707106781187,-0.707106781187));
#792 = ORIENTED_EDGE('',*,*,#277,.F.);
#793 = PLANE('',#794);
#794 = AXIS2_PLACEMENT_3D('',#795,#796,#797);
#795 = CARTESIAN_POINT('',(4.,1.25,1.25));
#796 = DIRECTION('',(0.,-0.707106781187,-0.707106781187));
#797 = DIRECTION('',(-1.,-0.,-0.));
#798 = ADVANCED_FACE('',(#799),#818,.T.);
#799 = FACE_BOUND('',#800,.F.);
#800 = EDGE_LOOP('',(#801,#809,#816,#817));
#801 = ORIENTED_EDGE('',*,*,#802,.F.);
#802 = EDGE_CURVE('',#803,#331,#805,.T.);
#803 = VERTEX_POINT('',#804);
#804 = CARTESIAN_POINT('',(0.,4.,2.5));
#805 = LINE('',#806,#807);
#806 = CARTESIAN_POINT('',(1.25,4.,1.25));
#807 = VECTOR('',#808,1.);
#808 = DIRECTION('',(0.707106781187,0.,-0.707106781187));
#809 = ORIENTED_EDGE('',*,*,#810,.T.);
#810 = EDGE_CURVE('',#803,#772,#811,.T.);
#811 = CIRCLE('',#812,4.);
#812 = AXIS2_PLACEMENT_3D('',#813,#814,#815);
#813 = CARTESIAN_POINT('',(4.,4.,2.5));
#814 = DIRECTION('',(0.,0.,1.));
#815 = DIRECTION('',(-1.,-3.3E-16,0.));
#816 = ORIENTED_EDGE('',*,*,#771,.T.);
#817 = ORIENTED_EDGE('',*,*,#338,.F.);
#818 = CONICAL_SURFACE('',#819,4.,0.785398163397);
#819 = AXIS2_PLACEMENT_3D('',#820,#821,#822);
#820 = CARTESIAN_POINT('',(4.,4.,2.5));
#821 = DIRECTION('',(0.,0.,1.));
#822 = DIRECTION('',(-1.,-3.3E-16,0.));
#823 = ADVANCED_FACE('',(#824),#843,.T.);
#824 = FACE_BOUND('',#825,.F.);
#825 = EDGE_LOOP('',(#826,#827,#836,#842));
#826 = ORIENTED_EDGE('',*,*,#787,.F.);
#827 = ORIENTED_EDGE('',*,*,#828,.T.);
#828 = EDGE_CURVE('',#780,#829,#831,.T.);
#829 = VERTEX_POINT('',#830);
#830 = CARTESIAN_POINT('',(39.999999999993,4.000000000006,2.5));
#831 = CIRCLE('',#832,4.);
#832 = AXIS2_PLACEMENT_3D('',#833,#834,#835);
#833 = CARTESIAN_POINT('',(35.999999999993,4.000000000007,2.5));
#834 = DIRECTION('',(-0.,0.,1.));
#835 = DIRECTION('',(1.78E-15,-1.,0.));
#836 = ORIENTED_EDGE('',*,*,#837,.T.);
#837 = EDGE_CURVE('',#829,#288,#838,.T.);
#838 = LINE('',#839,#840);
#839 = CARTESIAN_POINT('',(39.999999999993,4.000000000006,2.5));
#840 = VECTOR('',#841,1.);
#841 = DIRECTION('',(-0.707106781187,3.019E-14,-0.707106781187));
#842 = ORIENTED_EDGE('',*,*,#287,.F.);
#843 = CONICAL_SURFACE('',#844,4.,0.785398163397);
#844 = AXIS2_PLACEMENT_3D('',#845,#846,#847);
#845 = CARTESIAN_POINT('',(35.999999999993,4.000000000007,2.5));
#846 = DIRECTION('',(0.,0.,1.));
#847 = DIRECTION('',(1.78E-15,-1.,0.));
#848 = ADVANCED_FACE('',(#849),#867,.T.);
#849 = FACE_BOUND('',#850,.F.);
#850 = EDGE_LOOP('',(#851,#859,#865,#866));
#851 = ORIENTED_EDGE('',*,*,#852,.F.);
#852 = EDGE_CURVE('',#853,#322,#855,.T.);
#853 = VERTEX_POINT('',#854);
#854 = CARTESIAN_POINT('',(0.,16.,2.5));
#855 = LINE('',#856,#857);
#856 = CARTESIAN_POINT('',(0.,16.,2.5));
#857 = VECTOR('',#858,1.);
#858 = DIRECTION('',(0.707106781187,-4.E-17,-0.707106781187));
#859 = ORIENTED_EDGE('',*,*,#860,.T.);
#860 = EDGE_CURVE('',#853,#803,#861,.T.);
#861 = LINE('',#862,#863);
#862 = CARTESIAN_POINT('',(0.,16.,2.5));
#863 = VECTOR('',#864,1.);
#864 = DIRECTION('',(0.,-1.,0.));
#865 = ORIENTED_EDGE('',*,*,#802,.T.);
#866 = ORIENTED_EDGE('',*,*,#330,.F.);
#867 = PLANE('',#868);
#868 = AXIS2_PLACEMENT_3D('',#869,#870,#871);
#869 = CARTESIAN_POINT('',(1.25,16.,1.25));
#870 = DIRECTION('',(-0.707106781187,0.,-0.707106781187));
#871 = DIRECTION('',(0.,1.,0.));
#872 = ADVANCED_FACE('',(#873),#891,.T.);
#873 = FACE_BOUND('',#874,.F.);
#874 = EDGE_LOOP('',(#875,#876,#884,#890));
#875 = ORIENTED_EDGE('',*,*,#837,.F.);
#876 = ORIENTED_EDGE('',*,*,#877,.T.);
#877 = EDGE_CURVE('',#829,#878,#880,.T.);
#878 = VERTEX_POINT('',#879);
#879 = CARTESIAN_POINT('',(39.999999999993,15.999999999994,2.5));
#880 = LINE('',#881,#882);
#881 = CARTESIAN_POINT('',(39.999999999993,4.000000000006,2.5));
#882 = VECTOR('',#883,1.);
#883 = DIRECTION('',(0.,1.,0.));
#884 = ORIENTED_EDGE('',*,*,#885,.T.);
#885 = EDGE_CURVE('',#878,#297,#886,.T.);
#886 = LINE('',#887,#888);
#887 = CARTESIAN_POINT('',(38.749999999993,15.999999999994,1.25));
#888 = VECTOR('',#889,1.);
#889 = DIRECTION('',(-0.707106781187,0.,-0.707106781187));
#890 = ORIENTED_EDGE('',*,*,#296,.F.);
#891 = PLANE('',#892);
#892 = AXIS2_PLACEMENT_3D('',#893,#894,#895);
#893 = CARTESIAN_POINT('',(38.749999999993,4.000000000006,1.25));
#894 = DIRECTION('',(0.707106781187,0.,-0.707106781187));
#895 = DIRECTION('',(-0.,-1.,-0.));
#896 = ADVANCED_FACE('',(#897),#916,.T.);
#897 = FACE_BOUND('',#898,.F.);
#898 = EDGE_LOOP('',(#899,#907,#914,#915));
#899 = ORIENTED_EDGE('',*,*,#900,.F.);
#900 = EDGE_CURVE('',#901,#314,#903,.T.);
#901 = VERTEX_POINT('',#902);
#902 = CARTESIAN_POINT('',(4.,19.999999999993,2.5));
#903 = LINE('',#904,#905);
#904 = CARTESIAN_POINT('',(4.,18.749999999993,1.25));
#905 = VECTOR('',#906,1.);
#906 = DIRECTION('',(-0.,-0.707106781187,-0.707106781187));
#907 = ORIENTED_EDGE('',*,*,#908,.T.);
#908 = EDGE_CURVE('',#901,#853,#909,.T.);
#909 = CIRCLE('',#910,4.);
#910 = AXIS2_PLACEMENT_3D('',#911,#912,#913);
#911 = CARTESIAN_POINT('',(4.,16.,2.5));
#912 = DIRECTION('',(0.,-0.,1.));
#913 = DIRECTION('',(0.,1.,0.));
#914 = ORIENTED_EDGE('',*,*,#852,.T.);
#915 = ORIENTED_EDGE('',*,*,#321,.F.);
#916 = CONICAL_SURFACE('',#917,4.,0.785398163397);
#917 = AXIS2_PLACEMENT_3D('',#918,#919,#920);
#918 = CARTESIAN_POINT('',(4.,16.,2.5));
#919 = DIRECTION('',(0.,0.,1.));
#920 = DIRECTION('',(0.,1.,0.));
#921 = ADVANCED_FACE('',(#922),#941,.T.);
#922 = FACE_BOUND('',#923,.F.);
#923 = EDGE_LOOP('',(#924,#925,#934,#940));
#924 = ORIENTED_EDGE('',*,*,#885,.F.);
#925 = ORIENTED_EDGE('',*,*,#926,.T.);
#926 = EDGE_CURVE('',#878,#927,#929,.T.);
#927 = VERTEX_POINT('',#928);
#928 = CARTESIAN_POINT('',(35.999999999993,19.999999999993,2.5));
#929 = CIRCLE('',#930,4.);
#930 = AXIS2_PLACEMENT_3D('',#931,#932,#933);
#931 = CARTESIAN_POINT('',(35.999999999993,15.999999999993,2.5));
#932 = DIRECTION('',(0.,-0.,1.));
#933 = DIRECTION('',(1.,4.174E-14,0.));
#934 = ORIENTED_EDGE('',*,*,#935,.T.);
#935 = EDGE_CURVE('',#927,#305,#936,.T.);
#936 = LINE('',#937,#938);
#937 = CARTESIAN_POINT('',(35.999999999993,19.999999999993,2.5));
#938 = VECTOR('',#939,1.);
#939 = DIRECTION('',(-1.14E-15,-0.707106781187,-0.707106781187));
#940 = ORIENTED_EDGE('',*,*,#304,.F.);
#941 = CONICAL_SURFACE('',#942,4.,0.785398163397);
#942 = AXIS2_PLACEMENT_3D('',#943,#944,#945);
#943 = CARTESIAN_POINT('',(35.999999999993,15.999999999993,2.5));
#944 = DIRECTION('',(0.,0.,1.));
#945 = DIRECTION('',(1.,4.174E-14,0.));
#946 = ADVANCED_FACE('',(#947),#958,.T.);
#947 = FACE_BOUND('',#948,.F.);
#948 = EDGE_LOOP('',(#949,#950,#956,#957));
#949 = ORIENTED_EDGE('',*,*,#935,.F.);
#950 = ORIENTED_EDGE('',*,*,#951,.T.);
#951 = EDGE_CURVE('',#927,#901,#952,.T.);
#952 = LINE('',#953,#954);
#953 = CARTESIAN_POINT('',(35.999999999993,19.999999999993,2.5));
#954 = VECTOR('',#955,1.);
#955 = DIRECTION('',(-1.,0.,0.));
#956 = ORIENTED_EDGE('',*,*,#900,.T.);
#957 = ORIENTED_EDGE('',*,*,#313,.F.);
#958 = PLANE('',#959);
#959 = AXIS2_PLACEMENT_3D('',#960,#961,#962);
#960 = CARTESIAN_POINT('',(35.999999999993,18.749999999993,1.25));
#961 = DIRECTION('',(0.,0.707106781187,-0.707106781187));
#962 = DIRECTION('',(1.,0.,0.));
#963 = ADVANCED_FACE('',(#964),#1045,.F.);
#964 = FACE_BOUND('',#965,.F.);
#965 = EDGE_LOOP('',(#966,#977,#985,#994,#999,#1000,#1001,#1002,#1003,
    #1004,#1005,#1013,#1022,#1030,#1039));
#966 = ORIENTED_EDGE('',*,*,#967,.T.);
#967 = EDGE_CURVE('',#968,#970,#972,.T.);
#968 = VERTEX_POINT('',#969);
#969 = CARTESIAN_POINT('',(6.031373033403,7.3,4.2));
#970 = VERTEX_POINT('',#971);
#971 = CARTESIAN_POINT('',(6.031373033403,12.7,4.2));
#972 = CIRCLE('',#973,4.8);
#973 = AXIS2_PLACEMENT_3D('',#974,#975,#976);
#974 = CARTESIAN_POINT('',(10.,10.,4.2));
#975 = DIRECTION('',(0.,0.,-1.));
#976 = DIRECTION('',(1.,0.,0.));
#977 = ORIENTED_EDGE('',*,*,#978,.F.);
#978 = EDGE_CURVE('',#979,#970,#981,.T.);
#979 = VERTEX_POINT('',#980);
#980 = CARTESIAN_POINT('',(6.031373033403,12.7,4.));
#981 = LINE('',#982,#983);
#982 = CARTESIAN_POINT('',(6.031373033403,12.7,0.));
#983 = VECTOR('',#984,1.);
#984 = DIRECTION('',(0.,0.,1.));
#985 = ORIENTED_EDGE('',*,*,#986,.T.);
#986 = EDGE_CURVE('',#979,#987,#989,.T.);
#987 = VERTEX_POINT('',#988);
#988 = CARTESIAN_POINT('',(13.968626966597,12.7,4.));
#989 = CIRCLE('',#990,4.8);
#990 = AXIS2_PLACEMENT_3D('',#991,#992,#993);
#991 = CARTESIAN_POINT('',(10.,10.,4.));
#992 = DIRECTION('',(0.,0.,-1.));
#993 = DIRECTION('',(1.,0.,0.));
#994 = ORIENTED_EDGE('',*,*,#995,.T.);
#995 = EDGE_CURVE('',#987,#368,#996,.T.);
#996 = B_SPLINE_CURVE_WITH_KNOTS('',1,(#997,#998),.UNSPECIFIED.,.F.,.F.,
  (2,2),(-4.,0.),.PIECEWISE_BEZIER_KNOTS.);
#997 = CARTESIAN_POINT('',(13.968626966597,12.7,4.));
#998 = CARTESIAN_POINT('',(13.968626966597,12.7,0.));
#999 = ORIENTED_EDGE('',*,*,#367,.F.);
#1000 = ORIENTED_EDGE('',*,*,#358,.F.);
#1001 = ORIENTED_EDGE('',*,*,#347,.F.);
#1002 = ORIENTED_EDGE('',*,*,#385,.F.);
#1003 = ORIENTED_EDGE('',*,*,#376,.F.);
#1004 = ORIENTED_EDGE('',*,*,#995,.F.);
#1005 = ORIENTED_EDGE('',*,*,#1006,.T.);
#1006 = EDGE_CURVE('',#987,#1007,#1009,.T.);
#1007 = VERTEX_POINT('',#1008);
#1008 = CARTESIAN_POINT('',(13.968626966597,12.7,4.2));
#1009 = LINE('',#1010,#1011);
#1010 = CARTESIAN_POINT('',(13.968626966597,12.7,0.));
#1011 = VECTOR('',#1012,1.);
#1012 = DIRECTION('',(0.,0.,1.));
#1013 = ORIENTED_EDGE('',*,*,#1014,.T.);
#1014 = EDGE_CURVE('',#1007,#1015,#1017,.T.);
#1015 = VERTEX_POINT('',#1016);
#1016 = CARTESIAN_POINT('',(13.968626966597,7.3,4.2));
#1017 = CIRCLE('',#1018,4.8);
#1018 = AXIS2_PLACEMENT_3D('',#1019,#1020,#1021);
#1019 = CARTESIAN_POINT('',(10.,10.,4.2));
#1020 = DIRECTION('',(0.,0.,-1.));
#1021 = DIRECTION('',(1.,0.,0.));
#1022 = ORIENTED_EDGE('',*,*,#1023,.F.);
#1023 = EDGE_CURVE('',#1024,#1015,#1026,.T.);
#1024 = VERTEX_POINT('',#1025);
#1025 = CARTESIAN_POINT('',(13.968626966597,7.3,4.));
#1026 = LINE('',#1027,#1028);
#1027 = CARTESIAN_POINT('',(13.968626966597,7.3,0.));
#1028 = VECTOR('',#1029,1.);
#1029 = DIRECTION('',(0.,0.,1.));
#1030 = ORIENTED_EDGE('',*,*,#1031,.T.);
#1031 = EDGE_CURVE('',#1024,#1032,#1034,.T.);
#1032 = VERTEX_POINT('',#1033);
#1033 = CARTESIAN_POINT('',(6.031373033403,7.3,4.));
#1034 = CIRCLE('',#1035,4.8);
#1035 = AXIS2_PLACEMENT_3D('',#1036,#1037,#1038);
#1036 = CARTESIAN_POINT('',(10.,10.,4.));
#1037 = DIRECTION('',(0.,0.,-1.));
#1038 = DIRECTION('',(1.,0.,0.));
#1039 = ORIENTED_EDGE('',*,*,#1040,.T.);
#1040 = EDGE_CURVE('',#1032,#968,#1041,.T.);
#1041 = LINE('',#1042,#1043);
#1042 = CARTESIAN_POINT('',(6.031373033403,7.3,0.));
#1043 = VECTOR('',#1044,1.);
#1044 = DIRECTION('',(0.,0.,1.));
#1045 = CYLINDRICAL_SURFACE('',#1046,4.8);
#1046 = AXIS2_PLACEMENT_3D('',#1047,#1048,#1049);
#1047 = CARTESIAN_POINT('',(10.,10.,0.));
#1048 = DIRECTION('',(0.,0.,-1.));
#1049 = DIRECTION('',(1.,0.,0.));
#1050 = ADVANCED_FACE('',(#1051),#1067,.F.);
#1051 = FACE_BOUND('',#1052,.F.);
#1052 = EDGE_LOOP('',(#1053,#1059,#1060,#1066));
#1053 = ORIENTED_EDGE('',*,*,#1054,.T.);
#1054 = EDGE_CURVE('',#772,#552,#1055,.T.);
#1055 = LINE('',#1056,#1057);
#1056 = CARTESIAN_POINT('',(4.,0.,0.));
#1057 = VECTOR('',#1058,1.);
#1058 = DIRECTION('',(0.,0.,1.));
#1059 = ORIENTED_EDGE('',*,*,#551,.T.);
#1060 = ORIENTED_EDGE('',*,*,#1061,.F.);
#1061 = EDGE_CURVE('',#780,#554,#1062,.T.);
#1062 = LINE('',#1063,#1064);
#1063 = CARTESIAN_POINT('',(35.999999999993,3.28892E-12,0.));
#1064 = VECTOR('',#1065,1.);
#1065 = DIRECTION('',(0.,0.,1.));
#1066 = ORIENTED_EDGE('',*,*,#779,.F.);
#1067 = PLANE('',#1068);
#1068 = AXIS2_PLACEMENT_3D('',#1069,#1070,#1071);
#1069 = CARTESIAN_POINT('',(4.,0.,0.));
#1070 = DIRECTION('',(0.,1.,0.));
#1071 = DIRECTION('',(1.,0.,0.));
#1072 = ADVANCED_FACE('',(#1073),#1084,.T.);
#1073 = FACE_BOUND('',#1074,.F.);
#1074 = EDGE_LOOP('',(#1075,#1081,#1082,#1083));
#1075 = ORIENTED_EDGE('',*,*,#1076,.T.);
#1076 = EDGE_CURVE('',#803,#605,#1077,.T.);
#1077 = LINE('',#1078,#1079);
#1078 = CARTESIAN_POINT('',(0.,4.,0.));
#1079 = VECTOR('',#1080,1.);
#1080 = DIRECTION('',(0.,0.,1.));
#1081 = ORIENTED_EDGE('',*,*,#612,.T.);
#1082 = ORIENTED_EDGE('',*,*,#1054,.F.);
#1083 = ORIENTED_EDGE('',*,*,#810,.F.);
#1084 = CYLINDRICAL_SURFACE('',#1085,4.);
#1085 = AXIS2_PLACEMENT_3D('',#1086,#1087,#1088);
#1086 = CARTESIAN_POINT('',(4.,4.,0.));
#1087 = DIRECTION('',(-0.,-0.,-1.));
#1088 = DIRECTION('',(1.,0.,0.));
#1089 = ADVANCED_FACE('',(#1090),#1101,.T.);
#1090 = FACE_BOUND('',#1091,.F.);
#1091 = EDGE_LOOP('',(#1092,#1093,#1094,#1100));
#1092 = ORIENTED_EDGE('',*,*,#1061,.T.);
#1093 = ORIENTED_EDGE('',*,*,#561,.T.);
#1094 = ORIENTED_EDGE('',*,*,#1095,.F.);
#1095 = EDGE_CURVE('',#829,#562,#1096,.T.);
#1096 = LINE('',#1097,#1098);
#1097 = CARTESIAN_POINT('',(39.999999999993,4.000000000006,0.));
#1098 = VECTOR('',#1099,1.);
#1099 = DIRECTION('',(0.,0.,1.));
#1100 = ORIENTED_EDGE('',*,*,#828,.F.);
#1101 = CYLINDRICAL_SURFACE('',#1102,4.);
#1102 = AXIS2_PLACEMENT_3D('',#1103,#1104,#1105);
#1103 = CARTESIAN_POINT('',(35.999999999993,4.000000000007,0.));
#1104 = DIRECTION('',(-0.,-0.,-1.));
#1105 = DIRECTION('',(1.,0.,0.));
#1106 = ADVANCED_FACE('',(#1107),#1118,.F.);
#1107 = FACE_BOUND('',#1108,.F.);
#1108 = EDGE_LOOP('',(#1109,#1115,#1116,#1117));
#1109 = ORIENTED_EDGE('',*,*,#1110,.T.);
#1110 = EDGE_CURVE('',#853,#596,#1111,.T.);
#1111 = LINE('',#1112,#1113);
#1112 = CARTESIAN_POINT('',(0.,16.,0.));
#1113 = VECTOR('',#1114,1.);
#1114 = DIRECTION('',(0.,0.,1.));
#1115 = ORIENTED_EDGE('',*,*,#604,.T.);
#1116 = ORIENTED_EDGE('',*,*,#1076,.F.);
#1117 = ORIENTED_EDGE('',*,*,#860,.F.);
#1118 = PLANE('',#1119);
#1119 = AXIS2_PLACEMENT_3D('',#1120,#1121,#1122);
#1120 = CARTESIAN_POINT('',(0.,16.,0.));
#1121 = DIRECTION('',(1.,0.,0.));
#1122 = DIRECTION('',(0.,-1.,0.));
#1123 = ADVANCED_FACE('',(#1124),#1135,.F.);
#1124 = FACE_BOUND('',#1125,.F.);
#1125 = EDGE_LOOP('',(#1126,#1127,#1128,#1134));
#1126 = ORIENTED_EDGE('',*,*,#1095,.T.);
#1127 = ORIENTED_EDGE('',*,*,#570,.T.);
#1128 = ORIENTED_EDGE('',*,*,#1129,.F.);
#1129 = EDGE_CURVE('',#878,#571,#1130,.T.);
#1130 = LINE('',#1131,#1132);
#1131 = CARTESIAN_POINT('',(39.999999999993,15.999999999994,0.));
#1132 = VECTOR('',#1133,1.);
#1133 = DIRECTION('',(0.,0.,1.));
#1134 = ORIENTED_EDGE('',*,*,#877,.F.);
#1135 = PLANE('',#1136);
#1136 = AXIS2_PLACEMENT_3D('',#1137,#1138,#1139);
#1137 = CARTESIAN_POINT('',(39.999999999993,4.000000000006,0.));
#1138 = DIRECTION('',(-1.,0.,0.));
#1139 = DIRECTION('',(0.,1.,0.));
#1140 = ADVANCED_FACE('',(#1141),#1152,.T.);
#1141 = FACE_BOUND('',#1142,.F.);
#1142 = EDGE_LOOP('',(#1143,#1149,#1150,#1151));
#1143 = ORIENTED_EDGE('',*,*,#1144,.T.);
#1144 = EDGE_CURVE('',#901,#588,#1145,.T.);
#1145 = LINE('',#1146,#1147);
#1146 = CARTESIAN_POINT('',(4.,19.999999999997,0.));
#1147 = VECTOR('',#1148,1.);
#1148 = DIRECTION('',(0.,0.,1.));
#1149 = ORIENTED_EDGE('',*,*,#595,.T.);
#1150 = ORIENTED_EDGE('',*,*,#1110,.F.);
#1151 = ORIENTED_EDGE('',*,*,#908,.F.);
#1152 = CYLINDRICAL_SURFACE('',#1153,4.);
#1153 = AXIS2_PLACEMENT_3D('',#1154,#1155,#1156);
#1154 = CARTESIAN_POINT('',(4.,16.,0.));
#1155 = DIRECTION('',(-0.,-0.,-1.));
#1156 = DIRECTION('',(1.,0.,0.));
#1157 = ADVANCED_FACE('',(#1158),#1169,.T.);
#1158 = FACE_BOUND('',#1159,.F.);
#1159 = EDGE_LOOP('',(#1160,#1161,#1162,#1168));
#1160 = ORIENTED_EDGE('',*,*,#1129,.T.);
#1161 = ORIENTED_EDGE('',*,*,#578,.T.);
#1162 = ORIENTED_EDGE('',*,*,#1163,.F.);
#1163 = EDGE_CURVE('',#927,#579,#1164,.T.);
#1164 = LINE('',#1165,#1166);
#1165 = CARTESIAN_POINT('',(35.999999999993,19.999999999993,0.));
#1166 = VECTOR('',#1167,1.);
#1167 = DIRECTION('',(0.,0.,1.));
#1168 = ORIENTED_EDGE('',*,*,#926,.F.);
#1169 = CYLINDRICAL_SURFACE('',#1170,4.);
#1170 = AXIS2_PLACEMENT_3D('',#1171,#1172,#1173);
#1171 = CARTESIAN_POINT('',(35.999999999993,15.999999999993,0.));
#1172 = DIRECTION('',(-0.,-0.,-1.));
#1173 = DIRECTION('',(1.,0.,0.));
#1174 = ADVANCED_FACE('',(#1175),#1181,.F.);
#1175 = FACE_BOUND('',#1176,.F.);
#1176 = EDGE_LOOP('',(#1177,#1178,#1179,#1180));
#1177 = ORIENTED_EDGE('',*,*,#1163,.T.);
#1178 = ORIENTED_EDGE('',*,*,#587,.T.);
#1179 = ORIENTED_EDGE('',*,*,#1144,.F.);
#1180 = ORIENTED_EDGE('',*,*,#951,.F.);
#1181 = PLANE('',#1182);
#1182 = AXIS2_PLACEMENT_3D('',#1183,#1184,#1185);
#1183 = CARTESIAN_POINT('',(35.999999999993,19.999999999993,0.));
#1184 = DIRECTION('',(0.,-1.,0.));
#1185 = DIRECTION('',(-1.,0.,0.));
#1186 = ADVANCED_FACE('',(#1187),#1233,.F.);
#1187 = FACE_BOUND('',#1188,.T.);
#1188 = EDGE_LOOP('',(#1189,#1200,#1206,#1207,#1208,#1217,#1226));
#1189 = ORIENTED_EDGE('',*,*,#1190,.T.);
#1190 = EDGE_CURVE('',#1191,#1193,#1195,.T.);
#1191 = VERTEX_POINT('',#1192);
#1192 = CARTESIAN_POINT('',(10.,12.7,4.4));
#1193 = VERTEX_POINT('',#1194);
#1194 = CARTESIAN_POINT('',(12.7,10.,4.4));
#1195 = CIRCLE('',#1196,2.7);
#1196 = AXIS2_PLACEMENT_3D('',#1197,#1198,#1199);
#1197 = CARTESIAN_POINT('',(10.,10.,4.4));
#1198 = DIRECTION('',(0.,0.,-1.));
#1199 = DIRECTION('',(1.,0.,0.));
#1200 = ORIENTED_EDGE('',*,*,#1201,.T.);
#1201 = EDGE_CURVE('',#1193,#622,#1202,.T.);
#1202 = LINE('',#1203,#1204);
#1203 = CARTESIAN_POINT('',(12.7,10.,0.));
#1204 = VECTOR('',#1205,1.);
#1205 = DIRECTION('',(0.,0.,1.));
#1206 = ORIENTED_EDGE('',*,*,#621,.T.);
#1207 = ORIENTED_EDGE('',*,*,#1201,.F.);
#1208 = ORIENTED_EDGE('',*,*,#1209,.T.);
#1209 = EDGE_CURVE('',#1193,#1210,#1212,.T.);
#1210 = VERTEX_POINT('',#1211);
#1211 = CARTESIAN_POINT('',(10.,7.3,4.4));
#1212 = CIRCLE('',#1213,2.7);
#1213 = AXIS2_PLACEMENT_3D('',#1214,#1215,#1216);
#1214 = CARTESIAN_POINT('',(10.,10.,4.4));
#1215 = DIRECTION('',(0.,0.,-1.));
#1216 = DIRECTION('',(1.,0.,0.));
#1217 = ORIENTED_EDGE('',*,*,#1218,.T.);
#1218 = EDGE_CURVE('',#1210,#1219,#1221,.T.);
#1219 = VERTEX_POINT('',#1220);
#1220 = CARTESIAN_POINT('',(7.3,10.,4.4));
#1221 = CIRCLE('',#1222,2.7);
#1222 = AXIS2_PLACEMENT_3D('',#1223,#1224,#1225);
#1223 = CARTESIAN_POINT('',(10.,10.,4.4));
#1224 = DIRECTION('',(0.,0.,-1.));
#1225 = DIRECTION('',(1.,0.,0.));
#1226 = ORIENTED_EDGE('',*,*,#1227,.T.);
#1227 = EDGE_CURVE('',#1219,#1191,#1228,.T.);
#1228 = CIRCLE('',#1229,2.7);
#1229 = AXIS2_PLACEMENT_3D('',#1230,#1231,#1232);
#1230 = CARTESIAN_POINT('',(10.,10.,4.4));
#1231 = DIRECTION('',(0.,0.,-1.));
#1232 = DIRECTION('',(1.,0.,0.));
#1233 = CYLINDRICAL_SURFACE('',#1234,2.7);
#1234 = AXIS2_PLACEMENT_3D('',#1235,#1236,#1237);
#1235 = CARTESIAN_POINT('',(10.,10.,0.));
#1236 = DIRECTION('',(-0.,-0.,-1.));
#1237 = DIRECTION('',(1.,0.,0.));
#1238 = ADVANCED_FACE('',(#1239),#1267,.F.);
#1239 = FACE_BOUND('',#1240,.F.);
#1240 = EDGE_LOOP('',(#1241,#1249,#1257,#1263,#1264,#1265,#1266));
#1241 = ORIENTED_EDGE('',*,*,#1242,.T.);
#1242 = EDGE_CURVE('',#651,#1243,#1245,.T.);
#1243 = VERTEX_POINT('',#1244);
#1244 = CARTESIAN_POINT('',(23.,13.,11.5));
#1245 = LINE('',#1246,#1247);
#1246 = CARTESIAN_POINT('',(23.,13.,8.));
#1247 = VECTOR('',#1248,1.);
#1248 = DIRECTION('',(0.,0.,1.));
#1249 = ORIENTED_EDGE('',*,*,#1250,.T.);
#1250 = EDGE_CURVE('',#1243,#1251,#1253,.T.);
#1251 = VERTEX_POINT('',#1252);
#1252 = CARTESIAN_POINT('',(23.,7.,11.5));
#1253 = LINE('',#1254,#1255);
#1254 = CARTESIAN_POINT('',(23.,13.,11.5));
#1255 = VECTOR('',#1256,1.);
#1256 = DIRECTION('',(0.,-1.,0.));
#1257 = ORIENTED_EDGE('',*,*,#1258,.F.);
#1258 = EDGE_CURVE('',#675,#1251,#1259,.T.);
#1259 = LINE('',#1260,#1261);
#1260 = CARTESIAN_POINT('',(23.,7.,8.));
#1261 = VECTOR('',#1262,1.);
#1262 = DIRECTION('',(0.,0.,1.));
#1263 = ORIENTED_EDGE('',*,*,#682,.F.);
#1264 = ORIENTED_EDGE('',*,*,#752,.F.);
#1265 = ORIENTED_EDGE('',*,*,#727,.F.);
#1266 = ORIENTED_EDGE('',*,*,#650,.F.);
#1267 = PLANE('',#1268);
#1268 = AXIS2_PLACEMENT_3D('',#1269,#1270,#1271);
#1269 = CARTESIAN_POINT('',(23.,13.,8.));
#1270 = DIRECTION('',(1.,0.,0.));
#1271 = DIRECTION('',(0.,-1.,0.));
#1272 = ADVANCED_FACE('',(#1273),#1291,.F.);
#1273 = FACE_BOUND('',#1274,.F.);
#1274 = EDGE_LOOP('',(#1275,#1276,#1284,#1290));
#1275 = ORIENTED_EDGE('',*,*,#1258,.T.);
#1276 = ORIENTED_EDGE('',*,*,#1277,.T.);
#1277 = EDGE_CURVE('',#1251,#1278,#1280,.T.);
#1278 = VERTEX_POINT('',#1279);
#1279 = CARTESIAN_POINT('',(38.,7.,11.5));
#1280 = LINE('',#1281,#1282);
#1281 = CARTESIAN_POINT('',(23.,7.,11.5));
#1282 = VECTOR('',#1283,1.);
#1283 = DIRECTION('',(1.,0.,0.));
#1284 = ORIENTED_EDGE('',*,*,#1285,.F.);
#1285 = EDGE_CURVE('',#667,#1278,#1286,.T.);
#1286 = LINE('',#1287,#1288);
#1287 = CARTESIAN_POINT('',(38.,7.,8.));
#1288 = VECTOR('',#1289,1.);
#1289 = DIRECTION('',(0.,0.,1.));
#1290 = ORIENTED_EDGE('',*,*,#674,.F.);
#1291 = PLANE('',#1292);
#1292 = AXIS2_PLACEMENT_3D('',#1293,#1294,#1295);
#1293 = CARTESIAN_POINT('',(23.,7.,8.));
#1294 = DIRECTION('',(0.,1.,0.));
#1295 = DIRECTION('',(1.,0.,0.));
#1296 = ADVANCED_FACE('',(#1297,#1315),#1318,.F.);
#1297 = FACE_BOUND('',#1298,.F.);
#1298 = EDGE_LOOP('',(#1299,#1300,#1308,#1314));
#1299 = ORIENTED_EDGE('',*,*,#1285,.T.);
#1300 = ORIENTED_EDGE('',*,*,#1301,.T.);
#1301 = EDGE_CURVE('',#1278,#1302,#1304,.T.);
#1302 = VERTEX_POINT('',#1303);
#1303 = CARTESIAN_POINT('',(38.,13.,11.5));
#1304 = LINE('',#1305,#1306);
#1305 = CARTESIAN_POINT('',(38.,7.,11.5));
#1306 = VECTOR('',#1307,1.);
#1307 = DIRECTION('',(0.,1.,0.));
#1308 = ORIENTED_EDGE('',*,*,#1309,.F.);
#1309 = EDGE_CURVE('',#659,#1302,#1310,.T.);
#1310 = LINE('',#1311,#1312);
#1311 = CARTESIAN_POINT('',(38.,13.,8.));
#1312 = VECTOR('',#1313,1.);
#1313 = DIRECTION('',(0.,0.,1.));
#1314 = ORIENTED_EDGE('',*,*,#666,.F.);
#1315 = FACE_BOUND('',#1316,.F.);
#1316 = EDGE_LOOP('',(#1317));
#1317 = ORIENTED_EDGE('',*,*,#744,.F.);
#1318 = PLANE('',#1319);
#1319 = AXIS2_PLACEMENT_3D('',#1320,#1321,#1322);
#1320 = CARTESIAN_POINT('',(38.,7.,8.));
#1321 = DIRECTION('',(-1.,0.,0.));
#1322 = DIRECTION('',(0.,1.,0.));
#1323 = ADVANCED_FACE('',(#1324),#1335,.F.);
#1324 = FACE_BOUND('',#1325,.F.);
#1325 = EDGE_LOOP('',(#1326,#1327,#1333,#1334));
#1326 = ORIENTED_EDGE('',*,*,#1309,.T.);
#1327 = ORIENTED_EDGE('',*,*,#1328,.T.);
#1328 = EDGE_CURVE('',#1302,#1243,#1329,.T.);
#1329 = LINE('',#1330,#1331);
#1330 = CARTESIAN_POINT('',(38.,13.,11.5));
#1331 = VECTOR('',#1332,1.);
#1332 = DIRECTION('',(-1.,0.,0.));
#1333 = ORIENTED_EDGE('',*,*,#1242,.F.);
#1334 = ORIENTED_EDGE('',*,*,#658,.F.);
#1335 = PLANE('',#1336);
#1336 = AXIS2_PLACEMENT_3D('',#1337,#1338,#1339);
#1337 = CARTESIAN_POINT('',(38.,13.,8.));
#1338 = DIRECTION('',(0.,-1.,0.));
#1339 = DIRECTION('',(-1.,0.,0.));
#1340 = ADVANCED_FACE('',(#1341),#1366,.F.);
#1341 = FACE_BOUND('',#1342,.T.);
#1342 = EDGE_LOOP('',(#1343,#1344,#1352,#1360));
#1343 = ORIENTED_EDGE('',*,*,#967,.T.);
#1344 = ORIENTED_EDGE('',*,*,#1345,.F.);
#1345 = EDGE_CURVE('',#1346,#970,#1348,.T.);
#1346 = VERTEX_POINT('',#1347);
#1347 = CARTESIAN_POINT('',(7.3,12.7,4.2));
#1348 = LINE('',#1349,#1350);
#1349 = CARTESIAN_POINT('',(7.3,12.7,4.2));
#1350 = VECTOR('',#1351,1.);
#1351 = DIRECTION('',(-1.,0.,0.));
#1352 = ORIENTED_EDGE('',*,*,#1353,.T.);
#1353 = EDGE_CURVE('',#1346,#1354,#1356,.T.);
#1354 = VERTEX_POINT('',#1355);
#1355 = CARTESIAN_POINT('',(7.3,7.3,4.2));
#1356 = LINE('',#1357,#1358);
#1357 = CARTESIAN_POINT('',(7.3,12.7,4.2));
#1358 = VECTOR('',#1359,1.);
#1359 = DIRECTION('',(0.,-1.,0.));
#1360 = ORIENTED_EDGE('',*,*,#1361,.T.);
#1361 = EDGE_CURVE('',#1354,#968,#1362,.T.);
#1362 = LINE('',#1363,#1364);
#1363 = CARTESIAN_POINT('',(7.3,7.3,4.2));
#1364 = VECTOR('',#1365,1.);
#1365 = DIRECTION('',(-1.,0.,0.));
#1366 = PLANE('',#1367);
#1367 = AXIS2_PLACEMENT_3D('',#1368,#1369,#1370);
#1368 = CARTESIAN_POINT('',(10.,10.,4.2));
#1369 = DIRECTION('',(0.,0.,1.));
#1370 = DIRECTION('',(1.,0.,0.));
#1371 = ADVANCED_FACE('',(#1372),#1419,.T.);
#1372 = FACE_BOUND('',#1373,.T.);
#1373 = EDGE_LOOP('',(#1374,#1375,#1381,#1382,#1390,#1398,#1404,#1412,
    #1418));
#1374 = ORIENTED_EDGE('',*,*,#978,.F.);
#1375 = ORIENTED_EDGE('',*,*,#1376,.F.);
#1376 = EDGE_CURVE('',#987,#979,#1377,.T.);
#1377 = LINE('',#1378,#1379);
#1378 = CARTESIAN_POINT('',(10.,12.7,4.));
#1379 = VECTOR('',#1380,1.);
#1380 = DIRECTION('',(-1.,0.,0.));
#1381 = ORIENTED_EDGE('',*,*,#1006,.T.);
#1382 = ORIENTED_EDGE('',*,*,#1383,.F.);
#1383 = EDGE_CURVE('',#1384,#1007,#1386,.T.);
#1384 = VERTEX_POINT('',#1385);
#1385 = CARTESIAN_POINT('',(12.7,12.7,4.2));
#1386 = LINE('',#1387,#1388);
#1387 = CARTESIAN_POINT('',(12.7,12.7,4.2));
#1388 = VECTOR('',#1389,1.);
#1389 = DIRECTION('',(1.,0.,0.));
#1390 = ORIENTED_EDGE('',*,*,#1391,.T.);
#1391 = EDGE_CURVE('',#1384,#1392,#1394,.T.);
#1392 = VERTEX_POINT('',#1393);
#1393 = CARTESIAN_POINT('',(12.7,12.7,4.4));
#1394 = LINE('',#1395,#1396);
#1395 = CARTESIAN_POINT('',(12.7,12.7,0.));
#1396 = VECTOR('',#1397,1.);
#1397 = DIRECTION('',(0.,0.,1.));
#1398 = ORIENTED_EDGE('',*,*,#1399,.F.);
#1399 = EDGE_CURVE('',#1191,#1392,#1400,.T.);
#1400 = LINE('',#1401,#1402);
#1401 = CARTESIAN_POINT('',(7.3,12.7,4.4));
#1402 = VECTOR('',#1403,1.);
#1403 = DIRECTION('',(1.,0.,0.));
#1404 = ORIENTED_EDGE('',*,*,#1405,.F.);
#1405 = EDGE_CURVE('',#1406,#1191,#1408,.T.);
#1406 = VERTEX_POINT('',#1407);
#1407 = CARTESIAN_POINT('',(7.3,12.7,4.4));
#1408 = LINE('',#1409,#1410);
#1409 = CARTESIAN_POINT('',(7.3,12.7,4.4));
#1410 = VECTOR('',#1411,1.);
#1411 = DIRECTION('',(1.,0.,0.));
#1412 = ORIENTED_EDGE('',*,*,#1413,.F.);
#1413 = EDGE_CURVE('',#1346,#1406,#1414,.T.);
#1414 = LINE('',#1415,#1416);
#1415 = CARTESIAN_POINT('',(7.3,12.7,0.));
#1416 = VECTOR('',#1417,1.);
#1417 = DIRECTION('',(0.,0.,1.));
#1418 = ORIENTED_EDGE('',*,*,#1345,.T.);
#1419 = PLANE('',#1420);
#1420 = AXIS2_PLACEMENT_3D('',#1421,#1422,#1423);
#1421 = CARTESIAN_POINT('',(10.,12.7,2.179434208399));
#1422 = DIRECTION('',(-0.,-1.,-0.));
#1423 = DIRECTION('',(0.,0.,-1.));
#1424 = ADVANCED_FACE('',(#1425),#1429,.F.);
#1425 = FACE_BOUND('',#1426,.F.);
#1426 = EDGE_LOOP('',(#1427,#1428));
#1427 = ORIENTED_EDGE('',*,*,#1376,.F.);
#1428 = ORIENTED_EDGE('',*,*,#986,.F.);
#1429 = PLANE('',#1430);
#1430 = AXIS2_PLACEMENT_3D('',#1431,#1432,#1433);
#1431 = CARTESIAN_POINT('',(10.,10.,4.));
#1432 = DIRECTION('',(0.,0.,1.));
#1433 = DIRECTION('',(1.,0.,0.));
#1434 = ADVANCED_FACE('',(#1435),#1453,.F.);
#1435 = FACE_BOUND('',#1436,.T.);
#1436 = EDGE_LOOP('',(#1437,#1438,#1446,#1452));
#1437 = ORIENTED_EDGE('',*,*,#1014,.T.);
#1438 = ORIENTED_EDGE('',*,*,#1439,.T.);
#1439 = EDGE_CURVE('',#1015,#1440,#1442,.T.);
#1440 = VERTEX_POINT('',#1441);
#1441 = CARTESIAN_POINT('',(12.7,7.3,4.2));
#1442 = LINE('',#1443,#1444);
#1443 = CARTESIAN_POINT('',(13.968626966597,7.3,4.2));
#1444 = VECTOR('',#1445,1.);
#1445 = DIRECTION('',(-1.,0.,0.));
#1446 = ORIENTED_EDGE('',*,*,#1447,.T.);
#1447 = EDGE_CURVE('',#1440,#1384,#1448,.T.);
#1448 = LINE('',#1449,#1450);
#1449 = CARTESIAN_POINT('',(12.7,7.3,4.2));
#1450 = VECTOR('',#1451,1.);
#1451 = DIRECTION('',(0.,1.,0.));
#1452 = ORIENTED_EDGE('',*,*,#1383,.T.);
#1453 = PLANE('',#1454);
#1454 = AXIS2_PLACEMENT_3D('',#1455,#1456,#1457);
#1455 = CARTESIAN_POINT('',(10.,10.,4.2));
#1456 = DIRECTION('',(0.,0.,1.));
#1457 = DIRECTION('',(1.,0.,0.));
#1458 = ADVANCED_FACE('',(#1459),#1499,.T.);
#1459 = FACE_BOUND('',#1460,.T.);
#1460 = EDGE_LOOP('',(#1461,#1467,#1468,#1469,#1477,#1483,#1491,#1497,
    #1498));
#1461 = ORIENTED_EDGE('',*,*,#1462,.F.);
#1462 = EDGE_CURVE('',#1032,#1024,#1463,.T.);
#1463 = LINE('',#1464,#1465);
#1464 = CARTESIAN_POINT('',(10.,7.3,4.));
#1465 = VECTOR('',#1466,1.);
#1466 = DIRECTION('',(1.,0.,0.));
#1467 = ORIENTED_EDGE('',*,*,#1040,.T.);
#1468 = ORIENTED_EDGE('',*,*,#1361,.F.);
#1469 = ORIENTED_EDGE('',*,*,#1470,.T.);
#1470 = EDGE_CURVE('',#1354,#1471,#1473,.T.);
#1471 = VERTEX_POINT('',#1472);
#1472 = CARTESIAN_POINT('',(7.3,7.3,4.4));
#1473 = LINE('',#1474,#1475);
#1474 = CARTESIAN_POINT('',(7.3,7.3,0.));
#1475 = VECTOR('',#1476,1.);
#1476 = DIRECTION('',(0.,0.,1.));
#1477 = ORIENTED_EDGE('',*,*,#1478,.F.);
#1478 = EDGE_CURVE('',#1210,#1471,#1479,.T.);
#1479 = LINE('',#1480,#1481);
#1480 = CARTESIAN_POINT('',(12.7,7.3,4.4));
#1481 = VECTOR('',#1482,1.);
#1482 = DIRECTION('',(-1.,0.,0.));
#1483 = ORIENTED_EDGE('',*,*,#1484,.F.);
#1484 = EDGE_CURVE('',#1485,#1210,#1487,.T.);
#1485 = VERTEX_POINT('',#1486);
#1486 = CARTESIAN_POINT('',(12.7,7.3,4.4));
#1487 = LINE('',#1488,#1489);
#1488 = CARTESIAN_POINT('',(12.7,7.3,4.4));
#1489 = VECTOR('',#1490,1.);
#1490 = DIRECTION('',(-1.,0.,0.));
#1491 = ORIENTED_EDGE('',*,*,#1492,.F.);
#1492 = EDGE_CURVE('',#1440,#1485,#1493,.T.);
#1493 = LINE('',#1494,#1495);
#1494 = CARTESIAN_POINT('',(12.7,7.3,0.));
#1495 = VECTOR('',#1496,1.);
#1496 = DIRECTION('',(0.,0.,1.));
#1497 = ORIENTED_EDGE('',*,*,#1439,.F.);
#1498 = ORIENTED_EDGE('',*,*,#1023,.F.);
#1499 = PLANE('',#1500);
#1500 = AXIS2_PLACEMENT_3D('',#1501,#1502,#1503);
#1501 = CARTESIAN_POINT('',(10.,7.3,2.179434208399));
#1502 = DIRECTION('',(0.,1.,0.));
#1503 = DIRECTION('',(0.,0.,1.));
#1504 = ADVANCED_FACE('',(#1505),#1509,.F.);
#1505 = FACE_BOUND('',#1506,.F.);
#1506 = EDGE_LOOP('',(#1507,#1508));
#1507 = ORIENTED_EDGE('',*,*,#1031,.F.);
#1508 = ORIENTED_EDGE('',*,*,#1462,.F.);
#1509 = PLANE('',#1510);
#1510 = AXIS2_PLACEMENT_3D('',#1511,#1512,#1513);
#1511 = CARTESIAN_POINT('',(10.,10.,4.));
#1512 = DIRECTION('',(0.,0.,1.));
#1513 = DIRECTION('',(1.,0.,0.));
#1514 = ADVANCED_FACE('',(#1515),#1525,.F.);
#1515 = FACE_BOUND('',#1516,.F.);
#1516 = EDGE_LOOP('',(#1517,#1518,#1519));
#1517 = ORIENTED_EDGE('',*,*,#1399,.F.);
#1518 = ORIENTED_EDGE('',*,*,#1190,.T.);
#1519 = ORIENTED_EDGE('',*,*,#1520,.F.);
#1520 = EDGE_CURVE('',#1392,#1193,#1521,.T.);
#1521 = LINE('',#1522,#1523);
#1522 = CARTESIAN_POINT('',(12.7,12.7,4.4));
#1523 = VECTOR('',#1524,1.);
#1524 = DIRECTION('',(0.,-1.,0.));
#1525 = PLANE('',#1526);
#1526 = AXIS2_PLACEMENT_3D('',#1527,#1528,#1529);
#1527 = CARTESIAN_POINT('',(10.,10.,4.4));
#1528 = DIRECTION('',(0.,0.,1.));
#1529 = DIRECTION('',(1.,0.,0.));
#1530 = ADVANCED_FACE('',(#1531),#1541,.F.);
#1531 = FACE_BOUND('',#1532,.F.);
#1532 = EDGE_LOOP('',(#1533,#1539,#1540));
#1533 = ORIENTED_EDGE('',*,*,#1534,.F.);
#1534 = EDGE_CURVE('',#1219,#1406,#1535,.T.);
#1535 = LINE('',#1536,#1537);
#1536 = CARTESIAN_POINT('',(7.3,7.3,4.4));
#1537 = VECTOR('',#1538,1.);
#1538 = DIRECTION('',(0.,1.,0.));
#1539 = ORIENTED_EDGE('',*,*,#1227,.T.);
#1540 = ORIENTED_EDGE('',*,*,#1405,.F.);
#1541 = PLANE('',#1542);
#1542 = AXIS2_PLACEMENT_3D('',#1543,#1544,#1545);
#1543 = CARTESIAN_POINT('',(10.,10.,4.4));
#1544 = DIRECTION('',(0.,0.,1.));
#1545 = DIRECTION('',(1.,0.,0.));
#1546 = ADVANCED_FACE('',(#1547),#1557,.F.);
#1547 = FACE_BOUND('',#1548,.F.);
#1548 = EDGE_LOOP('',(#1549,#1555,#1556));
#1549 = ORIENTED_EDGE('',*,*,#1550,.F.);
#1550 = EDGE_CURVE('',#1471,#1219,#1551,.T.);
#1551 = LINE('',#1552,#1553);
#1552 = CARTESIAN_POINT('',(7.3,7.3,4.4));
#1553 = VECTOR('',#1554,1.);
#1554 = DIRECTION('',(0.,1.,0.));
#1555 = ORIENTED_EDGE('',*,*,#1478,.F.);
#1556 = ORIENTED_EDGE('',*,*,#1218,.T.);
#1557 = PLANE('',#1558);
#1558 = AXIS2_PLACEMENT_3D('',#1559,#1560,#1561);
#1559 = CARTESIAN_POINT('',(10.,10.,4.4));
#1560 = DIRECTION('',(0.,0.,1.));
#1561 = DIRECTION('',(1.,0.,0.));
#1562 = ADVANCED_FACE('',(#1563),#1573,.F.);
#1563 = FACE_BOUND('',#1564,.F.);
#1564 = EDGE_LOOP('',(#1565,#1566,#1567));
#1565 = ORIENTED_EDGE('',*,*,#1209,.T.);
#1566 = ORIENTED_EDGE('',*,*,#1484,.F.);
#1567 = ORIENTED_EDGE('',*,*,#1568,.F.);
#1568 = EDGE_CURVE('',#1193,#1485,#1569,.T.);
#1569 = LINE('',#1570,#1571);
#1570 = CARTESIAN_POINT('',(12.7,12.7,4.4));
#1571 = VECTOR('',#1572,1.);
#1572 = DIRECTION('',(0.,-1.,0.));
#1573 = PLANE('',#1574);
#1574 = AXIS2_PLACEMENT_3D('',#1575,#1576,#1577);
#1575 = CARTESIAN_POINT('',(10.,10.,4.4));
#1576 = DIRECTION('',(0.,0.,1.));
#1577 = DIRECTION('',(1.,0.,0.));
#1578 = ADVANCED_FACE('',(#1579),#1604,.F.);
#1579 = FACE_BOUND('',#1580,.T.);
#1580 = EDGE_LOOP('',(#1581,#1589,#1590,#1598));
#1581 = ORIENTED_EDGE('',*,*,#1582,.F.);
#1582 = EDGE_CURVE('',#1243,#1583,#1585,.T.);
#1583 = VERTEX_POINT('',#1584);
#1584 = CARTESIAN_POINT('',(23.5,12.5,12.));
#1585 = LINE('',#1586,#1587);
#1586 = CARTESIAN_POINT('',(25.666666666667,10.333333333333,
    14.166666666667));
#1587 = VECTOR('',#1588,1.);
#1588 = DIRECTION('',(0.57735026919,-0.57735026919,0.57735026919));
#1589 = ORIENTED_EDGE('',*,*,#1250,.T.);
#1590 = ORIENTED_EDGE('',*,*,#1591,.T.);
#1591 = EDGE_CURVE('',#1251,#1592,#1594,.T.);
#1592 = VERTEX_POINT('',#1593);
#1593 = CARTESIAN_POINT('',(23.5,7.5,12.));
#1594 = LINE('',#1595,#1596);
#1595 = CARTESIAN_POINT('',(24.166666666667,8.166666666667,
    12.666666666667));
#1596 = VECTOR('',#1597,1.);
#1597 = DIRECTION('',(0.57735026919,0.57735026919,0.57735026919));
#1598 = ORIENTED_EDGE('',*,*,#1599,.F.);
#1599 = EDGE_CURVE('',#1583,#1592,#1600,.T.);
#1600 = LINE('',#1601,#1602);
#1601 = CARTESIAN_POINT('',(23.5,13.,12.));
#1602 = VECTOR('',#1603,1.);
#1603 = DIRECTION('',(0.,-1.,0.));
#1604 = PLANE('',#1605);
#1605 = AXIS2_PLACEMENT_3D('',#1606,#1607,#1608);
#1606 = CARTESIAN_POINT('',(23.25,13.,11.75));
#1607 = DIRECTION('',(0.707106781187,0.,-0.707106781187));
#1608 = DIRECTION('',(0.,1.,0.));
#1609 = ADVANCED_FACE('',(#1610),#1628,.F.);
#1610 = FACE_BOUND('',#1611,.T.);
#1611 = EDGE_LOOP('',(#1612,#1613,#1614,#1622));
#1612 = ORIENTED_EDGE('',*,*,#1591,.F.);
#1613 = ORIENTED_EDGE('',*,*,#1277,.T.);
#1614 = ORIENTED_EDGE('',*,*,#1615,.T.);
#1615 = EDGE_CURVE('',#1278,#1616,#1618,.T.);
#1616 = VERTEX_POINT('',#1617);
#1617 = CARTESIAN_POINT('',(37.5,7.5,12.));
#1618 = LINE('',#1619,#1620);
#1619 = CARTESIAN_POINT('',(35.333333333333,9.666666666667,
    14.166666666667));
#1620 = VECTOR('',#1621,1.);
#1621 = DIRECTION('',(-0.57735026919,0.57735026919,0.57735026919));
#1622 = ORIENTED_EDGE('',*,*,#1623,.F.);
#1623 = EDGE_CURVE('',#1592,#1616,#1624,.T.);
#1624 = LINE('',#1625,#1626);
#1625 = CARTESIAN_POINT('',(23.,7.5,12.));
#1626 = VECTOR('',#1627,1.);
#1627 = DIRECTION('',(1.,0.,0.));
#1628 = PLANE('',#1629);
#1629 = AXIS2_PLACEMENT_3D('',#1630,#1631,#1632);
#1630 = CARTESIAN_POINT('',(23.,7.25,11.75));
#1631 = DIRECTION('',(0.,0.707106781187,-0.707106781187));
#1632 = DIRECTION('',(-1.,-0.,-0.));
#1633 = ADVANCED_FACE('',(#1634),#1652,.F.);
#1634 = FACE_BOUND('',#1635,.T.);
#1635 = EDGE_LOOP('',(#1636,#1637,#1638,#1646));
#1636 = ORIENTED_EDGE('',*,*,#1615,.F.);
#1637 = ORIENTED_EDGE('',*,*,#1301,.T.);
#1638 = ORIENTED_EDGE('',*,*,#1639,.T.);
#1639 = EDGE_CURVE('',#1302,#1640,#1642,.T.);
#1640 = VERTEX_POINT('',#1641);
#1641 = CARTESIAN_POINT('',(37.5,12.5,12.));
#1642 = LINE('',#1643,#1644);
#1643 = CARTESIAN_POINT('',(36.833333333333,11.833333333333,
    12.666666666667));
#1644 = VECTOR('',#1645,1.);
#1645 = DIRECTION('',(-0.57735026919,-0.57735026919,0.57735026919));
#1646 = ORIENTED_EDGE('',*,*,#1647,.F.);
#1647 = EDGE_CURVE('',#1616,#1640,#1648,.T.);
#1648 = LINE('',#1649,#1650);
#1649 = CARTESIAN_POINT('',(37.5,7.,12.));
#1650 = VECTOR('',#1651,1.);
#1651 = DIRECTION('',(0.,1.,0.));
#1652 = PLANE('',#1653);
#1653 = AXIS2_PLACEMENT_3D('',#1654,#1655,#1656);
#1654 = CARTESIAN_POINT('',(37.75,7.,11.75));
#1655 = DIRECTION('',(-0.707106781187,0.,-0.707106781187));
#1656 = DIRECTION('',(-0.,-1.,-0.));
#1657 = ADVANCED_FACE('',(#1658),#1669,.F.);
#1658 = FACE_BOUND('',#1659,.T.);
#1659 = EDGE_LOOP('',(#1660,#1661,#1662,#1663));
#1660 = ORIENTED_EDGE('',*,*,#1639,.F.);
#1661 = ORIENTED_EDGE('',*,*,#1328,.T.);
#1662 = ORIENTED_EDGE('',*,*,#1582,.T.);
#1663 = ORIENTED_EDGE('',*,*,#1664,.F.);
#1664 = EDGE_CURVE('',#1640,#1583,#1665,.T.);
#1665 = LINE('',#1666,#1667);
#1666 = CARTESIAN_POINT('',(38.,12.5,12.));
#1667 = VECTOR('',#1668,1.);
#1668 = DIRECTION('',(-1.,0.,0.));
#1669 = PLANE('',#1670);
#1670 = AXIS2_PLACEMENT_3D('',#1671,#1672,#1673);
#1671 = CARTESIAN_POINT('',(38.,12.75,11.75));
#1672 = DIRECTION('',(0.,-0.707106781187,-0.707106781187));
#1673 = DIRECTION('',(1.,0.,0.));
#1674 = ADVANCED_FACE('',(#1675),#1682,.T.);
#1675 = FACE_BOUND('',#1676,.T.);
#1676 = EDGE_LOOP('',(#1677,#1678,#1679,#1680,#1681));
#1677 = ORIENTED_EDGE('',*,*,#1470,.F.);
#1678 = ORIENTED_EDGE('',*,*,#1353,.F.);
#1679 = ORIENTED_EDGE('',*,*,#1413,.T.);
#1680 = ORIENTED_EDGE('',*,*,#1534,.F.);
#1681 = ORIENTED_EDGE('',*,*,#1550,.F.);
#1682 = PLANE('',#1683);
#1683 = AXIS2_PLACEMENT_3D('',#1684,#1685,#1686);
#1684 = CARTESIAN_POINT('',(7.3,10.,2.2));
#1685 = DIRECTION('',(1.,0.,0.));
#1686 = DIRECTION('',(0.,0.,1.));
#1687 = ADVANCED_FACE('',(#1688),#1695,.T.);
#1688 = FACE_BOUND('',#1689,.T.);
#1689 = EDGE_LOOP('',(#1690,#1691,#1692,#1693,#1694));
#1690 = ORIENTED_EDGE('',*,*,#1391,.F.);
#1691 = ORIENTED_EDGE('',*,*,#1447,.F.);
#1692 = ORIENTED_EDGE('',*,*,#1492,.T.);
#1693 = ORIENTED_EDGE('',*,*,#1568,.F.);
#1694 = ORIENTED_EDGE('',*,*,#1520,.F.);
#1695 = PLANE('',#1696);
#1696 = AXIS2_PLACEMENT_3D('',#1697,#1698,#1699);
#1697 = CARTESIAN_POINT('',(12.7,10.,2.2));
#1698 = DIRECTION('',(-1.,-0.,-0.));
#1699 = DIRECTION('',(0.,0.,-1.));
#1700 = ADVANCED_FACE('',(#1701),#1707,.T.);
#1701 = FACE_BOUND('',#1702,.T.);
#1702 = EDGE_LOOP('',(#1703,#1704,#1705,#1706));
#1703 = ORIENTED_EDGE('',*,*,#1623,.T.);
#1704 = ORIENTED_EDGE('',*,*,#1647,.T.);
#1705 = ORIENTED_EDGE('',*,*,#1664,.T.);
#1706 = ORIENTED_EDGE('',*,*,#1599,.T.);
#1707 = PLANE('',#1708);
#1708 = AXIS2_PLACEMENT_3D('',#1709,#1710,#1711);
#1709 = CARTESIAN_POINT('',(30.5,10.,12.));
#1710 = DIRECTION('',(0.,0.,1.));
#1711 = DIRECTION('',(1.,0.,0.));
#1712 = ( GEOMETRIC_REPRESENTATION_CONTEXT(3) 
GLOBAL_UNCERTAINTY_ASSIGNED_CONTEXT((#1716)) 
GLOBAL_UNIT_ASSIGNED_CONTEXT((#1713,#1714,#1715)) REPRESENTATION_CONTEXT
('Context #1','3D Context with UNIT and UNCERTAINTY') );
#1713 = ( LENGTH_UNIT() NAMED_UNIT(*) SI_UNIT(.MILLI.,.METRE.) );
#1714 = ( NAMED_UNIT(*) PLANE_ANGLE_UNIT() SI_UNIT($,.RADIAN.) );
#1715 = ( NAMED_UNIT(*) SI_UNIT($,.STERADIAN.) SOLID_ANGLE_UNIT() );
#1716 = UNCERTAINTY_MEASURE_WITH_UNIT(LENGTH_MEASURE(5.E-06),#1713,
  'distance_accuracy_value','confusion accuracy');
#1717 = PRODUCT_RELATED_PRODUCT_CATEGORY('part',$,(#7));
#1718 = MECHANICAL_DESIGN_GEOMETRIC_PRESENTATION_REPRESENTATION('',(
    #1719),#1712);
#1719 = STYLED_ITEM('color',(#1720),#15);
#1720 = PRESENTATION_STYLE_ASSIGNMENT((#1721,#1727));
#1721 = SURFACE_STYLE_USAGE(.BOTH.,#1722);
#1722 = SURFACE_SIDE_STYLE('',(#1723));
#1723 = SURFACE_STYLE_FILL_AREA(#1724);
#1724 = FILL_AREA_STYLE('',(#1725));
#1725 = FILL_AREA_STYLE_COLOUR('',#1726);
#1726 = COLOUR_RGB('',0.678431390124,0.709803936702,0.741176476869);
#1727 = CURVE_STYLE('',#1728,POSITIVE_LENGTH_MEASURE(0.1),#1729);
#1728 = DRAUGHTING_PRE_DEFINED_CURVE_FONT('continuous');
#1729 = COLOUR_RGB('',9.803921802644E-02,9.803921802644E-02,
  9.803921802644E-02);
ENDSEC;
END-ISO-10303-21;
