ISO-10303-21;
HEADER;
FILE_DESCRIPTION(('FreeCAD Model'),'2;1');
FILE_NAME('Open CASCADE Shape Model','2026-07-13T14:22:57',(''),(''),
  'Open CASCADE STEP processor 7.8','FreeCAD','Unknown');
FILE_SCHEMA(('AUTOMOTIVE_DESIGN { 1 0 10303 214 1 1 1 1 }'));
ENDSEC;
DATA;
#1 = APPLICATION_PROTOCOL_DEFINITION('international standard',
  'automotive_design',2000,#2);
#2 = APPLICATION_CONTEXT(
  'core data for automotive mechanical design processes');
#3 = SHAPE_DEFINITION_REPRESENTATION(#4,#10);
#4 = PRODUCT_DEFINITION_SHAPE('','',#5);
#5 = PRODUCT_DEFINITION('design','',#6,#9);
#6 = PRODUCT_DEFINITION_FORMATION('','',#7);
#7 = PRODUCT('FanToHoseAdapter','FanToHoseAdapter','',(#8));
#8 = PRODUCT_CONTEXT('',#2,'mechanical');
#9 = PRODUCT_DEFINITION_CONTEXT('part definition',#2,'design');
#10 = ADVANCED_BREP_SHAPE_REPRESENTATION('',(#11,#15),#1693);
#11 = AXIS2_PLACEMENT_3D('',#12,#13,#14);
#12 = CARTESIAN_POINT('',(0.,0.,0.));
#13 = DIRECTION('',(0.,0.,1.));
#14 = DIRECTION('',(1.,0.,-0.));
#15 = MANIFOLD_SOLID_BREP('',#16);
#16 = CLOSED_SHELL('',(#17,#142,#167,#214,#238,#263,#334,#358,#394,#430,
    #454,#478,#496,#532,#557,#582,#599,#773,#854,#936,#951,#1017,#1034,
    #1067,#1092,#1116,#1141,#1165,#1190,#1214,#1232,#1257,#1282,#1307,
    #1332,#1357,#1428,#1448,#1468,#1488,#1508,#1525,#1550,#1575,#1600,
    #1625,#1642,#1659,#1676));
#17 = ADVANCED_FACE('',(#18,#29,#115,#126),#137,.F.);
#18 = FACE_BOUND('',#19,.F.);
#19 = EDGE_LOOP('',(#20));
#20 = ORIENTED_EDGE('',*,*,#21,.T.);
#21 = EDGE_CURVE('',#22,#22,#24,.T.);
#22 = VERTEX_POINT('',#23);
#23 = CARTESIAN_POINT('',(8.362505430062,-3.,26.));
#24 = CIRCLE('',#25,2.75);
#25 = AXIS2_PLACEMENT_3D('',#26,#27,#28);
#26 = CARTESIAN_POINT('',(5.612505430062,-3.,26.));
#27 = DIRECTION('',(0.,-1.,0.));
#28 = DIRECTION('',(1.,0.,0.));
#29 = FACE_BOUND('',#30,.F.);
#30 = EDGE_LOOP('',(#31,#41,#49,#57,#66,#74,#83,#91,#100,#108));
#31 = ORIENTED_EDGE('',*,*,#32,.F.);
#32 = EDGE_CURVE('',#33,#35,#37,.T.);
#33 = VERTEX_POINT('',#34);
#34 = CARTESIAN_POINT('',(36.121637908773,-3.,6.5));
#35 = VERTEX_POINT('',#36);
#36 = CARTESIAN_POINT('',(37.542164969869,-3.,7.494663756411));
#37 = LINE('',#38,#39);
#38 = CARTESIAN_POINT('',(32.551267891917,-3.,4.));
#39 = VECTOR('',#40,1.);
#40 = DIRECTION('',(0.819152044289,1.273595532039E-16,0.573576436351));
#41 = ORIENTED_EDGE('',*,*,#42,.F.);
#42 = EDGE_CURVE('',#43,#33,#45,.T.);
#43 = VERTEX_POINT('',#44);
#44 = CARTESIAN_POINT('',(16.058765139013,-3.,6.5));
#45 = LINE('',#46,#47);
#46 = CARTESIAN_POINT('',(19.629135155868,-3.,6.5));
#47 = VECTOR('',#48,1.);
#48 = DIRECTION('',(1.,0.,0.));
#49 = ORIENTED_EDGE('',*,*,#50,.T.);
#50 = EDGE_CURVE('',#43,#51,#53,.T.);
#51 = VERTEX_POINT('',#52);
#52 = CARTESIAN_POINT('',(12.830294545612,-3.,8.760599446388));
#53 = LINE('',#54,#55);
#54 = CARTESIAN_POINT('',(19.629135155868,-3.,4.));
#55 = VECTOR('',#56,1.);
#56 = DIRECTION('',(-0.819152044289,1.273595532039E-16,0.573576436351));
#57 = ORIENTED_EDGE('',*,*,#58,.F.);
#58 = EDGE_CURVE('',#59,#51,#61,.T.);
#59 = VERTEX_POINT('',#60);
#60 = CARTESIAN_POINT('',(10.164798633832,-3.,11.285156249999));
#61 = CIRCLE('',#62,12.5);
#62 = AXIS2_PLACEMENT_3D('',#63,#64,#65);
#63 = CARTESIAN_POINT('',(20.,-3.,19.));
#64 = DIRECTION('',(0.,-1.,2.22044604925E-16));
#65 = DIRECTION('',(1.,0.,0.));
#66 = ORIENTED_EDGE('',*,*,#67,.F.);
#67 = EDGE_CURVE('',#68,#59,#70,.T.);
#68 = VERTEX_POINT('',#69);
#69 = CARTESIAN_POINT('',(1.285016828948,-3.,22.605468749999));
#70 = LINE('',#71,#72);
#71 = CARTESIAN_POINT('',(1.285016828948,-3.,22.605468749998));
#72 = VECTOR('',#73,1.);
#73 = DIRECTION('',(0.6171875,-1.747082721367E-16,-0.786816109293));
#74 = ORIENTED_EDGE('',*,*,#75,.F.);
#75 = EDGE_CURVE('',#76,#68,#78,.T.);
#76 = VERTEX_POINT('',#77);
#77 = CARTESIAN_POINT('',(5.612505430062,-3.,31.5));
#78 = CIRCLE('',#79,5.5);
#79 = AXIS2_PLACEMENT_3D('',#80,#81,#82);
#80 = CARTESIAN_POINT('',(5.612505430062,-3.,26.));
#81 = DIRECTION('',(0.,-1.,2.22044604925E-16));
#82 = DIRECTION('',(1.,0.,0.));
#83 = ORIENTED_EDGE('',*,*,#84,.F.);
#84 = EDGE_CURVE('',#85,#76,#87,.T.);
#85 = VERTEX_POINT('',#86);
#86 = CARTESIAN_POINT('',(20.,-3.,31.5));
#87 = LINE('',#88,#89);
#88 = CARTESIAN_POINT('',(20.,-3.,31.5));
#89 = VECTOR('',#90,1.);
#90 = DIRECTION('',(-1.,0.,0.));
#91 = ORIENTED_EDGE('',*,*,#92,.F.);
#92 = EDGE_CURVE('',#93,#85,#95,.T.);
#93 = VERTEX_POINT('',#94);
#94 = CARTESIAN_POINT('',(29.835201366168,-3.,26.714843750001));
#95 = CIRCLE('',#96,12.5);
#96 = AXIS2_PLACEMENT_3D('',#97,#98,#99);
#97 = CARTESIAN_POINT('',(20.,-3.,19.));
#98 = DIRECTION('',(0.,-1.,2.22044604925E-16));
#99 = DIRECTION('',(1.,0.,0.));
#100 = ORIENTED_EDGE('',*,*,#101,.T.);
#101 = EDGE_CURVE('',#93,#102,#104,.T.);
#102 = VERTEX_POINT('',#103);
#103 = CARTESIAN_POINT('',(38.714983171052,-3.,15.394531250001));
#104 = LINE('',#105,#106);
#105 = CARTESIAN_POINT('',(29.835201366168,-3.,26.714843750001));
#106 = VECTOR('',#107,1.);
#107 = DIRECTION('',(0.6171875,-1.747082721367E-16,-0.786816109293));
#108 = ORIENTED_EDGE('',*,*,#109,.F.);
#109 = EDGE_CURVE('',#35,#102,#110,.T.);
#110 = CIRCLE('',#111,5.5);
#111 = AXIS2_PLACEMENT_3D('',#112,#113,#114);
#112 = CARTESIAN_POINT('',(34.387494569938,-3.,12.));
#113 = DIRECTION('',(0.,-1.,2.22044604925E-16));
#114 = DIRECTION('',(1.,0.,0.));
#115 = FACE_BOUND('',#116,.F.);
#116 = EDGE_LOOP('',(#117));
#117 = ORIENTED_EDGE('',*,*,#118,.T.);
#118 = EDGE_CURVE('',#119,#119,#121,.T.);
#119 = VERTEX_POINT('',#120);
#120 = CARTESIAN_POINT('',(30.9,-3.,19.));
#121 = CIRCLE('',#122,10.9);
#122 = AXIS2_PLACEMENT_3D('',#123,#124,#125);
#123 = CARTESIAN_POINT('',(20.,-3.,19.));
#124 = DIRECTION('',(0.,-1.,2.22044604925E-16));
#125 = DIRECTION('',(1.,0.,0.));
#126 = FACE_BOUND('',#127,.F.);
#127 = EDGE_LOOP('',(#128));
#128 = ORIENTED_EDGE('',*,*,#129,.T.);
#129 = EDGE_CURVE('',#130,#130,#132,.T.);
#130 = VERTEX_POINT('',#131);
#131 = CARTESIAN_POINT('',(37.137494569938,-3.,12.));
#132 = CIRCLE('',#133,2.75);
#133 = AXIS2_PLACEMENT_3D('',#134,#135,#136);
#134 = CARTESIAN_POINT('',(34.387494569938,-3.,12.));
#135 = DIRECTION('',(0.,-1.,0.));
#136 = DIRECTION('',(1.,0.,0.));
#137 = PLANE('',#138);
#138 = AXIS2_PLACEMENT_3D('',#139,#140,#141);
#139 = CARTESIAN_POINT('',(20.072926322719,-3.,18.610564728057));
#140 = DIRECTION('',(0.,1.,0.));
#141 = DIRECTION('',(0.,0.,1.));
#142 = ADVANCED_FACE('',(#143),#162,.F.);
#143 = FACE_BOUND('',#144,.T.);
#144 = EDGE_LOOP('',(#145,#153,#154,#155));
#145 = ORIENTED_EDGE('',*,*,#146,.F.);
#146 = EDGE_CURVE('',#22,#147,#149,.T.);
#147 = VERTEX_POINT('',#148);
#148 = CARTESIAN_POINT('',(7.962505430062,-2.6,26.));
#149 = LINE('',#150,#151);
#150 = CARTESIAN_POINT('',(7.962505430062,-2.6,26.));
#151 = VECTOR('',#152,1.);
#152 = DIRECTION('',(-0.707106781187,0.707106781187,0.));
#153 = ORIENTED_EDGE('',*,*,#21,.T.);
#154 = ORIENTED_EDGE('',*,*,#146,.T.);
#155 = ORIENTED_EDGE('',*,*,#156,.F.);
#156 = EDGE_CURVE('',#147,#147,#157,.T.);
#157 = CIRCLE('',#158,2.35);
#158 = AXIS2_PLACEMENT_3D('',#159,#160,#161);
#159 = CARTESIAN_POINT('',(5.612505430062,-2.6,26.));
#160 = DIRECTION('',(0.,-1.,0.));
#161 = DIRECTION('',(1.,0.,0.));
#162 = CONICAL_SURFACE('',#163,2.35,0.785398163397);
#163 = AXIS2_PLACEMENT_3D('',#164,#165,#166);
#164 = CARTESIAN_POINT('',(5.612505430062,-2.6,26.));
#165 = DIRECTION('',(-0.,-1.,-0.));
#166 = DIRECTION('',(1.,0.,0.));
#167 = ADVANCED_FACE('',(#168),#209,.F.);
#168 = FACE_BOUND('',#169,.F.);
#169 = EDGE_LOOP('',(#170,#180,#186,#187,#195,#203));
#170 = ORIENTED_EDGE('',*,*,#171,.T.);
#171 = EDGE_CURVE('',#172,#174,#176,.T.);
#172 = VERTEX_POINT('',#173);
#173 = CARTESIAN_POINT('',(32.551267891917,2.424713542891E-13,4.));
#174 = VERTEX_POINT('',#175);
#175 = CARTESIAN_POINT('',(32.551267891917,-9.999999999901E-04,4.));
#176 = LINE('',#177,#178);
#177 = CARTESIAN_POINT('',(32.551267891917,1.,4.));
#178 = VECTOR('',#179,1.);
#179 = DIRECTION('',(0.,-1.,2.22044604925E-16));
#180 = ORIENTED_EDGE('',*,*,#181,.T.);
#181 = EDGE_CURVE('',#174,#33,#182,.T.);
#182 = LINE('',#183,#184);
#183 = CARTESIAN_POINT('',(29.903498253323,2.22304431716,2.146011739613)
  );
#184 = VECTOR('',#185,1.);
#185 = DIRECTION('',(0.674838430594,-0.566843336628,0.472526956176));
#186 = ORIENTED_EDGE('',*,*,#32,.T.);
#187 = ORIENTED_EDGE('',*,*,#188,.F.);
#188 = EDGE_CURVE('',#189,#35,#191,.T.);
#189 = VERTEX_POINT('',#190);
#190 = CARTESIAN_POINT('',(37.542164969869,1.,7.494663756411));
#191 = LINE('',#192,#193);
#192 = CARTESIAN_POINT('',(37.542164969869,1.,7.494663756411));
#193 = VECTOR('',#194,1.);
#194 = DIRECTION('',(0.,-1.,2.22044604925E-16));
#195 = ORIENTED_EDGE('',*,*,#196,.F.);
#196 = EDGE_CURVE('',#197,#189,#199,.T.);
#197 = VERTEX_POINT('',#198);
#198 = CARTESIAN_POINT('',(32.551267891917,1.,4.));
#199 = LINE('',#200,#201);
#200 = CARTESIAN_POINT('',(32.551267891917,1.,4.));
#201 = VECTOR('',#202,1.);
#202 = DIRECTION('',(0.819152044289,1.273595532039E-16,0.573576436351));
#203 = ORIENTED_EDGE('',*,*,#204,.T.);
#204 = EDGE_CURVE('',#197,#172,#205,.T.);
#205 = LINE('',#206,#207);
#206 = CARTESIAN_POINT('',(32.551267891917,1.,4.));
#207 = VECTOR('',#208,1.);
#208 = DIRECTION('',(0.,-1.,2.22044604925E-16));
#209 = PLANE('',#210);
#210 = AXIS2_PLACEMENT_3D('',#211,#212,#213);
#211 = CARTESIAN_POINT('',(32.551267891917,1.,4.));
#212 = DIRECTION('',(-0.573576436351,1.818882920477E-16,0.819152044289)
  );
#213 = DIRECTION('',(0.819152044289,1.273595532039E-16,0.573576436351));
#214 = ADVANCED_FACE('',(#215),#233,.T.);
#215 = FACE_BOUND('',#216,.T.);
#216 = EDGE_LOOP('',(#217,#225,#231,#232));
#217 = ORIENTED_EDGE('',*,*,#218,.F.);
#218 = EDGE_CURVE('',#219,#43,#221,.T.);
#219 = VERTEX_POINT('',#220);
#220 = CARTESIAN_POINT('',(19.629135155868,-9.999999999903E-04,4.));
#221 = LINE('',#222,#223);
#222 = CARTESIAN_POINT('',(19.334490541248,-0.248492331347,4.20631238025
    ));
#223 = VECTOR('',#224,1.);
#224 = DIRECTION('',(-0.674838430594,-0.566843336628,0.472526956176));
#225 = ORIENTED_EDGE('',*,*,#226,.T.);
#226 = EDGE_CURVE('',#219,#174,#227,.T.);
#227 = LINE('',#228,#229);
#228 = CARTESIAN_POINT('',(19.629135155868,-9.99999999991E-04,4.));
#229 = VECTOR('',#230,1.);
#230 = DIRECTION('',(1.,0.,0.));
#231 = ORIENTED_EDGE('',*,*,#181,.T.);
#232 = ORIENTED_EDGE('',*,*,#42,.F.);
#233 = PLANE('',#234);
#234 = AXIS2_PLACEMENT_3D('',#235,#236,#237);
#235 = CARTESIAN_POINT('',(19.629135155868,-1.5005,5.25));
#236 = DIRECTION('',(2.979609856588E-17,-0.640310353751,-0.76811630036)
  );
#237 = DIRECTION('',(1.,1.907875041313E-17,2.288686899559E-17));
#238 = ADVANCED_FACE('',(#239),#258,.T.);
#239 = FACE_BOUND('',#240,.F.);
#240 = EDGE_LOOP('',(#241,#242,#243,#251));
#241 = ORIENTED_EDGE('',*,*,#188,.T.);
#242 = ORIENTED_EDGE('',*,*,#109,.T.);
#243 = ORIENTED_EDGE('',*,*,#244,.F.);
#244 = EDGE_CURVE('',#245,#102,#247,.T.);
#245 = VERTEX_POINT('',#246);
#246 = CARTESIAN_POINT('',(38.714983171052,1.,15.394531250001));
#247 = LINE('',#248,#249);
#248 = CARTESIAN_POINT('',(38.714983171052,1.,15.394531250001));
#249 = VECTOR('',#250,1.);
#250 = DIRECTION('',(0.,-1.,2.22044604925E-16));
#251 = ORIENTED_EDGE('',*,*,#252,.F.);
#252 = EDGE_CURVE('',#189,#245,#253,.T.);
#253 = CIRCLE('',#254,5.5);
#254 = AXIS2_PLACEMENT_3D('',#255,#256,#257);
#255 = CARTESIAN_POINT('',(34.387494569938,1.,12.));
#256 = DIRECTION('',(0.,-1.,2.22044604925E-16));
#257 = DIRECTION('',(1.,0.,0.));
#258 = CYLINDRICAL_SURFACE('',#259,5.5);
#259 = AXIS2_PLACEMENT_3D('',#260,#261,#262);
#260 = CARTESIAN_POINT('',(34.387494569938,1.,12.));
#261 = DIRECTION('',(0.,1.,-2.22044604925E-16));
#262 = DIRECTION('',(1.,0.,0.));
#263 = ADVANCED_FACE('',(#264),#329,.T.);
#264 = FACE_BOUND('',#265,.T.);
#265 = EDGE_LOOP('',(#266,#267,#275,#283,#314,#322,#328));
#266 = ORIENTED_EDGE('',*,*,#50,.T.);
#267 = ORIENTED_EDGE('',*,*,#268,.F.);
#268 = EDGE_CURVE('',#269,#51,#271,.T.);
#269 = VERTEX_POINT('',#270);
#270 = CARTESIAN_POINT('',(12.830294545612,1.,8.760599446388));
#271 = LINE('',#272,#273);
#272 = CARTESIAN_POINT('',(12.830294545612,1.,8.760599446388));
#273 = VECTOR('',#274,1.);
#274 = DIRECTION('',(0.,-1.,2.22044604925E-16));
#275 = ORIENTED_EDGE('',*,*,#276,.F.);
#276 = EDGE_CURVE('',#277,#269,#279,.T.);
#277 = VERTEX_POINT('',#278);
#278 = CARTESIAN_POINT('',(19.26166301087,1.,4.257306766009));
#279 = LINE('',#280,#281);
#280 = CARTESIAN_POINT('',(19.629135155868,1.,4.));
#281 = VECTOR('',#282,1.);
#282 = DIRECTION('',(-0.819152044289,1.273595532039E-16,0.573576436351)
  );
#283 = ORIENTED_EDGE('',*,*,#284,.F.);
#284 = EDGE_CURVE('',#285,#277,#287,.T.);
#285 = VERTEX_POINT('',#286);
#286 = CARTESIAN_POINT('',(19.629135155871,0.40350903511,4.));
#287 = B_SPLINE_CURVE_WITH_KNOTS('',7,(#288,#289,#290,#291,#292,#293,
    #294,#295,#296,#297,#298,#299,#300,#301,#302,#303,#304,#305,#306,
    #307,#308,#309,#310,#311,#312,#313),.UNSPECIFIED.,.F.,.F.,(8,6,6,6,8
    ),(0.,0.497337447669,0.736612972083,0.860341758299,1.),
  .UNSPECIFIED.);
#288 = CARTESIAN_POINT('',(19.629135155868,0.40350903511,4.));
#289 = CARTESIAN_POINT('',(19.603333941993,0.448034563489,4.01806620445)
  );
#290 = CARTESIAN_POINT('',(19.577375704814,0.492418104067,4.036242357802
    ));
#291 = CARTESIAN_POINT('',(19.551255366808,0.536653592653,4.054532015374
    ));
#292 = CARTESIAN_POINT('',(19.524967533697,0.580734405569,4.072938954281
    ));
#293 = CARTESIAN_POINT('',(19.49850649445,0.62465335965,4.091467173431)
  );
#294 = CARTESIAN_POINT('',(19.47186622128,0.668402712239,4.110120893525)
  );
#295 = CARTESIAN_POINT('',(19.432134102992,0.732936952849,4.137941622259
    ));
#296 = CARTESIAN_POINT('',(19.419184878644,0.753858554257,4.147008766761
    ));
#297 = CARTESIAN_POINT('',(19.406191987699,0.774738034088,4.156106486944
    ));
#298 = CARTESIAN_POINT('',(19.393154701575,0.795574421694,4.165235292966
    ));
#299 = CARTESIAN_POINT('',(19.380072272015,0.816366707109,4.174395708762
    ));
#300 = CARTESIAN_POINT('',(19.366943931087,0.83711384105,4.183588272044)
  );
#301 = CARTESIAN_POINT('',(19.346956110393,0.868519116308,4.197583894766
    ));
#302 = CARTESIAN_POINT('',(19.34014616692,0.879187055517,4.202352268521)
  );
#303 = CARTESIAN_POINT('',(19.333339015648,0.889818560263,4.207118687155
    ));
#304 = CARTESIAN_POINT('',(19.326534611039,0.900413638147,4.211883182556
    ));
#305 = CARTESIAN_POINT('',(19.319732907124,0.910972296656,4.21664578691)
  );
#306 = CARTESIAN_POINT('',(19.312933857509,0.921494543152,4.221406532703
    ));
#307 = CARTESIAN_POINT('',(19.298465965679,0.943816225706,4.231537059624
    ));
#308 = CARTESIAN_POINT('',(19.292824237691,0.95248105104,4.23548744009)
  );
#309 = CARTESIAN_POINT('',(19.286847100059,0.961649940044,4.239672676917
    ));
#310 = CARTESIAN_POINT('',(19.279430655491,0.973020505219,4.24486572731)
  );
#311 = CARTESIAN_POINT('',(19.270949693232,0.985921910105,4.250804161015
    ));
#312 = CARTESIAN_POINT('',(19.263613317278,0.997043516578,4.255941146761
    ));
#313 = CARTESIAN_POINT('',(19.26166301087,1.,4.257306766009));
#314 = ORIENTED_EDGE('',*,*,#315,.T.);
#315 = EDGE_CURVE('',#285,#316,#318,.T.);
#316 = VERTEX_POINT('',#317);
#317 = CARTESIAN_POINT('',(19.629135155868,2.424713542891E-13,4.));
#318 = LINE('',#319,#320);
#319 = CARTESIAN_POINT('',(19.629135155868,1.,4.));
#320 = VECTOR('',#321,1.);
#321 = DIRECTION('',(0.,-1.,2.22044604925E-16));
#322 = ORIENTED_EDGE('',*,*,#323,.T.);
#323 = EDGE_CURVE('',#316,#219,#324,.T.);
#324 = LINE('',#325,#326);
#325 = CARTESIAN_POINT('',(19.629135155868,1.,4.));
#326 = VECTOR('',#327,1.);
#327 = DIRECTION('',(0.,-1.,2.22044604925E-16));
#328 = ORIENTED_EDGE('',*,*,#218,.T.);
#329 = PLANE('',#330);
#330 = AXIS2_PLACEMENT_3D('',#331,#332,#333);
#331 = CARTESIAN_POINT('',(19.629135155868,1.,4.));
#332 = DIRECTION('',(-0.573576436351,-1.818882920477E-16,-0.819152044289
    ));
#333 = DIRECTION('',(-0.819152044289,1.273595532039E-16,0.573576436351)
  );
#334 = ADVANCED_FACE('',(#335),#353,.T.);
#335 = FACE_BOUND('',#336,.T.);
#336 = EDGE_LOOP('',(#337,#345,#346,#347));
#337 = ORIENTED_EDGE('',*,*,#338,.T.);
#338 = EDGE_CURVE('',#339,#93,#341,.T.);
#339 = VERTEX_POINT('',#340);
#340 = CARTESIAN_POINT('',(29.835201366168,1.,26.714843750001));
#341 = LINE('',#342,#343);
#342 = CARTESIAN_POINT('',(29.835201366168,1.,26.714843750001));
#343 = VECTOR('',#344,1.);
#344 = DIRECTION('',(0.,-1.,2.22044604925E-16));
#345 = ORIENTED_EDGE('',*,*,#101,.T.);
#346 = ORIENTED_EDGE('',*,*,#244,.F.);
#347 = ORIENTED_EDGE('',*,*,#348,.F.);
#348 = EDGE_CURVE('',#339,#245,#349,.T.);
#349 = LINE('',#350,#351);
#350 = CARTESIAN_POINT('',(29.835201366168,1.,26.714843750001));
#351 = VECTOR('',#352,1.);
#352 = DIRECTION('',(0.6171875,-1.747082721367E-16,-0.786816109293));
#353 = PLANE('',#354);
#354 = AXIS2_PLACEMENT_3D('',#355,#356,#357);
#355 = CARTESIAN_POINT('',(29.835201366168,1.,26.714843750001));
#356 = DIRECTION('',(0.786816109293,1.370431546022E-16,0.6171875));
#357 = DIRECTION('',(0.6171875,-1.747082721367E-16,-0.786816109293));
#358 = ADVANCED_FACE('',(#359),#389,.T.);
#359 = FACE_BOUND('',#360,.F.);
#360 = EDGE_LOOP('',(#361,#369,#370,#371));
#361 = ORIENTED_EDGE('',*,*,#362,.T.);
#362 = EDGE_CURVE('',#363,#59,#365,.T.);
#363 = VERTEX_POINT('',#364);
#364 = CARTESIAN_POINT('',(10.164798633832,1.,11.285156249999));
#365 = LINE('',#366,#367);
#366 = CARTESIAN_POINT('',(10.164798633832,1.,11.285156249999));
#367 = VECTOR('',#368,1.);
#368 = DIRECTION('',(0.,-1.,2.22044604925E-16));
#369 = ORIENTED_EDGE('',*,*,#58,.T.);
#370 = ORIENTED_EDGE('',*,*,#268,.F.);
#371 = ORIENTED_EDGE('',*,*,#372,.F.);
#372 = EDGE_CURVE('',#363,#269,#373,.T.);
#373 = B_SPLINE_CURVE_WITH_KNOTS('',14,(#374,#375,#376,#377,#378,#379,
    #380,#381,#382,#383,#384,#385,#386,#387,#388),.UNSPECIFIED.,.T.,.F.,
  (15,15),(0.,1.),.PIECEWISE_BEZIER_KNOTS.);
#374 = CARTESIAN_POINT('',(32.5,1.,19.));
#375 = CARTESIAN_POINT('',(32.500000000003,1.,24.609986881412));
#376 = CARTESIAN_POINT('',(29.788570484995,1.,30.219975833606));
#377 = CARTESIAN_POINT('',(24.365707988736,1.,34.410241832129));
#378 = CARTESIAN_POINT('',(17.042367315759,1.,35.76121994791));
#379 = CARTESIAN_POINT('',(9.440304244947,1.,33.362210762472));
#380 = CARTESIAN_POINT('',(3.63697872931,1.,27.323565566031));
#381 = CARTESIAN_POINT('',(1.452142474326,1.,18.999999999901));
#382 = CARTESIAN_POINT('',(3.636978729337,1.,10.676434434142));
#383 = CARTESIAN_POINT('',(9.440304244907,1.,4.637789237414));
#384 = CARTESIAN_POINT('',(17.042367315796,1.,2.238780052146));
#385 = CARTESIAN_POINT('',(24.365707988713,1.,3.589758167852));
#386 = CARTESIAN_POINT('',(29.788570485005,1.,7.780024166399));
#387 = CARTESIAN_POINT('',(32.500000000001,1.,13.390013118588));
#388 = CARTESIAN_POINT('',(32.5,1.,19.));
#389 = CYLINDRICAL_SURFACE('',#390,12.5);
#390 = AXIS2_PLACEMENT_3D('',#391,#392,#393);
#391 = CARTESIAN_POINT('',(20.,1.,19.));
#392 = DIRECTION('',(0.,1.,-2.22044604925E-16));
#393 = DIRECTION('',(1.,0.,0.));
#394 = ADVANCED_FACE('',(#395),#425,.T.);
#395 = FACE_BOUND('',#396,.F.);
#396 = EDGE_LOOP('',(#397,#398,#399,#407));
#397 = ORIENTED_EDGE('',*,*,#338,.T.);
#398 = ORIENTED_EDGE('',*,*,#92,.T.);
#399 = ORIENTED_EDGE('',*,*,#400,.F.);
#400 = EDGE_CURVE('',#401,#85,#403,.T.);
#401 = VERTEX_POINT('',#402);
#402 = CARTESIAN_POINT('',(20.,1.,31.5));
#403 = LINE('',#404,#405);
#404 = CARTESIAN_POINT('',(20.,1.,31.5));
#405 = VECTOR('',#406,1.);
#406 = DIRECTION('',(0.,-1.,2.22044604925E-16));
#407 = ORIENTED_EDGE('',*,*,#408,.F.);
#408 = EDGE_CURVE('',#339,#401,#409,.T.);
#409 = B_SPLINE_CURVE_WITH_KNOTS('',14,(#410,#411,#412,#413,#414,#415,
    #416,#417,#418,#419,#420,#421,#422,#423,#424),.UNSPECIFIED.,.T.,.F.,
  (15,15),(0.,1.),.PIECEWISE_BEZIER_KNOTS.);
#410 = CARTESIAN_POINT('',(32.5,1.,19.));
#411 = CARTESIAN_POINT('',(32.500000000003,1.,24.609986881412));
#412 = CARTESIAN_POINT('',(29.788570484995,1.,30.219975833606));
#413 = CARTESIAN_POINT('',(24.365707988736,1.,34.410241832129));
#414 = CARTESIAN_POINT('',(17.042367315759,1.,35.76121994791));
#415 = CARTESIAN_POINT('',(9.440304244947,1.,33.362210762472));
#416 = CARTESIAN_POINT('',(3.63697872931,1.,27.323565566031));
#417 = CARTESIAN_POINT('',(1.452142474326,1.,18.999999999901));
#418 = CARTESIAN_POINT('',(3.636978729337,1.,10.676434434142));
#419 = CARTESIAN_POINT('',(9.440304244907,1.,4.637789237414));
#420 = CARTESIAN_POINT('',(17.042367315796,1.,2.238780052146));
#421 = CARTESIAN_POINT('',(24.365707988713,1.,3.589758167852));
#422 = CARTESIAN_POINT('',(29.788570485005,1.,7.780024166399));
#423 = CARTESIAN_POINT('',(32.500000000001,1.,13.390013118588));
#424 = CARTESIAN_POINT('',(32.5,1.,19.));
#425 = CYLINDRICAL_SURFACE('',#426,12.5);
#426 = AXIS2_PLACEMENT_3D('',#427,#428,#429);
#427 = CARTESIAN_POINT('',(20.,1.,19.));
#428 = DIRECTION('',(0.,1.,-2.22044604925E-16));
#429 = DIRECTION('',(1.,0.,0.));
#430 = ADVANCED_FACE('',(#431),#449,.F.);
#431 = FACE_BOUND('',#432,.F.);
#432 = EDGE_LOOP('',(#433,#441,#442,#443));
#433 = ORIENTED_EDGE('',*,*,#434,.T.);
#434 = EDGE_CURVE('',#435,#68,#437,.T.);
#435 = VERTEX_POINT('',#436);
#436 = CARTESIAN_POINT('',(1.285016828948,1.,22.605468749999));
#437 = LINE('',#438,#439);
#438 = CARTESIAN_POINT('',(1.285016828948,1.,22.605468749999));
#439 = VECTOR('',#440,1.);
#440 = DIRECTION('',(0.,-1.,2.22044604925E-16));
#441 = ORIENTED_EDGE('',*,*,#67,.T.);
#442 = ORIENTED_EDGE('',*,*,#362,.F.);
#443 = ORIENTED_EDGE('',*,*,#444,.F.);
#444 = EDGE_CURVE('',#435,#363,#445,.T.);
#445 = LINE('',#446,#447);
#446 = CARTESIAN_POINT('',(1.285016828948,1.,22.605468749998));
#447 = VECTOR('',#448,1.);
#448 = DIRECTION('',(0.6171875,-1.747082721367E-16,-0.786816109293));
#449 = PLANE('',#450);
#450 = AXIS2_PLACEMENT_3D('',#451,#452,#453);
#451 = CARTESIAN_POINT('',(1.285016828948,1.,22.605468749998));
#452 = DIRECTION('',(0.786816109293,1.370431546022E-16,0.6171875));
#453 = DIRECTION('',(0.6171875,-1.747082721367E-16,-0.786816109293));
#454 = ADVANCED_FACE('',(#455),#473,.F.);
#455 = FACE_BOUND('',#456,.F.);
#456 = EDGE_LOOP('',(#457,#458,#459,#467));
#457 = ORIENTED_EDGE('',*,*,#400,.T.);
#458 = ORIENTED_EDGE('',*,*,#84,.T.);
#459 = ORIENTED_EDGE('',*,*,#460,.F.);
#460 = EDGE_CURVE('',#461,#76,#463,.T.);
#461 = VERTEX_POINT('',#462);
#462 = CARTESIAN_POINT('',(5.612505430062,1.,31.5));
#463 = LINE('',#464,#465);
#464 = CARTESIAN_POINT('',(5.612505430062,1.,31.5));
#465 = VECTOR('',#466,1.);
#466 = DIRECTION('',(0.,-1.,2.22044604925E-16));
#467 = ORIENTED_EDGE('',*,*,#468,.F.);
#468 = EDGE_CURVE('',#401,#461,#469,.T.);
#469 = LINE('',#470,#471);
#470 = CARTESIAN_POINT('',(20.,1.,31.5));
#471 = VECTOR('',#472,1.);
#472 = DIRECTION('',(-1.,0.,0.));
#473 = PLANE('',#474);
#474 = AXIS2_PLACEMENT_3D('',#475,#476,#477);
#475 = CARTESIAN_POINT('',(20.,1.,31.5));
#476 = DIRECTION('',(-0.,-2.22044604925E-16,-1.));
#477 = DIRECTION('',(-1.,0.,0.));
#478 = ADVANCED_FACE('',(#479),#491,.T.);
#479 = FACE_BOUND('',#480,.F.);
#480 = EDGE_LOOP('',(#481,#482,#483,#484));
#481 = ORIENTED_EDGE('',*,*,#460,.T.);
#482 = ORIENTED_EDGE('',*,*,#75,.T.);
#483 = ORIENTED_EDGE('',*,*,#434,.F.);
#484 = ORIENTED_EDGE('',*,*,#485,.F.);
#485 = EDGE_CURVE('',#461,#435,#486,.T.);
#486 = CIRCLE('',#487,5.5);
#487 = AXIS2_PLACEMENT_3D('',#488,#489,#490);
#488 = CARTESIAN_POINT('',(5.612505430062,1.,26.));
#489 = DIRECTION('',(0.,-1.,2.22044604925E-16));
#490 = DIRECTION('',(1.,0.,0.));
#491 = CYLINDRICAL_SURFACE('',#492,5.5);
#492 = AXIS2_PLACEMENT_3D('',#493,#494,#495);
#493 = CARTESIAN_POINT('',(5.612505430062,1.,26.));
#494 = DIRECTION('',(0.,1.,-2.22044604925E-16));
#495 = DIRECTION('',(1.,0.,0.));
#496 = ADVANCED_FACE('',(#497),#527,.F.);
#497 = FACE_BOUND('',#498,.T.);
#498 = EDGE_LOOP('',(#499,#507,#508,#509));
#499 = ORIENTED_EDGE('',*,*,#500,.T.);
#500 = EDGE_CURVE('',#501,#119,#503,.T.);
#501 = VERTEX_POINT('',#502);
#502 = CARTESIAN_POINT('',(30.9,1.,19.));
#503 = LINE('',#504,#505);
#504 = CARTESIAN_POINT('',(30.9,1.,19.));
#505 = VECTOR('',#506,1.);
#506 = DIRECTION('',(0.,-1.,2.22044604925E-16));
#507 = ORIENTED_EDGE('',*,*,#118,.T.);
#508 = ORIENTED_EDGE('',*,*,#500,.F.);
#509 = ORIENTED_EDGE('',*,*,#510,.F.);
#510 = EDGE_CURVE('',#501,#501,#511,.T.);
#511 = B_SPLINE_CURVE_WITH_KNOTS('',14,(#512,#513,#514,#515,#516,#517,
    #518,#519,#520,#521,#522,#523,#524,#525,#526),.UNSPECIFIED.,.T.,.F.,
  (15,15),(0.,1.),.PIECEWISE_BEZIER_KNOTS.);
#512 = CARTESIAN_POINT('',(30.9,1.,19.));
#513 = CARTESIAN_POINT('',(30.9,1.,23.891908560591));
#514 = CARTESIAN_POINT('',(28.535633462928,1.,28.783818926906));
#515 = CARTESIAN_POINT('',(23.806897366143,1.,32.437730877612));
#516 = CARTESIAN_POINT('',(17.420944299418,1.,33.615783794586));
#517 = CARTESIAN_POINT('',(10.791945301463,1.,31.523847784861));
#518 = CARTESIAN_POINT('',(5.73144545214,1.,26.258149173597));
#519 = CARTESIAN_POINT('',(3.826268237403,1.,18.999999999894));
#520 = CARTESIAN_POINT('',(5.731445452182,1.,11.741850826589));
#521 = CARTESIAN_POINT('',(10.791945301401,1.,6.476152215012));
#522 = CARTESIAN_POINT('',(17.420944299476,1.,4.38421620548));
#523 = CARTESIAN_POINT('',(23.806897366106,1.,5.562269122362));
#524 = CARTESIAN_POINT('',(28.535633462943,1.,9.216181073102));
#525 = CARTESIAN_POINT('',(30.899999999997,1.,14.108091439408));
#526 = CARTESIAN_POINT('',(30.9,1.,19.));
#527 = CYLINDRICAL_SURFACE('',#528,10.9);
#528 = AXIS2_PLACEMENT_3D('',#529,#530,#531);
#529 = CARTESIAN_POINT('',(20.,1.,19.));
#530 = DIRECTION('',(0.,1.,-2.22044604925E-16));
#531 = DIRECTION('',(1.,0.,0.));
#532 = ADVANCED_FACE('',(#533),#552,.F.);
#533 = FACE_BOUND('',#534,.T.);
#534 = EDGE_LOOP('',(#535,#543,#544,#545));
#535 = ORIENTED_EDGE('',*,*,#536,.F.);
#536 = EDGE_CURVE('',#130,#537,#539,.T.);
#537 = VERTEX_POINT('',#538);
#538 = CARTESIAN_POINT('',(36.737494569938,-2.6,12.));
#539 = LINE('',#540,#541);
#540 = CARTESIAN_POINT('',(36.737494569938,-2.6,12.));
#541 = VECTOR('',#542,1.);
#542 = DIRECTION('',(-0.707106781187,0.707106781187,0.));
#543 = ORIENTED_EDGE('',*,*,#129,.T.);
#544 = ORIENTED_EDGE('',*,*,#536,.T.);
#545 = ORIENTED_EDGE('',*,*,#546,.F.);
#546 = EDGE_CURVE('',#537,#537,#547,.T.);
#547 = CIRCLE('',#548,2.35);
#548 = AXIS2_PLACEMENT_3D('',#549,#550,#551);
#549 = CARTESIAN_POINT('',(34.387494569938,-2.6,12.));
#550 = DIRECTION('',(0.,-1.,0.));
#551 = DIRECTION('',(1.,0.,0.));
#552 = CONICAL_SURFACE('',#553,2.35,0.785398163397);
#553 = AXIS2_PLACEMENT_3D('',#554,#555,#556);
#554 = CARTESIAN_POINT('',(34.387494569938,-2.6,12.));
#555 = DIRECTION('',(-0.,-1.,-0.));
#556 = DIRECTION('',(1.,0.,0.));
#557 = ADVANCED_FACE('',(#558),#577,.F.);
#558 = FACE_BOUND('',#559,.T.);
#559 = EDGE_LOOP('',(#560,#568,#569,#570));
#560 = ORIENTED_EDGE('',*,*,#561,.T.);
#561 = EDGE_CURVE('',#562,#147,#564,.T.);
#562 = VERTEX_POINT('',#563);
#563 = CARTESIAN_POINT('',(7.962505430062,1.,26.));
#564 = LINE('',#565,#566);
#565 = CARTESIAN_POINT('',(7.962505430062,1.,26.));
#566 = VECTOR('',#567,1.);
#567 = DIRECTION('',(0.,-1.,2.22044604925E-16));
#568 = ORIENTED_EDGE('',*,*,#156,.T.);
#569 = ORIENTED_EDGE('',*,*,#561,.F.);
#570 = ORIENTED_EDGE('',*,*,#571,.F.);
#571 = EDGE_CURVE('',#562,#562,#572,.T.);
#572 = CIRCLE('',#573,2.35);
#573 = AXIS2_PLACEMENT_3D('',#574,#575,#576);
#574 = CARTESIAN_POINT('',(5.612505430062,1.,26.));
#575 = DIRECTION('',(0.,-1.,2.22044604925E-16));
#576 = DIRECTION('',(1.,0.,0.));
#577 = CYLINDRICAL_SURFACE('',#578,2.35);
#578 = AXIS2_PLACEMENT_3D('',#579,#580,#581);
#579 = CARTESIAN_POINT('',(5.612505430062,1.,26.));
#580 = DIRECTION('',(0.,1.,-2.22044604925E-16));
#581 = DIRECTION('',(1.,0.,0.));
#582 = ADVANCED_FACE('',(#583),#594,.F.);
#583 = FACE_BOUND('',#584,.F.);
#584 = EDGE_LOOP('',(#585,#586,#592,#593));
#585 = ORIENTED_EDGE('',*,*,#171,.F.);
#586 = ORIENTED_EDGE('',*,*,#587,.F.);
#587 = EDGE_CURVE('',#316,#172,#588,.T.);
#588 = LINE('',#589,#590);
#589 = CARTESIAN_POINT('',(4.,2.4247E-13,4.));
#590 = VECTOR('',#591,1.);
#591 = DIRECTION('',(1.,0.,0.));
#592 = ORIENTED_EDGE('',*,*,#323,.T.);
#593 = ORIENTED_EDGE('',*,*,#226,.T.);
#594 = PLANE('',#595);
#595 = AXIS2_PLACEMENT_3D('',#596,#597,#598);
#596 = CARTESIAN_POINT('',(19.629135155868,1.,4.));
#597 = DIRECTION('',(0.,2.22044604925E-16,1.));
#598 = DIRECTION('',(1.,0.,0.));
#599 = ADVANCED_FACE('',(#600,#724,#735,#746,#757),#768,.T.);
#600 = FACE_BOUND('',#601,.T.);
#601 = EDGE_LOOP('',(#602,#613,#619,#620,#640,#660,#666,#667,#675,#684,
    #692,#701,#709,#718));
#602 = ORIENTED_EDGE('',*,*,#603,.T.);
#603 = EDGE_CURVE('',#604,#606,#608,.T.);
#604 = VERTEX_POINT('',#605);
#605 = CARTESIAN_POINT('',(2.42E-13,4.,4.));
#606 = VERTEX_POINT('',#607);
#607 = CARTESIAN_POINT('',(4.,2.42E-13,4.));
#608 = CIRCLE('',#609,4.);
#609 = AXIS2_PLACEMENT_3D('',#610,#611,#612);
#610 = CARTESIAN_POINT('',(4.,4.,4.));
#611 = DIRECTION('',(0.,0.,1.));
#612 = DIRECTION('',(1.,0.,0.));
#613 = ORIENTED_EDGE('',*,*,#614,.T.);
#614 = EDGE_CURVE('',#606,#316,#615,.T.);
#615 = LINE('',#616,#617);
#616 = CARTESIAN_POINT('',(4.,2.4247E-13,4.));
#617 = VECTOR('',#618,1.);
#618 = DIRECTION('',(1.,0.,0.));
#619 = ORIENTED_EDGE('',*,*,#315,.F.);
#620 = ORIENTED_EDGE('',*,*,#621,.F.);
#621 = EDGE_CURVE('',#622,#285,#624,.T.);
#622 = VERTEX_POINT('',#623);
#623 = CARTESIAN_POINT('',(39.6,20.,4.));
#624 = B_SPLINE_CURVE_WITH_KNOTS('',14,(#625,#626,#627,#628,#629,#630,
    #631,#632,#633,#634,#635,#636,#637,#638,#639),.UNSPECIFIED.,.T.,.F.,
  (15,15),(0.,1.),.PIECEWISE_BEZIER_KNOTS.);
#625 = CARTESIAN_POINT('',(39.6,20.,4.));
#626 = CARTESIAN_POINT('',(39.600000000004,28.796459430053,4.));
#627 = CARTESIAN_POINT('',(35.348478520477,37.592922107097,4.));
#628 = CARTESIAN_POINT('',(26.845430126326,44.16325919277,4.));
#629 = CARTESIAN_POINT('',(15.362431951131,46.281592878336,4.));
#630 = CARTESIAN_POINT('',(3.442397056046,42.51994647554,4.));
#631 = CARTESIAN_POINT('',(-5.657217352401,33.051350807549,4.));
#632 = CARTESIAN_POINT('',(-9.083040600308,19.999999999836,4.));
#633 = CARTESIAN_POINT('',(-5.657217352342,6.94864919274,4.));
#634 = CARTESIAN_POINT('',(3.442397055959,-2.519946475737,4.));
#635 = CARTESIAN_POINT('',(15.362431951209,-6.281592878233,4.));
#636 = CARTESIAN_POINT('',(26.845430126278,-4.16325919281,4.));
#637 = CARTESIAN_POINT('',(35.348478520498,2.407077892914,4.));
#638 = CARTESIAN_POINT('',(39.599999999999,11.203540569945,4.));
#639 = CARTESIAN_POINT('',(39.6,20.,4.));
#640 = ORIENTED_EDGE('',*,*,#641,.F.);
#641 = EDGE_CURVE('',#642,#622,#644,.T.);
#642 = VERTEX_POINT('',#643);
#643 = CARTESIAN_POINT('',(24.812483738504,1.,4.));
#644 = B_SPLINE_CURVE_WITH_KNOTS('',14,(#645,#646,#647,#648,#649,#650,
    #651,#652,#653,#654,#655,#656,#657,#658,#659),.UNSPECIFIED.,.T.,.F.,
  (15,15),(0.,1.),.PIECEWISE_BEZIER_KNOTS.);
#645 = CARTESIAN_POINT('',(39.6,20.,4.));
#646 = CARTESIAN_POINT('',(39.600000000004,28.796459430053,4.));
#647 = CARTESIAN_POINT('',(35.348478520477,37.592922107097,4.));
#648 = CARTESIAN_POINT('',(26.845430126326,44.16325919277,4.));
#649 = CARTESIAN_POINT('',(15.362431951131,46.281592878336,4.));
#650 = CARTESIAN_POINT('',(3.442397056046,42.51994647554,4.));
#651 = CARTESIAN_POINT('',(-5.657217352401,33.051350807549,4.));
#652 = CARTESIAN_POINT('',(-9.083040600308,19.999999999836,4.));
#653 = CARTESIAN_POINT('',(-5.657217352342,6.94864919274,4.));
#654 = CARTESIAN_POINT('',(3.442397055959,-2.519946475737,4.));
#655 = CARTESIAN_POINT('',(15.362431951209,-6.281592878233,4.));
#656 = CARTESIAN_POINT('',(26.845430126278,-4.16325919281,4.));
#657 = CARTESIAN_POINT('',(35.348478520498,2.407077892914,4.));
#658 = CARTESIAN_POINT('',(39.599999999999,11.203540569945,4.));
#659 = CARTESIAN_POINT('',(39.6,20.,4.));
#660 = ORIENTED_EDGE('',*,*,#661,.T.);
#661 = EDGE_CURVE('',#642,#197,#662,.T.);
#662 = LINE('',#663,#664);
#663 = CARTESIAN_POINT('',(19.629135155868,1.,4.));
#664 = VECTOR('',#665,1.);
#665 = DIRECTION('',(1.,0.,0.));
#666 = ORIENTED_EDGE('',*,*,#204,.T.);
#667 = ORIENTED_EDGE('',*,*,#668,.T.);
#668 = EDGE_CURVE('',#172,#669,#671,.T.);
#669 = VERTEX_POINT('',#670);
#670 = CARTESIAN_POINT('',(36.,2.42E-13,4.));
#671 = LINE('',#672,#673);
#672 = CARTESIAN_POINT('',(4.,2.4247E-13,4.));
#673 = VECTOR('',#674,1.);
#674 = DIRECTION('',(1.,0.,0.));
#675 = ORIENTED_EDGE('',*,*,#676,.T.);
#676 = EDGE_CURVE('',#669,#677,#679,.T.);
#677 = VERTEX_POINT('',#678);
#678 = CARTESIAN_POINT('',(40.,4.,4.));
#679 = CIRCLE('',#680,4.);
#680 = AXIS2_PLACEMENT_3D('',#681,#682,#683);
#681 = CARTESIAN_POINT('',(36.,4.,4.));
#682 = DIRECTION('',(0.,0.,1.));
#683 = DIRECTION('',(1.,0.,0.));
#684 = ORIENTED_EDGE('',*,*,#685,.T.);
#685 = EDGE_CURVE('',#677,#686,#688,.T.);
#686 = VERTEX_POINT('',#687);
#687 = CARTESIAN_POINT('',(40.,36.,4.));
#688 = LINE('',#689,#690);
#689 = CARTESIAN_POINT('',(40.,4.,4.));
#690 = VECTOR('',#691,1.);
#691 = DIRECTION('',(0.,1.,0.));
#692 = ORIENTED_EDGE('',*,*,#693,.T.);
#693 = EDGE_CURVE('',#686,#694,#696,.T.);
#694 = VERTEX_POINT('',#695);
#695 = CARTESIAN_POINT('',(36.,40.,4.));
#696 = CIRCLE('',#697,4.);
#697 = AXIS2_PLACEMENT_3D('',#698,#699,#700);
#698 = CARTESIAN_POINT('',(36.,36.,4.));
#699 = DIRECTION('',(0.,0.,1.));
#700 = DIRECTION('',(1.,0.,0.));
#701 = ORIENTED_EDGE('',*,*,#702,.T.);
#702 = EDGE_CURVE('',#694,#703,#705,.T.);
#703 = VERTEX_POINT('',#704);
#704 = CARTESIAN_POINT('',(4.,40.,4.));
#705 = LINE('',#706,#707);
#706 = CARTESIAN_POINT('',(36.,40.,4.));
#707 = VECTOR('',#708,1.);
#708 = DIRECTION('',(-1.,0.,0.));
#709 = ORIENTED_EDGE('',*,*,#710,.T.);
#710 = EDGE_CURVE('',#703,#711,#713,.T.);
#711 = VERTEX_POINT('',#712);
#712 = CARTESIAN_POINT('',(2.42E-13,36.,4.));
#713 = CIRCLE('',#714,4.);
#714 = AXIS2_PLACEMENT_3D('',#715,#716,#717);
#715 = CARTESIAN_POINT('',(4.,36.,4.));
#716 = DIRECTION('',(0.,0.,1.));
#717 = DIRECTION('',(1.,0.,0.));
#718 = ORIENTED_EDGE('',*,*,#719,.T.);
#719 = EDGE_CURVE('',#711,#604,#720,.T.);
#720 = LINE('',#721,#722);
#721 = CARTESIAN_POINT('',(2.4247E-13,36.,4.));
#722 = VECTOR('',#723,1.);
#723 = DIRECTION('',(0.,-1.,0.));
#724 = FACE_BOUND('',#725,.T.);
#725 = EDGE_LOOP('',(#726));
#726 = ORIENTED_EDGE('',*,*,#727,.F.);
#727 = EDGE_CURVE('',#728,#728,#730,.T.);
#728 = VERTEX_POINT('',#729);
#729 = CARTESIAN_POINT('',(7.,4.,4.));
#730 = CIRCLE('',#731,3.);
#731 = AXIS2_PLACEMENT_3D('',#732,#733,#734);
#732 = CARTESIAN_POINT('',(4.,4.,4.));
#733 = DIRECTION('',(0.,0.,1.));
#734 = DIRECTION('',(1.,0.,0.));
#735 = FACE_BOUND('',#736,.T.);
#736 = EDGE_LOOP('',(#737));
#737 = ORIENTED_EDGE('',*,*,#738,.F.);
#738 = EDGE_CURVE('',#739,#739,#741,.T.);
#739 = VERTEX_POINT('',#740);
#740 = CARTESIAN_POINT('',(39.,4.,4.));
#741 = CIRCLE('',#742,3.);
#742 = AXIS2_PLACEMENT_3D('',#743,#744,#745);
#743 = CARTESIAN_POINT('',(36.,4.,4.));
#744 = DIRECTION('',(0.,0.,1.));
#745 = DIRECTION('',(1.,0.,0.));
#746 = FACE_BOUND('',#747,.T.);
#747 = EDGE_LOOP('',(#748));
#748 = ORIENTED_EDGE('',*,*,#749,.F.);
#749 = EDGE_CURVE('',#750,#750,#752,.T.);
#750 = VERTEX_POINT('',#751);
#751 = CARTESIAN_POINT('',(7.,36.,4.));
#752 = CIRCLE('',#753,3.);
#753 = AXIS2_PLACEMENT_3D('',#754,#755,#756);
#754 = CARTESIAN_POINT('',(4.,36.,4.));
#755 = DIRECTION('',(0.,0.,1.));
#756 = DIRECTION('',(1.,0.,0.));
#757 = FACE_BOUND('',#758,.T.);
#758 = EDGE_LOOP('',(#759));
#759 = ORIENTED_EDGE('',*,*,#760,.F.);
#760 = EDGE_CURVE('',#761,#761,#763,.T.);
#761 = VERTEX_POINT('',#762);
#762 = CARTESIAN_POINT('',(39.,36.,4.));
#763 = CIRCLE('',#764,3.);
#764 = AXIS2_PLACEMENT_3D('',#765,#766,#767);
#765 = CARTESIAN_POINT('',(36.,36.,4.));
#766 = DIRECTION('',(0.,0.,1.));
#767 = DIRECTION('',(1.,0.,0.));
#768 = PLANE('',#769);
#769 = AXIS2_PLACEMENT_3D('',#770,#771,#772);
#770 = CARTESIAN_POINT('',(20.,20.,4.));
#771 = DIRECTION('',(0.,0.,1.));
#772 = DIRECTION('',(1.,0.,0.));
#773 = ADVANCED_FACE('',(#774,#838),#849,.T.);
#774 = FACE_BOUND('',#775,.T.);
#775 = EDGE_LOOP('',(#776,#777,#796,#797,#817,#835,#836,#837));
#776 = ORIENTED_EDGE('',*,*,#661,.F.);
#777 = ORIENTED_EDGE('',*,*,#778,.F.);
#778 = EDGE_CURVE('',#277,#642,#779,.T.);
#779 = B_SPLINE_CURVE_WITH_KNOTS('',8,(#780,#781,#782,#783,#784,#785,
    #786,#787,#788,#789,#790,#791,#792,#793,#794,#795),.UNSPECIFIED.,.F.
  ,.F.,(9,7,9),(0.,0.499007271503,1.),.UNSPECIFIED.);
#780 = CARTESIAN_POINT('',(15.187516260504,1.,4.));
#781 = CARTESIAN_POINT('',(15.784849557508,1.,4.070381691699));
#782 = CARTESIAN_POINT('',(16.383593040144,1.,4.128810044941));
#783 = CARTESIAN_POINT('',(16.983451598868,1.,4.17562222474));
#784 = CARTESIAN_POINT('',(17.584146510184,1.,4.211465884886));
#785 = CARTESIAN_POINT('',(18.185413993466,1.,4.237304366852));
#786 = CARTESIAN_POINT('',(18.787005015126,1.,4.254227079281));
#787 = CARTESIAN_POINT('',(19.388723027736,1.,4.262741645725));
#788 = CARTESIAN_POINT('',(20.594520481651,1.,4.26297599024));
#789 = CARTESIAN_POINT('',(21.198635809747,1.,4.254628832109));
#790 = CARTESIAN_POINT('',(21.802626537857,1.,4.237816822868));
#791 = CARTESIAN_POINT('',(22.406294657896,1.,4.212035100192));
#792 = CARTESIAN_POINT('',(23.009388908103,1.,4.176180426268));
#793 = CARTESIAN_POINT('',(23.61164271353,1.,4.129274761768));
#794 = CARTESIAN_POINT('',(24.212773991274,1.,4.070661700166));
#795 = CARTESIAN_POINT('',(24.812483738504,1.,4.));
#796 = ORIENTED_EDGE('',*,*,#276,.T.);
#797 = ORIENTED_EDGE('',*,*,#798,.T.);
#798 = EDGE_CURVE('',#269,#799,#801,.T.);
#799 = VERTEX_POINT('',#800);
#800 = CARTESIAN_POINT('',(32.5,1.,19.));
#801 = B_SPLINE_CURVE_WITH_KNOTS('',14,(#802,#803,#804,#805,#806,#807,
    #808,#809,#810,#811,#812,#813,#814,#815,#816),.UNSPECIFIED.,.T.,.F.,
  (15,15),(0.,1.),.PIECEWISE_BEZIER_KNOTS.);
#802 = CARTESIAN_POINT('',(32.5,1.,19.));
#803 = CARTESIAN_POINT('',(32.500000000003,1.,24.609986881412));
#804 = CARTESIAN_POINT('',(29.788570484995,1.,30.219975833606));
#805 = CARTESIAN_POINT('',(24.365707988736,1.,34.410241832129));
#806 = CARTESIAN_POINT('',(17.042367315759,1.,35.76121994791));
#807 = CARTESIAN_POINT('',(9.440304244947,1.,33.362210762472));
#808 = CARTESIAN_POINT('',(3.63697872931,1.,27.323565566031));
#809 = CARTESIAN_POINT('',(1.452142474326,1.,18.999999999901));
#810 = CARTESIAN_POINT('',(3.636978729337,1.,10.676434434142));
#811 = CARTESIAN_POINT('',(9.440304244907,1.,4.637789237414));
#812 = CARTESIAN_POINT('',(17.042367315796,1.,2.238780052146));
#813 = CARTESIAN_POINT('',(24.365707988713,1.,3.589758167852));
#814 = CARTESIAN_POINT('',(29.788570485005,1.,7.780024166399));
#815 = CARTESIAN_POINT('',(32.500000000001,1.,13.390013118588));
#816 = CARTESIAN_POINT('',(32.5,1.,19.));
#817 = ORIENTED_EDGE('',*,*,#818,.T.);
#818 = EDGE_CURVE('',#799,#339,#819,.T.);
#819 = B_SPLINE_CURVE_WITH_KNOTS('',14,(#820,#821,#822,#823,#824,#825,
    #826,#827,#828,#829,#830,#831,#832,#833,#834),.UNSPECIFIED.,.T.,.F.,
  (15,15),(0.,1.),.PIECEWISE_BEZIER_KNOTS.);
#820 = CARTESIAN_POINT('',(32.5,1.,19.));
#821 = CARTESIAN_POINT('',(32.500000000003,1.,24.609986881412));
#822 = CARTESIAN_POINT('',(29.788570484995,1.,30.219975833606));
#823 = CARTESIAN_POINT('',(24.365707988736,1.,34.410241832129));
#824 = CARTESIAN_POINT('',(17.042367315759,1.,35.76121994791));
#825 = CARTESIAN_POINT('',(9.440304244947,1.,33.362210762472));
#826 = CARTESIAN_POINT('',(3.63697872931,1.,27.323565566031));
#827 = CARTESIAN_POINT('',(1.452142474326,1.,18.999999999901));
#828 = CARTESIAN_POINT('',(3.636978729337,1.,10.676434434142));
#829 = CARTESIAN_POINT('',(9.440304244907,1.,4.637789237414));
#830 = CARTESIAN_POINT('',(17.042367315796,1.,2.238780052146));
#831 = CARTESIAN_POINT('',(24.365707988713,1.,3.589758167852));
#832 = CARTESIAN_POINT('',(29.788570485005,1.,7.780024166399));
#833 = CARTESIAN_POINT('',(32.500000000001,1.,13.390013118588));
#834 = CARTESIAN_POINT('',(32.5,1.,19.));
#835 = ORIENTED_EDGE('',*,*,#348,.T.);
#836 = ORIENTED_EDGE('',*,*,#252,.F.);
#837 = ORIENTED_EDGE('',*,*,#196,.F.);
#838 = FACE_BOUND('',#839,.T.);
#839 = EDGE_LOOP('',(#840));
#840 = ORIENTED_EDGE('',*,*,#841,.T.);
#841 = EDGE_CURVE('',#842,#842,#844,.T.);
#842 = VERTEX_POINT('',#843);
#843 = CARTESIAN_POINT('',(36.737494569938,1.,12.));
#844 = CIRCLE('',#845,2.35);
#845 = AXIS2_PLACEMENT_3D('',#846,#847,#848);
#846 = CARTESIAN_POINT('',(34.387494569938,1.,12.));
#847 = DIRECTION('',(0.,-1.,2.22044604925E-16));
#848 = DIRECTION('',(1.,0.,0.));
#849 = PLANE('',#850);
#850 = AXIS2_PLACEMENT_3D('',#851,#852,#853);
#851 = CARTESIAN_POINT('',(20.072926322719,1.,18.610564728057));
#852 = DIRECTION('',(0.,1.,0.));
#853 = DIRECTION('',(0.,0.,1.));
#854 = ADVANCED_FACE('',(#855),#890,.T.);
#855 = FACE_BOUND('',#856,.T.);
#856 = EDGE_LOOP('',(#857,#863,#864,#865,#866,#867,#868,#869,#870,#888,
    #889));
#857 = ORIENTED_EDGE('',*,*,#858,.F.);
#858 = EDGE_CURVE('',#622,#799,#859,.T.);
#859 = B_SPLINE_CURVE_WITH_KNOTS('',2,(#860,#861,#862),.UNSPECIFIED.,.F.
  ,.F.,(3,3),(0.,1.),.PIECEWISE_BEZIER_KNOTS.);
#860 = CARTESIAN_POINT('',(39.6,20.,4.));
#861 = CARTESIAN_POINT('',(31.055564649959,15.376825797616,
    16.51190527564));
#862 = CARTESIAN_POINT('',(32.5,1.,19.));
#863 = ORIENTED_EDGE('',*,*,#621,.T.);
#864 = ORIENTED_EDGE('',*,*,#284,.T.);
#865 = ORIENTED_EDGE('',*,*,#778,.T.);
#866 = ORIENTED_EDGE('',*,*,#641,.T.);
#867 = ORIENTED_EDGE('',*,*,#858,.T.);
#868 = ORIENTED_EDGE('',*,*,#798,.F.);
#869 = ORIENTED_EDGE('',*,*,#372,.F.);
#870 = ORIENTED_EDGE('',*,*,#871,.F.);
#871 = EDGE_CURVE('',#401,#363,#872,.T.);
#872 = B_SPLINE_CURVE_WITH_KNOTS('',14,(#873,#874,#875,#876,#877,#878,
    #879,#880,#881,#882,#883,#884,#885,#886,#887),.UNSPECIFIED.,.T.,.F.,
  (15,15),(0.,1.),.PIECEWISE_BEZIER_KNOTS.);
#873 = CARTESIAN_POINT('',(32.5,1.,19.));
#874 = CARTESIAN_POINT('',(32.500000000003,1.,24.609986881412));
#875 = CARTESIAN_POINT('',(29.788570484995,1.,30.219975833606));
#876 = CARTESIAN_POINT('',(24.365707988736,1.,34.410241832129));
#877 = CARTESIAN_POINT('',(17.042367315759,1.,35.76121994791));
#878 = CARTESIAN_POINT('',(9.440304244947,1.,33.362210762472));
#879 = CARTESIAN_POINT('',(3.63697872931,1.,27.323565566031));
#880 = CARTESIAN_POINT('',(1.452142474326,1.,18.999999999901));
#881 = CARTESIAN_POINT('',(3.636978729337,1.,10.676434434142));
#882 = CARTESIAN_POINT('',(9.440304244907,1.,4.637789237414));
#883 = CARTESIAN_POINT('',(17.042367315796,1.,2.238780052146));
#884 = CARTESIAN_POINT('',(24.365707988713,1.,3.589758167852));
#885 = CARTESIAN_POINT('',(29.788570485005,1.,7.780024166399));
#886 = CARTESIAN_POINT('',(32.500000000001,1.,13.390013118588));
#887 = CARTESIAN_POINT('',(32.5,1.,19.));
#888 = ORIENTED_EDGE('',*,*,#408,.F.);
#889 = ORIENTED_EDGE('',*,*,#818,.F.);
#890 = B_SPLINE_SURFACE_WITH_KNOTS('',14,2,(
    (#891,#892,#893)
    ,(#894,#895,#896)
    ,(#897,#898,#899)
    ,(#900,#901,#902)
    ,(#903,#904,#905)
    ,(#906,#907,#908)
    ,(#909,#910,#911)
    ,(#912,#913,#914)
    ,(#915,#916,#917)
    ,(#918,#919,#920)
    ,(#921,#922,#923)
    ,(#924,#925,#926)
    ,(#927,#928,#929)
    ,(#930,#931,#932)
    ,(#933,#934,#935
    )),.UNSPECIFIED.,.T.,.F.,.F.,(15,15),(3,3),(0.,1.),(0.,1.),
  .PIECEWISE_BEZIER_KNOTS.);
#891 = CARTESIAN_POINT('',(39.6,20.,4.));
#892 = CARTESIAN_POINT('',(31.055564649959,15.376825797616,
    16.51190527564));
#893 = CARTESIAN_POINT('',(32.5,1.,19.));
#894 = CARTESIAN_POINT('',(39.600000000004,28.796459430053,4.));
#895 = CARTESIAN_POINT('',(31.055564649962,20.409832922967,
    21.435093959118));
#896 = CARTESIAN_POINT('',(32.500000000003,1.,24.609986881412));
#897 = CARTESIAN_POINT('',(35.348478520477,37.592922107097,4.));
#898 = CARTESIAN_POINT('',(28.657453906202,25.442841906132,
    26.35828445988));
#899 = CARTESIAN_POINT('',(29.788570484995,1.,30.219975833606));
#900 = CARTESIAN_POINT('',(26.845430126326,44.16325919277,4.));
#901 = CARTESIAN_POINT('',(23.861229352988,29.202144570002,
    30.03556046436));
#902 = CARTESIAN_POINT('',(24.365707988736,1.,34.410241832129));
#903 = CARTESIAN_POINT('',(15.362431951131,46.281592878336,4.));
#904 = CARTESIAN_POINT('',(17.384136051879,30.41417636739,
    31.221146155088));
#905 = CARTESIAN_POINT('',(17.042367315759,1.,35.76121994791));
#906 = CARTESIAN_POINT('',(3.442397056046,42.51994647554,4.));
#907 = CARTESIAN_POINT('',(10.660528071695,28.26190211438,
    29.115833767753));
#908 = CARTESIAN_POINT('',(9.440304244947,1.,33.362210762472));
#909 = CARTESIAN_POINT('',(-5.657217352401,33.051350807549,4.));
#910 = CARTESIAN_POINT('',(5.52780483785,22.844323616793,23.816464923962
    ));
#911 = CARTESIAN_POINT('',(3.63697872931,1.,27.323565566031));
#912 = CARTESIAN_POINT('',(-9.083040600308,19.999999999836,4.));
#913 = CARTESIAN_POINT('',(3.595436960545,15.376825797456,
    16.511905275428));
#914 = CARTESIAN_POINT('',(1.452142474326,1.,18.999999999901));
#915 = CARTESIAN_POINT('',(-5.657217352342,6.94864919274,4.));
#916 = CARTESIAN_POINT('',(5.52780483787,7.909327978721,9.207345627698)
  );
#917 = CARTESIAN_POINT('',(3.636978729337,1.,10.676434434142));
#918 = CARTESIAN_POINT('',(3.442397055959,-2.519946475737,4.));
#919 = CARTESIAN_POINT('',(10.660528071665,2.491749480654,3.907976783256
    ));
#920 = CARTESIAN_POINT('',(9.440304244907,1.,4.637789237414));
#921 = CARTESIAN_POINT('',(15.362431951209,-6.281592878233,4.));
#922 = CARTESIAN_POINT('',(17.384136051907,0.339475227948,1.802664396346
    ));
#923 = CARTESIAN_POINT('',(17.042367315796,1.,2.238780052146));
#924 = CARTESIAN_POINT('',(26.845430126278,-4.16325919281,4.));
#925 = CARTESIAN_POINT('',(23.861229352969,1.551507025185,2.988250086854
    ));
#926 = CARTESIAN_POINT('',(24.365707988713,1.,3.589758167852));
#927 = CARTESIAN_POINT('',(35.348478520498,2.407077892914,4.));
#928 = CARTESIAN_POINT('',(28.65745390621,5.310809689112,6.665526091422)
  );
#929 = CARTESIAN_POINT('',(29.788570485005,1.,7.780024166399));
#930 = CARTESIAN_POINT('',(39.599999999999,11.203540569945,4.));
#931 = CARTESIAN_POINT('',(31.05556464996,10.343818672262,
    11.588716592158));
#932 = CARTESIAN_POINT('',(32.500000000001,1.,13.390013118588));
#933 = CARTESIAN_POINT('',(39.6,20.,4.));
#934 = CARTESIAN_POINT('',(31.055564649959,15.376825797616,
    16.51190527564));
#935 = CARTESIAN_POINT('',(32.5,1.,19.));
#936 = ADVANCED_FACE('',(#937,#943),#946,.T.);
#937 = FACE_BOUND('',#938,.T.);
#938 = EDGE_LOOP('',(#939,#940,#941,#942));
#939 = ORIENTED_EDGE('',*,*,#871,.T.);
#940 = ORIENTED_EDGE('',*,*,#444,.F.);
#941 = ORIENTED_EDGE('',*,*,#485,.F.);
#942 = ORIENTED_EDGE('',*,*,#468,.F.);
#943 = FACE_BOUND('',#944,.T.);
#944 = EDGE_LOOP('',(#945));
#945 = ORIENTED_EDGE('',*,*,#571,.T.);
#946 = PLANE('',#947);
#947 = AXIS2_PLACEMENT_3D('',#948,#949,#950);
#948 = CARTESIAN_POINT('',(20.072926322719,1.,18.610564728057));
#949 = DIRECTION('',(0.,1.,0.));
#950 = DIRECTION('',(0.,0.,1.));
#951 = ADVANCED_FACE('',(#952),#971,.F.);
#952 = FACE_BOUND('',#953,.F.);
#953 = EDGE_LOOP('',(#954,#963,#969,#970));
#954 = ORIENTED_EDGE('',*,*,#955,.T.);
#955 = EDGE_CURVE('',#956,#956,#958,.T.);
#956 = VERTEX_POINT('',#957);
#957 = CARTESIAN_POINT('',(38.,20.,4.));
#958 = CIRCLE('',#959,18.);
#959 = AXIS2_PLACEMENT_3D('',#960,#961,#962);
#960 = CARTESIAN_POINT('',(20.,20.,4.));
#961 = DIRECTION('',(0.,0.,1.));
#962 = DIRECTION('',(1.,0.,0.));
#963 = ORIENTED_EDGE('',*,*,#964,.T.);
#964 = EDGE_CURVE('',#956,#501,#965,.T.);
#965 = B_SPLINE_CURVE_WITH_KNOTS('',2,(#966,#967,#968),.UNSPECIFIED.,.F.
  ,.F.,(3,3),(0.,1.),.PIECEWISE_BEZIER_KNOTS.);
#966 = CARTESIAN_POINT('',(38.,20.,4.));
#967 = CARTESIAN_POINT('',(29.468507464732,15.481119469234,
    16.463407864351));
#968 = CARTESIAN_POINT('',(30.9,1.,19.));
#969 = ORIENTED_EDGE('',*,*,#510,.F.);
#970 = ORIENTED_EDGE('',*,*,#964,.F.);
#971 = B_SPLINE_SURFACE_WITH_KNOTS('',14,2,(
    (#972,#973,#974)
    ,(#975,#976,#977)
    ,(#978,#979,#980)
    ,(#981,#982,#983)
    ,(#984,#985,#986)
    ,(#987,#988,#989)
    ,(#990,#991,#992)
    ,(#993,#994,#995)
    ,(#996,#997,#998)
    ,(#999,#1000,#1001)
    ,(#1002,#1003,#1004)
    ,(#1005,#1006,#1007)
    ,(#1008,#1009,#1010)
    ,(#1011,#1012,#1013)
    ,(#1014,#1015,#1016
    )),.UNSPECIFIED.,.T.,.F.,.F.,(15,15),(3,3),(0.,1.),(0.,1.),
  .PIECEWISE_BEZIER_KNOTS.);
#972 = CARTESIAN_POINT('',(38.,20.,4.));
#973 = CARTESIAN_POINT('',(29.468507464732,15.481119469234,
    16.463407864351));
#974 = CARTESIAN_POINT('',(30.9,1.,19.));
#975 = CARTESIAN_POINT('',(38.000000000004,28.078381109236,4.));
#976 = CARTESIAN_POINT('',(29.468507464732,19.824367963715,
    20.74142368274));
#977 = CARTESIAN_POINT('',(30.9,1.,23.891908560591));
#978 = CARTESIAN_POINT('',(34.095541498395,36.156765200381,4.));
#979 = CARTESIAN_POINT('',(27.414652216513,24.16761806137,
    25.019441080198));
#980 = CARTESIAN_POINT('',(28.535633462928,1.,28.783818926906));
#981 = CARTESIAN_POINT('',(26.286619503776,42.1907482383,4.));
#982 = CARTESIAN_POINT('',(23.306939094374,27.411719495938,
    28.214818289553));
#983 = CARTESIAN_POINT('',(23.806897366143,1.,32.437730877612));
#984 = CARTESIAN_POINT('',(15.741008934698,44.136156724915,4.));
#985 = CARTESIAN_POINT('',(17.759650628197,28.457645946519,
    29.245035626983));
#986 = CARTESIAN_POINT('',(17.420944299418,1.,33.615783794586));
#987 = CARTESIAN_POINT('',(4.79403811272,40.681583498091,4.));
#988 = CARTESIAN_POINT('',(12.001235353282,26.600334467567,
    27.415619719616));
#989 = CARTESIAN_POINT('',(10.791945301463,1.,31.523847784861));
#990 = CARTESIAN_POINT('',(-3.56275062979,31.9859344149,4.));
#991 = CARTESIAN_POINT('',(7.60532887645,21.925218961188,22.810721308636
    ));
#992 = CARTESIAN_POINT('',(5.73144545214,1.,26.258149173597));
#993 = CARTESIAN_POINT('',(-6.708914836976,20.000000000066,4.));
#994 = CARTESIAN_POINT('',(5.950357804819,15.481119469338,
    16.463407864684));
#995 = CARTESIAN_POINT('',(3.826268237403,1.,18.999999999894));
#996 = CARTESIAN_POINT('',(-3.562750629743,8.014065584973,4.));
#997 = CARTESIAN_POINT('',(7.60532887649,9.037019977085,10.116094419452)
  );
#998 = CARTESIAN_POINT('',(5.731445452182,1.,11.741850826589));
#999 = CARTESIAN_POINT('',(4.794038112651,-0.681583497981,4.));
#1000 = CARTESIAN_POINT('',(12.001235353221,4.361904471063,
    5.511196009562));
#1001 = CARTESIAN_POINT('',(10.791945301401,1.,6.476152215012));
#1002 = CARTESIAN_POINT('',(15.741008934759,-4.136156724995,4.));
#1003 = CARTESIAN_POINT('',(17.759650628254,2.504592991838,
    3.681780101414));
#1004 = CARTESIAN_POINT('',(17.420944299476,1.,4.38421620548));
#1005 = CARTESIAN_POINT('',(26.286619503738,-2.190748238254,4.));
#1006 = CARTESIAN_POINT('',(23.306939094337,3.550519442591,
    4.711997439302));
#1007 = CARTESIAN_POINT('',(23.806897366106,1.,5.562269122362));
#1008 = CARTESIAN_POINT('',(34.09554149841,3.8432347996,4.));
#1009 = CARTESIAN_POINT('',(27.414652216528,6.794620877074,
    7.907374648446));
#1010 = CARTESIAN_POINT('',(28.535633462943,1.,9.216181073102));
#1011 = CARTESIAN_POINT('',(38.000000000001,11.921618890769,4.));
#1012 = CARTESIAN_POINT('',(29.468507464728,11.137870974759,
    12.185392045974));
#1013 = CARTESIAN_POINT('',(30.899999999997,1.,14.108091439408));
#1014 = CARTESIAN_POINT('',(38.,20.,4.));
#1015 = CARTESIAN_POINT('',(29.468507464732,15.481119469234,
    16.463407864351));
#1016 = CARTESIAN_POINT('',(30.9,1.,19.));
#1017 = ADVANCED_FACE('',(#1018),#1029,.F.);
#1018 = FACE_BOUND('',#1019,.T.);
#1019 = EDGE_LOOP('',(#1020,#1026,#1027,#1028));
#1020 = ORIENTED_EDGE('',*,*,#1021,.T.);
#1021 = EDGE_CURVE('',#842,#537,#1022,.T.);
#1022 = LINE('',#1023,#1024);
#1023 = CARTESIAN_POINT('',(36.737494569938,1.,12.));
#1024 = VECTOR('',#1025,1.);
#1025 = DIRECTION('',(0.,-1.,2.22044604925E-16));
#1026 = ORIENTED_EDGE('',*,*,#546,.T.);
#1027 = ORIENTED_EDGE('',*,*,#1021,.F.);
#1028 = ORIENTED_EDGE('',*,*,#841,.F.);
#1029 = CYLINDRICAL_SURFACE('',#1030,2.35);
#1030 = AXIS2_PLACEMENT_3D('',#1031,#1032,#1033);
#1031 = CARTESIAN_POINT('',(34.387494569938,1.,12.));
#1032 = DIRECTION('',(0.,1.,-2.22044604925E-16));
#1033 = DIRECTION('',(1.,0.,0.));
#1034 = ADVANCED_FACE('',(#1035),#1062,.F.);
#1035 = FACE_BOUND('',#1036,.F.);
#1036 = EDGE_LOOP('',(#1037,#1045,#1046,#1047,#1048,#1056));
#1037 = ORIENTED_EDGE('',*,*,#1038,.T.);
#1038 = EDGE_CURVE('',#1039,#606,#1041,.T.);
#1039 = VERTEX_POINT('',#1040);
#1040 = CARTESIAN_POINT('',(4.,2.42E-13,0.));
#1041 = LINE('',#1042,#1043);
#1042 = CARTESIAN_POINT('',(4.,2.4247E-13,0.));
#1043 = VECTOR('',#1044,1.);
#1044 = DIRECTION('',(0.,0.,1.));
#1045 = ORIENTED_EDGE('',*,*,#614,.T.);
#1046 = ORIENTED_EDGE('',*,*,#587,.T.);
#1047 = ORIENTED_EDGE('',*,*,#668,.T.);
#1048 = ORIENTED_EDGE('',*,*,#1049,.F.);
#1049 = EDGE_CURVE('',#1050,#669,#1052,.T.);
#1050 = VERTEX_POINT('',#1051);
#1051 = CARTESIAN_POINT('',(36.,2.42E-13,0.));
#1052 = LINE('',#1053,#1054);
#1053 = CARTESIAN_POINT('',(36.,2.4247E-13,0.));
#1054 = VECTOR('',#1055,1.);
#1055 = DIRECTION('',(0.,0.,1.));
#1056 = ORIENTED_EDGE('',*,*,#1057,.F.);
#1057 = EDGE_CURVE('',#1039,#1050,#1058,.T.);
#1058 = LINE('',#1059,#1060);
#1059 = CARTESIAN_POINT('',(4.,2.4247E-13,0.));
#1060 = VECTOR('',#1061,1.);
#1061 = DIRECTION('',(1.,0.,0.));
#1062 = PLANE('',#1063);
#1063 = AXIS2_PLACEMENT_3D('',#1064,#1065,#1066);
#1064 = CARTESIAN_POINT('',(4.,2.4247E-13,0.));
#1065 = DIRECTION('',(0.,1.,0.));
#1066 = DIRECTION('',(1.,0.,0.));
#1067 = ADVANCED_FACE('',(#1068),#1087,.T.);
#1068 = FACE_BOUND('',#1069,.F.);
#1069 = EDGE_LOOP('',(#1070,#1078,#1079,#1080));
#1070 = ORIENTED_EDGE('',*,*,#1071,.T.);
#1071 = EDGE_CURVE('',#1072,#604,#1074,.T.);
#1072 = VERTEX_POINT('',#1073);
#1073 = CARTESIAN_POINT('',(2.42E-13,4.,0.));
#1074 = LINE('',#1075,#1076);
#1075 = CARTESIAN_POINT('',(2.4247E-13,4.,0.));
#1076 = VECTOR('',#1077,1.);
#1077 = DIRECTION('',(0.,0.,1.));
#1078 = ORIENTED_EDGE('',*,*,#603,.T.);
#1079 = ORIENTED_EDGE('',*,*,#1038,.F.);
#1080 = ORIENTED_EDGE('',*,*,#1081,.F.);
#1081 = EDGE_CURVE('',#1072,#1039,#1082,.T.);
#1082 = CIRCLE('',#1083,4.);
#1083 = AXIS2_PLACEMENT_3D('',#1084,#1085,#1086);
#1084 = CARTESIAN_POINT('',(4.,4.,0.));
#1085 = DIRECTION('',(0.,0.,1.));
#1086 = DIRECTION('',(1.,0.,0.));
#1087 = CYLINDRICAL_SURFACE('',#1088,4.);
#1088 = AXIS2_PLACEMENT_3D('',#1089,#1090,#1091);
#1089 = CARTESIAN_POINT('',(4.,4.,0.));
#1090 = DIRECTION('',(-0.,-0.,-1.));
#1091 = DIRECTION('',(1.,0.,0.));
#1092 = ADVANCED_FACE('',(#1093),#1111,.F.);
#1093 = FACE_BOUND('',#1094,.F.);
#1094 = EDGE_LOOP('',(#1095,#1103,#1104,#1105));
#1095 = ORIENTED_EDGE('',*,*,#1096,.T.);
#1096 = EDGE_CURVE('',#1097,#711,#1099,.T.);
#1097 = VERTEX_POINT('',#1098);
#1098 = CARTESIAN_POINT('',(2.42E-13,36.,0.));
#1099 = LINE('',#1100,#1101);
#1100 = CARTESIAN_POINT('',(2.4247E-13,36.,0.));
#1101 = VECTOR('',#1102,1.);
#1102 = DIRECTION('',(0.,0.,1.));
#1103 = ORIENTED_EDGE('',*,*,#719,.T.);
#1104 = ORIENTED_EDGE('',*,*,#1071,.F.);
#1105 = ORIENTED_EDGE('',*,*,#1106,.F.);
#1106 = EDGE_CURVE('',#1097,#1072,#1107,.T.);
#1107 = LINE('',#1108,#1109);
#1108 = CARTESIAN_POINT('',(2.4247E-13,36.,0.));
#1109 = VECTOR('',#1110,1.);
#1110 = DIRECTION('',(0.,-1.,0.));
#1111 = PLANE('',#1112);
#1112 = AXIS2_PLACEMENT_3D('',#1113,#1114,#1115);
#1113 = CARTESIAN_POINT('',(2.4247E-13,36.,0.));
#1114 = DIRECTION('',(1.,0.,0.));
#1115 = DIRECTION('',(0.,-1.,0.));
#1116 = ADVANCED_FACE('',(#1117),#1136,.T.);
#1117 = FACE_BOUND('',#1118,.F.);
#1118 = EDGE_LOOP('',(#1119,#1127,#1128,#1129));
#1119 = ORIENTED_EDGE('',*,*,#1120,.T.);
#1120 = EDGE_CURVE('',#1121,#703,#1123,.T.);
#1121 = VERTEX_POINT('',#1122);
#1122 = CARTESIAN_POINT('',(4.,40.,0.));
#1123 = LINE('',#1124,#1125);
#1124 = CARTESIAN_POINT('',(4.,40.,0.));
#1125 = VECTOR('',#1126,1.);
#1126 = DIRECTION('',(0.,0.,1.));
#1127 = ORIENTED_EDGE('',*,*,#710,.T.);
#1128 = ORIENTED_EDGE('',*,*,#1096,.F.);
#1129 = ORIENTED_EDGE('',*,*,#1130,.F.);
#1130 = EDGE_CURVE('',#1121,#1097,#1131,.T.);
#1131 = CIRCLE('',#1132,4.);
#1132 = AXIS2_PLACEMENT_3D('',#1133,#1134,#1135);
#1133 = CARTESIAN_POINT('',(4.,36.,0.));
#1134 = DIRECTION('',(0.,0.,1.));
#1135 = DIRECTION('',(1.,0.,0.));
#1136 = CYLINDRICAL_SURFACE('',#1137,4.);
#1137 = AXIS2_PLACEMENT_3D('',#1138,#1139,#1140);
#1138 = CARTESIAN_POINT('',(4.,36.,0.));
#1139 = DIRECTION('',(-0.,-0.,-1.));
#1140 = DIRECTION('',(1.,0.,0.));
#1141 = ADVANCED_FACE('',(#1142),#1160,.F.);
#1142 = FACE_BOUND('',#1143,.F.);
#1143 = EDGE_LOOP('',(#1144,#1152,#1153,#1154));
#1144 = ORIENTED_EDGE('',*,*,#1145,.T.);
#1145 = EDGE_CURVE('',#1146,#694,#1148,.T.);
#1146 = VERTEX_POINT('',#1147);
#1147 = CARTESIAN_POINT('',(36.,40.,0.));
#1148 = LINE('',#1149,#1150);
#1149 = CARTESIAN_POINT('',(36.,40.,0.));
#1150 = VECTOR('',#1151,1.);
#1151 = DIRECTION('',(0.,0.,1.));
#1152 = ORIENTED_EDGE('',*,*,#702,.T.);
#1153 = ORIENTED_EDGE('',*,*,#1120,.F.);
#1154 = ORIENTED_EDGE('',*,*,#1155,.F.);
#1155 = EDGE_CURVE('',#1146,#1121,#1156,.T.);
#1156 = LINE('',#1157,#1158);
#1157 = CARTESIAN_POINT('',(36.,40.,0.));
#1158 = VECTOR('',#1159,1.);
#1159 = DIRECTION('',(-1.,0.,0.));
#1160 = PLANE('',#1161);
#1161 = AXIS2_PLACEMENT_3D('',#1162,#1163,#1164);
#1162 = CARTESIAN_POINT('',(36.,40.,0.));
#1163 = DIRECTION('',(0.,-1.,0.));
#1164 = DIRECTION('',(-1.,0.,0.));
#1165 = ADVANCED_FACE('',(#1166),#1185,.T.);
#1166 = FACE_BOUND('',#1167,.F.);
#1167 = EDGE_LOOP('',(#1168,#1176,#1177,#1178));
#1168 = ORIENTED_EDGE('',*,*,#1169,.T.);
#1169 = EDGE_CURVE('',#1170,#686,#1172,.T.);
#1170 = VERTEX_POINT('',#1171);
#1171 = CARTESIAN_POINT('',(40.,36.,0.));
#1172 = LINE('',#1173,#1174);
#1173 = CARTESIAN_POINT('',(40.,36.,0.));
#1174 = VECTOR('',#1175,1.);
#1175 = DIRECTION('',(0.,0.,1.));
#1176 = ORIENTED_EDGE('',*,*,#693,.T.);
#1177 = ORIENTED_EDGE('',*,*,#1145,.F.);
#1178 = ORIENTED_EDGE('',*,*,#1179,.F.);
#1179 = EDGE_CURVE('',#1170,#1146,#1180,.T.);
#1180 = CIRCLE('',#1181,4.);
#1181 = AXIS2_PLACEMENT_3D('',#1182,#1183,#1184);
#1182 = CARTESIAN_POINT('',(36.,36.,0.));
#1183 = DIRECTION('',(0.,0.,1.));
#1184 = DIRECTION('',(1.,0.,0.));
#1185 = CYLINDRICAL_SURFACE('',#1186,4.);
#1186 = AXIS2_PLACEMENT_3D('',#1187,#1188,#1189);
#1187 = CARTESIAN_POINT('',(36.,36.,0.));
#1188 = DIRECTION('',(-0.,-0.,-1.));
#1189 = DIRECTION('',(1.,0.,0.));
#1190 = ADVANCED_FACE('',(#1191),#1209,.F.);
#1191 = FACE_BOUND('',#1192,.F.);
#1192 = EDGE_LOOP('',(#1193,#1201,#1202,#1203));
#1193 = ORIENTED_EDGE('',*,*,#1194,.T.);
#1194 = EDGE_CURVE('',#1195,#677,#1197,.T.);
#1195 = VERTEX_POINT('',#1196);
#1196 = CARTESIAN_POINT('',(40.,4.,0.));
#1197 = LINE('',#1198,#1199);
#1198 = CARTESIAN_POINT('',(40.,4.,0.));
#1199 = VECTOR('',#1200,1.);
#1200 = DIRECTION('',(0.,0.,1.));
#1201 = ORIENTED_EDGE('',*,*,#685,.T.);
#1202 = ORIENTED_EDGE('',*,*,#1169,.F.);
#1203 = ORIENTED_EDGE('',*,*,#1204,.F.);
#1204 = EDGE_CURVE('',#1195,#1170,#1205,.T.);
#1205 = LINE('',#1206,#1207);
#1206 = CARTESIAN_POINT('',(40.,4.,0.));
#1207 = VECTOR('',#1208,1.);
#1208 = DIRECTION('',(0.,1.,0.));
#1209 = PLANE('',#1210);
#1210 = AXIS2_PLACEMENT_3D('',#1211,#1212,#1213);
#1211 = CARTESIAN_POINT('',(40.,4.,0.));
#1212 = DIRECTION('',(-1.,0.,0.));
#1213 = DIRECTION('',(0.,1.,0.));
#1214 = ADVANCED_FACE('',(#1215),#1227,.T.);
#1215 = FACE_BOUND('',#1216,.F.);
#1216 = EDGE_LOOP('',(#1217,#1218,#1219,#1220));
#1217 = ORIENTED_EDGE('',*,*,#1049,.T.);
#1218 = ORIENTED_EDGE('',*,*,#676,.T.);
#1219 = ORIENTED_EDGE('',*,*,#1194,.F.);
#1220 = ORIENTED_EDGE('',*,*,#1221,.F.);
#1221 = EDGE_CURVE('',#1050,#1195,#1222,.T.);
#1222 = CIRCLE('',#1223,4.);
#1223 = AXIS2_PLACEMENT_3D('',#1224,#1225,#1226);
#1224 = CARTESIAN_POINT('',(36.,4.,0.));
#1225 = DIRECTION('',(0.,0.,1.));
#1226 = DIRECTION('',(1.,0.,0.));
#1227 = CYLINDRICAL_SURFACE('',#1228,4.);
#1228 = AXIS2_PLACEMENT_3D('',#1229,#1230,#1231);
#1229 = CARTESIAN_POINT('',(36.,4.,0.));
#1230 = DIRECTION('',(-0.,-0.,-1.));
#1231 = DIRECTION('',(1.,0.,0.));
#1232 = ADVANCED_FACE('',(#1233),#1252,.F.);
#1233 = FACE_BOUND('',#1234,.F.);
#1234 = EDGE_LOOP('',(#1235,#1243,#1250,#1251));
#1235 = ORIENTED_EDGE('',*,*,#1236,.T.);
#1236 = EDGE_CURVE('',#728,#1237,#1239,.T.);
#1237 = VERTEX_POINT('',#1238);
#1238 = CARTESIAN_POINT('',(7.,4.,2.));
#1239 = LINE('',#1240,#1241);
#1240 = CARTESIAN_POINT('',(7.,4.,4.));
#1241 = VECTOR('',#1242,1.);
#1242 = DIRECTION('',(-0.,-0.,-1.));
#1243 = ORIENTED_EDGE('',*,*,#1244,.T.);
#1244 = EDGE_CURVE('',#1237,#1237,#1245,.T.);
#1245 = CIRCLE('',#1246,3.);
#1246 = AXIS2_PLACEMENT_3D('',#1247,#1248,#1249);
#1247 = CARTESIAN_POINT('',(4.,4.,2.));
#1248 = DIRECTION('',(0.,0.,1.));
#1249 = DIRECTION('',(1.,0.,0.));
#1250 = ORIENTED_EDGE('',*,*,#1236,.F.);
#1251 = ORIENTED_EDGE('',*,*,#727,.F.);
#1252 = CYLINDRICAL_SURFACE('',#1253,3.);
#1253 = AXIS2_PLACEMENT_3D('',#1254,#1255,#1256);
#1254 = CARTESIAN_POINT('',(4.,4.,4.));
#1255 = DIRECTION('',(0.,0.,1.));
#1256 = DIRECTION('',(1.,0.,0.));
#1257 = ADVANCED_FACE('',(#1258),#1277,.F.);
#1258 = FACE_BOUND('',#1259,.F.);
#1259 = EDGE_LOOP('',(#1260,#1268,#1275,#1276));
#1260 = ORIENTED_EDGE('',*,*,#1261,.T.);
#1261 = EDGE_CURVE('',#739,#1262,#1264,.T.);
#1262 = VERTEX_POINT('',#1263);
#1263 = CARTESIAN_POINT('',(39.,4.,2.));
#1264 = LINE('',#1265,#1266);
#1265 = CARTESIAN_POINT('',(39.,4.,4.));
#1266 = VECTOR('',#1267,1.);
#1267 = DIRECTION('',(-0.,-0.,-1.));
#1268 = ORIENTED_EDGE('',*,*,#1269,.T.);
#1269 = EDGE_CURVE('',#1262,#1262,#1270,.T.);
#1270 = CIRCLE('',#1271,3.);
#1271 = AXIS2_PLACEMENT_3D('',#1272,#1273,#1274);
#1272 = CARTESIAN_POINT('',(36.,4.,2.));
#1273 = DIRECTION('',(0.,0.,1.));
#1274 = DIRECTION('',(1.,0.,0.));
#1275 = ORIENTED_EDGE('',*,*,#1261,.F.);
#1276 = ORIENTED_EDGE('',*,*,#738,.F.);
#1277 = CYLINDRICAL_SURFACE('',#1278,3.);
#1278 = AXIS2_PLACEMENT_3D('',#1279,#1280,#1281);
#1279 = CARTESIAN_POINT('',(36.,4.,4.));
#1280 = DIRECTION('',(0.,0.,1.));
#1281 = DIRECTION('',(1.,0.,0.));
#1282 = ADVANCED_FACE('',(#1283),#1302,.F.);
#1283 = FACE_BOUND('',#1284,.F.);
#1284 = EDGE_LOOP('',(#1285,#1293,#1300,#1301));
#1285 = ORIENTED_EDGE('',*,*,#1286,.T.);
#1286 = EDGE_CURVE('',#750,#1287,#1289,.T.);
#1287 = VERTEX_POINT('',#1288);
#1288 = CARTESIAN_POINT('',(7.,36.,2.));
#1289 = LINE('',#1290,#1291);
#1290 = CARTESIAN_POINT('',(7.,36.,4.));
#1291 = VECTOR('',#1292,1.);
#1292 = DIRECTION('',(-0.,-0.,-1.));
#1293 = ORIENTED_EDGE('',*,*,#1294,.T.);
#1294 = EDGE_CURVE('',#1287,#1287,#1295,.T.);
#1295 = CIRCLE('',#1296,3.);
#1296 = AXIS2_PLACEMENT_3D('',#1297,#1298,#1299);
#1297 = CARTESIAN_POINT('',(4.,36.,2.));
#1298 = DIRECTION('',(0.,0.,1.));
#1299 = DIRECTION('',(1.,0.,0.));
#1300 = ORIENTED_EDGE('',*,*,#1286,.F.);
#1301 = ORIENTED_EDGE('',*,*,#749,.F.);
#1302 = CYLINDRICAL_SURFACE('',#1303,3.);
#1303 = AXIS2_PLACEMENT_3D('',#1304,#1305,#1306);
#1304 = CARTESIAN_POINT('',(4.,36.,4.));
#1305 = DIRECTION('',(0.,0.,1.));
#1306 = DIRECTION('',(1.,0.,0.));
#1307 = ADVANCED_FACE('',(#1308),#1327,.F.);
#1308 = FACE_BOUND('',#1309,.F.);
#1309 = EDGE_LOOP('',(#1310,#1318,#1325,#1326));
#1310 = ORIENTED_EDGE('',*,*,#1311,.T.);
#1311 = EDGE_CURVE('',#761,#1312,#1314,.T.);
#1312 = VERTEX_POINT('',#1313);
#1313 = CARTESIAN_POINT('',(39.,36.,2.));
#1314 = LINE('',#1315,#1316);
#1315 = CARTESIAN_POINT('',(39.,36.,4.));
#1316 = VECTOR('',#1317,1.);
#1317 = DIRECTION('',(-0.,-0.,-1.));
#1318 = ORIENTED_EDGE('',*,*,#1319,.T.);
#1319 = EDGE_CURVE('',#1312,#1312,#1320,.T.);
#1320 = CIRCLE('',#1321,3.);
#1321 = AXIS2_PLACEMENT_3D('',#1322,#1323,#1324);
#1322 = CARTESIAN_POINT('',(36.,36.,2.));
#1323 = DIRECTION('',(0.,0.,1.));
#1324 = DIRECTION('',(1.,0.,0.));
#1325 = ORIENTED_EDGE('',*,*,#1311,.F.);
#1326 = ORIENTED_EDGE('',*,*,#760,.F.);
#1327 = CYLINDRICAL_SURFACE('',#1328,3.);
#1328 = AXIS2_PLACEMENT_3D('',#1329,#1330,#1331);
#1329 = CARTESIAN_POINT('',(36.,36.,4.));
#1330 = DIRECTION('',(0.,0.,1.));
#1331 = DIRECTION('',(1.,0.,0.));
#1332 = ADVANCED_FACE('',(#1333),#1352,.F.);
#1333 = FACE_BOUND('',#1334,.T.);
#1334 = EDGE_LOOP('',(#1335,#1343,#1344,#1345));
#1335 = ORIENTED_EDGE('',*,*,#1336,.T.);
#1336 = EDGE_CURVE('',#1337,#956,#1339,.T.);
#1337 = VERTEX_POINT('',#1338);
#1338 = CARTESIAN_POINT('',(38.,20.,0.4));
#1339 = LINE('',#1340,#1341);
#1340 = CARTESIAN_POINT('',(38.,20.,0.));
#1341 = VECTOR('',#1342,1.);
#1342 = DIRECTION('',(0.,0.,1.));
#1343 = ORIENTED_EDGE('',*,*,#955,.T.);
#1344 = ORIENTED_EDGE('',*,*,#1336,.F.);
#1345 = ORIENTED_EDGE('',*,*,#1346,.F.);
#1346 = EDGE_CURVE('',#1337,#1337,#1347,.T.);
#1347 = CIRCLE('',#1348,18.);
#1348 = AXIS2_PLACEMENT_3D('',#1349,#1350,#1351);
#1349 = CARTESIAN_POINT('',(20.,20.,0.4));
#1350 = DIRECTION('',(0.,0.,1.));
#1351 = DIRECTION('',(1.,0.,0.));
#1352 = CYLINDRICAL_SURFACE('',#1353,18.);
#1353 = AXIS2_PLACEMENT_3D('',#1354,#1355,#1356);
#1354 = CARTESIAN_POINT('',(20.,20.,0.));
#1355 = DIRECTION('',(-0.,-0.,-1.));
#1356 = DIRECTION('',(1.,0.,0.));
#1357 = ADVANCED_FACE('',(#1358,#1369,#1379,#1390,#1401,#1412),#1423,.F.
  );
#1358 = FACE_BOUND('',#1359,.F.);
#1359 = EDGE_LOOP('',(#1360));
#1360 = ORIENTED_EDGE('',*,*,#1361,.F.);
#1361 = EDGE_CURVE('',#1362,#1362,#1364,.T.);
#1362 = VERTEX_POINT('',#1363);
#1363 = CARTESIAN_POINT('',(38.4,20.,-7.771561172376E-16));
#1364 = CIRCLE('',#1365,18.4);
#1365 = AXIS2_PLACEMENT_3D('',#1366,#1367,#1368);
#1366 = CARTESIAN_POINT('',(20.,20.,0.));
#1367 = DIRECTION('',(0.,0.,1.));
#1368 = DIRECTION('',(1.,0.,0.));
#1369 = FACE_BOUND('',#1370,.F.);
#1370 = EDGE_LOOP('',(#1371,#1372,#1373,#1374,#1375,#1376,#1377,#1378));
#1371 = ORIENTED_EDGE('',*,*,#1057,.T.);
#1372 = ORIENTED_EDGE('',*,*,#1221,.T.);
#1373 = ORIENTED_EDGE('',*,*,#1204,.T.);
#1374 = ORIENTED_EDGE('',*,*,#1179,.T.);
#1375 = ORIENTED_EDGE('',*,*,#1155,.T.);
#1376 = ORIENTED_EDGE('',*,*,#1130,.T.);
#1377 = ORIENTED_EDGE('',*,*,#1106,.T.);
#1378 = ORIENTED_EDGE('',*,*,#1081,.T.);
#1379 = FACE_BOUND('',#1380,.F.);
#1380 = EDGE_LOOP('',(#1381));
#1381 = ORIENTED_EDGE('',*,*,#1382,.F.);
#1382 = EDGE_CURVE('',#1383,#1383,#1385,.T.);
#1383 = VERTEX_POINT('',#1384);
#1384 = CARTESIAN_POINT('',(6.05,36.,1.110223024625E-16));
#1385 = CIRCLE('',#1386,2.05);
#1386 = AXIS2_PLACEMENT_3D('',#1387,#1388,#1389);
#1387 = CARTESIAN_POINT('',(4.,36.,0.));
#1388 = DIRECTION('',(0.,0.,1.));
#1389 = DIRECTION('',(1.,0.,0.));
#1390 = FACE_BOUND('',#1391,.F.);
#1391 = EDGE_LOOP('',(#1392));
#1392 = ORIENTED_EDGE('',*,*,#1393,.F.);
#1393 = EDGE_CURVE('',#1394,#1394,#1396,.T.);
#1394 = VERTEX_POINT('',#1395);
#1395 = CARTESIAN_POINT('',(6.05,4.,1.110223024625E-16));
#1396 = CIRCLE('',#1397,2.05);
#1397 = AXIS2_PLACEMENT_3D('',#1398,#1399,#1400);
#1398 = CARTESIAN_POINT('',(4.,4.,0.));
#1399 = DIRECTION('',(0.,-0.,1.));
#1400 = DIRECTION('',(1.,5.382899513334E-16,0.));
#1401 = FACE_BOUND('',#1402,.F.);
#1402 = EDGE_LOOP('',(#1403));
#1403 = ORIENTED_EDGE('',*,*,#1404,.F.);
#1404 = EDGE_CURVE('',#1405,#1405,#1407,.T.);
#1405 = VERTEX_POINT('',#1406);
#1406 = CARTESIAN_POINT('',(38.05,4.,-7.771561172376E-16));
#1407 = CIRCLE('',#1408,2.05);
#1408 = AXIS2_PLACEMENT_3D('',#1409,#1410,#1411);
#1409 = CARTESIAN_POINT('',(36.,4.,0.));
#1410 = DIRECTION('',(0.,-0.,1.));
#1411 = DIRECTION('',(1.,5.382899513334E-16,0.));
#1412 = FACE_BOUND('',#1413,.F.);
#1413 = EDGE_LOOP('',(#1414));
#1414 = ORIENTED_EDGE('',*,*,#1415,.F.);
#1415 = EDGE_CURVE('',#1416,#1416,#1418,.T.);
#1416 = VERTEX_POINT('',#1417);
#1417 = CARTESIAN_POINT('',(38.05,36.,-7.771561172376E-16));
#1418 = CIRCLE('',#1419,2.05);
#1419 = AXIS2_PLACEMENT_3D('',#1420,#1421,#1422);
#1420 = CARTESIAN_POINT('',(36.,36.,0.));
#1421 = DIRECTION('',(0.,0.,1.));
#1422 = DIRECTION('',(1.,0.,0.));
#1423 = PLANE('',#1424);
#1424 = AXIS2_PLACEMENT_3D('',#1425,#1426,#1427);
#1425 = CARTESIAN_POINT('',(20.,20.,0.));
#1426 = DIRECTION('',(0.,0.,1.));
#1427 = DIRECTION('',(1.,0.,0.));
#1428 = ADVANCED_FACE('',(#1429,#1432),#1443,.T.);
#1429 = FACE_BOUND('',#1430,.T.);
#1430 = EDGE_LOOP('',(#1431));
#1431 = ORIENTED_EDGE('',*,*,#1244,.T.);
#1432 = FACE_BOUND('',#1433,.T.);
#1433 = EDGE_LOOP('',(#1434));
#1434 = ORIENTED_EDGE('',*,*,#1435,.T.);
#1435 = EDGE_CURVE('',#1436,#1436,#1438,.T.);
#1436 = VERTEX_POINT('',#1437);
#1437 = CARTESIAN_POINT('',(5.65,4.,2.));
#1438 = CIRCLE('',#1439,1.65);
#1439 = AXIS2_PLACEMENT_3D('',#1440,#1441,#1442);
#1440 = CARTESIAN_POINT('',(4.,4.,2.));
#1441 = DIRECTION('',(0.,0.,-1.));
#1442 = DIRECTION('',(1.,0.,0.));
#1443 = PLANE('',#1444);
#1444 = AXIS2_PLACEMENT_3D('',#1445,#1446,#1447);
#1445 = CARTESIAN_POINT('',(20.,20.,2.));
#1446 = DIRECTION('',(0.,0.,1.));
#1447 = DIRECTION('',(1.,0.,0.));
#1448 = ADVANCED_FACE('',(#1449,#1452),#1463,.T.);
#1449 = FACE_BOUND('',#1450,.T.);
#1450 = EDGE_LOOP('',(#1451));
#1451 = ORIENTED_EDGE('',*,*,#1269,.T.);
#1452 = FACE_BOUND('',#1453,.T.);
#1453 = EDGE_LOOP('',(#1454));
#1454 = ORIENTED_EDGE('',*,*,#1455,.T.);
#1455 = EDGE_CURVE('',#1456,#1456,#1458,.T.);
#1456 = VERTEX_POINT('',#1457);
#1457 = CARTESIAN_POINT('',(37.65,4.,2.));
#1458 = CIRCLE('',#1459,1.65);
#1459 = AXIS2_PLACEMENT_3D('',#1460,#1461,#1462);
#1460 = CARTESIAN_POINT('',(36.,4.,2.));
#1461 = DIRECTION('',(0.,0.,-1.));
#1462 = DIRECTION('',(1.,0.,0.));
#1463 = PLANE('',#1464);
#1464 = AXIS2_PLACEMENT_3D('',#1465,#1466,#1467);
#1465 = CARTESIAN_POINT('',(20.,20.,2.));
#1466 = DIRECTION('',(0.,0.,1.));
#1467 = DIRECTION('',(1.,0.,0.));
#1468 = ADVANCED_FACE('',(#1469,#1472),#1483,.T.);
#1469 = FACE_BOUND('',#1470,.T.);
#1470 = EDGE_LOOP('',(#1471));
#1471 = ORIENTED_EDGE('',*,*,#1294,.T.);
#1472 = FACE_BOUND('',#1473,.T.);
#1473 = EDGE_LOOP('',(#1474));
#1474 = ORIENTED_EDGE('',*,*,#1475,.T.);
#1475 = EDGE_CURVE('',#1476,#1476,#1478,.T.);
#1476 = VERTEX_POINT('',#1477);
#1477 = CARTESIAN_POINT('',(5.65,36.,2.));
#1478 = CIRCLE('',#1479,1.65);
#1479 = AXIS2_PLACEMENT_3D('',#1480,#1481,#1482);
#1480 = CARTESIAN_POINT('',(4.,36.,2.));
#1481 = DIRECTION('',(0.,0.,-1.));
#1482 = DIRECTION('',(1.,0.,0.));
#1483 = PLANE('',#1484);
#1484 = AXIS2_PLACEMENT_3D('',#1485,#1486,#1487);
#1485 = CARTESIAN_POINT('',(20.,20.,2.));
#1486 = DIRECTION('',(0.,0.,1.));
#1487 = DIRECTION('',(1.,0.,0.));
#1488 = ADVANCED_FACE('',(#1489,#1492),#1503,.T.);
#1489 = FACE_BOUND('',#1490,.T.);
#1490 = EDGE_LOOP('',(#1491));
#1491 = ORIENTED_EDGE('',*,*,#1319,.T.);
#1492 = FACE_BOUND('',#1493,.T.);
#1493 = EDGE_LOOP('',(#1494));
#1494 = ORIENTED_EDGE('',*,*,#1495,.T.);
#1495 = EDGE_CURVE('',#1496,#1496,#1498,.T.);
#1496 = VERTEX_POINT('',#1497);
#1497 = CARTESIAN_POINT('',(37.65,36.,2.));
#1498 = CIRCLE('',#1499,1.65);
#1499 = AXIS2_PLACEMENT_3D('',#1500,#1501,#1502);
#1500 = CARTESIAN_POINT('',(36.,36.,2.));
#1501 = DIRECTION('',(0.,0.,-1.));
#1502 = DIRECTION('',(1.,0.,0.));
#1503 = PLANE('',#1504);
#1504 = AXIS2_PLACEMENT_3D('',#1505,#1506,#1507);
#1505 = CARTESIAN_POINT('',(20.,20.,2.));
#1506 = DIRECTION('',(0.,0.,1.));
#1507 = DIRECTION('',(1.,0.,0.));
#1508 = ADVANCED_FACE('',(#1509),#1520,.F.);
#1509 = FACE_BOUND('',#1510,.F.);
#1510 = EDGE_LOOP('',(#1511,#1517,#1518,#1519));
#1511 = ORIENTED_EDGE('',*,*,#1512,.F.);
#1512 = EDGE_CURVE('',#1362,#1337,#1513,.T.);
#1513 = LINE('',#1514,#1515);
#1514 = CARTESIAN_POINT('',(38.,20.,0.4));
#1515 = VECTOR('',#1516,1.);
#1516 = DIRECTION('',(-0.707106781187,0.,0.707106781187));
#1517 = ORIENTED_EDGE('',*,*,#1361,.T.);
#1518 = ORIENTED_EDGE('',*,*,#1512,.T.);
#1519 = ORIENTED_EDGE('',*,*,#1346,.F.);
#1520 = CONICAL_SURFACE('',#1521,18.,0.785398163397);
#1521 = AXIS2_PLACEMENT_3D('',#1522,#1523,#1524);
#1522 = CARTESIAN_POINT('',(20.,20.,0.4));
#1523 = DIRECTION('',(-0.,-0.,-1.));
#1524 = DIRECTION('',(1.,0.,0.));
#1525 = ADVANCED_FACE('',(#1526),#1545,.F.);
#1526 = FACE_BOUND('',#1527,.F.);
#1527 = EDGE_LOOP('',(#1528,#1536,#1537,#1538));
#1528 = ORIENTED_EDGE('',*,*,#1529,.F.);
#1529 = EDGE_CURVE('',#1383,#1530,#1532,.T.);
#1530 = VERTEX_POINT('',#1531);
#1531 = CARTESIAN_POINT('',(5.65,36.,0.4));
#1532 = LINE('',#1533,#1534);
#1533 = CARTESIAN_POINT('',(5.65,36.,0.4));
#1534 = VECTOR('',#1535,1.);
#1535 = DIRECTION('',(-0.707106781187,0.,0.707106781187));
#1536 = ORIENTED_EDGE('',*,*,#1382,.T.);
#1537 = ORIENTED_EDGE('',*,*,#1529,.T.);
#1538 = ORIENTED_EDGE('',*,*,#1539,.F.);
#1539 = EDGE_CURVE('',#1530,#1530,#1540,.T.);
#1540 = CIRCLE('',#1541,1.65);
#1541 = AXIS2_PLACEMENT_3D('',#1542,#1543,#1544);
#1542 = CARTESIAN_POINT('',(4.,36.,0.4));
#1543 = DIRECTION('',(0.,0.,1.));
#1544 = DIRECTION('',(1.,0.,0.));
#1545 = CONICAL_SURFACE('',#1546,1.65,0.785398163397);
#1546 = AXIS2_PLACEMENT_3D('',#1547,#1548,#1549);
#1547 = CARTESIAN_POINT('',(4.,36.,0.4));
#1548 = DIRECTION('',(-0.,-0.,-1.));
#1549 = DIRECTION('',(1.,0.,0.));
#1550 = ADVANCED_FACE('',(#1551),#1570,.F.);
#1551 = FACE_BOUND('',#1552,.F.);
#1552 = EDGE_LOOP('',(#1553,#1561,#1562,#1563));
#1553 = ORIENTED_EDGE('',*,*,#1554,.F.);
#1554 = EDGE_CURVE('',#1394,#1555,#1557,.T.);
#1555 = VERTEX_POINT('',#1556);
#1556 = CARTESIAN_POINT('',(5.65,4.,0.4));
#1557 = LINE('',#1558,#1559);
#1558 = CARTESIAN_POINT('',(5.65,4.,0.4));
#1559 = VECTOR('',#1560,1.);
#1560 = DIRECTION('',(-0.707106781187,-3.806284748324E-16,0.707106781187
    ));
#1561 = ORIENTED_EDGE('',*,*,#1393,.T.);
#1562 = ORIENTED_EDGE('',*,*,#1554,.T.);
#1563 = ORIENTED_EDGE('',*,*,#1564,.F.);
#1564 = EDGE_CURVE('',#1555,#1555,#1565,.T.);
#1565 = CIRCLE('',#1566,1.65);
#1566 = AXIS2_PLACEMENT_3D('',#1567,#1568,#1569);
#1567 = CARTESIAN_POINT('',(4.,4.,0.4));
#1568 = DIRECTION('',(0.,-0.,1.));
#1569 = DIRECTION('',(1.,5.382899513334E-16,0.));
#1570 = CONICAL_SURFACE('',#1571,1.65,0.785398163397);
#1571 = AXIS2_PLACEMENT_3D('',#1572,#1573,#1574);
#1572 = CARTESIAN_POINT('',(4.,4.,0.4));
#1573 = DIRECTION('',(-0.,-0.,-1.));
#1574 = DIRECTION('',(1.,5.382899513334E-16,0.));
#1575 = ADVANCED_FACE('',(#1576),#1595,.F.);
#1576 = FACE_BOUND('',#1577,.F.);
#1577 = EDGE_LOOP('',(#1578,#1586,#1587,#1588));
#1578 = ORIENTED_EDGE('',*,*,#1579,.F.);
#1579 = EDGE_CURVE('',#1405,#1580,#1582,.T.);
#1580 = VERTEX_POINT('',#1581);
#1581 = CARTESIAN_POINT('',(37.65,4.,0.4));
#1582 = LINE('',#1583,#1584);
#1583 = CARTESIAN_POINT('',(37.65,4.,0.4));
#1584 = VECTOR('',#1585,1.);
#1585 = DIRECTION('',(-0.707106781187,-3.806284748324E-16,0.707106781187
    ));
#1586 = ORIENTED_EDGE('',*,*,#1404,.T.);
#1587 = ORIENTED_EDGE('',*,*,#1579,.T.);
#1588 = ORIENTED_EDGE('',*,*,#1589,.F.);
#1589 = EDGE_CURVE('',#1580,#1580,#1590,.T.);
#1590 = CIRCLE('',#1591,1.65);
#1591 = AXIS2_PLACEMENT_3D('',#1592,#1593,#1594);
#1592 = CARTESIAN_POINT('',(36.,4.,0.4));
#1593 = DIRECTION('',(0.,-0.,1.));
#1594 = DIRECTION('',(1.,5.382899513334E-16,0.));
#1595 = CONICAL_SURFACE('',#1596,1.65,0.785398163397);
#1596 = AXIS2_PLACEMENT_3D('',#1597,#1598,#1599);
#1597 = CARTESIAN_POINT('',(36.,4.,0.4));
#1598 = DIRECTION('',(-0.,-0.,-1.));
#1599 = DIRECTION('',(1.,5.382899513334E-16,0.));
#1600 = ADVANCED_FACE('',(#1601),#1620,.F.);
#1601 = FACE_BOUND('',#1602,.F.);
#1602 = EDGE_LOOP('',(#1603,#1611,#1612,#1613));
#1603 = ORIENTED_EDGE('',*,*,#1604,.F.);
#1604 = EDGE_CURVE('',#1416,#1605,#1607,.T.);
#1605 = VERTEX_POINT('',#1606);
#1606 = CARTESIAN_POINT('',(37.65,36.,0.4));
#1607 = LINE('',#1608,#1609);
#1608 = CARTESIAN_POINT('',(37.65,36.,0.4));
#1609 = VECTOR('',#1610,1.);
#1610 = DIRECTION('',(-0.707106781187,0.,0.707106781187));
#1611 = ORIENTED_EDGE('',*,*,#1415,.T.);
#1612 = ORIENTED_EDGE('',*,*,#1604,.T.);
#1613 = ORIENTED_EDGE('',*,*,#1614,.F.);
#1614 = EDGE_CURVE('',#1605,#1605,#1615,.T.);
#1615 = CIRCLE('',#1616,1.65);
#1616 = AXIS2_PLACEMENT_3D('',#1617,#1618,#1619);
#1617 = CARTESIAN_POINT('',(36.,36.,0.4));
#1618 = DIRECTION('',(0.,0.,1.));
#1619 = DIRECTION('',(1.,0.,0.));
#1620 = CONICAL_SURFACE('',#1621,1.65,0.785398163397);
#1621 = AXIS2_PLACEMENT_3D('',#1622,#1623,#1624);
#1622 = CARTESIAN_POINT('',(36.,36.,0.4));
#1623 = DIRECTION('',(-0.,-0.,-1.));
#1624 = DIRECTION('',(1.,0.,0.));
#1625 = ADVANCED_FACE('',(#1626),#1637,.F.);
#1626 = FACE_BOUND('',#1627,.T.);
#1627 = EDGE_LOOP('',(#1628,#1634,#1635,#1636));
#1628 = ORIENTED_EDGE('',*,*,#1629,.F.);
#1629 = EDGE_CURVE('',#1555,#1436,#1630,.T.);
#1630 = LINE('',#1631,#1632);
#1631 = CARTESIAN_POINT('',(5.65,4.,0.));
#1632 = VECTOR('',#1633,1.);
#1633 = DIRECTION('',(0.,0.,1.));
#1634 = ORIENTED_EDGE('',*,*,#1564,.F.);
#1635 = ORIENTED_EDGE('',*,*,#1629,.T.);
#1636 = ORIENTED_EDGE('',*,*,#1435,.F.);
#1637 = CYLINDRICAL_SURFACE('',#1638,1.65);
#1638 = AXIS2_PLACEMENT_3D('',#1639,#1640,#1641);
#1639 = CARTESIAN_POINT('',(4.,4.,0.));
#1640 = DIRECTION('',(-0.,-0.,-1.));
#1641 = DIRECTION('',(1.,0.,0.));
#1642 = ADVANCED_FACE('',(#1643),#1654,.F.);
#1643 = FACE_BOUND('',#1644,.T.);
#1644 = EDGE_LOOP('',(#1645,#1651,#1652,#1653));
#1645 = ORIENTED_EDGE('',*,*,#1646,.F.);
#1646 = EDGE_CURVE('',#1580,#1456,#1647,.T.);
#1647 = LINE('',#1648,#1649);
#1648 = CARTESIAN_POINT('',(37.65,4.,0.));
#1649 = VECTOR('',#1650,1.);
#1650 = DIRECTION('',(0.,0.,1.));
#1651 = ORIENTED_EDGE('',*,*,#1589,.F.);
#1652 = ORIENTED_EDGE('',*,*,#1646,.T.);
#1653 = ORIENTED_EDGE('',*,*,#1455,.F.);
#1654 = CYLINDRICAL_SURFACE('',#1655,1.65);
#1655 = AXIS2_PLACEMENT_3D('',#1656,#1657,#1658);
#1656 = CARTESIAN_POINT('',(36.,4.,0.));
#1657 = DIRECTION('',(-0.,-0.,-1.));
#1658 = DIRECTION('',(1.,0.,0.));
#1659 = ADVANCED_FACE('',(#1660),#1671,.F.);
#1660 = FACE_BOUND('',#1661,.T.);
#1661 = EDGE_LOOP('',(#1662,#1668,#1669,#1670));
#1662 = ORIENTED_EDGE('',*,*,#1663,.F.);
#1663 = EDGE_CURVE('',#1530,#1476,#1664,.T.);
#1664 = LINE('',#1665,#1666);
#1665 = CARTESIAN_POINT('',(5.65,36.,0.));
#1666 = VECTOR('',#1667,1.);
#1667 = DIRECTION('',(0.,0.,1.));
#1668 = ORIENTED_EDGE('',*,*,#1539,.F.);
#1669 = ORIENTED_EDGE('',*,*,#1663,.T.);
#1670 = ORIENTED_EDGE('',*,*,#1475,.F.);
#1671 = CYLINDRICAL_SURFACE('',#1672,1.65);
#1672 = AXIS2_PLACEMENT_3D('',#1673,#1674,#1675);
#1673 = CARTESIAN_POINT('',(4.,36.,0.));
#1674 = DIRECTION('',(-0.,-0.,-1.));
#1675 = DIRECTION('',(1.,0.,0.));
#1676 = ADVANCED_FACE('',(#1677),#1688,.F.);
#1677 = FACE_BOUND('',#1678,.T.);
#1678 = EDGE_LOOP('',(#1679,#1685,#1686,#1687));
#1679 = ORIENTED_EDGE('',*,*,#1680,.F.);
#1680 = EDGE_CURVE('',#1605,#1496,#1681,.T.);
#1681 = LINE('',#1682,#1683);
#1682 = CARTESIAN_POINT('',(37.65,36.,0.));
#1683 = VECTOR('',#1684,1.);
#1684 = DIRECTION('',(0.,0.,1.));
#1685 = ORIENTED_EDGE('',*,*,#1614,.F.);
#1686 = ORIENTED_EDGE('',*,*,#1680,.T.);
#1687 = ORIENTED_EDGE('',*,*,#1495,.F.);
#1688 = CYLINDRICAL_SURFACE('',#1689,1.65);
#1689 = AXIS2_PLACEMENT_3D('',#1690,#1691,#1692);
#1690 = CARTESIAN_POINT('',(36.,36.,0.));
#1691 = DIRECTION('',(-0.,-0.,-1.));
#1692 = DIRECTION('',(1.,0.,0.));
#1693 = ( GEOMETRIC_REPRESENTATION_CONTEXT(3) 
GLOBAL_UNCERTAINTY_ASSIGNED_CONTEXT((#1697)) 
GLOBAL_UNIT_ASSIGNED_CONTEXT((#1694,#1695,#1696)) REPRESENTATION_CONTEXT
('Context #1','3D Context with UNIT and UNCERTAINTY') );
#1694 = ( LENGTH_UNIT() NAMED_UNIT(*) SI_UNIT(.MILLI.,.METRE.) );
#1695 = ( NAMED_UNIT(*) PLANE_ANGLE_UNIT() SI_UNIT($,.RADIAN.) );
#1696 = ( NAMED_UNIT(*) SI_UNIT($,.STERADIAN.) SOLID_ANGLE_UNIT() );
#1697 = UNCERTAINTY_MEASURE_WITH_UNIT(LENGTH_MEASURE(1.E-05),#1694,
  'distance_accuracy_value','confusion accuracy');
#1698 = PRODUCT_RELATED_PRODUCT_CATEGORY('part',$,(#7));
#1699 = MECHANICAL_DESIGN_GEOMETRIC_PRESENTATION_REPRESENTATION('',(
    #1700),#1693);
#1700 = STYLED_ITEM('color',(#1701),#15);
#1701 = PRESENTATION_STYLE_ASSIGNMENT((#1702,#1708));
#1702 = SURFACE_STYLE_USAGE(.BOTH.,#1703);
#1703 = SURFACE_SIDE_STYLE('',(#1704));
#1704 = SURFACE_STYLE_FILL_AREA(#1705);
#1705 = FILL_AREA_STYLE('',(#1706));
#1706 = FILL_AREA_STYLE_COLOUR('',#1707);
#1707 = COLOUR_RGB('',0.678431390124,0.709803936702,0.741176476869);
#1708 = CURVE_STYLE('',#1709,POSITIVE_LENGTH_MEASURE(0.1),#1710);
#1709 = DRAUGHTING_PRE_DEFINED_CURVE_FONT('continuous');
#1710 = COLOUR_RGB('',9.803921802644E-02,9.803921802644E-02,
  9.803921802644E-02);
ENDSEC;
END-ISO-10303-21;
