ISO-10303-21;
HEADER;
FILE_DESCRIPTION(('FreeCAD Model'),'2;1');
FILE_NAME('Open CASCADE Shape Model','2026-07-13T14:25:50',(''),(''),
  'Open CASCADE STEP processor 7.8','FreeCAD','Unknown');
FILE_SCHEMA(('AUTOMOTIVE_DESIGN { 1 0 10303 214 1 1 1 1 }'));
ENDSEC;
DATA;
#1 = APPLICATION_PROTOCOL_DEFINITION('international standard',
  'automotive_design',2000,#2);
#2 = APPLICATION_CONTEXT(
  'core data for automotive mechanical design processes');
#3 = SHAPE_DEFINITION_REPRESENTATION(#4,#10);
#4 = PRODUCT_DEFINITION_SHAPE('','',#5);
#5 = PRODUCT_DEFINITION('design','',#6,#9);
#6 = PRODUCT_DEFINITION_FORMATION('','',#7);
#7 = PRODUCT('22mmISOTaperHoseAdapter','22mmISOTaperHoseAdapter','',(#8)
  );
#8 = PRODUCT_CONTEXT('',#2,'mechanical');
#9 = PRODUCT_DEFINITION_CONTEXT('part definition',#2,'design');
#10 = ADVANCED_BREP_SHAPE_REPRESENTATION('',(#11,#15),#1043);
#11 = AXIS2_PLACEMENT_3D('',#12,#13,#14);
#12 = CARTESIAN_POINT('',(0.,0.,0.));
#13 = DIRECTION('',(0.,0.,1.));
#14 = DIRECTION('',(1.,0.,-0.));
#15 = MANIFOLD_SOLID_BREP('',#16);
#16 = CLOSED_SHELL('',(#17,#59,#90,#122,#186,#217,#250,#274,#302,#394,
    #411,#436,#473,#505,#530,#547,#564,#589,#614,#639,#664,#681,#698,
    #715,#732,#758,#770,#795,#815,#840,#857,#882,#907,#919,#949,#975,
    #1000,#1025));
#17 = ADVANCED_FACE('',(#18),#54,.T.);
#18 = FACE_BOUND('',#19,.F.);
#19 = EDGE_LOOP('',(#20,#30,#39,#47));
#20 = ORIENTED_EDGE('',*,*,#21,.T.);
#21 = EDGE_CURVE('',#22,#24,#26,.T.);
#22 = VERTEX_POINT('',#23);
#23 = CARTESIAN_POINT('',(-5.46875,11.240230132764,4.));
#24 = VERTEX_POINT('',#25);
#25 = CARTESIAN_POINT('',(-5.46875,11.240230132764,0.4));
#26 = LINE('',#27,#28);
#27 = CARTESIAN_POINT('',(-5.46875,11.240230132764,4.));
#28 = VECTOR('',#29,1.);
#29 = DIRECTION('',(0.,0.,-1.));
#30 = ORIENTED_EDGE('',*,*,#31,.T.);
#31 = EDGE_CURVE('',#24,#32,#34,.T.);
#32 = VERTEX_POINT('',#33);
#33 = CARTESIAN_POINT('',(5.46875,11.240230132764,0.4));
#34 = CIRCLE('',#35,12.5);
#35 = AXIS2_PLACEMENT_3D('',#36,#37,#38);
#36 = CARTESIAN_POINT('',(0.,8.799999965176E-16,0.4));
#37 = DIRECTION('',(0.,0.,-1.));
#38 = DIRECTION('',(-0.4375,0.899218410621,0.));
#39 = ORIENTED_EDGE('',*,*,#40,.F.);
#40 = EDGE_CURVE('',#41,#32,#43,.T.);
#41 = VERTEX_POINT('',#42);
#42 = CARTESIAN_POINT('',(5.46875,11.240230132764,4.));
#43 = LINE('',#44,#45);
#44 = CARTESIAN_POINT('',(5.46875,11.240230132764,4.));
#45 = VECTOR('',#46,1.);
#46 = DIRECTION('',(0.,0.,-1.));
#47 = ORIENTED_EDGE('',*,*,#48,.F.);
#48 = EDGE_CURVE('',#22,#41,#49,.T.);
#49 = CIRCLE('',#50,12.5);
#50 = AXIS2_PLACEMENT_3D('',#51,#52,#53);
#51 = CARTESIAN_POINT('',(0.,8.9E-16,4.));
#52 = DIRECTION('',(0.,-2.2E-16,-1.));
#53 = DIRECTION('',(1.,0.,0.));
#54 = CYLINDRICAL_SURFACE('',#55,12.5);
#55 = AXIS2_PLACEMENT_3D('',#56,#57,#58);
#56 = CARTESIAN_POINT('',(0.,8.799999965176E-16,4.));
#57 = DIRECTION('',(0.,0.,1.));
#58 = DIRECTION('',(1.,0.,0.));
#59 = ADVANCED_FACE('',(#60),#85,.F.);
#60 = FACE_BOUND('',#61,.F.);
#61 = EDGE_LOOP('',(#62,#72,#78,#79));
#62 = ORIENTED_EDGE('',*,*,#63,.T.);
#63 = EDGE_CURVE('',#64,#66,#68,.T.);
#64 = VERTEX_POINT('',#65);
#65 = CARTESIAN_POINT('',(-18.40625,4.945701258416,4.));
#66 = VERTEX_POINT('',#67);
#67 = CARTESIAN_POINT('',(-18.40625,4.945701258416,0.4));
#68 = LINE('',#69,#70);
#69 = CARTESIAN_POINT('',(-18.40625,4.945701258416,4.));
#70 = VECTOR('',#71,1.);
#71 = DIRECTION('',(0.,0.,-1.));
#72 = ORIENTED_EDGE('',*,*,#73,.T.);
#73 = EDGE_CURVE('',#66,#24,#74,.T.);
#74 = LINE('',#75,#76);
#75 = CARTESIAN_POINT('',(-18.40625,4.945701258416,0.4));
#76 = VECTOR('',#77,1.);
#77 = DIRECTION('',(0.899218410621,0.4375,0.));
#78 = ORIENTED_EDGE('',*,*,#21,.F.);
#79 = ORIENTED_EDGE('',*,*,#80,.F.);
#80 = EDGE_CURVE('',#64,#22,#81,.T.);
#81 = LINE('',#82,#83);
#82 = CARTESIAN_POINT('',(-18.40625,4.945701258416,4.));
#83 = VECTOR('',#84,1.);
#84 = DIRECTION('',(0.899218410621,0.4375,0.));
#85 = PLANE('',#86);
#86 = AXIS2_PLACEMENT_3D('',#87,#88,#89);
#87 = CARTESIAN_POINT('',(-18.40625,4.945701258416,4.));
#88 = DIRECTION('',(0.4375,-0.899218410621,0.));
#89 = DIRECTION('',(0.899218410621,0.4375,0.));
#90 = ADVANCED_FACE('',(#91),#117,.T.);
#91 = FACE_BOUND('',#92,.T.);
#92 = EDGE_LOOP('',(#93,#101,#102,#110));
#93 = ORIENTED_EDGE('',*,*,#94,.F.);
#94 = EDGE_CURVE('',#24,#95,#97,.T.);
#95 = VERTEX_POINT('',#96);
#96 = CARTESIAN_POINT('',(-5.29375,10.880542768516,-6.383782391595E-16)
  );
#97 = LINE('',#98,#99);
#98 = CARTESIAN_POINT('',(-5.38125,11.06038645064,0.2));
#99 = VECTOR('',#100,1.);
#100 = DIRECTION('',(0.309359216769,-0.635843435918,-0.707106781187));
#101 = ORIENTED_EDGE('',*,*,#31,.T.);
#102 = ORIENTED_EDGE('',*,*,#103,.T.);
#103 = EDGE_CURVE('',#32,#104,#106,.T.);
#104 = VERTEX_POINT('',#105);
#105 = CARTESIAN_POINT('',(5.29375,10.880542768516,0.));
#106 = LINE('',#107,#108);
#107 = CARTESIAN_POINT('',(5.46875,11.240230132764,0.4));
#108 = VECTOR('',#109,1.);
#109 = DIRECTION('',(-0.309359216769,-0.635843435918,-0.707106781187));
#110 = ORIENTED_EDGE('',*,*,#111,.F.);
#111 = EDGE_CURVE('',#95,#104,#112,.T.);
#112 = CIRCLE('',#113,12.1);
#113 = AXIS2_PLACEMENT_3D('',#114,#115,#116);
#114 = CARTESIAN_POINT('',(0.,8.799999965176E-16,0.));
#115 = DIRECTION('',(0.,0.,-1.));
#116 = DIRECTION('',(-0.4375,0.899218410621,0.));
#117 = CONICAL_SURFACE('',#118,12.5,0.785398163397);
#118 = AXIS2_PLACEMENT_3D('',#119,#120,#121);
#119 = CARTESIAN_POINT('',(0.,8.799999965176E-16,0.4));
#120 = DIRECTION('',(0.,0.,1.));
#121 = DIRECTION('',(-0.4375,0.899218410621,0.));
#122 = ADVANCED_FACE('',(#123),#177,.F.);
#123 = FACE_BOUND('',#124,.F.);
#124 = EDGE_LOOP('',(#125,#136,#145,#154,#161,#162,#169,#170));
#125 = ORIENTED_EDGE('',*,*,#126,.F.);
#126 = EDGE_CURVE('',#127,#129,#131,.T.);
#127 = VERTEX_POINT('',#128);
#128 = CARTESIAN_POINT('',(12.5,0.,4.));
#129 = VERTEX_POINT('',#130);
#130 = CARTESIAN_POINT('',(12.17844906397,0.,6.515476836734));
#131 = CIRCLE('',#132,10.);
#132 = AXIS2_PLACEMENT_3D('',#133,#134,#135);
#133 = CARTESIAN_POINT('',(2.5,0.,4.));
#134 = DIRECTION('',(0.,-1.,0.));
#135 = DIRECTION('',(1.,0.,0.));
#136 = ORIENTED_EDGE('',*,*,#137,.T.);
#137 = EDGE_CURVE('',#127,#138,#140,.T.);
#138 = VERTEX_POINT('',#139);
#139 = CARTESIAN_POINT('',(5.46875,-11.24023013276,4.));
#140 = CIRCLE('',#141,12.5);
#141 = AXIS2_PLACEMENT_3D('',#142,#143,#144);
#142 = CARTESIAN_POINT('',(0.,8.9E-16,4.));
#143 = DIRECTION('',(0.,-2.2E-16,-1.));
#144 = DIRECTION('',(1.,0.,0.));
#145 = ORIENTED_EDGE('',*,*,#146,.T.);
#146 = EDGE_CURVE('',#138,#147,#149,.T.);
#147 = VERTEX_POINT('',#148);
#148 = CARTESIAN_POINT('',(-5.46875,-11.24023013276,4.));
#149 = CIRCLE('',#150,12.5);
#150 = AXIS2_PLACEMENT_3D('',#151,#152,#153);
#151 = CARTESIAN_POINT('',(0.,8.9E-16,4.));
#152 = DIRECTION('',(0.,-2.2E-16,-1.));
#153 = DIRECTION('',(1.,0.,0.));
#154 = ORIENTED_EDGE('',*,*,#155,.T.);
#155 = EDGE_CURVE('',#147,#22,#156,.T.);
#156 = CIRCLE('',#157,12.5);
#157 = AXIS2_PLACEMENT_3D('',#158,#159,#160);
#158 = CARTESIAN_POINT('',(0.,8.9E-16,4.));
#159 = DIRECTION('',(0.,-2.2E-16,-1.));
#160 = DIRECTION('',(1.,0.,0.));
#161 = ORIENTED_EDGE('',*,*,#48,.T.);
#162 = ORIENTED_EDGE('',*,*,#163,.T.);
#163 = EDGE_CURVE('',#41,#127,#164,.T.);
#164 = CIRCLE('',#165,12.5);
#165 = AXIS2_PLACEMENT_3D('',#166,#167,#168);
#166 = CARTESIAN_POINT('',(0.,8.9E-16,4.));
#167 = DIRECTION('',(0.,-2.2E-16,-1.));
#168 = DIRECTION('',(1.,0.,0.));
#169 = ORIENTED_EDGE('',*,*,#126,.T.);
#170 = ORIENTED_EDGE('',*,*,#171,.F.);
#171 = EDGE_CURVE('',#129,#129,#172,.T.);
#172 = CIRCLE('',#173,12.17844906397);
#173 = AXIS2_PLACEMENT_3D('',#174,#175,#176);
#174 = CARTESIAN_POINT('',(0.,1.45E-15,6.515476836734));
#175 = DIRECTION('',(0.,-2.2E-16,-1.));
#176 = DIRECTION('',(1.,0.,0.));
#177 = SURFACE_OF_REVOLUTION('',#178,#183);
#178 = CIRCLE('',#179,10.);
#179 = AXIS2_PLACEMENT_3D('',#180,#181,#182);
#180 = CARTESIAN_POINT('',(2.5,8.9E-16,4.));
#181 = DIRECTION('',(0.,-1.,2.2E-16));
#182 = DIRECTION('',(1.,0.,0.));
#183 = AXIS1_PLACEMENT('',#184,#185);
#184 = CARTESIAN_POINT('',(0.,0.,0.));
#185 = DIRECTION('',(-0.,-2.2E-16,-1.));
#186 = ADVANCED_FACE('',(#187),#212,.F.);
#187 = FACE_BOUND('',#188,.F.);
#188 = EDGE_LOOP('',(#189,#190,#198,#206));
#189 = ORIENTED_EDGE('',*,*,#40,.T.);
#190 = ORIENTED_EDGE('',*,*,#191,.T.);
#191 = EDGE_CURVE('',#32,#192,#194,.T.);
#192 = VERTEX_POINT('',#193);
#193 = CARTESIAN_POINT('',(18.40625,4.945701258416,0.4));
#194 = LINE('',#195,#196);
#195 = CARTESIAN_POINT('',(5.46875,11.240230132764,0.4));
#196 = VECTOR('',#197,1.);
#197 = DIRECTION('',(0.899218410621,-0.4375,0.));
#198 = ORIENTED_EDGE('',*,*,#199,.F.);
#199 = EDGE_CURVE('',#200,#192,#202,.T.);
#200 = VERTEX_POINT('',#201);
#201 = CARTESIAN_POINT('',(18.40625,4.945701258416,4.));
#202 = LINE('',#203,#204);
#203 = CARTESIAN_POINT('',(18.40625,4.945701258416,4.));
#204 = VECTOR('',#205,1.);
#205 = DIRECTION('',(0.,0.,-1.));
#206 = ORIENTED_EDGE('',*,*,#207,.F.);
#207 = EDGE_CURVE('',#41,#200,#208,.T.);
#208 = LINE('',#209,#210);
#209 = CARTESIAN_POINT('',(5.46875,11.240230132764,4.));
#210 = VECTOR('',#211,1.);
#211 = DIRECTION('',(0.899218410621,-0.4375,0.));
#212 = PLANE('',#213);
#213 = AXIS2_PLACEMENT_3D('',#214,#215,#216);
#214 = CARTESIAN_POINT('',(5.46875,11.240230132764,4.));
#215 = DIRECTION('',(-0.4375,-0.899218410621,-0.));
#216 = DIRECTION('',(0.899218410621,-0.4375,0.));
#217 = ADVANCED_FACE('',(#218),#245,.T.);
#218 = FACE_BOUND('',#219,.F.);
#219 = EDGE_LOOP('',(#220,#230,#237,#238));
#220 = ORIENTED_EDGE('',*,*,#221,.T.);
#221 = EDGE_CURVE('',#222,#224,#226,.T.);
#222 = VERTEX_POINT('',#223);
#223 = CARTESIAN_POINT('',(-18.40625,-4.945701258416,4.));
#224 = VERTEX_POINT('',#225);
#225 = CARTESIAN_POINT('',(-18.40625,-4.945701258416,0.4));
#226 = LINE('',#227,#228);
#227 = CARTESIAN_POINT('',(-18.40625,-4.945701258416,4.));
#228 = VECTOR('',#229,1.);
#229 = DIRECTION('',(0.,0.,-1.));
#230 = ORIENTED_EDGE('',*,*,#231,.T.);
#231 = EDGE_CURVE('',#224,#66,#232,.T.);
#232 = CIRCLE('',#233,5.5);
#233 = AXIS2_PLACEMENT_3D('',#234,#235,#236);
#234 = CARTESIAN_POINT('',(-16.,8.79999989999E-16,0.4));
#235 = DIRECTION('',(-0.,0.,-1.));
#236 = DIRECTION('',(-0.4375,-0.899218410621,0.));
#237 = ORIENTED_EDGE('',*,*,#63,.F.);
#238 = ORIENTED_EDGE('',*,*,#239,.F.);
#239 = EDGE_CURVE('',#222,#64,#240,.T.);
#240 = CIRCLE('',#241,5.5);
#241 = AXIS2_PLACEMENT_3D('',#242,#243,#244);
#242 = CARTESIAN_POINT('',(-16.,8.79999989999E-16,4.));
#243 = DIRECTION('',(0.,0.,-1.));
#244 = DIRECTION('',(1.,0.,0.));
#245 = CYLINDRICAL_SURFACE('',#246,5.5);
#246 = AXIS2_PLACEMENT_3D('',#247,#248,#249);
#247 = CARTESIAN_POINT('',(-16.,8.79999989999E-16,4.));
#248 = DIRECTION('',(0.,0.,1.));
#249 = DIRECTION('',(1.,0.,0.));
#250 = ADVANCED_FACE('',(#251),#269,.T.);
#251 = FACE_BOUND('',#252,.T.);
#252 = EDGE_LOOP('',(#253,#261,#262,#263));
#253 = ORIENTED_EDGE('',*,*,#254,.F.);
#254 = EDGE_CURVE('',#66,#255,#257,.T.);
#255 = VERTEX_POINT('',#256);
#256 = CARTESIAN_POINT('',(-18.23125,4.586013894168,-6.383782391595E-16)
  );
#257 = LINE('',#258,#259);
#258 = CARTESIAN_POINT('',(-18.31875,4.765857576292,0.2));
#259 = VECTOR('',#260,1.);
#260 = DIRECTION('',(0.309359216769,-0.635843435918,-0.707106781187));
#261 = ORIENTED_EDGE('',*,*,#73,.T.);
#262 = ORIENTED_EDGE('',*,*,#94,.T.);
#263 = ORIENTED_EDGE('',*,*,#264,.F.);
#264 = EDGE_CURVE('',#255,#95,#265,.T.);
#265 = LINE('',#266,#267);
#266 = CARTESIAN_POINT('',(-18.23125,4.586013894168,0.));
#267 = VECTOR('',#268,1.);
#268 = DIRECTION('',(0.899218410621,0.4375,0.));
#269 = PLANE('',#270);
#270 = AXIS2_PLACEMENT_3D('',#271,#272,#273);
#271 = CARTESIAN_POINT('',(-18.31875,4.765857576292,0.2));
#272 = DIRECTION('',(-0.309359216769,0.635843435918,-0.707106781187));
#273 = DIRECTION('',(0.899218410621,0.4375,0.));
#274 = ADVANCED_FACE('',(#275,#286),#297,.T.);
#275 = FACE_BOUND('',#276,.T.);
#276 = EDGE_LOOP('',(#277,#283,#284,#285));
#277 = ORIENTED_EDGE('',*,*,#278,.F.);
#278 = EDGE_CURVE('',#147,#222,#279,.T.);
#279 = LINE('',#280,#281);
#280 = CARTESIAN_POINT('',(-5.46875,-11.24023013276,4.));
#281 = VECTOR('',#282,1.);
#282 = DIRECTION('',(-0.899218410621,0.4375,-0.));
#283 = ORIENTED_EDGE('',*,*,#155,.T.);
#284 = ORIENTED_EDGE('',*,*,#80,.F.);
#285 = ORIENTED_EDGE('',*,*,#239,.F.);
#286 = FACE_BOUND('',#287,.T.);
#287 = EDGE_LOOP('',(#288));
#288 = ORIENTED_EDGE('',*,*,#289,.F.);
#289 = EDGE_CURVE('',#290,#290,#292,.T.);
#290 = VERTEX_POINT('',#291);
#291 = CARTESIAN_POINT('',(-13.,0.,4.));
#292 = CIRCLE('',#293,3.);
#293 = AXIS2_PLACEMENT_3D('',#294,#295,#296);
#294 = CARTESIAN_POINT('',(-16.,0.,4.));
#295 = DIRECTION('',(0.,0.,1.));
#296 = DIRECTION('',(1.,0.,0.));
#297 = PLANE('',#298);
#298 = AXIS2_PLACEMENT_3D('',#299,#300,#301);
#299 = CARTESIAN_POINT('',(-3.595268841032E-15,-1.290149306815E-15,4.));
#300 = DIRECTION('',(0.,0.,1.));
#301 = DIRECTION('',(1.,0.,0.));
#302 = ADVANCED_FACE('',(#303,#314,#325,#336),#389,.F.);
#303 = FACE_BOUND('',#304,.F.);
#304 = EDGE_LOOP('',(#305));
#305 = ORIENTED_EDGE('',*,*,#306,.T.);
#306 = EDGE_CURVE('',#307,#307,#309,.T.);
#307 = VERTEX_POINT('',#308);
#308 = CARTESIAN_POINT('',(11.1,8.799999965176E-16,0.));
#309 = CIRCLE('',#310,11.1);
#310 = AXIS2_PLACEMENT_3D('',#311,#312,#313);
#311 = CARTESIAN_POINT('',(0.,8.799999965176E-16,0.));
#312 = DIRECTION('',(0.,-0.,-1.));
#313 = DIRECTION('',(1.,-1.843132956124E-32,0.));
#314 = FACE_BOUND('',#315,.F.);
#315 = EDGE_LOOP('',(#316));
#316 = ORIENTED_EDGE('',*,*,#317,.T.);
#317 = EDGE_CURVE('',#318,#318,#320,.T.);
#318 = VERTEX_POINT('',#319);
#319 = CARTESIAN_POINT('',(-13.95,8.79999989999E-16,1.110223024625E-16)
  );
#320 = CIRCLE('',#321,2.05);
#321 = AXIS2_PLACEMENT_3D('',#322,#323,#324);
#322 = CARTESIAN_POINT('',(-16.,8.79999989999E-16,0.));
#323 = DIRECTION('',(0.,-0.,-1.));
#324 = DIRECTION('',(1.,-5.976218978947E-32,0.));
#325 = FACE_BOUND('',#326,.F.);
#326 = EDGE_LOOP('',(#327));
#327 = ORIENTED_EDGE('',*,*,#328,.T.);
#328 = EDGE_CURVE('',#329,#329,#331,.T.);
#329 = VERTEX_POINT('',#330);
#330 = CARTESIAN_POINT('',(18.05,8.79999989999E-16,-7.771561172376E-16)
  );
#331 = CIRCLE('',#332,2.05);
#332 = AXIS2_PLACEMENT_3D('',#333,#334,#335);
#333 = CARTESIAN_POINT('',(16.,8.79999989999E-16,0.));
#334 = DIRECTION('',(0.,-0.,-1.));
#335 = DIRECTION('',(1.,-5.976218978947E-32,0.));
#336 = FACE_BOUND('',#337,.F.);
#337 = EDGE_LOOP('',(#338,#339,#348,#356,#365,#373,#382,#388));
#338 = ORIENTED_EDGE('',*,*,#264,.F.);
#339 = ORIENTED_EDGE('',*,*,#340,.F.);
#340 = EDGE_CURVE('',#341,#255,#343,.T.);
#341 = VERTEX_POINT('',#342);
#342 = CARTESIAN_POINT('',(-18.23125,-4.586013894168,-1.97064586871E-15)
  );
#343 = CIRCLE('',#344,5.1);
#344 = AXIS2_PLACEMENT_3D('',#345,#346,#347);
#345 = CARTESIAN_POINT('',(-16.,8.79999989999E-16,0.));
#346 = DIRECTION('',(-0.,0.,-1.));
#347 = DIRECTION('',(-0.4375,-0.899218410621,0.));
#348 = ORIENTED_EDGE('',*,*,#349,.F.);
#349 = EDGE_CURVE('',#350,#341,#352,.T.);
#350 = VERTEX_POINT('',#351);
#351 = CARTESIAN_POINT('',(-5.29375,-10.88054276851,0.));
#352 = LINE('',#353,#354);
#353 = CARTESIAN_POINT('',(-5.29375,-10.88054276851,0.));
#354 = VECTOR('',#355,1.);
#355 = DIRECTION('',(-0.899218410621,0.4375,0.));
#356 = ORIENTED_EDGE('',*,*,#357,.F.);
#357 = EDGE_CURVE('',#358,#350,#360,.T.);
#358 = VERTEX_POINT('',#359);
#359 = CARTESIAN_POINT('',(5.29375,-10.88054276851,-1.665334536938E-15)
  );
#360 = CIRCLE('',#361,12.1);
#361 = AXIS2_PLACEMENT_3D('',#362,#363,#364);
#362 = CARTESIAN_POINT('',(0.,8.799999965176E-16,0.));
#363 = DIRECTION('',(0.,-0.,-1.));
#364 = DIRECTION('',(0.4375,-0.899218410621,0.));
#365 = ORIENTED_EDGE('',*,*,#366,.F.);
#366 = EDGE_CURVE('',#367,#358,#369,.T.);
#367 = VERTEX_POINT('',#368);
#368 = CARTESIAN_POINT('',(18.23125,-4.586013894168,-7.771561172376E-16)
  );
#369 = LINE('',#370,#371);
#370 = CARTESIAN_POINT('',(18.23125,-4.586013894168,0.));
#371 = VECTOR('',#372,1.);
#372 = DIRECTION('',(-0.899218410621,-0.4375,-0.));
#373 = ORIENTED_EDGE('',*,*,#374,.F.);
#374 = EDGE_CURVE('',#375,#367,#377,.T.);
#375 = VERTEX_POINT('',#376);
#376 = CARTESIAN_POINT('',(18.23125,4.586013894168,1.110223024625E-16));
#377 = CIRCLE('',#378,5.1);
#378 = AXIS2_PLACEMENT_3D('',#379,#380,#381);
#379 = CARTESIAN_POINT('',(16.,8.79999989999E-16,0.));
#380 = DIRECTION('',(0.,0.,-1.));
#381 = DIRECTION('',(0.4375,0.899218410621,0.));
#382 = ORIENTED_EDGE('',*,*,#383,.F.);
#383 = EDGE_CURVE('',#104,#375,#384,.T.);
#384 = LINE('',#385,#386);
#385 = CARTESIAN_POINT('',(5.29375,10.880542768516,0.));
#386 = VECTOR('',#387,1.);
#387 = DIRECTION('',(0.899218410621,-0.4375,0.));
#388 = ORIENTED_EDGE('',*,*,#111,.F.);
#389 = PLANE('',#390);
#390 = AXIS2_PLACEMENT_3D('',#391,#392,#393);
#391 = CARTESIAN_POINT('',(-3.595268841032E-15,-1.290149306815E-15,0.));
#392 = DIRECTION('',(0.,0.,1.));
#393 = DIRECTION('',(1.,0.,0.));
#394 = ADVANCED_FACE('',(#395),#406,.T.);
#395 = FACE_BOUND('',#396,.T.);
#396 = EDGE_LOOP('',(#397,#398,#399,#405));
#397 = ORIENTED_EDGE('',*,*,#103,.F.);
#398 = ORIENTED_EDGE('',*,*,#191,.T.);
#399 = ORIENTED_EDGE('',*,*,#400,.T.);
#400 = EDGE_CURVE('',#192,#375,#401,.T.);
#401 = LINE('',#402,#403);
#402 = CARTESIAN_POINT('',(18.31875,4.765857576292,0.2));
#403 = VECTOR('',#404,1.);
#404 = DIRECTION('',(-0.309359216769,-0.635843435918,-0.707106781187));
#405 = ORIENTED_EDGE('',*,*,#383,.F.);
#406 = PLANE('',#407);
#407 = AXIS2_PLACEMENT_3D('',#408,#409,#410);
#408 = CARTESIAN_POINT('',(5.38125,11.06038645064,0.2));
#409 = DIRECTION('',(0.309359216769,0.635843435918,-0.707106781187));
#410 = DIRECTION('',(0.899218410621,-0.4375,-2.775557561563E-17));
#411 = ADVANCED_FACE('',(#412),#431,.T.);
#412 = FACE_BOUND('',#413,.F.);
#413 = EDGE_LOOP('',(#414,#415,#423,#430));
#414 = ORIENTED_EDGE('',*,*,#171,.T.);
#415 = ORIENTED_EDGE('',*,*,#416,.T.);
#416 = EDGE_CURVE('',#129,#417,#419,.T.);
#417 = VERTEX_POINT('',#418);
#418 = CARTESIAN_POINT('',(11.518423290098,0.,9.05496586722));
#419 = LINE('',#420,#421);
#420 = CARTESIAN_POINT('',(12.17844906397,0.,6.515476836734));
#421 = VECTOR('',#422,1.);
#422 = DIRECTION('',(-0.251547683673,0.,0.967844906397));
#423 = ORIENTED_EDGE('',*,*,#424,.F.);
#424 = EDGE_CURVE('',#417,#417,#425,.T.);
#425 = CIRCLE('',#426,11.518423290098);
#426 = AXIS2_PLACEMENT_3D('',#427,#428,#429);
#427 = CARTESIAN_POINT('',(0.,2.01E-15,9.05496586722));
#428 = DIRECTION('',(0.,-2.2E-16,-1.));
#429 = DIRECTION('',(1.,0.,0.));
#430 = ORIENTED_EDGE('',*,*,#416,.F.);
#431 = CONICAL_SURFACE('',#432,12.17844906397,0.254279026635);
#432 = AXIS2_PLACEMENT_3D('',#433,#434,#435);
#433 = CARTESIAN_POINT('',(0.,1.45E-15,6.515476836734));
#434 = DIRECTION('',(-0.,-2.2E-16,-1.));
#435 = DIRECTION('',(1.,0.,0.));
#436 = ADVANCED_FACE('',(#437,#457),#468,.T.);
#437 = FACE_BOUND('',#438,.T.);
#438 = EDGE_LOOP('',(#439,#440,#448,#455,#456));
#439 = ORIENTED_EDGE('',*,*,#137,.T.);
#440 = ORIENTED_EDGE('',*,*,#441,.T.);
#441 = EDGE_CURVE('',#138,#442,#444,.T.);
#442 = VERTEX_POINT('',#443);
#443 = CARTESIAN_POINT('',(18.40625,-4.945701258416,4.));
#444 = LINE('',#445,#446);
#445 = CARTESIAN_POINT('',(5.46875,-11.24023013276,4.));
#446 = VECTOR('',#447,1.);
#447 = DIRECTION('',(0.899218410621,0.4375,0.));
#448 = ORIENTED_EDGE('',*,*,#449,.F.);
#449 = EDGE_CURVE('',#200,#442,#450,.T.);
#450 = CIRCLE('',#451,5.5);
#451 = AXIS2_PLACEMENT_3D('',#452,#453,#454);
#452 = CARTESIAN_POINT('',(16.,8.79999989999E-16,4.));
#453 = DIRECTION('',(0.,0.,-1.));
#454 = DIRECTION('',(1.,0.,0.));
#455 = ORIENTED_EDGE('',*,*,#207,.F.);
#456 = ORIENTED_EDGE('',*,*,#163,.T.);
#457 = FACE_BOUND('',#458,.T.);
#458 = EDGE_LOOP('',(#459));
#459 = ORIENTED_EDGE('',*,*,#460,.F.);
#460 = EDGE_CURVE('',#461,#461,#463,.T.);
#461 = VERTEX_POINT('',#462);
#462 = CARTESIAN_POINT('',(19.,0.,4.));
#463 = CIRCLE('',#464,3.);
#464 = AXIS2_PLACEMENT_3D('',#465,#466,#467);
#465 = CARTESIAN_POINT('',(16.,0.,4.));
#466 = DIRECTION('',(0.,0.,1.));
#467 = DIRECTION('',(1.,0.,0.));
#468 = PLANE('',#469);
#469 = AXIS2_PLACEMENT_3D('',#470,#471,#472);
#470 = CARTESIAN_POINT('',(-3.595268841032E-15,-1.290149306815E-15,4.));
#471 = DIRECTION('',(0.,0.,1.));
#472 = DIRECTION('',(1.,0.,0.));
#473 = ADVANCED_FACE('',(#474),#500,.T.);
#474 = FACE_BOUND('',#475,.F.);
#475 = EDGE_LOOP('',(#476,#484,#493,#499));
#476 = ORIENTED_EDGE('',*,*,#477,.T.);
#477 = EDGE_CURVE('',#138,#478,#480,.T.);
#478 = VERTEX_POINT('',#479);
#479 = CARTESIAN_POINT('',(5.46875,-11.24023013276,0.4));
#480 = LINE('',#481,#482);
#481 = CARTESIAN_POINT('',(5.46875,-11.24023013276,4.));
#482 = VECTOR('',#483,1.);
#483 = DIRECTION('',(0.,0.,-1.));
#484 = ORIENTED_EDGE('',*,*,#485,.T.);
#485 = EDGE_CURVE('',#478,#486,#488,.T.);
#486 = VERTEX_POINT('',#487);
#487 = CARTESIAN_POINT('',(-5.46875,-11.24023013276,0.4));
#488 = CIRCLE('',#489,12.5);
#489 = AXIS2_PLACEMENT_3D('',#490,#491,#492);
#490 = CARTESIAN_POINT('',(0.,8.799999965176E-16,0.4));
#491 = DIRECTION('',(0.,-0.,-1.));
#492 = DIRECTION('',(0.4375,-0.899218410621,0.));
#493 = ORIENTED_EDGE('',*,*,#494,.F.);
#494 = EDGE_CURVE('',#147,#486,#495,.T.);
#495 = LINE('',#496,#497);
#496 = CARTESIAN_POINT('',(-5.46875,-11.24023013276,4.));
#497 = VECTOR('',#498,1.);
#498 = DIRECTION('',(0.,0.,-1.));
#499 = ORIENTED_EDGE('',*,*,#146,.F.);
#500 = CYLINDRICAL_SURFACE('',#501,12.5);
#501 = AXIS2_PLACEMENT_3D('',#502,#503,#504);
#502 = CARTESIAN_POINT('',(0.,8.799999965176E-16,4.));
#503 = DIRECTION('',(0.,0.,1.));
#504 = DIRECTION('',(1.,0.,0.));
#505 = ADVANCED_FACE('',(#506),#525,.T.);
#506 = FACE_BOUND('',#507,.F.);
#507 = EDGE_LOOP('',(#508,#509,#518,#524));
#508 = ORIENTED_EDGE('',*,*,#199,.T.);
#509 = ORIENTED_EDGE('',*,*,#510,.T.);
#510 = EDGE_CURVE('',#192,#511,#513,.T.);
#511 = VERTEX_POINT('',#512);
#512 = CARTESIAN_POINT('',(18.40625,-4.945701258416,0.4));
#513 = CIRCLE('',#514,5.5);
#514 = AXIS2_PLACEMENT_3D('',#515,#516,#517);
#515 = CARTESIAN_POINT('',(16.,8.79999989999E-16,0.4));
#516 = DIRECTION('',(0.,0.,-1.));
#517 = DIRECTION('',(0.4375,0.899218410621,0.));
#518 = ORIENTED_EDGE('',*,*,#519,.F.);
#519 = EDGE_CURVE('',#442,#511,#520,.T.);
#520 = LINE('',#521,#522);
#521 = CARTESIAN_POINT('',(18.40625,-4.945701258416,4.));
#522 = VECTOR('',#523,1.);
#523 = DIRECTION('',(0.,0.,-1.));
#524 = ORIENTED_EDGE('',*,*,#449,.F.);
#525 = CYLINDRICAL_SURFACE('',#526,5.5);
#526 = AXIS2_PLACEMENT_3D('',#527,#528,#529);
#527 = CARTESIAN_POINT('',(16.,8.79999989999E-16,4.));
#528 = DIRECTION('',(0.,0.,1.));
#529 = DIRECTION('',(1.,0.,0.));
#530 = ADVANCED_FACE('',(#531),#542,.F.);
#531 = FACE_BOUND('',#532,.F.);
#532 = EDGE_LOOP('',(#533,#534,#540,#541));
#533 = ORIENTED_EDGE('',*,*,#494,.T.);
#534 = ORIENTED_EDGE('',*,*,#535,.T.);
#535 = EDGE_CURVE('',#486,#224,#536,.T.);
#536 = LINE('',#537,#538);
#537 = CARTESIAN_POINT('',(-5.46875,-11.24023013276,0.4));
#538 = VECTOR('',#539,1.);
#539 = DIRECTION('',(-0.899218410621,0.4375,0.));
#540 = ORIENTED_EDGE('',*,*,#221,.F.);
#541 = ORIENTED_EDGE('',*,*,#278,.F.);
#542 = PLANE('',#543);
#543 = AXIS2_PLACEMENT_3D('',#544,#545,#546);
#544 = CARTESIAN_POINT('',(-5.46875,-11.24023013276,4.));
#545 = DIRECTION('',(0.4375,0.899218410621,0.));
#546 = DIRECTION('',(-0.899218410621,0.4375,0.));
#547 = ADVANCED_FACE('',(#548),#559,.T.);
#548 = FACE_BOUND('',#549,.T.);
#549 = EDGE_LOOP('',(#550,#556,#557,#558));
#550 = ORIENTED_EDGE('',*,*,#551,.F.);
#551 = EDGE_CURVE('',#224,#341,#552,.T.);
#552 = LINE('',#553,#554);
#553 = CARTESIAN_POINT('',(-18.31875,-4.765857576292,0.2));
#554 = VECTOR('',#555,1.);
#555 = DIRECTION('',(0.309359216769,0.635843435918,-0.707106781187));
#556 = ORIENTED_EDGE('',*,*,#231,.T.);
#557 = ORIENTED_EDGE('',*,*,#254,.T.);
#558 = ORIENTED_EDGE('',*,*,#340,.F.);
#559 = CONICAL_SURFACE('',#560,5.5,0.785398163397);
#560 = AXIS2_PLACEMENT_3D('',#561,#562,#563);
#561 = CARTESIAN_POINT('',(-16.,8.79999989999E-16,0.4));
#562 = DIRECTION('',(0.,0.,1.));
#563 = DIRECTION('',(-0.4375,-0.899218410621,0.));
#564 = ADVANCED_FACE('',(#565),#584,.F.);
#565 = FACE_BOUND('',#566,.F.);
#566 = EDGE_LOOP('',(#567,#575,#582,#583));
#567 = ORIENTED_EDGE('',*,*,#568,.T.);
#568 = EDGE_CURVE('',#290,#569,#571,.T.);
#569 = VERTEX_POINT('',#570);
#570 = CARTESIAN_POINT('',(-13.,0.,2.));
#571 = LINE('',#572,#573);
#572 = CARTESIAN_POINT('',(-13.,0.,4.));
#573 = VECTOR('',#574,1.);
#574 = DIRECTION('',(-0.,-0.,-1.));
#575 = ORIENTED_EDGE('',*,*,#576,.T.);
#576 = EDGE_CURVE('',#569,#569,#577,.T.);
#577 = CIRCLE('',#578,3.);
#578 = AXIS2_PLACEMENT_3D('',#579,#580,#581);
#579 = CARTESIAN_POINT('',(-16.,0.,2.));
#580 = DIRECTION('',(0.,0.,1.));
#581 = DIRECTION('',(1.,0.,0.));
#582 = ORIENTED_EDGE('',*,*,#568,.F.);
#583 = ORIENTED_EDGE('',*,*,#289,.F.);
#584 = CYLINDRICAL_SURFACE('',#585,3.);
#585 = AXIS2_PLACEMENT_3D('',#586,#587,#588);
#586 = CARTESIAN_POINT('',(-16.,0.,4.));
#587 = DIRECTION('',(0.,0.,1.));
#588 = DIRECTION('',(1.,0.,0.));
#589 = ADVANCED_FACE('',(#590),#609,.F.);
#590 = FACE_BOUND('',#591,.T.);
#591 = EDGE_LOOP('',(#592,#600,#601,#602));
#592 = ORIENTED_EDGE('',*,*,#593,.F.);
#593 = EDGE_CURVE('',#307,#594,#596,.T.);
#594 = VERTEX_POINT('',#595);
#595 = CARTESIAN_POINT('',(10.7,8.799999965176E-16,0.4));
#596 = LINE('',#597,#598);
#597 = CARTESIAN_POINT('',(10.7,8.799999965176E-16,0.4));
#598 = VECTOR('',#599,1.);
#599 = DIRECTION('',(-0.707106781187,1.303291811904E-32,0.707106781187)
  );
#600 = ORIENTED_EDGE('',*,*,#306,.T.);
#601 = ORIENTED_EDGE('',*,*,#593,.T.);
#602 = ORIENTED_EDGE('',*,*,#603,.F.);
#603 = EDGE_CURVE('',#594,#594,#604,.T.);
#604 = CIRCLE('',#605,10.7);
#605 = AXIS2_PLACEMENT_3D('',#606,#607,#608);
#606 = CARTESIAN_POINT('',(0.,8.799999965176E-16,0.4));
#607 = DIRECTION('',(0.,-0.,-1.));
#608 = DIRECTION('',(1.,-1.843132956124E-32,0.));
#609 = CONICAL_SURFACE('',#610,10.7,0.785398163397);
#610 = AXIS2_PLACEMENT_3D('',#611,#612,#613);
#611 = CARTESIAN_POINT('',(0.,8.799999965176E-16,0.4));
#612 = DIRECTION('',(-0.,-0.,-1.));
#613 = DIRECTION('',(1.,-1.843132956124E-32,0.));
#614 = ADVANCED_FACE('',(#615),#634,.F.);
#615 = FACE_BOUND('',#616,.T.);
#616 = EDGE_LOOP('',(#617,#625,#626,#627));
#617 = ORIENTED_EDGE('',*,*,#618,.F.);
#618 = EDGE_CURVE('',#318,#619,#621,.T.);
#619 = VERTEX_POINT('',#620);
#620 = CARTESIAN_POINT('',(-14.35,8.79999989999E-16,0.4));
#621 = LINE('',#622,#623);
#622 = CARTESIAN_POINT('',(-14.35,8.79999989999E-16,0.4));
#623 = VECTOR('',#624,1.);
#624 = DIRECTION('',(-0.707106781187,4.225824965869E-32,0.707106781187)
  );
#625 = ORIENTED_EDGE('',*,*,#317,.T.);
#626 = ORIENTED_EDGE('',*,*,#618,.T.);
#627 = ORIENTED_EDGE('',*,*,#628,.F.);
#628 = EDGE_CURVE('',#619,#619,#629,.T.);
#629 = CIRCLE('',#630,1.65);
#630 = AXIS2_PLACEMENT_3D('',#631,#632,#633);
#631 = CARTESIAN_POINT('',(-16.,8.79999989999E-16,0.4));
#632 = DIRECTION('',(0.,-0.,-1.));
#633 = DIRECTION('',(1.,-5.976218978947E-32,0.));
#634 = CONICAL_SURFACE('',#635,1.65,0.785398163397);
#635 = AXIS2_PLACEMENT_3D('',#636,#637,#638);
#636 = CARTESIAN_POINT('',(-16.,8.79999989999E-16,0.4));
#637 = DIRECTION('',(-0.,-0.,-1.));
#638 = DIRECTION('',(1.,-5.976218978947E-32,0.));
#639 = ADVANCED_FACE('',(#640),#659,.F.);
#640 = FACE_BOUND('',#641,.T.);
#641 = EDGE_LOOP('',(#642,#650,#651,#652));
#642 = ORIENTED_EDGE('',*,*,#643,.F.);
#643 = EDGE_CURVE('',#329,#644,#646,.T.);
#644 = VERTEX_POINT('',#645);
#645 = CARTESIAN_POINT('',(17.65,8.79999989999E-16,0.4));
#646 = LINE('',#647,#648);
#647 = CARTESIAN_POINT('',(17.65,8.79999989999E-16,0.4));
#648 = VECTOR('',#649,1.);
#649 = DIRECTION('',(-0.707106781187,4.225824965869E-32,0.707106781187)
  );
#650 = ORIENTED_EDGE('',*,*,#328,.T.);
#651 = ORIENTED_EDGE('',*,*,#643,.T.);
#652 = ORIENTED_EDGE('',*,*,#653,.F.);
#653 = EDGE_CURVE('',#644,#644,#654,.T.);
#654 = CIRCLE('',#655,1.65);
#655 = AXIS2_PLACEMENT_3D('',#656,#657,#658);
#656 = CARTESIAN_POINT('',(16.,8.79999989999E-16,0.4));
#657 = DIRECTION('',(0.,-0.,-1.));
#658 = DIRECTION('',(1.,-5.976218978947E-32,0.));
#659 = CONICAL_SURFACE('',#660,1.65,0.785398163397);
#660 = AXIS2_PLACEMENT_3D('',#661,#662,#663);
#661 = CARTESIAN_POINT('',(16.,8.79999989999E-16,0.4));
#662 = DIRECTION('',(-0.,-0.,-1.));
#663 = DIRECTION('',(1.,-5.976218978947E-32,0.));
#664 = ADVANCED_FACE('',(#665),#676,.T.);
#665 = FACE_BOUND('',#666,.T.);
#666 = EDGE_LOOP('',(#667,#673,#674,#675));
#667 = ORIENTED_EDGE('',*,*,#668,.F.);
#668 = EDGE_CURVE('',#486,#350,#669,.T.);
#669 = LINE('',#670,#671);
#670 = CARTESIAN_POINT('',(-5.46875,-11.24023013276,0.4));
#671 = VECTOR('',#672,1.);
#672 = DIRECTION('',(0.309359216769,0.635843435918,-0.707106781187));
#673 = ORIENTED_EDGE('',*,*,#535,.T.);
#674 = ORIENTED_EDGE('',*,*,#551,.T.);
#675 = ORIENTED_EDGE('',*,*,#349,.F.);
#676 = PLANE('',#677);
#677 = AXIS2_PLACEMENT_3D('',#678,#679,#680);
#678 = CARTESIAN_POINT('',(-5.38125,-11.06038645064,0.2));
#679 = DIRECTION('',(-0.309359216769,-0.635843435918,-0.707106781187));
#680 = DIRECTION('',(-0.899218410621,0.4375,-8.326672684689E-17));
#681 = ADVANCED_FACE('',(#682),#693,.T.);
#682 = FACE_BOUND('',#683,.T.);
#683 = EDGE_LOOP('',(#684,#690,#691,#692));
#684 = ORIENTED_EDGE('',*,*,#685,.F.);
#685 = EDGE_CURVE('',#478,#358,#686,.T.);
#686 = LINE('',#687,#688);
#687 = CARTESIAN_POINT('',(5.38125,-11.06038645064,0.2));
#688 = VECTOR('',#689,1.);
#689 = DIRECTION('',(-0.309359216769,0.635843435918,-0.707106781187));
#690 = ORIENTED_EDGE('',*,*,#485,.T.);
#691 = ORIENTED_EDGE('',*,*,#668,.T.);
#692 = ORIENTED_EDGE('',*,*,#357,.F.);
#693 = CONICAL_SURFACE('',#694,12.5,0.785398163397);
#694 = AXIS2_PLACEMENT_3D('',#695,#696,#697);
#695 = CARTESIAN_POINT('',(0.,8.799999965176E-16,0.4));
#696 = DIRECTION('',(0.,0.,1.));
#697 = DIRECTION('',(0.4375,-0.899218410621,0.));
#698 = ADVANCED_FACE('',(#699),#710,.T.);
#699 = FACE_BOUND('',#700,.T.);
#700 = EDGE_LOOP('',(#701,#702,#703,#709));
#701 = ORIENTED_EDGE('',*,*,#400,.F.);
#702 = ORIENTED_EDGE('',*,*,#510,.T.);
#703 = ORIENTED_EDGE('',*,*,#704,.T.);
#704 = EDGE_CURVE('',#511,#367,#705,.T.);
#705 = LINE('',#706,#707);
#706 = CARTESIAN_POINT('',(18.40625,-4.945701258416,0.4));
#707 = VECTOR('',#708,1.);
#708 = DIRECTION('',(-0.309359216769,0.635843435918,-0.707106781187));
#709 = ORIENTED_EDGE('',*,*,#374,.F.);
#710 = CONICAL_SURFACE('',#711,5.5,0.785398163397);
#711 = AXIS2_PLACEMENT_3D('',#712,#713,#714);
#712 = CARTESIAN_POINT('',(16.,8.79999989999E-16,0.4));
#713 = DIRECTION('',(0.,0.,1.));
#714 = DIRECTION('',(0.4375,0.899218410621,0.));
#715 = ADVANCED_FACE('',(#716),#727,.F.);
#716 = FACE_BOUND('',#717,.T.);
#717 = EDGE_LOOP('',(#718,#719,#725,#726));
#718 = ORIENTED_EDGE('',*,*,#704,.F.);
#719 = ORIENTED_EDGE('',*,*,#720,.T.);
#720 = EDGE_CURVE('',#511,#478,#721,.T.);
#721 = LINE('',#722,#723);
#722 = CARTESIAN_POINT('',(18.40625,-4.945701258416,0.4));
#723 = VECTOR('',#724,1.);
#724 = DIRECTION('',(-0.899218410621,-0.4375,-0.));
#725 = ORIENTED_EDGE('',*,*,#685,.T.);
#726 = ORIENTED_EDGE('',*,*,#366,.F.);
#727 = PLANE('',#728);
#728 = AXIS2_PLACEMENT_3D('',#729,#730,#731);
#729 = CARTESIAN_POINT('',(18.31875,-4.765857576292,0.2));
#730 = DIRECTION('',(-0.309359216769,0.635843435918,0.707106781187));
#731 = DIRECTION('',(0.899218410621,0.4375,5.551115123126E-17));
#732 = ADVANCED_FACE('',(#733),#753,.F.);
#733 = FACE_BOUND('',#734,.T.);
#734 = EDGE_LOOP('',(#735,#744,#751,#752));
#735 = ORIENTED_EDGE('',*,*,#736,.T.);
#736 = EDGE_CURVE('',#737,#737,#739,.T.);
#737 = VERTEX_POINT('',#738);
#738 = CARTESIAN_POINT('',(11.25,0.,11.));
#739 = CIRCLE('',#740,11.25);
#740 = AXIS2_PLACEMENT_3D('',#741,#742,#743);
#741 = CARTESIAN_POINT('',(0.,2.44E-15,11.));
#742 = DIRECTION('',(0.,-2.2E-16,-1.));
#743 = DIRECTION('',(1.,0.,0.));
#744 = ORIENTED_EDGE('',*,*,#745,.T.);
#745 = EDGE_CURVE('',#737,#417,#746,.T.);
#746 = CIRCLE('',#747,8.4);
#747 = AXIS2_PLACEMENT_3D('',#748,#749,#750);
#748 = CARTESIAN_POINT('',(19.648320503832,0.,11.167966410077));
#749 = DIRECTION('',(0.,-1.,0.));
#750 = DIRECTION('',(1.,0.,0.));
#751 = ORIENTED_EDGE('',*,*,#424,.F.);
#752 = ORIENTED_EDGE('',*,*,#745,.F.);
#753 = TOROIDAL_SURFACE('',#754,19.648320503832,8.4);
#754 = AXIS2_PLACEMENT_3D('',#755,#756,#757);
#755 = CARTESIAN_POINT('',(0.,2.48E-15,11.167966410077));
#756 = DIRECTION('',(0.,2.2E-16,1.));
#757 = DIRECTION('',(1.,0.,0.));
#758 = ADVANCED_FACE('',(#759),#765,.T.);
#759 = FACE_BOUND('',#760,.T.);
#760 = EDGE_LOOP('',(#761,#762,#763,#764));
#761 = ORIENTED_EDGE('',*,*,#477,.T.);
#762 = ORIENTED_EDGE('',*,*,#720,.F.);
#763 = ORIENTED_EDGE('',*,*,#519,.F.);
#764 = ORIENTED_EDGE('',*,*,#441,.F.);
#765 = PLANE('',#766);
#766 = AXIS2_PLACEMENT_3D('',#767,#768,#769);
#767 = CARTESIAN_POINT('',(5.46875,-11.24023013276,4.));
#768 = DIRECTION('',(0.4375,-0.899218410621,0.));
#769 = DIRECTION('',(0.899218410621,0.4375,0.));
#770 = ADVANCED_FACE('',(#771),#790,.F.);
#771 = FACE_BOUND('',#772,.F.);
#772 = EDGE_LOOP('',(#773,#781,#788,#789));
#773 = ORIENTED_EDGE('',*,*,#774,.T.);
#774 = EDGE_CURVE('',#461,#775,#777,.T.);
#775 = VERTEX_POINT('',#776);
#776 = CARTESIAN_POINT('',(19.,0.,2.));
#777 = LINE('',#778,#779);
#778 = CARTESIAN_POINT('',(19.,0.,4.));
#779 = VECTOR('',#780,1.);
#780 = DIRECTION('',(-0.,-0.,-1.));
#781 = ORIENTED_EDGE('',*,*,#782,.T.);
#782 = EDGE_CURVE('',#775,#775,#783,.T.);
#783 = CIRCLE('',#784,3.);
#784 = AXIS2_PLACEMENT_3D('',#785,#786,#787);
#785 = CARTESIAN_POINT('',(16.,0.,2.));
#786 = DIRECTION('',(0.,0.,1.));
#787 = DIRECTION('',(1.,0.,0.));
#788 = ORIENTED_EDGE('',*,*,#774,.F.);
#789 = ORIENTED_EDGE('',*,*,#460,.F.);
#790 = CYLINDRICAL_SURFACE('',#791,3.);
#791 = AXIS2_PLACEMENT_3D('',#792,#793,#794);
#792 = CARTESIAN_POINT('',(16.,0.,4.));
#793 = DIRECTION('',(0.,0.,1.));
#794 = DIRECTION('',(1.,0.,0.));
#795 = ADVANCED_FACE('',(#796,#799),#810,.T.);
#796 = FACE_BOUND('',#797,.T.);
#797 = EDGE_LOOP('',(#798));
#798 = ORIENTED_EDGE('',*,*,#576,.T.);
#799 = FACE_BOUND('',#800,.T.);
#800 = EDGE_LOOP('',(#801));
#801 = ORIENTED_EDGE('',*,*,#802,.F.);
#802 = EDGE_CURVE('',#803,#803,#805,.T.);
#803 = VERTEX_POINT('',#804);
#804 = CARTESIAN_POINT('',(-14.35,8.79999989999E-16,2.));
#805 = CIRCLE('',#806,1.65);
#806 = AXIS2_PLACEMENT_3D('',#807,#808,#809);
#807 = CARTESIAN_POINT('',(-16.,8.79999989999E-16,2.));
#808 = DIRECTION('',(0.,0.,1.));
#809 = DIRECTION('',(1.,0.,0.));
#810 = PLANE('',#811);
#811 = AXIS2_PLACEMENT_3D('',#812,#813,#814);
#812 = CARTESIAN_POINT('',(-2.279066887566E-16,-4.255667768225E-18,2.));
#813 = DIRECTION('',(0.,0.,1.));
#814 = DIRECTION('',(1.,0.,0.));
#815 = ADVANCED_FACE('',(#816),#835,.F.);
#816 = FACE_BOUND('',#817,.T.);
#817 = EDGE_LOOP('',(#818,#826,#827,#828));
#818 = ORIENTED_EDGE('',*,*,#819,.T.);
#819 = EDGE_CURVE('',#820,#594,#822,.T.);
#820 = VERTEX_POINT('',#821);
#821 = CARTESIAN_POINT('',(10.7,4.400000026704E-16,4.));
#822 = LINE('',#823,#824);
#823 = CARTESIAN_POINT('',(10.7,8.799999965176E-16,4.));
#824 = VECTOR('',#825,1.);
#825 = DIRECTION('',(0.,0.,-1.));
#826 = ORIENTED_EDGE('',*,*,#603,.T.);
#827 = ORIENTED_EDGE('',*,*,#819,.F.);
#828 = ORIENTED_EDGE('',*,*,#829,.F.);
#829 = EDGE_CURVE('',#820,#820,#830,.T.);
#830 = CIRCLE('',#831,10.7);
#831 = AXIS2_PLACEMENT_3D('',#832,#833,#834);
#832 = CARTESIAN_POINT('',(0.,8.9E-16,4.));
#833 = DIRECTION('',(0.,-2.2E-16,-1.));
#834 = DIRECTION('',(1.,0.,0.));
#835 = CYLINDRICAL_SURFACE('',#836,10.7);
#836 = AXIS2_PLACEMENT_3D('',#837,#838,#839);
#837 = CARTESIAN_POINT('',(0.,8.799999965176E-16,4.));
#838 = DIRECTION('',(0.,0.,1.));
#839 = DIRECTION('',(1.,0.,0.));
#840 = ADVANCED_FACE('',(#841),#852,.F.);
#841 = FACE_BOUND('',#842,.T.);
#842 = EDGE_LOOP('',(#843,#849,#850,#851));
#843 = ORIENTED_EDGE('',*,*,#844,.F.);
#844 = EDGE_CURVE('',#803,#619,#845,.T.);
#845 = LINE('',#846,#847);
#846 = CARTESIAN_POINT('',(-14.35,8.79999989999E-16,4.));
#847 = VECTOR('',#848,1.);
#848 = DIRECTION('',(0.,0.,-1.));
#849 = ORIENTED_EDGE('',*,*,#802,.T.);
#850 = ORIENTED_EDGE('',*,*,#844,.T.);
#851 = ORIENTED_EDGE('',*,*,#628,.T.);
#852 = CYLINDRICAL_SURFACE('',#853,1.65);
#853 = AXIS2_PLACEMENT_3D('',#854,#855,#856);
#854 = CARTESIAN_POINT('',(-16.,8.79999989999E-16,4.));
#855 = DIRECTION('',(0.,0.,1.));
#856 = DIRECTION('',(1.,0.,0.));
#857 = ADVANCED_FACE('',(#858),#877,.F.);
#858 = FACE_BOUND('',#859,.T.);
#859 = EDGE_LOOP('',(#860,#868,#875,#876));
#860 = ORIENTED_EDGE('',*,*,#861,.F.);
#861 = EDGE_CURVE('',#862,#644,#864,.T.);
#862 = VERTEX_POINT('',#863);
#863 = CARTESIAN_POINT('',(17.65,8.79999989999E-16,2.));
#864 = LINE('',#865,#866);
#865 = CARTESIAN_POINT('',(17.65,8.79999989999E-16,4.));
#866 = VECTOR('',#867,1.);
#867 = DIRECTION('',(0.,0.,-1.));
#868 = ORIENTED_EDGE('',*,*,#869,.T.);
#869 = EDGE_CURVE('',#862,#862,#870,.T.);
#870 = CIRCLE('',#871,1.65);
#871 = AXIS2_PLACEMENT_3D('',#872,#873,#874);
#872 = CARTESIAN_POINT('',(16.,8.79999989999E-16,2.));
#873 = DIRECTION('',(0.,0.,1.));
#874 = DIRECTION('',(1.,0.,0.));
#875 = ORIENTED_EDGE('',*,*,#861,.T.);
#876 = ORIENTED_EDGE('',*,*,#653,.T.);
#877 = CYLINDRICAL_SURFACE('',#878,1.65);
#878 = AXIS2_PLACEMENT_3D('',#879,#880,#881);
#879 = CARTESIAN_POINT('',(16.,8.79999989999E-16,4.));
#880 = DIRECTION('',(0.,0.,1.));
#881 = DIRECTION('',(1.,0.,0.));
#882 = ADVANCED_FACE('',(#883),#902,.T.);
#883 = FACE_BOUND('',#884,.F.);
#884 = EDGE_LOOP('',(#885,#886,#894,#901));
#885 = ORIENTED_EDGE('',*,*,#736,.T.);
#886 = ORIENTED_EDGE('',*,*,#887,.T.);
#887 = EDGE_CURVE('',#737,#888,#890,.T.);
#888 = VERTEX_POINT('',#889);
#889 = CARTESIAN_POINT('',(10.85,0.,31.));
#890 = LINE('',#891,#892);
#891 = CARTESIAN_POINT('',(11.25,0.,11.));
#892 = VECTOR('',#893,1.);
#893 = DIRECTION('',(-1.99960011996E-02,0.,0.99980005998));
#894 = ORIENTED_EDGE('',*,*,#895,.F.);
#895 = EDGE_CURVE('',#888,#888,#896,.T.);
#896 = CIRCLE('',#897,10.85);
#897 = AXIS2_PLACEMENT_3D('',#898,#899,#900);
#898 = CARTESIAN_POINT('',(0.,6.88E-15,31.));
#899 = DIRECTION('',(0.,-2.2E-16,-1.));
#900 = DIRECTION('',(1.,0.,0.));
#901 = ORIENTED_EDGE('',*,*,#887,.F.);
#902 = CONICAL_SURFACE('',#903,11.25,1.999733397315E-02);
#903 = AXIS2_PLACEMENT_3D('',#904,#905,#906);
#904 = CARTESIAN_POINT('',(0.,2.44E-15,11.));
#905 = DIRECTION('',(-0.,-2.2E-16,-1.));
#906 = DIRECTION('',(1.,0.,0.));
#907 = ADVANCED_FACE('',(#908,#911),#914,.T.);
#908 = FACE_BOUND('',#909,.T.);
#909 = EDGE_LOOP('',(#910));
#910 = ORIENTED_EDGE('',*,*,#782,.T.);
#911 = FACE_BOUND('',#912,.T.);
#912 = EDGE_LOOP('',(#913));
#913 = ORIENTED_EDGE('',*,*,#869,.F.);
#914 = PLANE('',#915);
#915 = AXIS2_PLACEMENT_3D('',#916,#917,#918);
#916 = CARTESIAN_POINT('',(-2.279066887566E-16,-4.255667768225E-18,2.));
#917 = DIRECTION('',(0.,0.,1.));
#918 = DIRECTION('',(1.,0.,0.));
#919 = ADVANCED_FACE('',(#920),#940,.T.);
#920 = FACE_BOUND('',#921,.T.);
#921 = EDGE_LOOP('',(#922,#931,#932,#933));
#922 = ORIENTED_EDGE('',*,*,#923,.F.);
#923 = EDGE_CURVE('',#820,#924,#926,.T.);
#924 = VERTEX_POINT('',#925);
#925 = CARTESIAN_POINT('',(10.549745587557,0.,5.562560711016));
#926 = CIRCLE('',#927,8.2);
#927 = AXIS2_PLACEMENT_3D('',#928,#929,#930);
#928 = CARTESIAN_POINT('',(2.5,0.,4.));
#929 = DIRECTION('',(0.,-1.,0.));
#930 = DIRECTION('',(1.,0.,0.));
#931 = ORIENTED_EDGE('',*,*,#829,.T.);
#932 = ORIENTED_EDGE('',*,*,#923,.T.);
#933 = ORIENTED_EDGE('',*,*,#934,.F.);
#934 = EDGE_CURVE('',#924,#924,#935,.T.);
#935 = CIRCLE('',#936,10.549745587557);
#936 = AXIS2_PLACEMENT_3D('',#937,#938,#939);
#937 = CARTESIAN_POINT('',(0.,1.24E-15,5.562560711016));
#938 = DIRECTION('',(0.,-2.2E-16,-1.));
#939 = DIRECTION('',(1.,0.,0.));
#940 = SURFACE_OF_REVOLUTION('',#941,#946);
#941 = CIRCLE('',#942,8.2);
#942 = AXIS2_PLACEMENT_3D('',#943,#944,#945);
#943 = CARTESIAN_POINT('',(2.5,8.9E-16,4.));
#944 = DIRECTION('',(0.,-1.,2.2E-16));
#945 = DIRECTION('',(1.,0.,0.));
#946 = AXIS1_PLACEMENT('',#947,#948);
#947 = CARTESIAN_POINT('',(0.,0.,0.));
#948 = DIRECTION('',(-0.,-2.2E-16,-1.));
#949 = ADVANCED_FACE('',(#950),#970,.T.);
#950 = FACE_BOUND('',#951,.F.);
#951 = EDGE_LOOP('',(#952,#953,#962,#969));
#952 = ORIENTED_EDGE('',*,*,#895,.T.);
#953 = ORIENTED_EDGE('',*,*,#954,.T.);
#954 = EDGE_CURVE('',#888,#955,#957,.T.);
#955 = VERTEX_POINT('',#956);
#956 = CARTESIAN_POINT('',(9.250319904032,0.,30.968006398081));
#957 = CIRCLE('',#958,0.8);
#958 = AXIS2_PLACEMENT_3D('',#959,#960,#961);
#959 = CARTESIAN_POINT('',(10.050159952016,0.,30.98400319904));
#960 = DIRECTION('',(0.,-1.,0.));
#961 = DIRECTION('',(1.,0.,0.));
#962 = ORIENTED_EDGE('',*,*,#963,.F.);
#963 = EDGE_CURVE('',#955,#955,#964,.T.);
#964 = CIRCLE('',#965,9.250319904032);
#965 = AXIS2_PLACEMENT_3D('',#966,#967,#968);
#966 = CARTESIAN_POINT('',(0.,6.88E-15,30.968006398081));
#967 = DIRECTION('',(0.,-2.2E-16,-1.));
#968 = DIRECTION('',(1.,0.,0.));
#969 = ORIENTED_EDGE('',*,*,#954,.F.);
#970 = TOROIDAL_SURFACE('',#971,10.050159952016,0.8);
#971 = AXIS2_PLACEMENT_3D('',#972,#973,#974);
#972 = CARTESIAN_POINT('',(0.,6.88E-15,30.98400319904));
#973 = DIRECTION('',(0.,2.2E-16,1.));
#974 = DIRECTION('',(1.,0.,0.));
#975 = ADVANCED_FACE('',(#976),#995,.F.);
#976 = FACE_BOUND('',#977,.T.);
#977 = EDGE_LOOP('',(#978,#979,#987,#994));
#978 = ORIENTED_EDGE('',*,*,#934,.T.);
#979 = ORIENTED_EDGE('',*,*,#980,.T.);
#980 = EDGE_CURVE('',#924,#981,#983,.T.);
#981 = VERTEX_POINT('',#982);
#982 = CARTESIAN_POINT('',(9.831557592178,0.,9.262404567374));
#983 = LINE('',#984,#985);
#984 = CARTESIAN_POINT('',(10.549745587557,0.,5.562560711016));
#985 = VECTOR('',#986,1.);
#986 = DIRECTION('',(-0.19055618427,0.,0.981676291165));
#987 = ORIENTED_EDGE('',*,*,#988,.F.);
#988 = EDGE_CURVE('',#981,#981,#989,.T.);
#989 = CIRCLE('',#990,9.831557592178);
#990 = AXIS2_PLACEMENT_3D('',#991,#992,#993);
#991 = CARTESIAN_POINT('',(0.,2.06E-15,9.262404567374));
#992 = DIRECTION('',(0.,-2.2E-16,-1.));
#993 = DIRECTION('',(1.,0.,0.));
#994 = ORIENTED_EDGE('',*,*,#980,.F.);
#995 = CONICAL_SURFACE('',#996,10.549745587557,0.191728681268);
#996 = AXIS2_PLACEMENT_3D('',#997,#998,#999);
#997 = CARTESIAN_POINT('',(0.,1.24E-15,5.562560711016));
#998 = DIRECTION('',(-0.,-2.2E-16,-1.));
#999 = DIRECTION('',(1.,0.,0.));
#1000 = ADVANCED_FACE('',(#1001),#1020,.F.);
#1001 = FACE_BOUND('',#1002,.F.);
#1002 = EDGE_LOOP('',(#1003,#1004,#1012,#1019));
#1003 = ORIENTED_EDGE('',*,*,#963,.T.);
#1004 = ORIENTED_EDGE('',*,*,#1005,.T.);
#1005 = EDGE_CURVE('',#955,#1006,#1008,.T.);
#1006 = VERTEX_POINT('',#1007);
#1007 = CARTESIAN_POINT('',(9.650319904032,0.,10.968006398081));
#1008 = LINE('',#1009,#1010);
#1009 = CARTESIAN_POINT('',(9.250319904032,0.,30.968006398081));
#1010 = VECTOR('',#1011,1.);
#1011 = DIRECTION('',(1.99960011996E-02,0.,-0.99980005998));
#1012 = ORIENTED_EDGE('',*,*,#1013,.F.);
#1013 = EDGE_CURVE('',#1006,#1006,#1014,.T.);
#1014 = CIRCLE('',#1015,9.650319904032);
#1015 = AXIS2_PLACEMENT_3D('',#1016,#1017,#1018);
#1016 = CARTESIAN_POINT('',(0.,2.44E-15,10.968006398081));
#1017 = DIRECTION('',(0.,-2.2E-16,-1.));
#1018 = DIRECTION('',(1.,0.,0.));
#1019 = ORIENTED_EDGE('',*,*,#1005,.F.);
#1020 = CONICAL_SURFACE('',#1021,9.250319904032,1.999733397315E-02);
#1021 = AXIS2_PLACEMENT_3D('',#1022,#1023,#1024);
#1022 = CARTESIAN_POINT('',(0.,6.88E-15,30.968006398081));
#1023 = DIRECTION('',(-0.,-2.2E-16,-1.));
#1024 = DIRECTION('',(1.,0.,0.));
#1025 = ADVANCED_FACE('',(#1026),#1038,.T.);
#1026 = FACE_BOUND('',#1027,.F.);
#1027 = EDGE_LOOP('',(#1028,#1029,#1036,#1037));
#1028 = ORIENTED_EDGE('',*,*,#1013,.T.);
#1029 = ORIENTED_EDGE('',*,*,#1030,.T.);
#1030 = EDGE_CURVE('',#1006,#981,#1031,.T.);
#1031 = CIRCLE('',#1032,10.);
#1032 = AXIS2_PLACEMENT_3D('',#1033,#1034,#1035);
#1033 = CARTESIAN_POINT('',(19.648320503832,0.,11.167966410077));
#1034 = DIRECTION('',(0.,-1.,0.));
#1035 = DIRECTION('',(1.,0.,0.));
#1036 = ORIENTED_EDGE('',*,*,#988,.F.);
#1037 = ORIENTED_EDGE('',*,*,#1030,.F.);
#1038 = TOROIDAL_SURFACE('',#1039,19.648320503832,10.);
#1039 = AXIS2_PLACEMENT_3D('',#1040,#1041,#1042);
#1040 = CARTESIAN_POINT('',(0.,2.48E-15,11.167966410077));
#1041 = DIRECTION('',(0.,2.2E-16,1.));
#1042 = DIRECTION('',(1.,0.,0.));
#1043 = ( GEOMETRIC_REPRESENTATION_CONTEXT(3) 
GLOBAL_UNCERTAINTY_ASSIGNED_CONTEXT((#1047)) 
GLOBAL_UNIT_ASSIGNED_CONTEXT((#1044,#1045,#1046)) REPRESENTATION_CONTEXT
('Context #1','3D Context with UNIT and UNCERTAINTY') );
#1044 = ( LENGTH_UNIT() NAMED_UNIT(*) SI_UNIT(.MILLI.,.METRE.) );
#1045 = ( NAMED_UNIT(*) PLANE_ANGLE_UNIT() SI_UNIT($,.RADIAN.) );
#1046 = ( NAMED_UNIT(*) SI_UNIT($,.STERADIAN.) SOLID_ANGLE_UNIT() );
#1047 = UNCERTAINTY_MEASURE_WITH_UNIT(LENGTH_MEASURE(1.E-07),#1044,
  'distance_accuracy_value','confusion accuracy');
#1048 = PRODUCT_RELATED_PRODUCT_CATEGORY('part',$,(#7));
#1049 = MECHANICAL_DESIGN_GEOMETRIC_PRESENTATION_REPRESENTATION('',(
    #1050),#1043);
#1050 = STYLED_ITEM('color',(#1051),#15);
#1051 = PRESENTATION_STYLE_ASSIGNMENT((#1052,#1058));
#1052 = SURFACE_STYLE_USAGE(.BOTH.,#1053);
#1053 = SURFACE_SIDE_STYLE('',(#1054));
#1054 = SURFACE_STYLE_FILL_AREA(#1055);
#1055 = FILL_AREA_STYLE('',(#1056));
#1056 = FILL_AREA_STYLE_COLOUR('',#1057);
#1057 = COLOUR_RGB('',0.678431390124,0.709803936702,0.741176476869);
#1058 = CURVE_STYLE('',#1059,POSITIVE_LENGTH_MEASURE(0.1),#1060);
#1059 = DRAUGHTING_PRE_DEFINED_CURVE_FONT('continuous');
#1060 = COLOUR_RGB('',9.803921802644E-02,9.803921802644E-02,
  9.803921802644E-02);
ENDSEC;
END-ISO-10303-21;
