ISO-10303-21;
HEADER;
FILE_DESCRIPTION(('FreeCAD Model'),'2;1');
FILE_NAME('Open CASCADE Shape Model','2026-07-13T14:25:40',(''),(''),
  'Open CASCADE STEP processor 7.8','FreeCAD','Unknown');
FILE_SCHEMA(('AUTOMOTIVE_DESIGN { 1 0 10303 214 1 1 1 1 }'));
ENDSEC;
DATA;
#1 = APPLICATION_PROTOCOL_DEFINITION('international standard',
  'automotive_design',2000,#2);
#2 = APPLICATION_CONTEXT(
  'core data for automotive mechanical design processes');
#3 = SHAPE_DEFINITION_REPRESENTATION(#4,#10);
#4 = PRODUCT_DEFINITION_SHAPE('','',#5);
#5 = PRODUCT_DEFINITION('design','',#6,#9);
#6 = PRODUCT_DEFINITION_FORMATION('','',#7);
#7 = PRODUCT('25mmHoseAdapter','25mmHoseAdapter','',(#8));
#8 = PRODUCT_CONTEXT('',#2,'mechanical');
#9 = PRODUCT_DEFINITION_CONTEXT('part definition',#2,'design');
#10 = ADVANCED_BREP_SHAPE_REPRESENTATION('',(#11,#15),#901);
#11 = AXIS2_PLACEMENT_3D('',#12,#13,#14);
#12 = CARTESIAN_POINT('',(0.,0.,0.));
#13 = DIRECTION('',(0.,0.,1.));
#14 = DIRECTION('',(1.,0.,-0.));
#15 = MANIFOLD_SOLID_BREP('',#16);
#16 = CLOSED_SHELL('',(#17,#59,#90,#122,#181,#212,#245,#269,#297,#389,
    #406,#432,#469,#501,#526,#543,#560,#585,#610,#635,#660,#677,#699,
    #716,#728,#753,#765,#790,#810,#835,#852,#877,#889));
#17 = ADVANCED_FACE('',(#18),#54,.T.);
#18 = FACE_BOUND('',#19,.F.);
#19 = EDGE_LOOP('',(#20,#30,#39,#47));
#20 = ORIENTED_EDGE('',*,*,#21,.T.);
#21 = EDGE_CURVE('',#22,#24,#26,.T.);
#22 = VERTEX_POINT('',#23);
#23 = CARTESIAN_POINT('',(-5.8149,11.380480569378,4.));
#24 = VERTEX_POINT('',#25);
#25 = CARTESIAN_POINT('',(-5.8149,11.380480569378,0.4));
#26 = LINE('',#27,#28);
#27 = CARTESIAN_POINT('',(-5.8149,11.380480569378,4.));
#28 = VECTOR('',#29,1.);
#29 = DIRECTION('',(0.,0.,-1.));
#30 = ORIENTED_EDGE('',*,*,#31,.T.);
#31 = EDGE_CURVE('',#24,#32,#34,.T.);
#32 = VERTEX_POINT('',#33);
#33 = CARTESIAN_POINT('',(5.8149,11.380480569378,0.4));
#34 = CIRCLE('',#35,12.78);
#35 = AXIS2_PLACEMENT_3D('',#36,#37,#38);
#36 = CARTESIAN_POINT('',(1.551574226878E-24,8.800000598672E-16,0.4));
#37 = DIRECTION('',(0.,0.,-1.));
#38 = DIRECTION('',(-0.455,0.890491437354,0.));
#39 = ORIENTED_EDGE('',*,*,#40,.F.);
#40 = EDGE_CURVE('',#41,#32,#43,.T.);
#41 = VERTEX_POINT('',#42);
#42 = CARTESIAN_POINT('',(5.8149,11.380480569378,4.));
#43 = LINE('',#44,#45);
#44 = CARTESIAN_POINT('',(5.8149,11.380480569378,4.));
#45 = VECTOR('',#46,1.);
#46 = DIRECTION('',(0.,0.,-1.));
#47 = ORIENTED_EDGE('',*,*,#48,.F.);
#48 = EDGE_CURVE('',#22,#41,#49,.T.);
#49 = CIRCLE('',#50,12.78);
#50 = AXIS2_PLACEMENT_3D('',#51,#52,#53);
#51 = CARTESIAN_POINT('',(0.,8.9E-16,4.));
#52 = DIRECTION('',(0.,-2.2E-16,-1.));
#53 = DIRECTION('',(1.,0.,0.));
#54 = CYLINDRICAL_SURFACE('',#55,12.78);
#55 = AXIS2_PLACEMENT_3D('',#56,#57,#58);
#56 = CARTESIAN_POINT('',(1.551574231018E-24,8.800000598672E-16,4.));
#57 = DIRECTION('',(0.,0.,1.));
#58 = DIRECTION('',(1.,0.,0.));
#59 = ADVANCED_FACE('',(#60),#85,.F.);
#60 = FACE_BOUND('',#61,.F.);
#61 = EDGE_LOOP('',(#62,#72,#78,#79));
#62 = ORIENTED_EDGE('',*,*,#63,.T.);
#63 = EDGE_CURVE('',#64,#66,#68,.T.);
#64 = VERTEX_POINT('',#65);
#65 = CARTESIAN_POINT('',(-18.5025,4.897702905445,4.));
#66 = VERTEX_POINT('',#67);
#67 = CARTESIAN_POINT('',(-18.5025,4.897702905444,0.4));
#68 = LINE('',#69,#70);
#69 = CARTESIAN_POINT('',(-18.5025,4.897702905445,4.));
#70 = VECTOR('',#71,1.);
#71 = DIRECTION('',(0.,0.,-1.));
#72 = ORIENTED_EDGE('',*,*,#73,.T.);
#73 = EDGE_CURVE('',#66,#24,#74,.T.);
#74 = LINE('',#75,#76);
#75 = CARTESIAN_POINT('',(-18.5025,4.897702905445,0.4));
#76 = VECTOR('',#77,1.);
#77 = DIRECTION('',(0.890491437354,0.455,0.));
#78 = ORIENTED_EDGE('',*,*,#21,.F.);
#79 = ORIENTED_EDGE('',*,*,#80,.F.);
#80 = EDGE_CURVE('',#64,#22,#81,.T.);
#81 = LINE('',#82,#83);
#82 = CARTESIAN_POINT('',(-18.5025,4.897702905445,4.));
#83 = VECTOR('',#84,1.);
#84 = DIRECTION('',(0.890491437354,0.455,0.));
#85 = PLANE('',#86);
#86 = AXIS2_PLACEMENT_3D('',#87,#88,#89);
#87 = CARTESIAN_POINT('',(-18.5025,4.897702905445,4.));
#88 = DIRECTION('',(0.455,-0.890491437354,0.));
#89 = DIRECTION('',(0.890491437354,0.455,0.));
#90 = ADVANCED_FACE('',(#91),#117,.T.);
#91 = FACE_BOUND('',#92,.T.);
#92 = EDGE_LOOP('',(#93,#101,#102,#110));
#93 = ORIENTED_EDGE('',*,*,#94,.F.);
#94 = EDGE_CURVE('',#24,#95,#97,.T.);
#95 = VERTEX_POINT('',#96);
#96 = CARTESIAN_POINT('',(-5.6329,11.024283994437,-5.273559366969E-16));
#97 = LINE('',#98,#99);
#98 = CARTESIAN_POINT('',(-5.7239,11.202382281908,0.2));
#99 = VECTOR('',#100,1.);
#100 = DIRECTION('',(0.32173358544,-0.629672533941,-0.707106781187));
#101 = ORIENTED_EDGE('',*,*,#31,.T.);
#102 = ORIENTED_EDGE('',*,*,#103,.T.);
#103 = EDGE_CURVE('',#32,#104,#106,.T.);
#104 = VERTEX_POINT('',#105);
#105 = CARTESIAN_POINT('',(5.6329,11.024283994437,2.775557561563E-16));
#106 = LINE('',#107,#108);
#107 = CARTESIAN_POINT('',(5.7239,11.202382281908,0.2));
#108 = VECTOR('',#109,1.);
#109 = DIRECTION('',(-0.32173358544,-0.629672533941,-0.707106781187));
#110 = ORIENTED_EDGE('',*,*,#111,.F.);
#111 = EDGE_CURVE('',#95,#104,#112,.T.);
#112 = CIRCLE('',#113,12.38);
#113 = AXIS2_PLACEMENT_3D('',#114,#115,#116);
#114 = CARTESIAN_POINT('',(1.551574226878E-24,8.800000598672E-16,0.));
#115 = DIRECTION('',(0.,0.,-1.));
#116 = DIRECTION('',(-0.455,0.890491437354,0.));
#117 = CONICAL_SURFACE('',#118,12.78,0.785398163397);
#118 = AXIS2_PLACEMENT_3D('',#119,#120,#121);
#119 = CARTESIAN_POINT('',(1.551574226878E-24,8.800000598672E-16,0.4));
#120 = DIRECTION('',(0.,0.,1.));
#121 = DIRECTION('',(-0.455,0.890491437354,0.));
#122 = ADVANCED_FACE('',(#123),#176,.T.);
#123 = FACE_BOUND('',#124,.F.);
#124 = EDGE_LOOP('',(#125,#135,#144,#153,#160,#161,#168,#169));
#125 = ORIENTED_EDGE('',*,*,#126,.F.);
#126 = EDGE_CURVE('',#127,#129,#131,.T.);
#127 = VERTEX_POINT('',#128);
#128 = CARTESIAN_POINT('',(12.78,0.,4.));
#129 = VERTEX_POINT('',#130);
#130 = CARTESIAN_POINT('',(12.15,0.,31.));
#131 = LINE('',#132,#133);
#132 = CARTESIAN_POINT('',(12.78,0.,4.));
#133 = VECTOR('',#134,1.);
#134 = DIRECTION('',(-2.332698407398E-02,0.,0.999727888885));
#135 = ORIENTED_EDGE('',*,*,#136,.T.);
#136 = EDGE_CURVE('',#127,#137,#139,.T.);
#137 = VERTEX_POINT('',#138);
#138 = CARTESIAN_POINT('',(5.8149,-11.38048056937,4.));
#139 = CIRCLE('',#140,12.78);
#140 = AXIS2_PLACEMENT_3D('',#141,#142,#143);
#141 = CARTESIAN_POINT('',(0.,8.9E-16,4.));
#142 = DIRECTION('',(0.,-2.2E-16,-1.));
#143 = DIRECTION('',(1.,0.,0.));
#144 = ORIENTED_EDGE('',*,*,#145,.T.);
#145 = EDGE_CURVE('',#137,#146,#148,.T.);
#146 = VERTEX_POINT('',#147);
#147 = CARTESIAN_POINT('',(-5.8149,-11.38048056937,4.));
#148 = CIRCLE('',#149,12.78);
#149 = AXIS2_PLACEMENT_3D('',#150,#151,#152);
#150 = CARTESIAN_POINT('',(0.,8.9E-16,4.));
#151 = DIRECTION('',(0.,-2.2E-16,-1.));
#152 = DIRECTION('',(1.,0.,0.));
#153 = ORIENTED_EDGE('',*,*,#154,.T.);
#154 = EDGE_CURVE('',#146,#22,#155,.T.);
#155 = CIRCLE('',#156,12.78);
#156 = AXIS2_PLACEMENT_3D('',#157,#158,#159);
#157 = CARTESIAN_POINT('',(0.,8.9E-16,4.));
#158 = DIRECTION('',(0.,-2.2E-16,-1.));
#159 = DIRECTION('',(1.,0.,0.));
#160 = ORIENTED_EDGE('',*,*,#48,.T.);
#161 = ORIENTED_EDGE('',*,*,#162,.T.);
#162 = EDGE_CURVE('',#41,#127,#163,.T.);
#163 = CIRCLE('',#164,12.78);
#164 = AXIS2_PLACEMENT_3D('',#165,#166,#167);
#165 = CARTESIAN_POINT('',(0.,8.9E-16,4.));
#166 = DIRECTION('',(0.,-2.2E-16,-1.));
#167 = DIRECTION('',(1.,0.,0.));
#168 = ORIENTED_EDGE('',*,*,#126,.T.);
#169 = ORIENTED_EDGE('',*,*,#170,.F.);
#170 = EDGE_CURVE('',#129,#129,#171,.T.);
#171 = CIRCLE('',#172,12.15);
#172 = AXIS2_PLACEMENT_3D('',#173,#174,#175);
#173 = CARTESIAN_POINT('',(0.,6.88E-15,31.));
#174 = DIRECTION('',(0.,-2.2E-16,-1.));
#175 = DIRECTION('',(1.,0.,0.));
#176 = CONICAL_SURFACE('',#177,12.78,2.332910014819E-02);
#177 = AXIS2_PLACEMENT_3D('',#178,#179,#180);
#178 = CARTESIAN_POINT('',(0.,8.9E-16,4.));
#179 = DIRECTION('',(-0.,-2.2E-16,-1.));
#180 = DIRECTION('',(1.,0.,0.));
#181 = ADVANCED_FACE('',(#182),#207,.F.);
#182 = FACE_BOUND('',#183,.F.);
#183 = EDGE_LOOP('',(#184,#185,#193,#201));
#184 = ORIENTED_EDGE('',*,*,#40,.T.);
#185 = ORIENTED_EDGE('',*,*,#186,.T.);
#186 = EDGE_CURVE('',#32,#187,#189,.T.);
#187 = VERTEX_POINT('',#188);
#188 = CARTESIAN_POINT('',(18.5025,4.897702905444,0.4));
#189 = LINE('',#190,#191);
#190 = CARTESIAN_POINT('',(5.8149,11.380480569378,0.4));
#191 = VECTOR('',#192,1.);
#192 = DIRECTION('',(0.890491437354,-0.455,0.));
#193 = ORIENTED_EDGE('',*,*,#194,.F.);
#194 = EDGE_CURVE('',#195,#187,#197,.T.);
#195 = VERTEX_POINT('',#196);
#196 = CARTESIAN_POINT('',(18.5025,4.897702905444,4.));
#197 = LINE('',#198,#199);
#198 = CARTESIAN_POINT('',(18.5025,4.897702905444,4.));
#199 = VECTOR('',#200,1.);
#200 = DIRECTION('',(0.,0.,-1.));
#201 = ORIENTED_EDGE('',*,*,#202,.F.);
#202 = EDGE_CURVE('',#41,#195,#203,.T.);
#203 = LINE('',#204,#205);
#204 = CARTESIAN_POINT('',(5.8149,11.380480569378,4.));
#205 = VECTOR('',#206,1.);
#206 = DIRECTION('',(0.890491437354,-0.455,0.));
#207 = PLANE('',#208);
#208 = AXIS2_PLACEMENT_3D('',#209,#210,#211);
#209 = CARTESIAN_POINT('',(5.8149,11.380480569378,4.));
#210 = DIRECTION('',(-0.455,-0.890491437354,-0.));
#211 = DIRECTION('',(0.890491437354,-0.455,0.));
#212 = ADVANCED_FACE('',(#213),#240,.T.);
#213 = FACE_BOUND('',#214,.F.);
#214 = EDGE_LOOP('',(#215,#225,#232,#233));
#215 = ORIENTED_EDGE('',*,*,#216,.T.);
#216 = EDGE_CURVE('',#217,#219,#221,.T.);
#217 = VERTEX_POINT('',#218);
#218 = CARTESIAN_POINT('',(-18.5025,-4.897702905445,4.));
#219 = VERTEX_POINT('',#220);
#220 = CARTESIAN_POINT('',(-18.5025,-4.897702905445,0.4));
#221 = LINE('',#222,#223);
#222 = CARTESIAN_POINT('',(-18.5025,-4.897702905445,4.));
#223 = VECTOR('',#224,1.);
#224 = DIRECTION('',(0.,0.,-1.));
#225 = ORIENTED_EDGE('',*,*,#226,.T.);
#226 = EDGE_CURVE('',#219,#66,#227,.T.);
#227 = CIRCLE('',#228,5.5);
#228 = AXIS2_PLACEMENT_3D('',#229,#230,#231);
#229 = CARTESIAN_POINT('',(-16.,8.800000092353E-16,0.4));
#230 = DIRECTION('',(-0.,0.,-1.));
#231 = DIRECTION('',(-0.455,-0.890491437354,0.));
#232 = ORIENTED_EDGE('',*,*,#63,.F.);
#233 = ORIENTED_EDGE('',*,*,#234,.F.);
#234 = EDGE_CURVE('',#217,#64,#235,.T.);
#235 = CIRCLE('',#236,5.5);
#236 = AXIS2_PLACEMENT_3D('',#237,#238,#239);
#237 = CARTESIAN_POINT('',(-16.,8.800000092353E-16,4.));
#238 = DIRECTION('',(0.,0.,-1.));
#239 = DIRECTION('',(1.,0.,0.));
#240 = CYLINDRICAL_SURFACE('',#241,5.5);
#241 = AXIS2_PLACEMENT_3D('',#242,#243,#244);
#242 = CARTESIAN_POINT('',(-16.,8.800000092353E-16,4.));
#243 = DIRECTION('',(0.,0.,1.));
#244 = DIRECTION('',(1.,0.,0.));
#245 = ADVANCED_FACE('',(#246),#264,.T.);
#246 = FACE_BOUND('',#247,.T.);
#247 = EDGE_LOOP('',(#248,#256,#257,#258));
#248 = ORIENTED_EDGE('',*,*,#249,.F.);
#249 = EDGE_CURVE('',#66,#250,#252,.T.);
#250 = VERTEX_POINT('',#251);
#251 = CARTESIAN_POINT('',(-18.3205,4.541506330503,1.110223024625E-16));
#252 = LINE('',#253,#254);
#253 = CARTESIAN_POINT('',(-18.5025,4.897702905444,0.4));
#254 = VECTOR('',#255,1.);
#255 = DIRECTION('',(0.32173358544,-0.629672533941,-0.707106781187));
#256 = ORIENTED_EDGE('',*,*,#73,.T.);
#257 = ORIENTED_EDGE('',*,*,#94,.T.);
#258 = ORIENTED_EDGE('',*,*,#259,.F.);
#259 = EDGE_CURVE('',#250,#95,#260,.T.);
#260 = LINE('',#261,#262);
#261 = CARTESIAN_POINT('',(-18.3205,4.541506330503,-4.440892098501E-16)
  );
#262 = VECTOR('',#263,1.);
#263 = DIRECTION('',(0.890491437354,0.455,0.));
#264 = PLANE('',#265);
#265 = AXIS2_PLACEMENT_3D('',#266,#267,#268);
#266 = CARTESIAN_POINT('',(-18.4115,4.719604617974,0.2));
#267 = DIRECTION('',(-0.32173358544,0.629672533941,-0.707106781187));
#268 = DIRECTION('',(0.890491437354,0.455,-2.775557561563E-17));
#269 = ADVANCED_FACE('',(#270,#281),#292,.T.);
#270 = FACE_BOUND('',#271,.T.);
#271 = EDGE_LOOP('',(#272,#278,#279,#280));
#272 = ORIENTED_EDGE('',*,*,#273,.F.);
#273 = EDGE_CURVE('',#146,#217,#274,.T.);
#274 = LINE('',#275,#276);
#275 = CARTESIAN_POINT('',(-5.8149,-11.38048056937,4.));
#276 = VECTOR('',#277,1.);
#277 = DIRECTION('',(-0.890491437354,0.455,-0.));
#278 = ORIENTED_EDGE('',*,*,#154,.T.);
#279 = ORIENTED_EDGE('',*,*,#80,.F.);
#280 = ORIENTED_EDGE('',*,*,#234,.F.);
#281 = FACE_BOUND('',#282,.T.);
#282 = EDGE_LOOP('',(#283));
#283 = ORIENTED_EDGE('',*,*,#284,.F.);
#284 = EDGE_CURVE('',#285,#285,#287,.T.);
#285 = VERTEX_POINT('',#286);
#286 = CARTESIAN_POINT('',(-13.,0.,4.));
#287 = CIRCLE('',#288,3.);
#288 = AXIS2_PLACEMENT_3D('',#289,#290,#291);
#289 = CARTESIAN_POINT('',(-16.,0.,4.));
#290 = DIRECTION('',(0.,0.,1.));
#291 = DIRECTION('',(1.,0.,0.));
#292 = PLANE('',#293);
#293 = AXIS2_PLACEMENT_3D('',#294,#295,#296);
#294 = CARTESIAN_POINT('',(5.773409035106E-16,-2.632545253292E-15,4.));
#295 = DIRECTION('',(0.,0.,1.));
#296 = DIRECTION('',(1.,0.,0.));
#297 = ADVANCED_FACE('',(#298,#309,#320,#331),#384,.F.);
#298 = FACE_BOUND('',#299,.F.);
#299 = EDGE_LOOP('',(#300));
#300 = ORIENTED_EDGE('',*,*,#301,.T.);
#301 = EDGE_CURVE('',#302,#302,#304,.T.);
#302 = VERTEX_POINT('',#303);
#303 = CARTESIAN_POINT('',(11.3,8.800000598672E-16,0.));
#304 = CIRCLE('',#305,11.3);
#305 = AXIS2_PLACEMENT_3D('',#306,#307,#308);
#306 = CARTESIAN_POINT('',(1.551574226878E-24,8.800000598672E-16,0.));
#307 = DIRECTION('',(0.,-0.,-1.));
#308 = DIRECTION('',(1.,-9.046570014002E-33,0.));
#309 = FACE_BOUND('',#310,.F.);
#310 = EDGE_LOOP('',(#311));
#311 = ORIENTED_EDGE('',*,*,#312,.T.);
#312 = EDGE_CURVE('',#313,#313,#315,.T.);
#313 = VERTEX_POINT('',#314);
#314 = CARTESIAN_POINT('',(-13.95,8.800000092353E-16,1.110223024625E-16)
  );
#315 = CIRCLE('',#316,2.05);
#316 = AXIS2_PLACEMENT_3D('',#317,#318,#319);
#317 = CARTESIAN_POINT('',(-16.,8.800000092353E-16,0.));
#318 = DIRECTION('',(0.,0.,-1.));
#319 = DIRECTION('',(1.,5.976218978947E-32,0.));
#320 = FACE_BOUND('',#321,.F.);
#321 = EDGE_LOOP('',(#322));
#322 = ORIENTED_EDGE('',*,*,#323,.T.);
#323 = EDGE_CURVE('',#324,#324,#326,.T.);
#324 = VERTEX_POINT('',#325);
#325 = CARTESIAN_POINT('',(18.05,8.800000092353E-16,-7.771561172376E-16)
  );
#326 = CIRCLE('',#327,2.05);
#327 = AXIS2_PLACEMENT_3D('',#328,#329,#330);
#328 = CARTESIAN_POINT('',(16.,8.800000092353E-16,0.));
#329 = DIRECTION('',(0.,0.,-1.));
#330 = DIRECTION('',(1.,5.976218978947E-32,0.));
#331 = FACE_BOUND('',#332,.F.);
#332 = EDGE_LOOP('',(#333,#341,#342,#343,#352,#360,#369,#377));
#333 = ORIENTED_EDGE('',*,*,#334,.F.);
#334 = EDGE_CURVE('',#104,#335,#337,.T.);
#335 = VERTEX_POINT('',#336);
#336 = CARTESIAN_POINT('',(18.3205,4.541506330503,-1.110223024625E-16));
#337 = LINE('',#338,#339);
#338 = CARTESIAN_POINT('',(5.6329,11.024283994437,0.));
#339 = VECTOR('',#340,1.);
#340 = DIRECTION('',(0.890491437354,-0.455,0.));
#341 = ORIENTED_EDGE('',*,*,#111,.F.);
#342 = ORIENTED_EDGE('',*,*,#259,.F.);
#343 = ORIENTED_EDGE('',*,*,#344,.F.);
#344 = EDGE_CURVE('',#345,#250,#347,.T.);
#345 = VERTEX_POINT('',#346);
#346 = CARTESIAN_POINT('',(-18.3205,-4.541506330503,-3.080868893335E-15)
  );
#347 = CIRCLE('',#348,5.1);
#348 = AXIS2_PLACEMENT_3D('',#349,#350,#351);
#349 = CARTESIAN_POINT('',(-16.,8.800000092353E-16,0.));
#350 = DIRECTION('',(-0.,0.,-1.));
#351 = DIRECTION('',(-0.455,-0.890491437354,0.));
#352 = ORIENTED_EDGE('',*,*,#353,.F.);
#353 = EDGE_CURVE('',#354,#345,#356,.T.);
#354 = VERTEX_POINT('',#355);
#355 = CARTESIAN_POINT('',(-5.6329,-11.02428399443,0.));
#356 = LINE('',#357,#358);
#357 = CARTESIAN_POINT('',(-5.6329,-11.02428399443,-4.440892098501E-16)
  );
#358 = VECTOR('',#359,1.);
#359 = DIRECTION('',(-0.890491437354,0.455,0.));
#360 = ORIENTED_EDGE('',*,*,#361,.F.);
#361 = EDGE_CURVE('',#362,#354,#364,.T.);
#362 = VERTEX_POINT('',#363);
#363 = CARTESIAN_POINT('',(5.6329,-11.02428399443,3.136380044566E-15));
#364 = CIRCLE('',#365,12.38);
#365 = AXIS2_PLACEMENT_3D('',#366,#367,#368);
#366 = CARTESIAN_POINT('',(1.551574226878E-24,8.800000598672E-16,0.));
#367 = DIRECTION('',(0.,-0.,-1.));
#368 = DIRECTION('',(0.455,-0.890491437354,0.));
#369 = ORIENTED_EDGE('',*,*,#370,.F.);
#370 = EDGE_CURVE('',#371,#362,#373,.T.);
#371 = VERTEX_POINT('',#372);
#372 = CARTESIAN_POINT('',(18.3205,-4.541506330503,-7.771561172376E-16)
  );
#373 = LINE('',#374,#375);
#374 = CARTESIAN_POINT('',(18.3205,-4.541506330503,0.));
#375 = VECTOR('',#376,1.);
#376 = DIRECTION('',(-0.890491437354,-0.455,-0.));
#377 = ORIENTED_EDGE('',*,*,#378,.F.);
#378 = EDGE_CURVE('',#335,#371,#379,.T.);
#379 = CIRCLE('',#380,5.1);
#380 = AXIS2_PLACEMENT_3D('',#381,#382,#383);
#381 = CARTESIAN_POINT('',(16.,8.800000092353E-16,0.));
#382 = DIRECTION('',(0.,0.,-1.));
#383 = DIRECTION('',(0.455,0.890491437354,0.));
#384 = PLANE('',#385);
#385 = AXIS2_PLACEMENT_3D('',#386,#387,#388);
#386 = CARTESIAN_POINT('',(5.773409035106E-16,-2.632545253292E-15,0.));
#387 = DIRECTION('',(0.,0.,1.));
#388 = DIRECTION('',(1.,0.,0.));
#389 = ADVANCED_FACE('',(#390),#401,.T.);
#390 = FACE_BOUND('',#391,.T.);
#391 = EDGE_LOOP('',(#392,#393,#394,#400));
#392 = ORIENTED_EDGE('',*,*,#103,.F.);
#393 = ORIENTED_EDGE('',*,*,#186,.T.);
#394 = ORIENTED_EDGE('',*,*,#395,.T.);
#395 = EDGE_CURVE('',#187,#335,#396,.T.);
#396 = LINE('',#397,#398);
#397 = CARTESIAN_POINT('',(18.4115,4.719604617974,0.2));
#398 = VECTOR('',#399,1.);
#399 = DIRECTION('',(-0.32173358544,-0.629672533941,-0.707106781187));
#400 = ORIENTED_EDGE('',*,*,#334,.F.);
#401 = PLANE('',#402);
#402 = AXIS2_PLACEMENT_3D('',#403,#404,#405);
#403 = CARTESIAN_POINT('',(5.7239,11.202382281908,0.2));
#404 = DIRECTION('',(0.32173358544,0.629672533941,-0.707106781187));
#405 = DIRECTION('',(0.890491437354,-0.455,-2.775557561563E-17));
#406 = ADVANCED_FACE('',(#407),#427,.T.);
#407 = FACE_BOUND('',#408,.F.);
#408 = EDGE_LOOP('',(#409,#410,#419,#426));
#409 = ORIENTED_EDGE('',*,*,#170,.T.);
#410 = ORIENTED_EDGE('',*,*,#411,.T.);
#411 = EDGE_CURVE('',#129,#412,#414,.T.);
#412 = VERTEX_POINT('',#413);
#413 = CARTESIAN_POINT('',(10.550435377784,0.,30.962676825482));
#414 = CIRCLE('',#415,0.8);
#415 = AXIS2_PLACEMENT_3D('',#416,#417,#418);
#416 = CARTESIAN_POINT('',(11.350217688892,0.,30.981338412741));
#417 = DIRECTION('',(0.,-1.,0.));
#418 = DIRECTION('',(1.,0.,0.));
#419 = ORIENTED_EDGE('',*,*,#420,.F.);
#420 = EDGE_CURVE('',#412,#412,#421,.T.);
#421 = CIRCLE('',#422,10.550435377784);
#422 = AXIS2_PLACEMENT_3D('',#423,#424,#425);
#423 = CARTESIAN_POINT('',(0.,6.88E-15,30.962676825482));
#424 = DIRECTION('',(0.,-2.2E-16,-1.));
#425 = DIRECTION('',(1.,0.,0.));
#426 = ORIENTED_EDGE('',*,*,#411,.F.);
#427 = TOROIDAL_SURFACE('',#428,11.350217688892,0.8);
#428 = AXIS2_PLACEMENT_3D('',#429,#430,#431);
#429 = CARTESIAN_POINT('',(0.,6.88E-15,30.981338412741));
#430 = DIRECTION('',(0.,2.2E-16,1.));
#431 = DIRECTION('',(1.,0.,0.));
#432 = ADVANCED_FACE('',(#433,#453),#464,.T.);
#433 = FACE_BOUND('',#434,.T.);
#434 = EDGE_LOOP('',(#435,#436,#444,#451,#452));
#435 = ORIENTED_EDGE('',*,*,#136,.T.);
#436 = ORIENTED_EDGE('',*,*,#437,.T.);
#437 = EDGE_CURVE('',#137,#438,#440,.T.);
#438 = VERTEX_POINT('',#439);
#439 = CARTESIAN_POINT('',(18.5025,-4.897702905444,4.));
#440 = LINE('',#441,#442);
#441 = CARTESIAN_POINT('',(5.8149,-11.38048056937,4.));
#442 = VECTOR('',#443,1.);
#443 = DIRECTION('',(0.890491437354,0.455,0.));
#444 = ORIENTED_EDGE('',*,*,#445,.F.);
#445 = EDGE_CURVE('',#195,#438,#446,.T.);
#446 = CIRCLE('',#447,5.5);
#447 = AXIS2_PLACEMENT_3D('',#448,#449,#450);
#448 = CARTESIAN_POINT('',(16.,8.800000092353E-16,4.));
#449 = DIRECTION('',(0.,0.,-1.));
#450 = DIRECTION('',(1.,0.,0.));
#451 = ORIENTED_EDGE('',*,*,#202,.F.);
#452 = ORIENTED_EDGE('',*,*,#162,.T.);
#453 = FACE_BOUND('',#454,.T.);
#454 = EDGE_LOOP('',(#455));
#455 = ORIENTED_EDGE('',*,*,#456,.F.);
#456 = EDGE_CURVE('',#457,#457,#459,.T.);
#457 = VERTEX_POINT('',#458);
#458 = CARTESIAN_POINT('',(19.,0.,4.));
#459 = CIRCLE('',#460,3.);
#460 = AXIS2_PLACEMENT_3D('',#461,#462,#463);
#461 = CARTESIAN_POINT('',(16.,0.,4.));
#462 = DIRECTION('',(0.,0.,1.));
#463 = DIRECTION('',(1.,0.,0.));
#464 = PLANE('',#465);
#465 = AXIS2_PLACEMENT_3D('',#466,#467,#468);
#466 = CARTESIAN_POINT('',(5.773409035106E-16,-2.632545253292E-15,4.));
#467 = DIRECTION('',(0.,0.,1.));
#468 = DIRECTION('',(1.,0.,0.));
#469 = ADVANCED_FACE('',(#470),#496,.T.);
#470 = FACE_BOUND('',#471,.F.);
#471 = EDGE_LOOP('',(#472,#480,#489,#495));
#472 = ORIENTED_EDGE('',*,*,#473,.T.);
#473 = EDGE_CURVE('',#137,#474,#476,.T.);
#474 = VERTEX_POINT('',#475);
#475 = CARTESIAN_POINT('',(5.8149,-11.38048056937,0.4));
#476 = LINE('',#477,#478);
#477 = CARTESIAN_POINT('',(5.8149,-11.38048056937,4.));
#478 = VECTOR('',#479,1.);
#479 = DIRECTION('',(0.,0.,-1.));
#480 = ORIENTED_EDGE('',*,*,#481,.T.);
#481 = EDGE_CURVE('',#474,#482,#484,.T.);
#482 = VERTEX_POINT('',#483);
#483 = CARTESIAN_POINT('',(-5.8149,-11.38048056937,0.4));
#484 = CIRCLE('',#485,12.78);
#485 = AXIS2_PLACEMENT_3D('',#486,#487,#488);
#486 = CARTESIAN_POINT('',(1.551574226878E-24,8.800000598672E-16,0.4));
#487 = DIRECTION('',(0.,-0.,-1.));
#488 = DIRECTION('',(0.455,-0.890491437354,0.));
#489 = ORIENTED_EDGE('',*,*,#490,.F.);
#490 = EDGE_CURVE('',#146,#482,#491,.T.);
#491 = LINE('',#492,#493);
#492 = CARTESIAN_POINT('',(-5.8149,-11.38048056937,4.));
#493 = VECTOR('',#494,1.);
#494 = DIRECTION('',(0.,0.,-1.));
#495 = ORIENTED_EDGE('',*,*,#145,.F.);
#496 = CYLINDRICAL_SURFACE('',#497,12.78);
#497 = AXIS2_PLACEMENT_3D('',#498,#499,#500);
#498 = CARTESIAN_POINT('',(1.551574231018E-24,8.800000598672E-16,4.));
#499 = DIRECTION('',(0.,0.,1.));
#500 = DIRECTION('',(1.,0.,0.));
#501 = ADVANCED_FACE('',(#502),#521,.T.);
#502 = FACE_BOUND('',#503,.F.);
#503 = EDGE_LOOP('',(#504,#505,#514,#520));
#504 = ORIENTED_EDGE('',*,*,#194,.T.);
#505 = ORIENTED_EDGE('',*,*,#506,.T.);
#506 = EDGE_CURVE('',#187,#507,#509,.T.);
#507 = VERTEX_POINT('',#508);
#508 = CARTESIAN_POINT('',(18.5025,-4.897702905444,0.4));
#509 = CIRCLE('',#510,5.5);
#510 = AXIS2_PLACEMENT_3D('',#511,#512,#513);
#511 = CARTESIAN_POINT('',(16.,8.800000092353E-16,0.4));
#512 = DIRECTION('',(0.,0.,-1.));
#513 = DIRECTION('',(0.455,0.890491437354,0.));
#514 = ORIENTED_EDGE('',*,*,#515,.F.);
#515 = EDGE_CURVE('',#438,#507,#516,.T.);
#516 = LINE('',#517,#518);
#517 = CARTESIAN_POINT('',(18.5025,-4.897702905444,4.));
#518 = VECTOR('',#519,1.);
#519 = DIRECTION('',(0.,0.,-1.));
#520 = ORIENTED_EDGE('',*,*,#445,.F.);
#521 = CYLINDRICAL_SURFACE('',#522,5.5);
#522 = AXIS2_PLACEMENT_3D('',#523,#524,#525);
#523 = CARTESIAN_POINT('',(16.,8.800000092353E-16,4.));
#524 = DIRECTION('',(0.,0.,1.));
#525 = DIRECTION('',(1.,0.,0.));
#526 = ADVANCED_FACE('',(#527),#538,.F.);
#527 = FACE_BOUND('',#528,.F.);
#528 = EDGE_LOOP('',(#529,#530,#536,#537));
#529 = ORIENTED_EDGE('',*,*,#490,.T.);
#530 = ORIENTED_EDGE('',*,*,#531,.T.);
#531 = EDGE_CURVE('',#482,#219,#532,.T.);
#532 = LINE('',#533,#534);
#533 = CARTESIAN_POINT('',(-5.8149,-11.38048056937,0.4));
#534 = VECTOR('',#535,1.);
#535 = DIRECTION('',(-0.890491437354,0.455,0.));
#536 = ORIENTED_EDGE('',*,*,#216,.F.);
#537 = ORIENTED_EDGE('',*,*,#273,.F.);
#538 = PLANE('',#539);
#539 = AXIS2_PLACEMENT_3D('',#540,#541,#542);
#540 = CARTESIAN_POINT('',(-5.8149,-11.38048056937,4.));
#541 = DIRECTION('',(0.455,0.890491437354,0.));
#542 = DIRECTION('',(-0.890491437354,0.455,0.));
#543 = ADVANCED_FACE('',(#544),#555,.T.);
#544 = FACE_BOUND('',#545,.T.);
#545 = EDGE_LOOP('',(#546,#552,#553,#554));
#546 = ORIENTED_EDGE('',*,*,#547,.F.);
#547 = EDGE_CURVE('',#219,#345,#548,.T.);
#548 = LINE('',#549,#550);
#549 = CARTESIAN_POINT('',(-18.4115,-4.719604617974,0.2));
#550 = VECTOR('',#551,1.);
#551 = DIRECTION('',(0.32173358544,0.629672533941,-0.707106781187));
#552 = ORIENTED_EDGE('',*,*,#226,.T.);
#553 = ORIENTED_EDGE('',*,*,#249,.T.);
#554 = ORIENTED_EDGE('',*,*,#344,.F.);
#555 = CONICAL_SURFACE('',#556,5.5,0.785398163397);
#556 = AXIS2_PLACEMENT_3D('',#557,#558,#559);
#557 = CARTESIAN_POINT('',(-16.,8.800000092353E-16,0.4));
#558 = DIRECTION('',(0.,0.,1.));
#559 = DIRECTION('',(-0.455,-0.890491437354,0.));
#560 = ADVANCED_FACE('',(#561),#580,.F.);
#561 = FACE_BOUND('',#562,.F.);
#562 = EDGE_LOOP('',(#563,#571,#578,#579));
#563 = ORIENTED_EDGE('',*,*,#564,.T.);
#564 = EDGE_CURVE('',#285,#565,#567,.T.);
#565 = VERTEX_POINT('',#566);
#566 = CARTESIAN_POINT('',(-13.,0.,2.));
#567 = LINE('',#568,#569);
#568 = CARTESIAN_POINT('',(-13.,0.,4.));
#569 = VECTOR('',#570,1.);
#570 = DIRECTION('',(-0.,-0.,-1.));
#571 = ORIENTED_EDGE('',*,*,#572,.T.);
#572 = EDGE_CURVE('',#565,#565,#573,.T.);
#573 = CIRCLE('',#574,3.);
#574 = AXIS2_PLACEMENT_3D('',#575,#576,#577);
#575 = CARTESIAN_POINT('',(-16.,0.,2.));
#576 = DIRECTION('',(0.,0.,1.));
#577 = DIRECTION('',(1.,0.,0.));
#578 = ORIENTED_EDGE('',*,*,#564,.F.);
#579 = ORIENTED_EDGE('',*,*,#284,.F.);
#580 = CYLINDRICAL_SURFACE('',#581,3.);
#581 = AXIS2_PLACEMENT_3D('',#582,#583,#584);
#582 = CARTESIAN_POINT('',(-16.,0.,4.));
#583 = DIRECTION('',(0.,0.,1.));
#584 = DIRECTION('',(1.,0.,0.));
#585 = ADVANCED_FACE('',(#586),#605,.F.);
#586 = FACE_BOUND('',#587,.T.);
#587 = EDGE_LOOP('',(#588,#596,#597,#598));
#588 = ORIENTED_EDGE('',*,*,#589,.F.);
#589 = EDGE_CURVE('',#302,#590,#592,.T.);
#590 = VERTEX_POINT('',#591);
#591 = CARTESIAN_POINT('',(10.9,8.800000598672E-16,0.4));
#592 = LINE('',#593,#594);
#593 = CARTESIAN_POINT('',(10.9,8.800000598672E-16,0.4));
#594 = VECTOR('',#595,1.);
#595 = DIRECTION('',(-0.707106781187,6.39689100338E-33,0.707106781187));
#596 = ORIENTED_EDGE('',*,*,#301,.T.);
#597 = ORIENTED_EDGE('',*,*,#589,.T.);
#598 = ORIENTED_EDGE('',*,*,#599,.F.);
#599 = EDGE_CURVE('',#590,#590,#600,.T.);
#600 = CIRCLE('',#601,10.9);
#601 = AXIS2_PLACEMENT_3D('',#602,#603,#604);
#602 = CARTESIAN_POINT('',(1.551574226878E-24,8.800000598672E-16,0.4));
#603 = DIRECTION('',(0.,-0.,-1.));
#604 = DIRECTION('',(1.,-9.046570014002E-33,0.));
#605 = CONICAL_SURFACE('',#606,10.9,0.785398163397);
#606 = AXIS2_PLACEMENT_3D('',#607,#608,#609);
#607 = CARTESIAN_POINT('',(1.551574226878E-24,8.800000598672E-16,0.4));
#608 = DIRECTION('',(-0.,-0.,-1.));
#609 = DIRECTION('',(1.,-9.046570014002E-33,0.));
#610 = ADVANCED_FACE('',(#611),#630,.F.);
#611 = FACE_BOUND('',#612,.T.);
#612 = EDGE_LOOP('',(#613,#621,#622,#623));
#613 = ORIENTED_EDGE('',*,*,#614,.F.);
#614 = EDGE_CURVE('',#313,#615,#617,.T.);
#615 = VERTEX_POINT('',#616);
#616 = CARTESIAN_POINT('',(-14.35,8.800000092353E-16,0.4));
#617 = LINE('',#618,#619);
#618 = CARTESIAN_POINT('',(-14.35,8.800000092353E-16,0.4));
#619 = VECTOR('',#620,1.);
#620 = DIRECTION('',(-0.707106781187,-4.225824965869E-32,0.707106781187)
  );
#621 = ORIENTED_EDGE('',*,*,#312,.T.);
#622 = ORIENTED_EDGE('',*,*,#614,.T.);
#623 = ORIENTED_EDGE('',*,*,#624,.F.);
#624 = EDGE_CURVE('',#615,#615,#625,.T.);
#625 = CIRCLE('',#626,1.65);
#626 = AXIS2_PLACEMENT_3D('',#627,#628,#629);
#627 = CARTESIAN_POINT('',(-16.,8.800000092353E-16,0.4));
#628 = DIRECTION('',(0.,0.,-1.));
#629 = DIRECTION('',(1.,5.976218978947E-32,0.));
#630 = CONICAL_SURFACE('',#631,1.65,0.785398163397);
#631 = AXIS2_PLACEMENT_3D('',#632,#633,#634);
#632 = CARTESIAN_POINT('',(-16.,8.800000092353E-16,0.4));
#633 = DIRECTION('',(-0.,-0.,-1.));
#634 = DIRECTION('',(1.,5.976218978947E-32,0.));
#635 = ADVANCED_FACE('',(#636),#655,.F.);
#636 = FACE_BOUND('',#637,.T.);
#637 = EDGE_LOOP('',(#638,#646,#647,#648));
#638 = ORIENTED_EDGE('',*,*,#639,.F.);
#639 = EDGE_CURVE('',#324,#640,#642,.T.);
#640 = VERTEX_POINT('',#641);
#641 = CARTESIAN_POINT('',(17.65,8.800000092353E-16,0.4));
#642 = LINE('',#643,#644);
#643 = CARTESIAN_POINT('',(17.65,8.800000092353E-16,0.4));
#644 = VECTOR('',#645,1.);
#645 = DIRECTION('',(-0.707106781187,-4.225824965869E-32,0.707106781187)
  );
#646 = ORIENTED_EDGE('',*,*,#323,.T.);
#647 = ORIENTED_EDGE('',*,*,#639,.T.);
#648 = ORIENTED_EDGE('',*,*,#649,.F.);
#649 = EDGE_CURVE('',#640,#640,#650,.T.);
#650 = CIRCLE('',#651,1.65);
#651 = AXIS2_PLACEMENT_3D('',#652,#653,#654);
#652 = CARTESIAN_POINT('',(16.,8.800000092353E-16,0.4));
#653 = DIRECTION('',(0.,0.,-1.));
#654 = DIRECTION('',(1.,5.976218978947E-32,0.));
#655 = CONICAL_SURFACE('',#656,1.65,0.785398163397);
#656 = AXIS2_PLACEMENT_3D('',#657,#658,#659);
#657 = CARTESIAN_POINT('',(16.,8.800000092353E-16,0.4));
#658 = DIRECTION('',(-0.,-0.,-1.));
#659 = DIRECTION('',(1.,5.976218978947E-32,0.));
#660 = ADVANCED_FACE('',(#661),#672,.T.);
#661 = FACE_BOUND('',#662,.T.);
#662 = EDGE_LOOP('',(#663,#664,#665,#671));
#663 = ORIENTED_EDGE('',*,*,#395,.F.);
#664 = ORIENTED_EDGE('',*,*,#506,.T.);
#665 = ORIENTED_EDGE('',*,*,#666,.T.);
#666 = EDGE_CURVE('',#507,#371,#667,.T.);
#667 = LINE('',#668,#669);
#668 = CARTESIAN_POINT('',(18.5025,-4.897702905444,0.4));
#669 = VECTOR('',#670,1.);
#670 = DIRECTION('',(-0.32173358544,0.629672533941,-0.707106781187));
#671 = ORIENTED_EDGE('',*,*,#378,.F.);
#672 = CONICAL_SURFACE('',#673,5.5,0.785398163397);
#673 = AXIS2_PLACEMENT_3D('',#674,#675,#676);
#674 = CARTESIAN_POINT('',(16.,8.800000092353E-16,0.4));
#675 = DIRECTION('',(0.,0.,1.));
#676 = DIRECTION('',(0.455,0.890491437354,0.));
#677 = ADVANCED_FACE('',(#678),#694,.F.);
#678 = FACE_BOUND('',#679,.T.);
#679 = EDGE_LOOP('',(#680,#681,#687,#693));
#680 = ORIENTED_EDGE('',*,*,#666,.F.);
#681 = ORIENTED_EDGE('',*,*,#682,.T.);
#682 = EDGE_CURVE('',#507,#474,#683,.T.);
#683 = LINE('',#684,#685);
#684 = CARTESIAN_POINT('',(18.5025,-4.897702905444,0.4));
#685 = VECTOR('',#686,1.);
#686 = DIRECTION('',(-0.890491437354,-0.455,-0.));
#687 = ORIENTED_EDGE('',*,*,#688,.T.);
#688 = EDGE_CURVE('',#474,#362,#689,.T.);
#689 = LINE('',#690,#691);
#690 = CARTESIAN_POINT('',(5.7239,-11.2023822819,0.2));
#691 = VECTOR('',#692,1.);
#692 = DIRECTION('',(-0.32173358544,0.629672533941,-0.707106781187));
#693 = ORIENTED_EDGE('',*,*,#370,.F.);
#694 = PLANE('',#695);
#695 = AXIS2_PLACEMENT_3D('',#696,#697,#698);
#696 = CARTESIAN_POINT('',(18.4115,-4.719604617974,0.2));
#697 = DIRECTION('',(-0.32173358544,0.629672533941,0.707106781187));
#698 = DIRECTION('',(0.890491437354,0.455,-1.110223024625E-16));
#699 = ADVANCED_FACE('',(#700),#711,.T.);
#700 = FACE_BOUND('',#701,.T.);
#701 = EDGE_LOOP('',(#702,#703,#704,#710));
#702 = ORIENTED_EDGE('',*,*,#688,.F.);
#703 = ORIENTED_EDGE('',*,*,#481,.T.);
#704 = ORIENTED_EDGE('',*,*,#705,.T.);
#705 = EDGE_CURVE('',#482,#354,#706,.T.);
#706 = LINE('',#707,#708);
#707 = CARTESIAN_POINT('',(-5.8149,-11.38048056937,0.4));
#708 = VECTOR('',#709,1.);
#709 = DIRECTION('',(0.32173358544,0.629672533941,-0.707106781187));
#710 = ORIENTED_EDGE('',*,*,#361,.F.);
#711 = CONICAL_SURFACE('',#712,12.78,0.785398163397);
#712 = AXIS2_PLACEMENT_3D('',#713,#714,#715);
#713 = CARTESIAN_POINT('',(1.551574226878E-24,8.800000598672E-16,0.4));
#714 = DIRECTION('',(0.,0.,1.));
#715 = DIRECTION('',(0.455,-0.890491437354,0.));
#716 = ADVANCED_FACE('',(#717),#723,.T.);
#717 = FACE_BOUND('',#718,.T.);
#718 = EDGE_LOOP('',(#719,#720,#721,#722));
#719 = ORIENTED_EDGE('',*,*,#705,.F.);
#720 = ORIENTED_EDGE('',*,*,#531,.T.);
#721 = ORIENTED_EDGE('',*,*,#547,.T.);
#722 = ORIENTED_EDGE('',*,*,#353,.F.);
#723 = PLANE('',#724);
#724 = AXIS2_PLACEMENT_3D('',#725,#726,#727);
#725 = CARTESIAN_POINT('',(-5.7239,-11.2023822819,0.2));
#726 = DIRECTION('',(-0.32173358544,-0.629672533941,-0.707106781187));
#727 = DIRECTION('',(-0.890491437354,0.455,-1.387778780781E-16));
#728 = ADVANCED_FACE('',(#729),#748,.F.);
#729 = FACE_BOUND('',#730,.F.);
#730 = EDGE_LOOP('',(#731,#739,#740,#741));
#731 = ORIENTED_EDGE('',*,*,#732,.F.);
#732 = EDGE_CURVE('',#412,#733,#735,.T.);
#733 = VERTEX_POINT('',#734);
#734 = CARTESIAN_POINT('',(11.179564503712,0.,4.));
#735 = LINE('',#736,#737);
#736 = CARTESIAN_POINT('',(10.550435377784,0.,30.962676825482));
#737 = VECTOR('',#738,1.);
#738 = DIRECTION('',(2.332698407398E-02,0.,-0.999727888885));
#739 = ORIENTED_EDGE('',*,*,#420,.T.);
#740 = ORIENTED_EDGE('',*,*,#732,.T.);
#741 = ORIENTED_EDGE('',*,*,#742,.F.);
#742 = EDGE_CURVE('',#733,#733,#743,.T.);
#743 = CIRCLE('',#744,11.179564503712);
#744 = AXIS2_PLACEMENT_3D('',#745,#746,#747);
#745 = CARTESIAN_POINT('',(0.,8.9E-16,4.));
#746 = DIRECTION('',(0.,-2.2E-16,-1.));
#747 = DIRECTION('',(1.,0.,0.));
#748 = CONICAL_SURFACE('',#749,10.550435377784,2.332910014819E-02);
#749 = AXIS2_PLACEMENT_3D('',#750,#751,#752);
#750 = CARTESIAN_POINT('',(0.,6.88E-15,30.962676825482));
#751 = DIRECTION('',(-0.,-2.2E-16,-1.));
#752 = DIRECTION('',(1.,0.,0.));
#753 = ADVANCED_FACE('',(#754),#760,.T.);
#754 = FACE_BOUND('',#755,.T.);
#755 = EDGE_LOOP('',(#756,#757,#758,#759));
#756 = ORIENTED_EDGE('',*,*,#473,.T.);
#757 = ORIENTED_EDGE('',*,*,#682,.F.);
#758 = ORIENTED_EDGE('',*,*,#515,.F.);
#759 = ORIENTED_EDGE('',*,*,#437,.F.);
#760 = PLANE('',#761);
#761 = AXIS2_PLACEMENT_3D('',#762,#763,#764);
#762 = CARTESIAN_POINT('',(5.8149,-11.38048056937,4.));
#763 = DIRECTION('',(0.455,-0.890491437354,0.));
#764 = DIRECTION('',(0.890491437354,0.455,0.));
#765 = ADVANCED_FACE('',(#766),#785,.F.);
#766 = FACE_BOUND('',#767,.F.);
#767 = EDGE_LOOP('',(#768,#776,#783,#784));
#768 = ORIENTED_EDGE('',*,*,#769,.T.);
#769 = EDGE_CURVE('',#457,#770,#772,.T.);
#770 = VERTEX_POINT('',#771);
#771 = CARTESIAN_POINT('',(19.,0.,2.));
#772 = LINE('',#773,#774);
#773 = CARTESIAN_POINT('',(19.,0.,4.));
#774 = VECTOR('',#775,1.);
#775 = DIRECTION('',(-0.,-0.,-1.));
#776 = ORIENTED_EDGE('',*,*,#777,.T.);
#777 = EDGE_CURVE('',#770,#770,#778,.T.);
#778 = CIRCLE('',#779,3.);
#779 = AXIS2_PLACEMENT_3D('',#780,#781,#782);
#780 = CARTESIAN_POINT('',(16.,0.,2.));
#781 = DIRECTION('',(0.,0.,1.));
#782 = DIRECTION('',(1.,0.,0.));
#783 = ORIENTED_EDGE('',*,*,#769,.F.);
#784 = ORIENTED_EDGE('',*,*,#456,.F.);
#785 = CYLINDRICAL_SURFACE('',#786,3.);
#786 = AXIS2_PLACEMENT_3D('',#787,#788,#789);
#787 = CARTESIAN_POINT('',(16.,0.,4.));
#788 = DIRECTION('',(0.,0.,1.));
#789 = DIRECTION('',(1.,0.,0.));
#790 = ADVANCED_FACE('',(#791,#794),#805,.T.);
#791 = FACE_BOUND('',#792,.T.);
#792 = EDGE_LOOP('',(#793));
#793 = ORIENTED_EDGE('',*,*,#572,.T.);
#794 = FACE_BOUND('',#795,.T.);
#795 = EDGE_LOOP('',(#796));
#796 = ORIENTED_EDGE('',*,*,#797,.F.);
#797 = EDGE_CURVE('',#798,#798,#800,.T.);
#798 = VERTEX_POINT('',#799);
#799 = CARTESIAN_POINT('',(-14.35,8.800000092353E-16,2.));
#800 = CIRCLE('',#801,1.65);
#801 = AXIS2_PLACEMENT_3D('',#802,#803,#804);
#802 = CARTESIAN_POINT('',(-16.,8.800000092353E-16,2.));
#803 = DIRECTION('',(0.,0.,1.));
#804 = DIRECTION('',(1.,0.,0.));
#805 = PLANE('',#806);
#806 = AXIS2_PLACEMENT_3D('',#807,#808,#809);
#807 = CARTESIAN_POINT('',(-2.279066887566E-16,-4.255667768225E-18,2.));
#808 = DIRECTION('',(0.,0.,1.));
#809 = DIRECTION('',(1.,0.,0.));
#810 = ADVANCED_FACE('',(#811),#830,.F.);
#811 = FACE_BOUND('',#812,.T.);
#812 = EDGE_LOOP('',(#813,#821,#822,#823));
#813 = ORIENTED_EDGE('',*,*,#814,.T.);
#814 = EDGE_CURVE('',#815,#590,#817,.T.);
#815 = VERTEX_POINT('',#816);
#816 = CARTESIAN_POINT('',(10.9,8.800000598672E-16,4.));
#817 = LINE('',#818,#819);
#818 = CARTESIAN_POINT('',(10.9,8.800000598672E-16,4.));
#819 = VECTOR('',#820,1.);
#820 = DIRECTION('',(0.,0.,-1.));
#821 = ORIENTED_EDGE('',*,*,#599,.T.);
#822 = ORIENTED_EDGE('',*,*,#814,.F.);
#823 = ORIENTED_EDGE('',*,*,#824,.F.);
#824 = EDGE_CURVE('',#815,#815,#825,.T.);
#825 = CIRCLE('',#826,10.9);
#826 = AXIS2_PLACEMENT_3D('',#827,#828,#829);
#827 = CARTESIAN_POINT('',(1.551574231018E-24,8.800000598672E-16,4.));
#828 = DIRECTION('',(0.,0.,-1.));
#829 = DIRECTION('',(1.,0.,0.));
#830 = CYLINDRICAL_SURFACE('',#831,10.9);
#831 = AXIS2_PLACEMENT_3D('',#832,#833,#834);
#832 = CARTESIAN_POINT('',(1.551574231018E-24,8.800000598672E-16,4.));
#833 = DIRECTION('',(0.,0.,1.));
#834 = DIRECTION('',(1.,0.,0.));
#835 = ADVANCED_FACE('',(#836),#847,.F.);
#836 = FACE_BOUND('',#837,.T.);
#837 = EDGE_LOOP('',(#838,#844,#845,#846));
#838 = ORIENTED_EDGE('',*,*,#839,.F.);
#839 = EDGE_CURVE('',#798,#615,#840,.T.);
#840 = LINE('',#841,#842);
#841 = CARTESIAN_POINT('',(-14.35,8.800000092353E-16,4.));
#842 = VECTOR('',#843,1.);
#843 = DIRECTION('',(0.,0.,-1.));
#844 = ORIENTED_EDGE('',*,*,#797,.T.);
#845 = ORIENTED_EDGE('',*,*,#839,.T.);
#846 = ORIENTED_EDGE('',*,*,#624,.T.);
#847 = CYLINDRICAL_SURFACE('',#848,1.65);
#848 = AXIS2_PLACEMENT_3D('',#849,#850,#851);
#849 = CARTESIAN_POINT('',(-16.,8.800000092353E-16,4.));
#850 = DIRECTION('',(0.,0.,1.));
#851 = DIRECTION('',(1.,0.,0.));
#852 = ADVANCED_FACE('',(#853),#872,.F.);
#853 = FACE_BOUND('',#854,.T.);
#854 = EDGE_LOOP('',(#855,#863,#870,#871));
#855 = ORIENTED_EDGE('',*,*,#856,.F.);
#856 = EDGE_CURVE('',#857,#640,#859,.T.);
#857 = VERTEX_POINT('',#858);
#858 = CARTESIAN_POINT('',(17.65,8.800000092353E-16,2.));
#859 = LINE('',#860,#861);
#860 = CARTESIAN_POINT('',(17.65,8.800000092353E-16,4.));
#861 = VECTOR('',#862,1.);
#862 = DIRECTION('',(0.,0.,-1.));
#863 = ORIENTED_EDGE('',*,*,#864,.T.);
#864 = EDGE_CURVE('',#857,#857,#865,.T.);
#865 = CIRCLE('',#866,1.65);
#866 = AXIS2_PLACEMENT_3D('',#867,#868,#869);
#867 = CARTESIAN_POINT('',(16.,8.800000092353E-16,2.));
#868 = DIRECTION('',(0.,0.,1.));
#869 = DIRECTION('',(1.,0.,0.));
#870 = ORIENTED_EDGE('',*,*,#856,.T.);
#871 = ORIENTED_EDGE('',*,*,#649,.T.);
#872 = CYLINDRICAL_SURFACE('',#873,1.65);
#873 = AXIS2_PLACEMENT_3D('',#874,#875,#876);
#874 = CARTESIAN_POINT('',(16.,8.800000092353E-16,4.));
#875 = DIRECTION('',(0.,0.,1.));
#876 = DIRECTION('',(1.,0.,0.));
#877 = ADVANCED_FACE('',(#878,#881),#884,.T.);
#878 = FACE_BOUND('',#879,.T.);
#879 = EDGE_LOOP('',(#880));
#880 = ORIENTED_EDGE('',*,*,#742,.F.);
#881 = FACE_BOUND('',#882,.T.);
#882 = EDGE_LOOP('',(#883));
#883 = ORIENTED_EDGE('',*,*,#824,.T.);
#884 = PLANE('',#885);
#885 = AXIS2_PLACEMENT_3D('',#886,#887,#888);
#886 = CARTESIAN_POINT('',(5.773409035106E-16,-2.632545253292E-15,4.));
#887 = DIRECTION('',(0.,0.,1.));
#888 = DIRECTION('',(1.,0.,0.));
#889 = ADVANCED_FACE('',(#890,#893),#896,.T.);
#890 = FACE_BOUND('',#891,.T.);
#891 = EDGE_LOOP('',(#892));
#892 = ORIENTED_EDGE('',*,*,#777,.T.);
#893 = FACE_BOUND('',#894,.T.);
#894 = EDGE_LOOP('',(#895));
#895 = ORIENTED_EDGE('',*,*,#864,.F.);
#896 = PLANE('',#897);
#897 = AXIS2_PLACEMENT_3D('',#898,#899,#900);
#898 = CARTESIAN_POINT('',(-2.279066887566E-16,-4.255667768225E-18,2.));
#899 = DIRECTION('',(0.,0.,1.));
#900 = DIRECTION('',(1.,0.,0.));
#901 = ( GEOMETRIC_REPRESENTATION_CONTEXT(3) 
GLOBAL_UNCERTAINTY_ASSIGNED_CONTEXT((#905)) GLOBAL_UNIT_ASSIGNED_CONTEXT
((#902,#903,#904)) REPRESENTATION_CONTEXT('Context #1',
  '3D Context with UNIT and UNCERTAINTY') );
#902 = ( LENGTH_UNIT() NAMED_UNIT(*) SI_UNIT(.MILLI.,.METRE.) );
#903 = ( NAMED_UNIT(*) PLANE_ANGLE_UNIT() SI_UNIT($,.RADIAN.) );
#904 = ( NAMED_UNIT(*) SI_UNIT($,.STERADIAN.) SOLID_ANGLE_UNIT() );
#905 = UNCERTAINTY_MEASURE_WITH_UNIT(LENGTH_MEASURE(1.E-07),#902,
  'distance_accuracy_value','confusion accuracy');
#906 = PRODUCT_RELATED_PRODUCT_CATEGORY('part',$,(#7));
#907 = MECHANICAL_DESIGN_GEOMETRIC_PRESENTATION_REPRESENTATION('',(#908)
  ,#901);
#908 = STYLED_ITEM('color',(#909),#15);
#909 = PRESENTATION_STYLE_ASSIGNMENT((#910,#916));
#910 = SURFACE_STYLE_USAGE(.BOTH.,#911);
#911 = SURFACE_SIDE_STYLE('',(#912));
#912 = SURFACE_STYLE_FILL_AREA(#913);
#913 = FILL_AREA_STYLE('',(#914));
#914 = FILL_AREA_STYLE_COLOUR('',#915);
#915 = COLOUR_RGB('',0.678431390124,0.709803936702,0.741176476869);
#916 = CURVE_STYLE('',#917,POSITIVE_LENGTH_MEASURE(0.1),#918);
#917 = DRAUGHTING_PRE_DEFINED_CURVE_FONT('continuous');
#918 = COLOUR_RGB('',9.803921802644E-02,9.803921802644E-02,
  9.803921802644E-02);
ENDSEC;
END-ISO-10303-21;
