ISO-10303-21;
HEADER;
FILE_DESCRIPTION(('FreeCAD Model'),'2;1');
FILE_NAME('Open CASCADE Shape Model','2026-07-13T14:25:45',(''),(''),
  'Open CASCADE STEP processor 7.8','FreeCAD','Unknown');
FILE_SCHEMA(('AUTOMOTIVE_DESIGN { 1 0 10303 214 1 1 1 1 }'));
ENDSEC;
DATA;
#1 = APPLICATION_PROTOCOL_DEFINITION('international standard',
  'automotive_design',2000,#2);
#2 = APPLICATION_CONTEXT(
  'core data for automotive mechanical design processes');
#3 = SHAPE_DEFINITION_REPRESENTATION(#4,#10);
#4 = PRODUCT_DEFINITION_SHAPE('','',#5);
#5 = PRODUCT_DEFINITION('design','',#6,#9);
#6 = PRODUCT_DEFINITION_FORMATION('','',#7);
#7 = PRODUCT('12.5mmHoseAdapter','12.5mmHoseAdapter','',(#8));
#8 = PRODUCT_CONTEXT('',#2,'mechanical');
#9 = PRODUCT_DEFINITION_CONTEXT('part definition',#2,'design');
#10 = ADVANCED_BREP_SHAPE_REPRESENTATION('',(#11,#15),#1035);
#11 = AXIS2_PLACEMENT_3D('',#12,#13,#14);
#12 = CARTESIAN_POINT('',(0.,0.,0.));
#13 = DIRECTION('',(0.,0.,1.));
#14 = DIRECTION('',(1.,0.,-0.));
#15 = MANIFOLD_SOLID_BREP('',#16);
#16 = CLOSED_SHELL('',(#17,#59,#90,#122,#182,#213,#246,#270,#298,#390,
    #407,#432,#469,#501,#526,#543,#560,#585,#610,#635,#660,#677,#694,
    #711,#728,#754,#766,#791,#811,#836,#853,#878,#903,#915,#941,#967,
    #992,#1017));
#17 = ADVANCED_FACE('',(#18),#54,.T.);
#18 = FACE_BOUND('',#19,.F.);
#19 = EDGE_LOOP('',(#20,#30,#39,#47));
#20 = ORIENTED_EDGE('',*,*,#21,.T.);
#21 = EDGE_CURVE('',#22,#24,#26,.T.);
#22 = VERTEX_POINT('',#23);
#23 = CARTESIAN_POINT('',(-5.46875,11.240230132764,4.));
#24 = VERTEX_POINT('',#25);
#25 = CARTESIAN_POINT('',(-5.46875,11.240230132764,0.4));
#26 = LINE('',#27,#28);
#27 = CARTESIAN_POINT('',(-5.46875,11.240230132764,4.));
#28 = VECTOR('',#29,1.);
#29 = DIRECTION('',(0.,0.,-1.));
#30 = ORIENTED_EDGE('',*,*,#31,.T.);
#31 = EDGE_CURVE('',#24,#32,#34,.T.);
#32 = VERTEX_POINT('',#33);
#33 = CARTESIAN_POINT('',(5.46875,11.240230132764,0.4));
#34 = CIRCLE('',#35,12.5);
#35 = AXIS2_PLACEMENT_3D('',#36,#37,#38);
#36 = CARTESIAN_POINT('',(0.,8.799999952648E-16,0.4));
#37 = DIRECTION('',(0.,0.,-1.));
#38 = DIRECTION('',(-0.4375,0.899218410621,0.));
#39 = ORIENTED_EDGE('',*,*,#40,.F.);
#40 = EDGE_CURVE('',#41,#32,#43,.T.);
#41 = VERTEX_POINT('',#42);
#42 = CARTESIAN_POINT('',(5.46875,11.240230132764,4.));
#43 = LINE('',#44,#45);
#44 = CARTESIAN_POINT('',(5.46875,11.240230132764,4.));
#45 = VECTOR('',#46,1.);
#46 = DIRECTION('',(0.,0.,-1.));
#47 = ORIENTED_EDGE('',*,*,#48,.F.);
#48 = EDGE_CURVE('',#22,#41,#49,.T.);
#49 = CIRCLE('',#50,12.5);
#50 = AXIS2_PLACEMENT_3D('',#51,#52,#53);
#51 = CARTESIAN_POINT('',(0.,8.9E-16,4.));
#52 = DIRECTION('',(0.,-2.2E-16,-1.));
#53 = DIRECTION('',(1.,0.,0.));
#54 = CYLINDRICAL_SURFACE('',#55,12.5);
#55 = AXIS2_PLACEMENT_3D('',#56,#57,#58);
#56 = CARTESIAN_POINT('',(0.,8.799999952648E-16,4.));
#57 = DIRECTION('',(0.,0.,1.));
#58 = DIRECTION('',(1.,0.,0.));
#59 = ADVANCED_FACE('',(#60),#85,.F.);
#60 = FACE_BOUND('',#61,.F.);
#61 = EDGE_LOOP('',(#62,#72,#78,#79));
#62 = ORIENTED_EDGE('',*,*,#63,.T.);
#63 = EDGE_CURVE('',#64,#66,#68,.T.);
#64 = VERTEX_POINT('',#65);
#65 = CARTESIAN_POINT('',(-18.40625,4.945701258416,4.));
#66 = VERTEX_POINT('',#67);
#67 = CARTESIAN_POINT('',(-18.40625,4.945701258416,0.4));
#68 = LINE('',#69,#70);
#69 = CARTESIAN_POINT('',(-18.40625,4.945701258416,4.));
#70 = VECTOR('',#71,1.);
#71 = DIRECTION('',(0.,0.,-1.));
#72 = ORIENTED_EDGE('',*,*,#73,.T.);
#73 = EDGE_CURVE('',#66,#24,#74,.T.);
#74 = LINE('',#75,#76);
#75 = CARTESIAN_POINT('',(-18.40625,4.945701258416,0.4));
#76 = VECTOR('',#77,1.);
#77 = DIRECTION('',(0.899218410621,0.4375,0.));
#78 = ORIENTED_EDGE('',*,*,#21,.F.);
#79 = ORIENTED_EDGE('',*,*,#80,.F.);
#80 = EDGE_CURVE('',#64,#22,#81,.T.);
#81 = LINE('',#82,#83);
#82 = CARTESIAN_POINT('',(-18.40625,4.945701258416,4.));
#83 = VECTOR('',#84,1.);
#84 = DIRECTION('',(0.899218410621,0.4375,0.));
#85 = PLANE('',#86);
#86 = AXIS2_PLACEMENT_3D('',#87,#88,#89);
#87 = CARTESIAN_POINT('',(-18.40625,4.945701258416,4.));
#88 = DIRECTION('',(0.4375,-0.899218410621,0.));
#89 = DIRECTION('',(0.899218410621,0.4375,0.));
#90 = ADVANCED_FACE('',(#91),#117,.T.);
#91 = FACE_BOUND('',#92,.T.);
#92 = EDGE_LOOP('',(#93,#101,#102,#110));
#93 = ORIENTED_EDGE('',*,*,#94,.F.);
#94 = EDGE_CURVE('',#24,#95,#97,.T.);
#95 = VERTEX_POINT('',#96);
#96 = CARTESIAN_POINT('',(-5.29375,10.880542768516,1.665334536938E-16));
#97 = LINE('',#98,#99);
#98 = CARTESIAN_POINT('',(-5.38125,11.06038645064,0.2));
#99 = VECTOR('',#100,1.);
#100 = DIRECTION('',(0.309359216769,-0.635843435918,-0.707106781187));
#101 = ORIENTED_EDGE('',*,*,#31,.T.);
#102 = ORIENTED_EDGE('',*,*,#103,.T.);
#103 = EDGE_CURVE('',#32,#104,#106,.T.);
#104 = VERTEX_POINT('',#105);
#105 = CARTESIAN_POINT('',(5.29375,10.880542768516,0.));
#106 = LINE('',#107,#108);
#107 = CARTESIAN_POINT('',(5.46875,11.240230132764,0.4));
#108 = VECTOR('',#109,1.);
#109 = DIRECTION('',(-0.309359216769,-0.635843435918,-0.707106781187));
#110 = ORIENTED_EDGE('',*,*,#111,.F.);
#111 = EDGE_CURVE('',#95,#104,#112,.T.);
#112 = CIRCLE('',#113,12.1);
#113 = AXIS2_PLACEMENT_3D('',#114,#115,#116);
#114 = CARTESIAN_POINT('',(0.,8.799999952648E-16,0.));
#115 = DIRECTION('',(0.,0.,-1.));
#116 = DIRECTION('',(-0.4375,0.899218410621,0.));
#117 = CONICAL_SURFACE('',#118,12.5,0.785398163397);
#118 = AXIS2_PLACEMENT_3D('',#119,#120,#121);
#119 = CARTESIAN_POINT('',(0.,8.799999952648E-16,0.4));
#120 = DIRECTION('',(0.,0.,1.));
#121 = DIRECTION('',(-0.4375,0.899218410621,0.));
#122 = ADVANCED_FACE('',(#123),#177,.T.);
#123 = FACE_BOUND('',#124,.F.);
#124 = EDGE_LOOP('',(#125,#136,#143,#144,#153,#162,#169,#170));
#125 = ORIENTED_EDGE('',*,*,#126,.F.);
#126 = EDGE_CURVE('',#127,#129,#131,.T.);
#127 = VERTEX_POINT('',#128);
#128 = CARTESIAN_POINT('',(12.5,0.,4.));
#129 = VERTEX_POINT('',#130);
#130 = CARTESIAN_POINT('',(11.553465742482,0.,6.187070745187));
#131 = CIRCLE('',#132,3.);
#132 = AXIS2_PLACEMENT_3D('',#133,#134,#135);
#133 = CARTESIAN_POINT('',(9.5,0.,4.));
#134 = DIRECTION('',(0.,-1.,0.));
#135 = DIRECTION('',(1.,0.,0.));
#136 = ORIENTED_EDGE('',*,*,#137,.F.);
#137 = EDGE_CURVE('',#41,#127,#138,.T.);
#138 = CIRCLE('',#139,12.5);
#139 = AXIS2_PLACEMENT_3D('',#140,#141,#142);
#140 = CARTESIAN_POINT('',(0.,8.9E-16,4.));
#141 = DIRECTION('',(0.,-2.2E-16,-1.));
#142 = DIRECTION('',(1.,0.,0.));
#143 = ORIENTED_EDGE('',*,*,#48,.F.);
#144 = ORIENTED_EDGE('',*,*,#145,.F.);
#145 = EDGE_CURVE('',#146,#22,#148,.T.);
#146 = VERTEX_POINT('',#147);
#147 = CARTESIAN_POINT('',(-5.46875,-11.24023013276,4.));
#148 = CIRCLE('',#149,12.5);
#149 = AXIS2_PLACEMENT_3D('',#150,#151,#152);
#150 = CARTESIAN_POINT('',(0.,8.9E-16,4.));
#151 = DIRECTION('',(0.,-2.2E-16,-1.));
#152 = DIRECTION('',(1.,0.,0.));
#153 = ORIENTED_EDGE('',*,*,#154,.F.);
#154 = EDGE_CURVE('',#155,#146,#157,.T.);
#155 = VERTEX_POINT('',#156);
#156 = CARTESIAN_POINT('',(5.46875,-11.24023013276,4.));
#157 = CIRCLE('',#158,12.5);
#158 = AXIS2_PLACEMENT_3D('',#159,#160,#161);
#159 = CARTESIAN_POINT('',(0.,8.9E-16,4.));
#160 = DIRECTION('',(0.,-2.2E-16,-1.));
#161 = DIRECTION('',(1.,0.,0.));
#162 = ORIENTED_EDGE('',*,*,#163,.F.);
#163 = EDGE_CURVE('',#127,#155,#164,.T.);
#164 = CIRCLE('',#165,12.5);
#165 = AXIS2_PLACEMENT_3D('',#166,#167,#168);
#166 = CARTESIAN_POINT('',(0.,8.9E-16,4.));
#167 = DIRECTION('',(0.,-2.2E-16,-1.));
#168 = DIRECTION('',(1.,0.,0.));
#169 = ORIENTED_EDGE('',*,*,#126,.T.);
#170 = ORIENTED_EDGE('',*,*,#171,.T.);
#171 = EDGE_CURVE('',#129,#129,#172,.T.);
#172 = CIRCLE('',#173,11.553465742482);
#173 = AXIS2_PLACEMENT_3D('',#174,#175,#176);
#174 = CARTESIAN_POINT('',(0.,1.37E-15,6.187070745187));
#175 = DIRECTION('',(0.,-2.2E-16,-1.));
#176 = DIRECTION('',(1.,0.,0.));
#177 = TOROIDAL_SURFACE('',#178,9.5,3.);
#178 = AXIS2_PLACEMENT_3D('',#179,#180,#181);
#179 = CARTESIAN_POINT('',(0.,8.9E-16,4.));
#180 = DIRECTION('',(0.,2.2E-16,1.));
#181 = DIRECTION('',(1.,0.,0.));
#182 = ADVANCED_FACE('',(#183),#208,.F.);
#183 = FACE_BOUND('',#184,.F.);
#184 = EDGE_LOOP('',(#185,#186,#194,#202));
#185 = ORIENTED_EDGE('',*,*,#40,.T.);
#186 = ORIENTED_EDGE('',*,*,#187,.T.);
#187 = EDGE_CURVE('',#32,#188,#190,.T.);
#188 = VERTEX_POINT('',#189);
#189 = CARTESIAN_POINT('',(18.40625,4.945701258416,0.4));
#190 = LINE('',#191,#192);
#191 = CARTESIAN_POINT('',(5.46875,11.240230132764,0.4));
#192 = VECTOR('',#193,1.);
#193 = DIRECTION('',(0.899218410621,-0.4375,0.));
#194 = ORIENTED_EDGE('',*,*,#195,.F.);
#195 = EDGE_CURVE('',#196,#188,#198,.T.);
#196 = VERTEX_POINT('',#197);
#197 = CARTESIAN_POINT('',(18.40625,4.945701258416,4.));
#198 = LINE('',#199,#200);
#199 = CARTESIAN_POINT('',(18.40625,4.945701258416,4.));
#200 = VECTOR('',#201,1.);
#201 = DIRECTION('',(0.,0.,-1.));
#202 = ORIENTED_EDGE('',*,*,#203,.F.);
#203 = EDGE_CURVE('',#41,#196,#204,.T.);
#204 = LINE('',#205,#206);
#205 = CARTESIAN_POINT('',(5.46875,11.240230132764,4.));
#206 = VECTOR('',#207,1.);
#207 = DIRECTION('',(0.899218410621,-0.4375,0.));
#208 = PLANE('',#209);
#209 = AXIS2_PLACEMENT_3D('',#210,#211,#212);
#210 = CARTESIAN_POINT('',(5.46875,11.240230132764,4.));
#211 = DIRECTION('',(-0.4375,-0.899218410621,-0.));
#212 = DIRECTION('',(0.899218410621,-0.4375,0.));
#213 = ADVANCED_FACE('',(#214),#241,.T.);
#214 = FACE_BOUND('',#215,.F.);
#215 = EDGE_LOOP('',(#216,#226,#233,#234));
#216 = ORIENTED_EDGE('',*,*,#217,.T.);
#217 = EDGE_CURVE('',#218,#220,#222,.T.);
#218 = VERTEX_POINT('',#219);
#219 = CARTESIAN_POINT('',(-18.40625,-4.945701258416,4.));
#220 = VERTEX_POINT('',#221);
#221 = CARTESIAN_POINT('',(-18.40625,-4.945701258416,0.4));
#222 = LINE('',#223,#224);
#223 = CARTESIAN_POINT('',(-18.40625,-4.945701258416,4.));
#224 = VECTOR('',#225,1.);
#225 = DIRECTION('',(0.,0.,-1.));
#226 = ORIENTED_EDGE('',*,*,#227,.T.);
#227 = EDGE_CURVE('',#220,#66,#228,.T.);
#228 = CIRCLE('',#229,5.5);
#229 = AXIS2_PLACEMENT_3D('',#230,#231,#232);
#230 = CARTESIAN_POINT('',(-16.,8.799999916523E-16,0.4));
#231 = DIRECTION('',(-0.,0.,-1.));
#232 = DIRECTION('',(-0.4375,-0.899218410621,0.));
#233 = ORIENTED_EDGE('',*,*,#63,.F.);
#234 = ORIENTED_EDGE('',*,*,#235,.F.);
#235 = EDGE_CURVE('',#218,#64,#236,.T.);
#236 = CIRCLE('',#237,5.5);
#237 = AXIS2_PLACEMENT_3D('',#238,#239,#240);
#238 = CARTESIAN_POINT('',(-16.,8.799999916523E-16,4.));
#239 = DIRECTION('',(0.,0.,-1.));
#240 = DIRECTION('',(1.,0.,0.));
#241 = CYLINDRICAL_SURFACE('',#242,5.5);
#242 = AXIS2_PLACEMENT_3D('',#243,#244,#245);
#243 = CARTESIAN_POINT('',(-16.,8.799999916523E-16,4.));
#244 = DIRECTION('',(0.,0.,1.));
#245 = DIRECTION('',(1.,0.,0.));
#246 = ADVANCED_FACE('',(#247),#265,.T.);
#247 = FACE_BOUND('',#248,.T.);
#248 = EDGE_LOOP('',(#249,#257,#258,#259));
#249 = ORIENTED_EDGE('',*,*,#250,.F.);
#250 = EDGE_CURVE('',#66,#251,#253,.T.);
#251 = VERTEX_POINT('',#252);
#252 = CARTESIAN_POINT('',(-18.23125,4.586013894168,-6.383782391595E-16)
  );
#253 = LINE('',#254,#255);
#254 = CARTESIAN_POINT('',(-18.31875,4.765857576292,0.2));
#255 = VECTOR('',#256,1.);
#256 = DIRECTION('',(0.309359216769,-0.635843435918,-0.707106781187));
#257 = ORIENTED_EDGE('',*,*,#73,.T.);
#258 = ORIENTED_EDGE('',*,*,#94,.T.);
#259 = ORIENTED_EDGE('',*,*,#260,.F.);
#260 = EDGE_CURVE('',#251,#95,#261,.T.);
#261 = LINE('',#262,#263);
#262 = CARTESIAN_POINT('',(-18.23125,4.586013894168,0.));
#263 = VECTOR('',#264,1.);
#264 = DIRECTION('',(0.899218410621,0.4375,0.));
#265 = PLANE('',#266);
#266 = AXIS2_PLACEMENT_3D('',#267,#268,#269);
#267 = CARTESIAN_POINT('',(-18.31875,4.765857576292,0.2));
#268 = DIRECTION('',(-0.309359216769,0.635843435918,-0.707106781187));
#269 = DIRECTION('',(0.899218410621,0.4375,5.551115123126E-17));
#270 = ADVANCED_FACE('',(#271,#282),#293,.T.);
#271 = FACE_BOUND('',#272,.T.);
#272 = EDGE_LOOP('',(#273,#279,#280,#281));
#273 = ORIENTED_EDGE('',*,*,#274,.F.);
#274 = EDGE_CURVE('',#146,#218,#275,.T.);
#275 = LINE('',#276,#277);
#276 = CARTESIAN_POINT('',(-5.46875,-11.24023013276,4.));
#277 = VECTOR('',#278,1.);
#278 = DIRECTION('',(-0.899218410621,0.4375,-0.));
#279 = ORIENTED_EDGE('',*,*,#145,.T.);
#280 = ORIENTED_EDGE('',*,*,#80,.F.);
#281 = ORIENTED_EDGE('',*,*,#235,.F.);
#282 = FACE_BOUND('',#283,.T.);
#283 = EDGE_LOOP('',(#284));
#284 = ORIENTED_EDGE('',*,*,#285,.F.);
#285 = EDGE_CURVE('',#286,#286,#288,.T.);
#286 = VERTEX_POINT('',#287);
#287 = CARTESIAN_POINT('',(-13.,0.,4.));
#288 = CIRCLE('',#289,3.);
#289 = AXIS2_PLACEMENT_3D('',#290,#291,#292);
#290 = CARTESIAN_POINT('',(-16.,0.,4.));
#291 = DIRECTION('',(0.,0.,1.));
#292 = DIRECTION('',(1.,0.,0.));
#293 = PLANE('',#294);
#294 = AXIS2_PLACEMENT_3D('',#295,#296,#297);
#295 = CARTESIAN_POINT('',(-5.202092904063E-15,1.481622201927E-15,4.));
#296 = DIRECTION('',(0.,0.,1.));
#297 = DIRECTION('',(1.,0.,0.));
#298 = ADVANCED_FACE('',(#299,#310,#321,#332),#385,.F.);
#299 = FACE_BOUND('',#300,.F.);
#300 = EDGE_LOOP('',(#301));
#301 = ORIENTED_EDGE('',*,*,#302,.T.);
#302 = EDGE_CURVE('',#303,#303,#305,.T.);
#303 = VERTEX_POINT('',#304);
#304 = CARTESIAN_POINT('',(11.1,8.799999952648E-16,0.));
#305 = CIRCLE('',#306,11.1);
#306 = AXIS2_PLACEMENT_3D('',#307,#308,#309);
#307 = CARTESIAN_POINT('',(0.,8.799999952648E-16,0.));
#308 = DIRECTION('',(0.,0.,-1.));
#309 = DIRECTION('',(1.,0.,0.));
#310 = FACE_BOUND('',#311,.F.);
#311 = EDGE_LOOP('',(#312));
#312 = ORIENTED_EDGE('',*,*,#313,.T.);
#313 = EDGE_CURVE('',#314,#314,#316,.T.);
#314 = VERTEX_POINT('',#315);
#315 = CARTESIAN_POINT('',(-13.95,8.799999916523E-16,1.110223024625E-16)
  );
#316 = CIRCLE('',#317,2.05);
#317 = AXIS2_PLACEMENT_3D('',#318,#319,#320);
#318 = CARTESIAN_POINT('',(-16.,8.799999916523E-16,0.));
#319 = DIRECTION('',(0.,0.,-1.));
#320 = DIRECTION('',(1.,0.,0.));
#321 = FACE_BOUND('',#322,.F.);
#322 = EDGE_LOOP('',(#323));
#323 = ORIENTED_EDGE('',*,*,#324,.T.);
#324 = EDGE_CURVE('',#325,#325,#327,.T.);
#325 = VERTEX_POINT('',#326);
#326 = CARTESIAN_POINT('',(18.05,8.799999916523E-16,1.110223024625E-16)
  );
#327 = CIRCLE('',#328,2.05);
#328 = AXIS2_PLACEMENT_3D('',#329,#330,#331);
#329 = CARTESIAN_POINT('',(16.,8.799999916523E-16,0.));
#330 = DIRECTION('',(0.,0.,-1.));
#331 = DIRECTION('',(1.,0.,0.));
#332 = FACE_BOUND('',#333,.F.);
#333 = EDGE_LOOP('',(#334,#335,#344,#352,#361,#369,#378,#384));
#334 = ORIENTED_EDGE('',*,*,#260,.F.);
#335 = ORIENTED_EDGE('',*,*,#336,.F.);
#336 = EDGE_CURVE('',#337,#251,#339,.T.);
#337 = VERTEX_POINT('',#338);
#338 = CARTESIAN_POINT('',(-18.23125,-4.586013894168,-1.498801083244E-15
    ));
#339 = CIRCLE('',#340,5.1);
#340 = AXIS2_PLACEMENT_3D('',#341,#342,#343);
#341 = CARTESIAN_POINT('',(-16.,8.799999916523E-16,0.));
#342 = DIRECTION('',(-0.,0.,-1.));
#343 = DIRECTION('',(-0.4375,-0.899218410621,0.));
#344 = ORIENTED_EDGE('',*,*,#345,.F.);
#345 = EDGE_CURVE('',#346,#337,#348,.T.);
#346 = VERTEX_POINT('',#347);
#347 = CARTESIAN_POINT('',(-5.29375,-10.88054276851,0.));
#348 = LINE('',#349,#350);
#349 = CARTESIAN_POINT('',(-5.29375,-10.88054276851,0.));
#350 = VECTOR('',#351,1.);
#351 = DIRECTION('',(-0.899218410621,0.4375,0.));
#352 = ORIENTED_EDGE('',*,*,#353,.F.);
#353 = EDGE_CURVE('',#354,#346,#356,.T.);
#354 = VERTEX_POINT('',#355);
#355 = CARTESIAN_POINT('',(5.29375,-10.88054276851,1.221245327088E-15));
#356 = CIRCLE('',#357,12.1);
#357 = AXIS2_PLACEMENT_3D('',#358,#359,#360);
#358 = CARTESIAN_POINT('',(0.,8.799999952648E-16,0.));
#359 = DIRECTION('',(0.,-0.,-1.));
#360 = DIRECTION('',(0.4375,-0.899218410621,0.));
#361 = ORIENTED_EDGE('',*,*,#362,.F.);
#362 = EDGE_CURVE('',#363,#354,#365,.T.);
#363 = VERTEX_POINT('',#364);
#364 = CARTESIAN_POINT('',(18.23125,-4.586013894168,1.110223024625E-16)
  );
#365 = LINE('',#366,#367);
#366 = CARTESIAN_POINT('',(18.23125,-4.586013894168,0.));
#367 = VECTOR('',#368,1.);
#368 = DIRECTION('',(-0.899218410621,-0.4375,-0.));
#369 = ORIENTED_EDGE('',*,*,#370,.F.);
#370 = EDGE_CURVE('',#371,#363,#373,.T.);
#371 = VERTEX_POINT('',#372);
#372 = CARTESIAN_POINT('',(18.23125,4.586013894168,-1.942890293094E-15)
  );
#373 = CIRCLE('',#374,5.1);
#374 = AXIS2_PLACEMENT_3D('',#375,#376,#377);
#375 = CARTESIAN_POINT('',(16.,8.799999916523E-16,0.));
#376 = DIRECTION('',(0.,0.,-1.));
#377 = DIRECTION('',(0.4375,0.899218410621,0.));
#378 = ORIENTED_EDGE('',*,*,#379,.F.);
#379 = EDGE_CURVE('',#104,#371,#380,.T.);
#380 = LINE('',#381,#382);
#381 = CARTESIAN_POINT('',(5.29375,10.880542768516,0.));
#382 = VECTOR('',#383,1.);
#383 = DIRECTION('',(0.899218410621,-0.4375,0.));
#384 = ORIENTED_EDGE('',*,*,#111,.F.);
#385 = PLANE('',#386);
#386 = AXIS2_PLACEMENT_3D('',#387,#388,#389);
#387 = CARTESIAN_POINT('',(-5.202092904063E-15,1.481622201927E-15,0.));
#388 = DIRECTION('',(0.,0.,1.));
#389 = DIRECTION('',(1.,0.,0.));
#390 = ADVANCED_FACE('',(#391),#402,.T.);
#391 = FACE_BOUND('',#392,.T.);
#392 = EDGE_LOOP('',(#393,#394,#395,#401));
#393 = ORIENTED_EDGE('',*,*,#103,.F.);
#394 = ORIENTED_EDGE('',*,*,#187,.T.);
#395 = ORIENTED_EDGE('',*,*,#396,.T.);
#396 = EDGE_CURVE('',#188,#371,#397,.T.);
#397 = LINE('',#398,#399);
#398 = CARTESIAN_POINT('',(18.31875,4.765857576292,0.2));
#399 = VECTOR('',#400,1.);
#400 = DIRECTION('',(-0.309359216769,-0.635843435918,-0.707106781187));
#401 = ORIENTED_EDGE('',*,*,#379,.F.);
#402 = PLANE('',#403);
#403 = AXIS2_PLACEMENT_3D('',#404,#405,#406);
#404 = CARTESIAN_POINT('',(5.38125,11.06038645064,0.2));
#405 = DIRECTION('',(0.309359216769,0.635843435918,-0.707106781187));
#406 = DIRECTION('',(0.899218410621,-0.4375,-8.326672684689E-17));
#407 = ADVANCED_FACE('',(#408),#427,.T.);
#408 = FACE_BOUND('',#409,.F.);
#409 = EDGE_LOOP('',(#410,#411,#419,#426));
#410 = ORIENTED_EDGE('',*,*,#171,.T.);
#411 = ORIENTED_EDGE('',*,*,#412,.T.);
#412 = EDGE_CURVE('',#129,#413,#415,.T.);
#413 = VERTEX_POINT('',#414);
#414 = CARTESIAN_POINT('',(7.439969261271,0.,10.049279649301));
#415 = LINE('',#416,#417);
#416 = CARTESIAN_POINT('',(11.553465742482,0.,6.187070745187));
#417 = VECTOR('',#418,1.);
#418 = DIRECTION('',(-0.729023581729,0.,0.684488580827));
#419 = ORIENTED_EDGE('',*,*,#420,.F.);
#420 = EDGE_CURVE('',#413,#413,#421,.T.);
#421 = CIRCLE('',#422,7.439969261271);
#422 = AXIS2_PLACEMENT_3D('',#423,#424,#425);
#423 = CARTESIAN_POINT('',(0.,2.23E-15,10.049279649301));
#424 = DIRECTION('',(0.,-2.2E-16,-1.));
#425 = DIRECTION('',(1.,0.,0.));
#426 = ORIENTED_EDGE('',*,*,#412,.F.);
#427 = CONICAL_SURFACE('',#428,11.553465742482,0.816894371708);
#428 = AXIS2_PLACEMENT_3D('',#429,#430,#431);
#429 = CARTESIAN_POINT('',(0.,1.37E-15,6.187070745187));
#430 = DIRECTION('',(-0.,-2.2E-16,-1.));
#431 = DIRECTION('',(1.,0.,0.));
#432 = ADVANCED_FACE('',(#433,#453),#464,.T.);
#433 = FACE_BOUND('',#434,.T.);
#434 = EDGE_LOOP('',(#435,#436,#444,#451,#452));
#435 = ORIENTED_EDGE('',*,*,#163,.T.);
#436 = ORIENTED_EDGE('',*,*,#437,.T.);
#437 = EDGE_CURVE('',#155,#438,#440,.T.);
#438 = VERTEX_POINT('',#439);
#439 = CARTESIAN_POINT('',(18.40625,-4.945701258416,4.));
#440 = LINE('',#441,#442);
#441 = CARTESIAN_POINT('',(5.46875,-11.24023013276,4.));
#442 = VECTOR('',#443,1.);
#443 = DIRECTION('',(0.899218410621,0.4375,0.));
#444 = ORIENTED_EDGE('',*,*,#445,.F.);
#445 = EDGE_CURVE('',#196,#438,#446,.T.);
#446 = CIRCLE('',#447,5.5);
#447 = AXIS2_PLACEMENT_3D('',#448,#449,#450);
#448 = CARTESIAN_POINT('',(16.,8.799999916523E-16,4.));
#449 = DIRECTION('',(0.,0.,-1.));
#450 = DIRECTION('',(1.,0.,0.));
#451 = ORIENTED_EDGE('',*,*,#203,.F.);
#452 = ORIENTED_EDGE('',*,*,#137,.T.);
#453 = FACE_BOUND('',#454,.T.);
#454 = EDGE_LOOP('',(#455));
#455 = ORIENTED_EDGE('',*,*,#456,.F.);
#456 = EDGE_CURVE('',#457,#457,#459,.T.);
#457 = VERTEX_POINT('',#458);
#458 = CARTESIAN_POINT('',(19.,0.,4.));
#459 = CIRCLE('',#460,3.);
#460 = AXIS2_PLACEMENT_3D('',#461,#462,#463);
#461 = CARTESIAN_POINT('',(16.,0.,4.));
#462 = DIRECTION('',(0.,0.,1.));
#463 = DIRECTION('',(1.,0.,0.));
#464 = PLANE('',#465);
#465 = AXIS2_PLACEMENT_3D('',#466,#467,#468);
#466 = CARTESIAN_POINT('',(-5.202092904063E-15,1.481622201927E-15,4.));
#467 = DIRECTION('',(0.,0.,1.));
#468 = DIRECTION('',(1.,0.,0.));
#469 = ADVANCED_FACE('',(#470),#496,.T.);
#470 = FACE_BOUND('',#471,.F.);
#471 = EDGE_LOOP('',(#472,#480,#489,#495));
#472 = ORIENTED_EDGE('',*,*,#473,.T.);
#473 = EDGE_CURVE('',#155,#474,#476,.T.);
#474 = VERTEX_POINT('',#475);
#475 = CARTESIAN_POINT('',(5.46875,-11.24023013276,0.4));
#476 = LINE('',#477,#478);
#477 = CARTESIAN_POINT('',(5.46875,-11.24023013276,4.));
#478 = VECTOR('',#479,1.);
#479 = DIRECTION('',(0.,0.,-1.));
#480 = ORIENTED_EDGE('',*,*,#481,.T.);
#481 = EDGE_CURVE('',#474,#482,#484,.T.);
#482 = VERTEX_POINT('',#483);
#483 = CARTESIAN_POINT('',(-5.46875,-11.24023013276,0.4));
#484 = CIRCLE('',#485,12.5);
#485 = AXIS2_PLACEMENT_3D('',#486,#487,#488);
#486 = CARTESIAN_POINT('',(0.,8.799999952648E-16,0.4));
#487 = DIRECTION('',(0.,-0.,-1.));
#488 = DIRECTION('',(0.4375,-0.899218410621,0.));
#489 = ORIENTED_EDGE('',*,*,#490,.F.);
#490 = EDGE_CURVE('',#146,#482,#491,.T.);
#491 = LINE('',#492,#493);
#492 = CARTESIAN_POINT('',(-5.46875,-11.24023013276,4.));
#493 = VECTOR('',#494,1.);
#494 = DIRECTION('',(0.,0.,-1.));
#495 = ORIENTED_EDGE('',*,*,#154,.F.);
#496 = CYLINDRICAL_SURFACE('',#497,12.5);
#497 = AXIS2_PLACEMENT_3D('',#498,#499,#500);
#498 = CARTESIAN_POINT('',(0.,8.799999952648E-16,4.));
#499 = DIRECTION('',(0.,0.,1.));
#500 = DIRECTION('',(1.,0.,0.));
#501 = ADVANCED_FACE('',(#502),#521,.T.);
#502 = FACE_BOUND('',#503,.F.);
#503 = EDGE_LOOP('',(#504,#505,#514,#520));
#504 = ORIENTED_EDGE('',*,*,#195,.T.);
#505 = ORIENTED_EDGE('',*,*,#506,.T.);
#506 = EDGE_CURVE('',#188,#507,#509,.T.);
#507 = VERTEX_POINT('',#508);
#508 = CARTESIAN_POINT('',(18.40625,-4.945701258416,0.4));
#509 = CIRCLE('',#510,5.5);
#510 = AXIS2_PLACEMENT_3D('',#511,#512,#513);
#511 = CARTESIAN_POINT('',(16.,8.799999916523E-16,0.4));
#512 = DIRECTION('',(0.,0.,-1.));
#513 = DIRECTION('',(0.4375,0.899218410621,0.));
#514 = ORIENTED_EDGE('',*,*,#515,.F.);
#515 = EDGE_CURVE('',#438,#507,#516,.T.);
#516 = LINE('',#517,#518);
#517 = CARTESIAN_POINT('',(18.40625,-4.945701258416,4.));
#518 = VECTOR('',#519,1.);
#519 = DIRECTION('',(0.,0.,-1.));
#520 = ORIENTED_EDGE('',*,*,#445,.F.);
#521 = CYLINDRICAL_SURFACE('',#522,5.5);
#522 = AXIS2_PLACEMENT_3D('',#523,#524,#525);
#523 = CARTESIAN_POINT('',(16.,8.799999916523E-16,4.));
#524 = DIRECTION('',(0.,0.,1.));
#525 = DIRECTION('',(1.,0.,0.));
#526 = ADVANCED_FACE('',(#527),#538,.F.);
#527 = FACE_BOUND('',#528,.F.);
#528 = EDGE_LOOP('',(#529,#530,#536,#537));
#529 = ORIENTED_EDGE('',*,*,#490,.T.);
#530 = ORIENTED_EDGE('',*,*,#531,.T.);
#531 = EDGE_CURVE('',#482,#220,#532,.T.);
#532 = LINE('',#533,#534);
#533 = CARTESIAN_POINT('',(-5.46875,-11.24023013276,0.4));
#534 = VECTOR('',#535,1.);
#535 = DIRECTION('',(-0.899218410621,0.4375,0.));
#536 = ORIENTED_EDGE('',*,*,#217,.F.);
#537 = ORIENTED_EDGE('',*,*,#274,.F.);
#538 = PLANE('',#539);
#539 = AXIS2_PLACEMENT_3D('',#540,#541,#542);
#540 = CARTESIAN_POINT('',(-5.46875,-11.24023013276,4.));
#541 = DIRECTION('',(0.4375,0.899218410621,0.));
#542 = DIRECTION('',(-0.899218410621,0.4375,0.));
#543 = ADVANCED_FACE('',(#544),#555,.T.);
#544 = FACE_BOUND('',#545,.T.);
#545 = EDGE_LOOP('',(#546,#552,#553,#554));
#546 = ORIENTED_EDGE('',*,*,#547,.F.);
#547 = EDGE_CURVE('',#220,#337,#548,.T.);
#548 = LINE('',#549,#550);
#549 = CARTESIAN_POINT('',(-18.31875,-4.765857576292,0.2));
#550 = VECTOR('',#551,1.);
#551 = DIRECTION('',(0.309359216769,0.635843435918,-0.707106781187));
#552 = ORIENTED_EDGE('',*,*,#227,.T.);
#553 = ORIENTED_EDGE('',*,*,#250,.T.);
#554 = ORIENTED_EDGE('',*,*,#336,.F.);
#555 = CONICAL_SURFACE('',#556,5.5,0.785398163397);
#556 = AXIS2_PLACEMENT_3D('',#557,#558,#559);
#557 = CARTESIAN_POINT('',(-16.,8.799999916523E-16,0.4));
#558 = DIRECTION('',(0.,0.,1.));
#559 = DIRECTION('',(-0.4375,-0.899218410621,0.));
#560 = ADVANCED_FACE('',(#561),#580,.F.);
#561 = FACE_BOUND('',#562,.F.);
#562 = EDGE_LOOP('',(#563,#571,#578,#579));
#563 = ORIENTED_EDGE('',*,*,#564,.T.);
#564 = EDGE_CURVE('',#286,#565,#567,.T.);
#565 = VERTEX_POINT('',#566);
#566 = CARTESIAN_POINT('',(-13.,0.,2.));
#567 = LINE('',#568,#569);
#568 = CARTESIAN_POINT('',(-13.,0.,4.));
#569 = VECTOR('',#570,1.);
#570 = DIRECTION('',(-0.,-0.,-1.));
#571 = ORIENTED_EDGE('',*,*,#572,.T.);
#572 = EDGE_CURVE('',#565,#565,#573,.T.);
#573 = CIRCLE('',#574,3.);
#574 = AXIS2_PLACEMENT_3D('',#575,#576,#577);
#575 = CARTESIAN_POINT('',(-16.,0.,2.));
#576 = DIRECTION('',(0.,0.,1.));
#577 = DIRECTION('',(1.,0.,0.));
#578 = ORIENTED_EDGE('',*,*,#564,.F.);
#579 = ORIENTED_EDGE('',*,*,#285,.F.);
#580 = CYLINDRICAL_SURFACE('',#581,3.);
#581 = AXIS2_PLACEMENT_3D('',#582,#583,#584);
#582 = CARTESIAN_POINT('',(-16.,0.,4.));
#583 = DIRECTION('',(0.,0.,1.));
#584 = DIRECTION('',(1.,0.,0.));
#585 = ADVANCED_FACE('',(#586),#605,.F.);
#586 = FACE_BOUND('',#587,.T.);
#587 = EDGE_LOOP('',(#588,#596,#597,#598));
#588 = ORIENTED_EDGE('',*,*,#589,.F.);
#589 = EDGE_CURVE('',#303,#590,#592,.T.);
#590 = VERTEX_POINT('',#591);
#591 = CARTESIAN_POINT('',(10.7,8.799999952648E-16,0.4));
#592 = LINE('',#593,#594);
#593 = CARTESIAN_POINT('',(10.7,8.799999952648E-16,0.4));
#594 = VECTOR('',#595,1.);
#595 = DIRECTION('',(-0.707106781187,0.,0.707106781187));
#596 = ORIENTED_EDGE('',*,*,#302,.T.);
#597 = ORIENTED_EDGE('',*,*,#589,.T.);
#598 = ORIENTED_EDGE('',*,*,#599,.F.);
#599 = EDGE_CURVE('',#590,#590,#600,.T.);
#600 = CIRCLE('',#601,10.7);
#601 = AXIS2_PLACEMENT_3D('',#602,#603,#604);
#602 = CARTESIAN_POINT('',(0.,8.799999952648E-16,0.4));
#603 = DIRECTION('',(0.,0.,-1.));
#604 = DIRECTION('',(1.,0.,0.));
#605 = CONICAL_SURFACE('',#606,10.7,0.785398163397);
#606 = AXIS2_PLACEMENT_3D('',#607,#608,#609);
#607 = CARTESIAN_POINT('',(0.,8.799999952648E-16,0.4));
#608 = DIRECTION('',(-0.,-0.,-1.));
#609 = DIRECTION('',(1.,0.,0.));
#610 = ADVANCED_FACE('',(#611),#630,.F.);
#611 = FACE_BOUND('',#612,.T.);
#612 = EDGE_LOOP('',(#613,#621,#622,#623));
#613 = ORIENTED_EDGE('',*,*,#614,.F.);
#614 = EDGE_CURVE('',#314,#615,#617,.T.);
#615 = VERTEX_POINT('',#616);
#616 = CARTESIAN_POINT('',(-14.35,8.799999916523E-16,0.4));
#617 = LINE('',#618,#619);
#618 = CARTESIAN_POINT('',(-14.35,8.799999916523E-16,0.4));
#619 = VECTOR('',#620,1.);
#620 = DIRECTION('',(-0.707106781187,0.,0.707106781187));
#621 = ORIENTED_EDGE('',*,*,#313,.T.);
#622 = ORIENTED_EDGE('',*,*,#614,.T.);
#623 = ORIENTED_EDGE('',*,*,#624,.F.);
#624 = EDGE_CURVE('',#615,#615,#625,.T.);
#625 = CIRCLE('',#626,1.65);
#626 = AXIS2_PLACEMENT_3D('',#627,#628,#629);
#627 = CARTESIAN_POINT('',(-16.,8.799999916523E-16,0.4));
#628 = DIRECTION('',(0.,0.,-1.));
#629 = DIRECTION('',(1.,0.,0.));
#630 = CONICAL_SURFACE('',#631,1.65,0.785398163397);
#631 = AXIS2_PLACEMENT_3D('',#632,#633,#634);
#632 = CARTESIAN_POINT('',(-16.,8.799999916523E-16,0.4));
#633 = DIRECTION('',(-0.,-0.,-1.));
#634 = DIRECTION('',(1.,0.,0.));
#635 = ADVANCED_FACE('',(#636),#655,.F.);
#636 = FACE_BOUND('',#637,.T.);
#637 = EDGE_LOOP('',(#638,#646,#647,#648));
#638 = ORIENTED_EDGE('',*,*,#639,.F.);
#639 = EDGE_CURVE('',#325,#640,#642,.T.);
#640 = VERTEX_POINT('',#641);
#641 = CARTESIAN_POINT('',(17.65,8.799999916523E-16,0.4));
#642 = LINE('',#643,#644);
#643 = CARTESIAN_POINT('',(17.65,8.799999916523E-16,0.4));
#644 = VECTOR('',#645,1.);
#645 = DIRECTION('',(-0.707106781187,0.,0.707106781187));
#646 = ORIENTED_EDGE('',*,*,#324,.T.);
#647 = ORIENTED_EDGE('',*,*,#639,.T.);
#648 = ORIENTED_EDGE('',*,*,#649,.F.);
#649 = EDGE_CURVE('',#640,#640,#650,.T.);
#650 = CIRCLE('',#651,1.65);
#651 = AXIS2_PLACEMENT_3D('',#652,#653,#654);
#652 = CARTESIAN_POINT('',(16.,8.799999916523E-16,0.4));
#653 = DIRECTION('',(0.,0.,-1.));
#654 = DIRECTION('',(1.,0.,0.));
#655 = CONICAL_SURFACE('',#656,1.65,0.785398163397);
#656 = AXIS2_PLACEMENT_3D('',#657,#658,#659);
#657 = CARTESIAN_POINT('',(16.,8.799999916523E-16,0.4));
#658 = DIRECTION('',(-0.,-0.,-1.));
#659 = DIRECTION('',(1.,0.,0.));
#660 = ADVANCED_FACE('',(#661),#672,.T.);
#661 = FACE_BOUND('',#662,.T.);
#662 = EDGE_LOOP('',(#663,#669,#670,#671));
#663 = ORIENTED_EDGE('',*,*,#664,.F.);
#664 = EDGE_CURVE('',#482,#346,#665,.T.);
#665 = LINE('',#666,#667);
#666 = CARTESIAN_POINT('',(-5.46875,-11.24023013276,0.4));
#667 = VECTOR('',#668,1.);
#668 = DIRECTION('',(0.309359216769,0.635843435918,-0.707106781187));
#669 = ORIENTED_EDGE('',*,*,#531,.T.);
#670 = ORIENTED_EDGE('',*,*,#547,.T.);
#671 = ORIENTED_EDGE('',*,*,#345,.F.);
#672 = PLANE('',#673);
#673 = AXIS2_PLACEMENT_3D('',#674,#675,#676);
#674 = CARTESIAN_POINT('',(-5.38125,-11.06038645064,0.2));
#675 = DIRECTION('',(-0.309359216769,-0.635843435918,-0.707106781187));
#676 = DIRECTION('',(-0.899218410621,0.4375,-5.551115123126E-17));
#677 = ADVANCED_FACE('',(#678),#689,.T.);
#678 = FACE_BOUND('',#679,.T.);
#679 = EDGE_LOOP('',(#680,#686,#687,#688));
#680 = ORIENTED_EDGE('',*,*,#681,.F.);
#681 = EDGE_CURVE('',#474,#354,#682,.T.);
#682 = LINE('',#683,#684);
#683 = CARTESIAN_POINT('',(5.38125,-11.06038645064,0.2));
#684 = VECTOR('',#685,1.);
#685 = DIRECTION('',(-0.309359216769,0.635843435918,-0.707106781187));
#686 = ORIENTED_EDGE('',*,*,#481,.T.);
#687 = ORIENTED_EDGE('',*,*,#664,.T.);
#688 = ORIENTED_EDGE('',*,*,#353,.F.);
#689 = CONICAL_SURFACE('',#690,12.5,0.785398163397);
#690 = AXIS2_PLACEMENT_3D('',#691,#692,#693);
#691 = CARTESIAN_POINT('',(0.,8.799999952648E-16,0.4));
#692 = DIRECTION('',(0.,0.,1.));
#693 = DIRECTION('',(0.4375,-0.899218410621,0.));
#694 = ADVANCED_FACE('',(#695),#706,.T.);
#695 = FACE_BOUND('',#696,.T.);
#696 = EDGE_LOOP('',(#697,#698,#699,#705));
#697 = ORIENTED_EDGE('',*,*,#396,.F.);
#698 = ORIENTED_EDGE('',*,*,#506,.T.);
#699 = ORIENTED_EDGE('',*,*,#700,.T.);
#700 = EDGE_CURVE('',#507,#363,#701,.T.);
#701 = LINE('',#702,#703);
#702 = CARTESIAN_POINT('',(18.40625,-4.945701258416,0.4));
#703 = VECTOR('',#704,1.);
#704 = DIRECTION('',(-0.309359216769,0.635843435918,-0.707106781187));
#705 = ORIENTED_EDGE('',*,*,#370,.F.);
#706 = CONICAL_SURFACE('',#707,5.5,0.785398163397);
#707 = AXIS2_PLACEMENT_3D('',#708,#709,#710);
#708 = CARTESIAN_POINT('',(16.,8.799999916523E-16,0.4));
#709 = DIRECTION('',(0.,0.,1.));
#710 = DIRECTION('',(0.4375,0.899218410621,0.));
#711 = ADVANCED_FACE('',(#712),#723,.F.);
#712 = FACE_BOUND('',#713,.T.);
#713 = EDGE_LOOP('',(#714,#715,#721,#722));
#714 = ORIENTED_EDGE('',*,*,#700,.F.);
#715 = ORIENTED_EDGE('',*,*,#716,.T.);
#716 = EDGE_CURVE('',#507,#474,#717,.T.);
#717 = LINE('',#718,#719);
#718 = CARTESIAN_POINT('',(18.40625,-4.945701258416,0.4));
#719 = VECTOR('',#720,1.);
#720 = DIRECTION('',(-0.899218410621,-0.4375,-0.));
#721 = ORIENTED_EDGE('',*,*,#681,.T.);
#722 = ORIENTED_EDGE('',*,*,#362,.F.);
#723 = PLANE('',#724);
#724 = AXIS2_PLACEMENT_3D('',#725,#726,#727);
#725 = CARTESIAN_POINT('',(18.31875,-4.765857576292,0.2));
#726 = DIRECTION('',(-0.309359216769,0.635843435918,0.707106781187));
#727 = DIRECTION('',(0.899218410621,0.4375,-5.551115123126E-17));
#728 = ADVANCED_FACE('',(#729),#749,.F.);
#729 = FACE_BOUND('',#730,.T.);
#730 = EDGE_LOOP('',(#731,#740,#747,#748));
#731 = ORIENTED_EDGE('',*,*,#732,.T.);
#732 = EDGE_CURVE('',#733,#733,#735,.T.);
#733 = VERTEX_POINT('',#734);
#734 = CARTESIAN_POINT('',(7.,0.,11.));
#735 = CIRCLE('',#736,7.);
#736 = AXIS2_PLACEMENT_3D('',#737,#738,#739);
#737 = CARTESIAN_POINT('',(0.,2.44E-15,11.));
#738 = DIRECTION('',(0.,-2.2E-16,-1.));
#739 = DIRECTION('',(1.,0.,0.));
#740 = ORIENTED_EDGE('',*,*,#741,.T.);
#741 = EDGE_CURVE('',#733,#413,#742,.T.);
#742 = CIRCLE('',#743,1.4);
#743 = AXIS2_PLACEMENT_3D('',#744,#745,#746);
#744 = CARTESIAN_POINT('',(8.398253274429,0.,11.069912663721));
#745 = DIRECTION('',(0.,-1.,0.));
#746 = DIRECTION('',(1.,0.,0.));
#747 = ORIENTED_EDGE('',*,*,#420,.F.);
#748 = ORIENTED_EDGE('',*,*,#741,.F.);
#749 = TOROIDAL_SURFACE('',#750,8.398253274429,1.4);
#750 = AXIS2_PLACEMENT_3D('',#751,#752,#753);
#751 = CARTESIAN_POINT('',(0.,2.46E-15,11.069912663721));
#752 = DIRECTION('',(0.,2.2E-16,1.));
#753 = DIRECTION('',(1.,0.,0.));
#754 = ADVANCED_FACE('',(#755),#761,.T.);
#755 = FACE_BOUND('',#756,.T.);
#756 = EDGE_LOOP('',(#757,#758,#759,#760));
#757 = ORIENTED_EDGE('',*,*,#473,.T.);
#758 = ORIENTED_EDGE('',*,*,#716,.F.);
#759 = ORIENTED_EDGE('',*,*,#515,.F.);
#760 = ORIENTED_EDGE('',*,*,#437,.F.);
#761 = PLANE('',#762);
#762 = AXIS2_PLACEMENT_3D('',#763,#764,#765);
#763 = CARTESIAN_POINT('',(5.46875,-11.24023013276,4.));
#764 = DIRECTION('',(0.4375,-0.899218410621,0.));
#765 = DIRECTION('',(0.899218410621,0.4375,0.));
#766 = ADVANCED_FACE('',(#767),#786,.F.);
#767 = FACE_BOUND('',#768,.F.);
#768 = EDGE_LOOP('',(#769,#777,#784,#785));
#769 = ORIENTED_EDGE('',*,*,#770,.T.);
#770 = EDGE_CURVE('',#457,#771,#773,.T.);
#771 = VERTEX_POINT('',#772);
#772 = CARTESIAN_POINT('',(19.,0.,2.));
#773 = LINE('',#774,#775);
#774 = CARTESIAN_POINT('',(19.,0.,4.));
#775 = VECTOR('',#776,1.);
#776 = DIRECTION('',(-0.,-0.,-1.));
#777 = ORIENTED_EDGE('',*,*,#778,.T.);
#778 = EDGE_CURVE('',#771,#771,#779,.T.);
#779 = CIRCLE('',#780,3.);
#780 = AXIS2_PLACEMENT_3D('',#781,#782,#783);
#781 = CARTESIAN_POINT('',(16.,0.,2.));
#782 = DIRECTION('',(0.,0.,1.));
#783 = DIRECTION('',(1.,0.,0.));
#784 = ORIENTED_EDGE('',*,*,#770,.F.);
#785 = ORIENTED_EDGE('',*,*,#456,.F.);
#786 = CYLINDRICAL_SURFACE('',#787,3.);
#787 = AXIS2_PLACEMENT_3D('',#788,#789,#790);
#788 = CARTESIAN_POINT('',(16.,0.,4.));
#789 = DIRECTION('',(0.,0.,1.));
#790 = DIRECTION('',(1.,0.,0.));
#791 = ADVANCED_FACE('',(#792,#795),#806,.T.);
#792 = FACE_BOUND('',#793,.T.);
#793 = EDGE_LOOP('',(#794));
#794 = ORIENTED_EDGE('',*,*,#572,.T.);
#795 = FACE_BOUND('',#796,.T.);
#796 = EDGE_LOOP('',(#797));
#797 = ORIENTED_EDGE('',*,*,#798,.F.);
#798 = EDGE_CURVE('',#799,#799,#801,.T.);
#799 = VERTEX_POINT('',#800);
#800 = CARTESIAN_POINT('',(-14.35,8.799999916523E-16,2.));
#801 = CIRCLE('',#802,1.65);
#802 = AXIS2_PLACEMENT_3D('',#803,#804,#805);
#803 = CARTESIAN_POINT('',(-16.,8.799999916523E-16,2.));
#804 = DIRECTION('',(0.,0.,1.));
#805 = DIRECTION('',(1.,0.,0.));
#806 = PLANE('',#807);
#807 = AXIS2_PLACEMENT_3D('',#808,#809,#810);
#808 = CARTESIAN_POINT('',(-2.279066887566E-16,-4.255667768225E-18,2.));
#809 = DIRECTION('',(0.,0.,1.));
#810 = DIRECTION('',(1.,0.,0.));
#811 = ADVANCED_FACE('',(#812),#831,.F.);
#812 = FACE_BOUND('',#813,.T.);
#813 = EDGE_LOOP('',(#814,#822,#823,#824));
#814 = ORIENTED_EDGE('',*,*,#815,.T.);
#815 = EDGE_CURVE('',#816,#590,#818,.T.);
#816 = VERTEX_POINT('',#817);
#817 = CARTESIAN_POINT('',(10.7,4.40000002044E-16,4.));
#818 = LINE('',#819,#820);
#819 = CARTESIAN_POINT('',(10.7,8.799999952648E-16,4.));
#820 = VECTOR('',#821,1.);
#821 = DIRECTION('',(0.,0.,-1.));
#822 = ORIENTED_EDGE('',*,*,#599,.T.);
#823 = ORIENTED_EDGE('',*,*,#815,.F.);
#824 = ORIENTED_EDGE('',*,*,#825,.F.);
#825 = EDGE_CURVE('',#816,#816,#826,.T.);
#826 = CIRCLE('',#827,10.7);
#827 = AXIS2_PLACEMENT_3D('',#828,#829,#830);
#828 = CARTESIAN_POINT('',(0.,8.9E-16,4.));
#829 = DIRECTION('',(0.,-2.2E-16,-1.));
#830 = DIRECTION('',(1.,0.,0.));
#831 = CYLINDRICAL_SURFACE('',#832,10.7);
#832 = AXIS2_PLACEMENT_3D('',#833,#834,#835);
#833 = CARTESIAN_POINT('',(0.,8.799999952648E-16,4.));
#834 = DIRECTION('',(0.,0.,1.));
#835 = DIRECTION('',(1.,0.,0.));
#836 = ADVANCED_FACE('',(#837),#848,.F.);
#837 = FACE_BOUND('',#838,.T.);
#838 = EDGE_LOOP('',(#839,#845,#846,#847));
#839 = ORIENTED_EDGE('',*,*,#840,.F.);
#840 = EDGE_CURVE('',#799,#615,#841,.T.);
#841 = LINE('',#842,#843);
#842 = CARTESIAN_POINT('',(-14.35,8.799999916523E-16,4.));
#843 = VECTOR('',#844,1.);
#844 = DIRECTION('',(0.,0.,-1.));
#845 = ORIENTED_EDGE('',*,*,#798,.T.);
#846 = ORIENTED_EDGE('',*,*,#840,.T.);
#847 = ORIENTED_EDGE('',*,*,#624,.T.);
#848 = CYLINDRICAL_SURFACE('',#849,1.65);
#849 = AXIS2_PLACEMENT_3D('',#850,#851,#852);
#850 = CARTESIAN_POINT('',(-16.,8.799999916523E-16,4.));
#851 = DIRECTION('',(0.,0.,1.));
#852 = DIRECTION('',(1.,0.,0.));
#853 = ADVANCED_FACE('',(#854),#873,.F.);
#854 = FACE_BOUND('',#855,.T.);
#855 = EDGE_LOOP('',(#856,#864,#871,#872));
#856 = ORIENTED_EDGE('',*,*,#857,.F.);
#857 = EDGE_CURVE('',#858,#640,#860,.T.);
#858 = VERTEX_POINT('',#859);
#859 = CARTESIAN_POINT('',(17.65,8.799999916523E-16,2.));
#860 = LINE('',#861,#862);
#861 = CARTESIAN_POINT('',(17.65,8.799999916523E-16,4.));
#862 = VECTOR('',#863,1.);
#863 = DIRECTION('',(0.,0.,-1.));
#864 = ORIENTED_EDGE('',*,*,#865,.T.);
#865 = EDGE_CURVE('',#858,#858,#866,.T.);
#866 = CIRCLE('',#867,1.65);
#867 = AXIS2_PLACEMENT_3D('',#868,#869,#870);
#868 = CARTESIAN_POINT('',(16.,8.799999916523E-16,2.));
#869 = DIRECTION('',(0.,0.,1.));
#870 = DIRECTION('',(1.,0.,0.));
#871 = ORIENTED_EDGE('',*,*,#857,.T.);
#872 = ORIENTED_EDGE('',*,*,#649,.T.);
#873 = CYLINDRICAL_SURFACE('',#874,1.65);
#874 = AXIS2_PLACEMENT_3D('',#875,#876,#877);
#875 = CARTESIAN_POINT('',(16.,8.799999916523E-16,4.));
#876 = DIRECTION('',(0.,0.,1.));
#877 = DIRECTION('',(1.,0.,0.));
#878 = ADVANCED_FACE('',(#879),#898,.T.);
#879 = FACE_BOUND('',#880,.F.);
#880 = EDGE_LOOP('',(#881,#882,#890,#897));
#881 = ORIENTED_EDGE('',*,*,#732,.T.);
#882 = ORIENTED_EDGE('',*,*,#883,.T.);
#883 = EDGE_CURVE('',#733,#884,#886,.T.);
#884 = VERTEX_POINT('',#885);
#885 = CARTESIAN_POINT('',(6.,0.,31.));
#886 = LINE('',#887,#888);
#887 = CARTESIAN_POINT('',(7.,0.,11.));
#888 = VECTOR('',#889,1.);
#889 = DIRECTION('',(-4.993761694389E-02,0.,0.998752338878));
#890 = ORIENTED_EDGE('',*,*,#891,.F.);
#891 = EDGE_CURVE('',#884,#884,#892,.T.);
#892 = CIRCLE('',#893,6.);
#893 = AXIS2_PLACEMENT_3D('',#894,#895,#896);
#894 = CARTESIAN_POINT('',(0.,6.88E-15,31.));
#895 = DIRECTION('',(0.,-2.2E-16,-1.));
#896 = DIRECTION('',(1.,0.,0.));
#897 = ORIENTED_EDGE('',*,*,#883,.F.);
#898 = CONICAL_SURFACE('',#899,7.,4.995839572194E-02);
#899 = AXIS2_PLACEMENT_3D('',#900,#901,#902);
#900 = CARTESIAN_POINT('',(0.,2.44E-15,11.));
#901 = DIRECTION('',(-0.,-2.2E-16,-1.));
#902 = DIRECTION('',(1.,0.,0.));
#903 = ADVANCED_FACE('',(#904,#907),#910,.T.);
#904 = FACE_BOUND('',#905,.T.);
#905 = EDGE_LOOP('',(#906));
#906 = ORIENTED_EDGE('',*,*,#778,.T.);
#907 = FACE_BOUND('',#908,.T.);
#908 = EDGE_LOOP('',(#909));
#909 = ORIENTED_EDGE('',*,*,#865,.F.);
#910 = PLANE('',#911);
#911 = AXIS2_PLACEMENT_3D('',#912,#913,#914);
#912 = CARTESIAN_POINT('',(-2.279066887566E-16,-4.255667768225E-18,2.));
#913 = DIRECTION('',(0.,0.,1.));
#914 = DIRECTION('',(1.,0.,0.));
#915 = ADVANCED_FACE('',(#916),#936,.F.);
#916 = FACE_BOUND('',#917,.T.);
#917 = EDGE_LOOP('',(#918,#927,#928,#929));
#918 = ORIENTED_EDGE('',*,*,#919,.F.);
#919 = EDGE_CURVE('',#816,#920,#922,.T.);
#920 = VERTEX_POINT('',#921);
#921 = CARTESIAN_POINT('',(10.351475409032,0.,4.84557059304));
#922 = CIRCLE('',#923,1.2);
#923 = AXIS2_PLACEMENT_3D('',#924,#925,#926);
#924 = CARTESIAN_POINT('',(9.5,0.,4.));
#925 = DIRECTION('',(0.,-1.,0.));
#926 = DIRECTION('',(1.,0.,0.));
#927 = ORIENTED_EDGE('',*,*,#825,.F.);
#928 = ORIENTED_EDGE('',*,*,#919,.T.);
#929 = ORIENTED_EDGE('',*,*,#930,.T.);
#930 = EDGE_CURVE('',#920,#920,#931,.T.);
#931 = CIRCLE('',#932,10.351475409032);
#932 = AXIS2_PLACEMENT_3D('',#933,#934,#935);
#933 = CARTESIAN_POINT('',(0.,1.08E-15,4.84557059304));
#934 = DIRECTION('',(0.,-2.2E-16,-1.));
#935 = DIRECTION('',(1.,0.,0.));
#936 = TOROIDAL_SURFACE('',#937,9.5,1.2);
#937 = AXIS2_PLACEMENT_3D('',#938,#939,#940);
#938 = CARTESIAN_POINT('',(0.,8.9E-16,4.));
#939 = DIRECTION('',(0.,2.2E-16,1.));
#940 = DIRECTION('',(1.,0.,0.));
#941 = ADVANCED_FACE('',(#942),#962,.T.);
#942 = FACE_BOUND('',#943,.F.);
#943 = EDGE_LOOP('',(#944,#945,#954,#961));
#944 = ORIENTED_EDGE('',*,*,#891,.T.);
#945 = ORIENTED_EDGE('',*,*,#946,.T.);
#946 = EDGE_CURVE('',#884,#947,#949,.T.);
#947 = VERTEX_POINT('',#948);
#948 = CARTESIAN_POINT('',(4.401996257795,0.,30.92009981289));
#949 = CIRCLE('',#950,0.8);
#950 = AXIS2_PLACEMENT_3D('',#951,#952,#953);
#951 = CARTESIAN_POINT('',(5.200998128898,0.,30.960049906445));
#952 = DIRECTION('',(0.,-1.,0.));
#953 = DIRECTION('',(1.,0.,0.));
#954 = ORIENTED_EDGE('',*,*,#955,.F.);
#955 = EDGE_CURVE('',#947,#947,#956,.T.);
#956 = CIRCLE('',#957,4.401996257795);
#957 = AXIS2_PLACEMENT_3D('',#958,#959,#960);
#958 = CARTESIAN_POINT('',(0.,6.87E-15,30.92009981289));
#959 = DIRECTION('',(0.,-2.2E-16,-1.));
#960 = DIRECTION('',(1.,0.,0.));
#961 = ORIENTED_EDGE('',*,*,#946,.F.);
#962 = TOROIDAL_SURFACE('',#963,5.200998128898,0.8);
#963 = AXIS2_PLACEMENT_3D('',#964,#965,#966);
#964 = CARTESIAN_POINT('',(0.,6.87E-15,30.960049906445));
#965 = DIRECTION('',(0.,2.2E-16,1.));
#966 = DIRECTION('',(1.,0.,0.));
#967 = ADVANCED_FACE('',(#968),#987,.F.);
#968 = FACE_BOUND('',#969,.T.);
#969 = EDGE_LOOP('',(#970,#971,#979,#986));
#970 = ORIENTED_EDGE('',*,*,#930,.T.);
#971 = ORIENTED_EDGE('',*,*,#972,.T.);
#972 = EDGE_CURVE('',#920,#973,#975,.T.);
#973 = VERTEX_POINT('',#974);
#974 = CARTESIAN_POINT('',(6.26956475185,0.,8.955986181121));
#975 = LINE('',#976,#977);
#976 = CARTESIAN_POINT('',(10.351475409032,0.,4.84557059304));
#977 = VECTOR('',#978,1.);
#978 = DIRECTION('',(-0.704642160867,0.,0.70956284086));
#979 = ORIENTED_EDGE('',*,*,#980,.F.);
#980 = EDGE_CURVE('',#973,#973,#981,.T.);
#981 = CIRCLE('',#982,6.26956475185);
#982 = AXIS2_PLACEMENT_3D('',#983,#984,#985);
#983 = CARTESIAN_POINT('',(0.,1.99E-15,8.955986181121));
#984 = DIRECTION('',(0.,-2.2E-16,-1.));
#985 = DIRECTION('',(1.,0.,0.));
#986 = ORIENTED_EDGE('',*,*,#972,.F.);
#987 = CONICAL_SURFACE('',#988,10.351475409032,0.781918710186);
#988 = AXIS2_PLACEMENT_3D('',#989,#990,#991);
#989 = CARTESIAN_POINT('',(0.,1.08E-15,4.84557059304));
#990 = DIRECTION('',(-0.,-2.2E-16,-1.));
#991 = DIRECTION('',(1.,0.,0.));
#992 = ADVANCED_FACE('',(#993),#1012,.F.);
#993 = FACE_BOUND('',#994,.F.);
#994 = EDGE_LOOP('',(#995,#996,#1004,#1011));
#995 = ORIENTED_EDGE('',*,*,#955,.T.);
#996 = ORIENTED_EDGE('',*,*,#997,.T.);
#997 = EDGE_CURVE('',#947,#998,#1000,.T.);
#998 = VERTEX_POINT('',#999);
#999 = CARTESIAN_POINT('',(5.401996257795,0.,10.92009981289));
#1000 = LINE('',#1001,#1002);
#1001 = CARTESIAN_POINT('',(4.401996257795,0.,30.92009981289));
#1002 = VECTOR('',#1003,1.);
#1003 = DIRECTION('',(4.993761694389E-02,0.,-0.998752338878));
#1004 = ORIENTED_EDGE('',*,*,#1005,.F.);
#1005 = EDGE_CURVE('',#998,#998,#1006,.T.);
#1006 = CIRCLE('',#1007,5.401996257795);
#1007 = AXIS2_PLACEMENT_3D('',#1008,#1009,#1010);
#1008 = CARTESIAN_POINT('',(0.,2.42E-15,10.92009981289));
#1009 = DIRECTION('',(0.,-2.2E-16,-1.));
#1010 = DIRECTION('',(1.,0.,0.));
#1011 = ORIENTED_EDGE('',*,*,#997,.F.);
#1012 = CONICAL_SURFACE('',#1013,4.401996257795,4.995839572194E-02);
#1013 = AXIS2_PLACEMENT_3D('',#1014,#1015,#1016);
#1014 = CARTESIAN_POINT('',(0.,6.87E-15,30.92009981289));
#1015 = DIRECTION('',(-0.,-2.2E-16,-1.));
#1016 = DIRECTION('',(1.,0.,0.));
#1017 = ADVANCED_FACE('',(#1018),#1030,.T.);
#1018 = FACE_BOUND('',#1019,.F.);
#1019 = EDGE_LOOP('',(#1020,#1021,#1028,#1029));
#1020 = ORIENTED_EDGE('',*,*,#1005,.T.);
#1021 = ORIENTED_EDGE('',*,*,#1022,.T.);
#1022 = EDGE_CURVE('',#998,#973,#1023,.T.);
#1023 = CIRCLE('',#1024,3.);
#1024 = AXIS2_PLACEMENT_3D('',#1025,#1026,#1027);
#1025 = CARTESIAN_POINT('',(8.398253274429,0.,11.069912663721));
#1026 = DIRECTION('',(0.,-1.,0.));
#1027 = DIRECTION('',(1.,0.,0.));
#1028 = ORIENTED_EDGE('',*,*,#980,.F.);
#1029 = ORIENTED_EDGE('',*,*,#1022,.F.);
#1030 = TOROIDAL_SURFACE('',#1031,8.398253274429,3.);
#1031 = AXIS2_PLACEMENT_3D('',#1032,#1033,#1034);
#1032 = CARTESIAN_POINT('',(0.,2.46E-15,11.069912663721));
#1033 = DIRECTION('',(0.,2.2E-16,1.));
#1034 = DIRECTION('',(1.,0.,0.));
#1035 = ( GEOMETRIC_REPRESENTATION_CONTEXT(3) 
GLOBAL_UNCERTAINTY_ASSIGNED_CONTEXT((#1039)) 
GLOBAL_UNIT_ASSIGNED_CONTEXT((#1036,#1037,#1038)) REPRESENTATION_CONTEXT
('Context #1','3D Context with UNIT and UNCERTAINTY') );
#1036 = ( LENGTH_UNIT() NAMED_UNIT(*) SI_UNIT(.MILLI.,.METRE.) );
#1037 = ( NAMED_UNIT(*) PLANE_ANGLE_UNIT() SI_UNIT($,.RADIAN.) );
#1038 = ( NAMED_UNIT(*) SI_UNIT($,.STERADIAN.) SOLID_ANGLE_UNIT() );
#1039 = UNCERTAINTY_MEASURE_WITH_UNIT(LENGTH_MEASURE(1.E-07),#1036,
  'distance_accuracy_value','confusion accuracy');
#1040 = PRODUCT_RELATED_PRODUCT_CATEGORY('part',$,(#7));
#1041 = MECHANICAL_DESIGN_GEOMETRIC_PRESENTATION_REPRESENTATION('',(
    #1042),#1035);
#1042 = STYLED_ITEM('color',(#1043),#15);
#1043 = PRESENTATION_STYLE_ASSIGNMENT((#1044,#1050));
#1044 = SURFACE_STYLE_USAGE(.BOTH.,#1045);
#1045 = SURFACE_SIDE_STYLE('',(#1046));
#1046 = SURFACE_STYLE_FILL_AREA(#1047);
#1047 = FILL_AREA_STYLE('',(#1048));
#1048 = FILL_AREA_STYLE_COLOUR('',#1049);
#1049 = COLOUR_RGB('',0.678431390124,0.709803936702,0.741176476869);
#1050 = CURVE_STYLE('',#1051,POSITIVE_LENGTH_MEASURE(0.1),#1052);
#1051 = DRAUGHTING_PRE_DEFINED_CURVE_FONT('continuous');
#1052 = COLOUR_RGB('',9.803921802644E-02,9.803921802644E-02,
  9.803921802644E-02);
ENDSEC;
END-ISO-10303-21;
